v 0.330719 -0.642359 1.541602
v -0.432479 0.578759 1.541602
v -0.432479 0.578759 1.571602
v 0.330719 -0.642359 1.571602
v 0.432479 -0.578759 1.541602
v -0.330719 0.642359 1.541602
v -0.330719 0.642359 1.571602
v 0.432479 -0.578759 1.571602
v 0.997386 -0.225692 1.692702
v 0.234188 0.995426 1.692702
v 0.234188 0.995426 1.722702
v 0.997386 -0.225692 1.722702
v 1.099146 -0.162092 1.692702
v 0.335947 1.059025 1.692702
v 0.335947 1.059025 1.722702
v 1.099146 -0.162092 1.722702
v 1.664053 0.190975 1.830525
v 0.900854 1.412092 1.830525
v 0.900854 1.412092 1.860525
v 1.664053 0.190975 1.860525
v 1.765812 0.254574 1.830525
v 1.002614 1.475692 1.830525
v 1.002614 1.475692 1.860525
v 1.765812 0.254574 1.860525
v 2.330719 0.607641 1.955106
v 1.567521 1.828759 1.955106
v 1.567521 1.828759 1.985106
v 2.330719 0.607641 1.985106
v 2.432479 0.671241 1.955106
v 1.669281 1.892359 1.955106
v 1.669281 1.892359 1.985106
v 2.432479 0.671241 1.985106
v 2.997386 1.024308 2.066482
v 2.234188 2.245426 2.066482
v 2.234188 2.245426 2.096482
v 2.997386 1.024308 2.096482
v 3.099146 1.087908 2.066482
v 2.335947 2.309025 2.066482
v 2.335947 2.309025 2.096482
v 3.099146 1.087908 2.096482
v 3.664053 1.440975 2.164683
v 2.900854 2.662092 2.164683
v 2.900854 2.662092 2.194683
v 3.664053 1.440975 2.194683
v 3.765812 1.504574 2.164683
v 3.002614 2.725692 2.164683
v 3.002614 2.725692 2.194683
v 3.765812 1.504574 2.194683
v 4.330719 1.857641 2.249735
v 3.567521 3.078759 2.249735
v 3.567521 3.078759 2.279735
v 4.330719 1.857641 2.279735
v 4.432479 1.921241 2.249735
v 3.669281 3.142359 2.249735
v 3.669281 3.142359 2.279735
v 4.432479 1.921241 2.279735
v 4.997386 2.274308 2.321663
v 4.234188 3.495426 2.321663
v 4.234188 3.495426 2.351663
v 4.997386 2.274308 2.351663
v 5.099146 2.337908 2.321663
v 4.335947 3.559025 2.321663
v 4.335947 3.559025 2.351663
v 5.099146 2.337908 2.351663
v 5.664053 2.690975 2.380486
v 4.900854 3.912092 2.380486
v 4.900854 3.912092 2.410486
v 5.664053 2.690975 2.410486
v 5.765812 2.754574 2.380486
v 5.002614 3.975692 2.380486
v 5.002614 3.975692 2.410486
v 5.765812 2.754574 2.410486
v 6.330719 3.107641 2.426220
v 5.567521 4.328759 2.426220
v 5.567521 4.328759 2.456220
v 6.330719 3.107641 2.456220
v 6.432479 3.171241 2.426220
v 5.669281 4.392359 2.426220
v 5.669281 4.392359 2.456220
v 6.432479 3.171241 2.456220
v 6.997386 3.524308 2.458879
v 6.234188 4.745426 2.458879
v 6.234188 4.745426 2.488879
v 6.997386 3.524308 2.488879
v 7.099146 3.587908 2.458879
v 6.335947 4.809025 2.458879
v 6.335947 4.809025 2.488879
v 7.099146 3.587908 2.488879
v 7.664053 3.940975 2.478470
v 6.900854 5.162092 2.478470
v 6.900854 5.162092 2.508470
v 7.664053 3.940975 2.508470
v 7.765812 4.004574 2.478470
v 7.002614 5.225692 2.478470
v 7.002614 5.225692 2.508470
v 7.765812 4.004574 2.508470
v 8.330719 4.357641 2.485000
v 7.567521 5.578759 2.485000
v 7.567521 5.578759 2.515000
v 8.330719 4.357641 2.515000
v 8.432479 4.421241 2.485000
v 7.669281 5.642359 2.485000
v 7.669281 5.642359 2.515000
v 8.432479 4.421241 2.515000
v 8.997386 4.774308 2.478470
v 8.234188 5.995426 2.478470
v 8.234188 5.995426 2.508470
v 8.997386 4.774308 2.508470
v 9.099146 4.837908 2.478470
v 8.335947 6.059025 2.478470
v 8.335947 6.059025 2.508470
v 9.099146 4.837908 2.508470
v 9.664053 5.190975 2.458879
v 8.900854 6.412092 2.458879
v 8.900854 6.412092 2.488879
v 9.664053 5.190975 2.488879
v 9.765812 5.254574 2.458879
v 9.002614 6.475692 2.458879
v 9.002614 6.475692 2.488879
v 9.765812 5.254574 2.488879
v 10.330719 5.607641 2.426220
v 9.567521 6.828759 2.426220
v 9.567521 6.828759 2.456220
v 10.330719 5.607641 2.456220
v 10.432479 5.671241 2.426220
v 9.669281 6.892359 2.426220
v 9.669281 6.892359 2.456220
v 10.432479 5.671241 2.456220
v 10.997386 6.024308 2.380486
v 10.234188 7.245426 2.380486
v 10.234188 7.245426 2.410486
v 10.997386 6.024308 2.410486
v 11.099146 6.087908 2.380486
v 10.335947 7.309025 2.380486
v 10.335947 7.309025 2.410486
v 11.099146 6.087908 2.410486
v 11.664053 6.440975 2.321663
v 10.900854 7.662092 2.321663
v 10.900854 7.662092 2.351663
v 11.664053 6.440975 2.351663
v 11.765812 6.504574 2.321663
v 11.002614 7.725692 2.321663
v 11.002614 7.725692 2.351663
v 11.765812 6.504574 2.351663
v 12.330719 6.857641 2.249735
v 11.567521 8.078759 2.249735
v 11.567521 8.078759 2.279735
v 12.330719 6.857641 2.279735
v 12.432479 6.921241 2.249735
v 11.669281 8.142359 2.249735
v 11.669281 8.142359 2.279735
v 12.432479 6.921241 2.279735
v 12.997386 7.274308 2.164683
v 12.234188 8.495426 2.164683
v 12.234188 8.495426 2.194683
v 12.997386 7.274308 2.194683
v 13.099146 7.337908 2.164683
v 12.335947 8.559025 2.164683
v 12.335947 8.559025 2.194683
v 13.099146 7.337908 2.194683
v 13.664053 7.690975 2.066482
v 12.900854 8.912092 2.066482
v 12.900854 8.912092 2.096482
v 13.664053 7.690975 2.096482
v 13.765812 7.754574 2.066482
v 13.002614 8.975692 2.066482
v 13.002614 8.975692 2.096482
v 13.765812 7.754574 2.096482
v 14.330719 8.107641 1.955106
v 13.567521 9.328759 1.955106
v 13.567521 9.328759 1.985106
v 14.330719 8.107641 1.985106
v 14.432479 8.171241 1.955106
v 13.669281 9.392359 1.955106
v 13.669281 9.392359 1.985106
v 14.432479 8.171241 1.985106
v 14.997386 8.524308 1.830525
v 14.234188 9.745426 1.830525
v 14.234188 9.745426 1.860525
v 14.997386 8.524308 1.860525
v 15.099146 8.587908 1.830525
v 14.335947 9.809025 1.830525
v 14.335947 9.809025 1.860525
v 15.099146 8.587908 1.860525
v 15.664053 8.940975 1.692702
v 14.900854 10.162092 1.692702
v 14.900854 10.162092 1.722702
v 15.664053 8.940975 1.722702
v 15.765812 9.004574 1.692702
v 15.002614 10.225692 1.692702
v 15.002614 10.225692 1.722702
v 15.765812 9.004574 1.722702
v 0.408099 -0.652959 1.556602
v 0.449439 -0.662499 1.556602
v 0.439899 -0.703839 1.556602
v 0.398559 -0.694299 1.556602
v 0.408099 -0.652959 2.256602
v 0.449439 -0.662499 2.256602
v 0.439899 -0.703839 2.256602
v 0.398559 -0.694299 2.256602
v 1.741433 0.180375 1.845525
v 1.782772 0.170835 1.845525
v 1.773232 0.129495 1.845525
v 1.731893 0.139035 1.845525
v 1.741433 0.180375 2.545525
v 1.782772 0.170835 2.545525
v 1.773232 0.129495 2.545525
v 1.731893 0.139035 2.545525
v 3.074766 1.013708 2.081482
v 3.116106 1.004168 2.081482
v 3.106566 0.962828 2.081482
v 3.065226 0.972368 2.081482
v 3.074766 1.013708 2.781482
v 3.116106 1.004168 2.781482
v 3.106566 0.962828 2.781482
v 3.065226 0.972368 2.781482
v 4.408099 1.847041 2.264735
v 4.449439 1.837501 2.264735
v 4.439899 1.796161 2.264735
v 4.398559 1.805701 2.264735
v 4.408099 1.847041 2.964735
v 4.449439 1.837501 2.964735
v 4.439899 1.796161 2.964735
v 4.398559 1.805701 2.964735
v 5.741433 2.680375 2.395486
v 5.782772 2.670835 2.395486
v 5.773232 2.629495 2.395486
v 5.731893 2.639035 2.395486
v 5.741433 2.680375 3.095486
v 5.782772 2.670835 3.095486
v 5.773232 2.629495 3.095486
v 5.731893 2.639035 3.095486
v 7.074766 3.513708 2.473879
v 7.116106 3.504168 2.473879
v 7.106566 3.462828 2.473879
v 7.065226 3.472368 2.473879
v 7.074766 3.513708 3.173879
v 7.116106 3.504168 3.173879
v 7.106566 3.462828 3.173879
v 7.065226 3.472368 3.173879
v 8.408099 4.347041 2.500000
v 8.449439 4.337501 2.500000
v 8.439899 4.296161 2.500000
v 8.398559 4.305701 2.500000
v 8.408099 4.347041 3.200000
v 8.449439 4.337501 3.200000
v 8.439899 4.296161 3.200000
v 8.398559 4.305701 3.200000
v 9.741433 5.180375 2.473879
v 9.782772 5.170835 2.473879
v 9.773232 5.129495 2.473879
v 9.731893 5.139035 2.473879
v 9.741433 5.180375 3.173879
v 9.782772 5.170835 3.173879
v 9.773232 5.129495 3.173879
v 9.731893 5.139035 3.173879
v 11.074766 6.013708 2.395486
v 11.116106 6.004168 2.395486
v 11.106566 5.962828 2.395486
v 11.065226 5.972368 2.395486
v 11.074766 6.013708 3.095486
v 11.116106 6.004168 3.095486
v 11.106566 5.962828 3.095486
v 11.065226 5.972368 3.095486
v 12.408099 6.847041 2.264735
v 12.449439 6.837501 2.264735
v 12.439899 6.796161 2.264735
v 12.398559 6.805701 2.264735
v 12.408099 6.847041 2.964735
v 12.449439 6.837501 2.964735
v 12.439899 6.796161 2.964735
v 12.398559 6.805701 2.964735
v 13.741433 7.680375 2.081482
v 13.782772 7.670835 2.081482
v 13.773232 7.629495 2.081482
v 13.731893 7.639035 2.081482
v 13.741433 7.680375 2.781482
v 13.782772 7.670835 2.781482
v 13.773232 7.629495 2.781482
v 13.731893 7.639035 2.781482
v 15.074766 8.513708 1.845525
v 15.116106 8.504168 1.845525
v 15.106566 8.462828 1.845525
v 15.065226 8.472368 1.845525
v 15.074766 8.513708 2.545525
v 15.116106 8.504168 2.545525
v 15.106566 8.462828 2.545525
v 15.065226 8.472368 2.545525
v -0.439899 0.703839 1.556602
v -0.398559 0.694299 1.556602
v -0.408099 0.652959 1.556602
v -0.449439 0.662499 1.556602
v -0.439899 0.703839 2.256602
v -0.398559 0.694299 2.256602
v -0.408099 0.652959 2.256602
v -0.449439 0.662499 2.256602
v 0.893434 1.537172 1.845525
v 0.934774 1.527632 1.845525
v 0.925234 1.486292 1.845525
v 0.883894 1.495832 1.845525
v 0.893434 1.537172 2.545525
v 0.934774 1.527632 2.545525
v 0.925234 1.486292 2.545525
v 0.883894 1.495832 2.545525
v 2.226768 2.370505 2.081482
v 2.268107 2.360965 2.081482
v 2.258567 2.319625 2.081482
v 2.217228 2.329165 2.081482
v 2.226768 2.370505 2.781482
v 2.268107 2.360965 2.781482
v 2.258567 2.319625 2.781482
v 2.217228 2.329165 2.781482
v 3.560101 3.203839 2.264735
v 3.601441 3.194299 2.264735
v 3.591901 3.152959 2.264735
v 3.550561 3.162499 2.264735
v 3.560101 3.203839 2.964735
v 3.601441 3.194299 2.964735
v 3.591901 3.152959 2.964735
v 3.550561 3.162499 2.964735
v 4.893434 4.037172 2.395486
v 4.934774 4.027632 2.395486
v 4.925234 3.986292 2.395486
v 4.883894 3.995832 2.395486
v 4.893434 4.037172 3.095486
v 4.934774 4.027632 3.095486
v 4.925234 3.986292 3.095486
v 4.883894 3.995832 3.095486
v 6.226768 4.870505 2.473879
v 6.268107 4.860965 2.473879
v 6.258567 4.819625 2.473879
v 6.217228 4.829165 2.473879
v 6.226768 4.870505 3.173879
v 6.268107 4.860965 3.173879
v 6.258567 4.819625 3.173879
v 6.217228 4.829165 3.173879
v 7.560101 5.703839 2.500000
v 7.601441 5.694299 2.500000
v 7.591901 5.652959 2.500000
v 7.550561 5.662499 2.500000
v 7.560101 5.703839 3.200000
v 7.601441 5.694299 3.200000
v 7.591901 5.652959 3.200000
v 7.550561 5.662499 3.200000
v 8.893434 6.537172 2.473879
v 8.934774 6.527632 2.473879
v 8.925234 6.486292 2.473879
v 8.883894 6.495832 2.473879
v 8.893434 6.537172 3.173879
v 8.934774 6.527632 3.173879
v 8.925234 6.486292 3.173879
v 8.883894 6.495832 3.173879
v 10.226768 7.370505 2.395486
v 10.268107 7.360965 2.395486
v 10.258567 7.319625 2.395486
v 10.217228 7.329165 2.395486
v 10.226768 7.370505 3.095486
v 10.268107 7.360965 3.095486
v 10.258567 7.319625 3.095486
v 10.217228 7.329165 3.095486
v 11.560101 8.203839 2.264735
v 11.601441 8.194299 2.264735
v 11.591901 8.152959 2.264735
v 11.550561 8.162499 2.264735
v 11.560101 8.203839 2.964735
v 11.601441 8.194299 2.964735
v 11.591901 8.152959 2.964735
v 11.550561 8.162499 2.964735
v 12.893434 9.037172 2.081482
v 12.934774 9.027632 2.081482
v 12.925234 8.986292 2.081482
v 12.883894 8.995832 2.081482
v 12.893434 9.037172 2.781482
v 12.934774 9.027632 2.781482
v 12.925234 8.986292 2.781482
v 12.883894 8.995832 2.781482
v 14.226768 9.870505 1.845525
v 14.268107 9.860965 1.845525
v 14.258567 9.819625 1.845525
v 14.217228 9.829165 1.845525
v 14.226768 9.870505 2.545525
v 14.268107 9.860965 2.545525
v 14.258567 9.819625 2.545525
v 14.217228 9.829165 2.545525
f 1 4 3 2
f 5 6 7 8
f 1 2 6 5
f 3 4 8 7
f 1 5 8 4
f 2 3 7 6
f 9 12 11 10
f 13 14 15 16
f 9 10 14 13
f 11 12 16 15
f 9 13 16 12
f 10 11 15 14
f 17 20 19 18
f 21 22 23 24
f 17 18 22 21
f 19 20 24 23
f 17 21 24 20
f 18 19 23 22
f 25 28 27 26
f 29 30 31 32
f 25 26 30 29
f 27 28 32 31
f 25 29 32 28
f 26 27 31 30
f 33 36 35 34
f 37 38 39 40
f 33 34 38 37
f 35 36 40 39
f 33 37 40 36
f 34 35 39 38
f 41 44 43 42
f 45 46 47 48
f 41 42 46 45
f 43 44 48 47
f 41 45 48 44
f 42 43 47 46
f 49 52 51 50
f 53 54 55 56
f 49 50 54 53
f 51 52 56 55
f 49 53 56 52
f 50 51 55 54
f 57 60 59 58
f 61 62 63 64
f 57 58 62 61
f 59 60 64 63
f 57 61 64 60
f 58 59 63 62
f 65 68 67 66
f 69 70 71 72
f 65 66 70 69
f 67 68 72 71
f 65 69 72 68
f 66 67 71 70
f 73 76 75 74
f 77 78 79 80
f 73 74 78 77
f 75 76 80 79
f 73 77 80 76
f 74 75 79 78
f 81 84 83 82
f 85 86 87 88
f 81 82 86 85
f 83 84 88 87
f 81 85 88 84
f 82 83 87 86
f 89 92 91 90
f 93 94 95 96
f 89 90 94 93
f 91 92 96 95
f 89 93 96 92
f 90 91 95 94
f 97 100 99 98
f 101 102 103 104
f 97 98 102 101
f 99 100 104 103
f 97 101 104 100
f 98 99 103 102
f 105 108 107 106
f 109 110 111 112
f 105 106 110 109
f 107 108 112 111
f 105 109 112 108
f 106 107 111 110
f 113 116 115 114
f 117 118 119 120
f 113 114 118 117
f 115 116 120 119
f 113 117 120 116
f 114 115 119 118
f 121 124 123 122
f 125 126 127 128
f 121 122 126 125
f 123 124 128 127
f 121 125 128 124
f 122 123 127 126
f 129 132 131 130
f 133 134 135 136
f 129 130 134 133
f 131 132 136 135
f 129 133 136 132
f 130 131 135 134
f 137 140 139 138
f 141 142 143 144
f 137 138 142 141
f 139 140 144 143
f 137 141 144 140
f 138 139 143 142
f 145 148 147 146
f 149 150 151 152
f 145 146 150 149
f 147 148 152 151
f 145 149 152 148
f 146 147 151 150
f 153 156 155 154
f 157 158 159 160
f 153 154 158 157
f 155 156 160 159
f 153 157 160 156
f 154 155 159 158
f 161 164 163 162
f 165 166 167 168
f 161 162 166 165
f 163 164 168 167
f 161 165 168 164
f 162 163 167 166
f 169 172 171 170
f 173 174 175 176
f 169 170 174 173
f 171 172 176 175
f 169 173 176 172
f 170 171 175 174
f 177 180 179 178
f 181 182 183 184
f 177 178 182 181
f 179 180 184 183
f 177 181 184 180
f 178 179 183 182
f 185 188 187 186
f 189 190 191 192
f 185 186 190 189
f 187 188 192 191
f 185 189 192 188
f 186 187 191 190
f 193 194 198 197
f 194 195 199 198
f 195 196 200 199
f 196 193 197 200
f 196 195 194 193
f 197 198 199 200
f 201 202 206 205
f 202 203 207 206
f 203 204 208 207
f 204 201 205 208
f 204 203 202 201
f 205 206 207 208
f 209 210 214 213
f 210 211 215 214
f 211 212 216 215
f 212 209 213 216
f 212 211 210 209
f 213 214 215 216
f 217 218 222 221
f 218 219 223 222
f 219 220 224 223
f 220 217 221 224
f 220 219 218 217
f 221 222 223 224
f 225 226 230 229
f 226 227 231 230
f 227 228 232 231
f 228 225 229 232
f 228 227 226 225
f 229 230 231 232
f 233 234 238 237
f 234 235 239 238
f 235 236 240 239
f 236 233 237 240
f 236 235 234 233
f 237 238 239 240
f 241 242 246 245
f 242 243 247 246
f 243 244 248 247
f 244 241 245 248
f 244 243 242 241
f 245 246 247 248
f 249 250 254 253
f 250 251 255 254
f 251 252 256 255
f 252 249 253 256
f 252 251 250 249
f 253 254 255 256
f 257 258 262 261
f 258 259 263 262
f 259 260 264 263
f 260 257 261 264
f 260 259 258 257
f 261 262 263 264
f 265 266 270 269
f 266 267 271 270
f 267 268 272 271
f 268 265 269 272
f 268 267 266 265
f 269 270 271 272
f 273 274 278 277
f 274 275 279 278
f 275 276 280 279
f 276 273 277 280
f 276 275 274 273
f 277 278 279 280
f 281 282 286 285
f 282 283 287 286
f 283 284 288 287
f 284 281 285 288
f 284 283 282 281
f 285 286 287 288
f 289 290 294 293
f 290 291 295 294
f 291 292 296 295
f 292 289 293 296
f 292 291 290 289
f 293 294 295 296
f 297 298 302 301
f 298 299 303 302
f 299 300 304 303
f 300 297 301 304
f 300 299 298 297
f 301 302 303 304
f 305 306 310 309
f 306 307 311 310
f 307 308 312 311
f 308 305 309 312
f 308 307 306 305
f 309 310 311 312
f 313 314 318 317
f 314 315 319 318
f 315 316 320 319
f 316 313 317 320
f 316 315 314 313
f 317 318 319 320
f 321 322 326 325
f 322 323 327 326
f 323 324 328 327
f 324 321 325 328
f 324 323 322 321
f 325 326 327 328
f 329 330 334 333
f 330 331 335 334
f 331 332 336 335
f 332 329 333 336
f 332 331 330 329
f 333 334 335 336
f 337 338 342 341
f 338 339 343 342
f 339 340 344 343
f 340 337 341 344
f 340 339 338 337
f 341 342 343 344
f 345 346 350 349
f 346 347 351 350
f 347 348 352 351
f 348 345 349 352
f 348 347 346 345
f 349 350 351 352
f 353 354 358 357
f 354 355 359 358
f 355 356 360 359
f 356 353 357 360
f 356 355 354 353
f 357 358 359 360
f 361 362 366 365
f 362 363 367 366
f 363 364 368 367
f 364 361 365 368
f 364 363 362 361
f 365 366 367 368
f 369 370 374 373
f 370 371 375 374
f 371 372 376 375
f 372 369 373 376
f 372 371 370 369
f 373 374 375 376
f 377 378 382 381
f 378 379 383 382
f 379 380 384 383
f 380 377 381 384
f 380 379 378 377
f 381 382 383 384
