<svg xmlns="http://www.w3.org/2000/svg" width="1000" height="600" viewBox="0 0 1000 600"><rect width="1000" height="600" fill="#f3f0e8" /><text x="28" y="34" font-family="Arial" font-size="20" fill="#202020">TerrainBridge_rope - side</text><polygon points="90.5,519.1 88.1,519.1 88.1,479.4 90.5,479.4" fill="#8a5a32" fill-opacity="0.62" stroke="#1f2528" stroke-width="0.8" /><polygon points="91.0,519.1 90.5,519.1 90.5,479.4 91.0,479.4" fill="#8a5a32" fill-opacity="0.62" stroke="#1f2528" stroke-width="0.8" /><polygon points="88.1,519.1 90.5,519.1 91.0,519.1 88.7,519.1" fill="#8a5a32" fill-opacity="0.62" stroke="#1f2528" stroke-width="0.8" /><polygon points="88.7,479.4 91.0,479.4 90.5,479.4 88.1,479.4" fill="#8a5a32" fill-opacity="0.62" stroke="#1f2528" stroke-width="0.8" /><polygon points="88.1,519.1 88.7,519.1 88.7,479.4 88.1,479.4" fill="#8a5a32" fill-opacity="0.62" stroke="#1f2528" stroke-width="0.8" /><polygon points="88.7,519.1 91.0,519.1 91.0,479.4 88.7,479.4" fill="#8a5a32" fill-opacity="0.62" stroke="#1f2528" stroke-width="0.8" /><polygon points="84.3,520.0 90.0,520.0 90.0,518.3 84.3,518.3" fill="#8a5a32" fill-opacity="0.62" stroke="#1f2528" stroke-width="0.8" /><polygon points="122.1,511.4 127.9,511.4 127.9,509.7 122.1,509.7" fill="#8a5a32" fill-opacity="0.62" stroke="#1f2528" stroke-width="0.8" /><polygon points="84.3,520.0 84.3,518.3 41.0,518.3 41.0,520.0" fill="#8a5a32" fill-opacity="0.62" stroke="#1f2528" stroke-width="0.8" /><polygon points="84.3,520.0 41.0,520.0 46.7,520.0 90.0,520.0" fill="#8a5a32" fill-opacity="0.62" stroke="#1f2528" stroke-width="0.8" /><polygon points="41.0,518.3 84.3,518.3 90.0,518.3 46.7,518.3" fill="#8a5a32" fill-opacity="0.62" stroke="#1f2528" stroke-width="0.8" /><polygon points="90.0,520.0 46.7,520.0 46.7,518.3 90.0,518.3" fill="#8a5a32" fill-opacity="0.62" stroke="#1f2528" stroke-width="0.8" /><polygon points="166.1,502.8 163.8,502.8 163.8,463.0 166.1,463.0" fill="#8a5a32" fill-opacity="0.62" stroke="#1f2528" stroke-width="0.8" /><polygon points="166.6,502.8 166.1,502.8 166.1,463.0 166.6,463.0" fill="#8a5a32" fill-opacity="0.62" stroke="#1f2528" stroke-width="0.8" /><polygon points="163.8,502.8 166.1,502.8 166.6,502.8 164.3,502.8" fill="#8a5a32" fill-opacity="0.62" stroke="#1f2528" stroke-width="0.8" /><polygon points="164.3,463.0 166.6,463.0 166.1,463.0 163.8,463.0" fill="#8a5a32" fill-opacity="0.62" stroke="#1f2528" stroke-width="0.8" /><polygon points="163.8,502.8 164.3,502.8 164.3,463.0 163.8,463.0" fill="#8a5a32" fill-opacity="0.62" stroke="#1f2528" stroke-width="0.8" /><polygon points="164.3,502.8 166.6,502.8 166.6,463.0 164.3,463.0" fill="#8a5a32" fill-opacity="0.62" stroke="#1f2528" stroke-width="0.8" /><polygon points="159.9,503.6 165.7,503.6 165.7,501.9 159.9,501.9" fill="#8a5a32" fill-opacity="0.62" stroke="#1f2528" stroke-width="0.8" /><polygon points="122.1,511.4 122.1,509.7 78.8,509.7 78.8,511.4" fill="#8a5a32" fill-opacity="0.62" stroke="#1f2528" stroke-width="0.8" /><polygon points="122.1,511.4 78.8,511.4 84.6,511.4 127.9,511.4" fill="#8a5a32" fill-opacity="0.62" stroke="#1f2528" stroke-width="0.8" /><polygon points="78.8,509.7 122.1,509.7 127.9,509.7 84.6,509.7" fill="#8a5a32" fill-opacity="0.62" stroke="#1f2528" stroke-width="0.8" /><polygon points="127.9,511.4 84.6,511.4 84.6,509.7 127.9,509.7" fill="#8a5a32" fill-opacity="0.62" stroke="#1f2528" stroke-width="0.8" /><polygon points="41.0,520.0 41.0,518.3 46.7,518.3 46.7,520.0" fill="#8a5a32" fill-opacity="0.62" stroke="#1f2528" stroke-width="0.8" /><polygon points="197.7,496.5 203.5,496.5 203.5,494.8 197.7,494.8" fill="#8a5a32" fill-opacity="0.62" stroke="#1f2528" stroke-width="0.8" /><polygon points="42.3,519.1 40.0,519.1 40.0,479.4 42.3,479.4" fill="#8a5a32" fill-opacity="0.62" stroke="#1f2528" stroke-width="0.8" /><polygon points="42.9,519.1 42.3,519.1 42.3,479.4 42.9,479.4" fill="#8a5a32" fill-opacity="0.62" stroke="#1f2528" stroke-width="0.8" /><polygon points="40.0,519.1 42.3,519.1 42.9,519.1 40.5,519.1" fill="#8a5a32" fill-opacity="0.62" stroke="#1f2528" stroke-width="0.8" /><polygon points="40.5,479.4 42.9,479.4 42.3,479.4 40.0,479.4" fill="#8a5a32" fill-opacity="0.62" stroke="#1f2528" stroke-width="0.8" /><polygon points="40.0,519.1 40.5,519.1 40.5,479.4 40.0,479.4" fill="#8a5a32" fill-opacity="0.62" stroke="#1f2528" stroke-width="0.8" /><polygon points="40.5,519.1 42.9,519.1 42.9,479.4 40.5,479.4" fill="#8a5a32" fill-opacity="0.62" stroke="#1f2528" stroke-width="0.8" /><polygon points="159.9,503.6 159.9,501.9 116.6,501.9 116.6,503.6" fill="#8a5a32" fill-opacity="0.62" stroke="#1f2528" stroke-width="0.8" /><polygon points="159.9,503.6 116.6,503.6 122.4,503.6 165.7,503.6" fill="#8a5a32" fill-opacity="0.62" stroke="#1f2528" stroke-width="0.8" /><polygon points="116.6,501.9 159.9,501.9 165.7,501.9 122.4,501.9" fill="#8a5a32" fill-opacity="0.62" stroke="#1f2528" stroke-width="0.8" /><polygon points="165.7,503.6 122.4,503.6 122.4,501.9 165.7,501.9" fill="#8a5a32" fill-opacity="0.62" stroke="#1f2528" stroke-width="0.8" /><polygon points="241.8,489.4 239.4,489.4 239.4,449.7 241.8,449.7" fill="#8a5a32" fill-opacity="0.62" stroke="#1f2528" stroke-width="0.8" /><polygon points="242.3,489.4 241.8,489.4 241.8,449.7 242.3,449.7" fill="#8a5a32" fill-opacity="0.62" stroke="#1f2528" stroke-width="0.8" /><polygon points="239.4,489.4 241.8,489.4 242.3,489.4 240.0,489.4" fill="#8a5a32" fill-opacity="0.62" stroke="#1f2528" stroke-width="0.8" /><polygon points="240.0,449.7 242.3,449.7 241.8,449.7 239.4,449.7" fill="#8a5a32" fill-opacity="0.62" stroke="#1f2528" stroke-width="0.8" /><polygon points="239.4,489.4 240.0,489.4 240.0,449.7 239.4,449.7" fill="#8a5a32" fill-opacity="0.62" stroke="#1f2528" stroke-width="0.8" /><polygon points="240.0,489.4 242.3,489.4 242.3,449.7 240.0,449.7" fill="#8a5a32" fill-opacity="0.62" stroke="#1f2528" stroke-width="0.8" /><polygon points="78.8,511.4 78.8,509.7 84.6,509.7 84.6,511.4" fill="#8a5a32" fill-opacity="0.62" stroke="#1f2528" stroke-width="0.8" /><polygon points="235.6,490.2 241.3,490.2 241.3,488.5 235.6,488.5" fill="#8a5a32" fill-opacity="0.62" stroke="#1f2528" stroke-width="0.8" /><polygon points="197.7,496.5 197.7,494.8 154.4,494.8 154.4,496.5" fill="#8a5a32" fill-opacity="0.62" stroke="#1f2528" stroke-width="0.8" /><polygon points="197.7,496.5 154.4,496.5 160.2,496.5 203.5,496.5" fill="#8a5a32" fill-opacity="0.62" stroke="#1f2528" stroke-width="0.8" /><polygon points="154.4,494.8 197.7,494.8 203.5,494.8 160.2,494.8" fill="#8a5a32" fill-opacity="0.62" stroke="#1f2528" stroke-width="0.8" /><polygon points="203.5,496.5 160.2,496.5 160.2,494.8 203.5,494.8" fill="#8a5a32" fill-opacity="0.62" stroke="#1f2528" stroke-width="0.8" /><polygon points="116.6,503.6 116.6,501.9 122.4,501.9 122.4,503.6" fill="#8a5a32" fill-opacity="0.62" stroke="#1f2528" stroke-width="0.8" /><polygon points="273.4,484.6 279.2,484.6 279.2,482.9 273.4,482.9" fill="#8a5a32" fill-opacity="0.62" stroke="#1f2528" stroke-width="0.8" /><polygon points="118.0,502.8 115.6,502.8 115.6,463.0 118.0,463.0" fill="#8a5a32" fill-opacity="0.62" stroke="#1f2528" stroke-width="0.8" /><polygon points="118.5,502.8 118.0,502.8 118.0,463.0 118.5,463.0" fill="#8a5a32" fill-opacity="0.62" stroke="#1f2528" stroke-width="0.8" /><polygon points="115.6,502.8 118.0,502.8 118.5,502.8 116.2,502.8" fill="#8a5a32" fill-opacity="0.62" stroke="#1f2528" stroke-width="0.8" /><polygon points="116.2,463.0 118.5,463.0 118.0,463.0 115.6,463.0" fill="#8a5a32" fill-opacity="0.62" stroke="#1f2528" stroke-width="0.8" /><polygon points="115.6,502.8 116.2,502.8 116.2,463.0 115.6,463.0" fill="#8a5a32" fill-opacity="0.62" stroke="#1f2528" stroke-width="0.8" /><polygon points="116.2,502.8 118.5,502.8 118.5,463.0 116.2,463.0" fill="#8a5a32" fill-opacity="0.62" stroke="#1f2528" stroke-width="0.8" /><polygon points="235.6,490.2 235.6,488.5 192.3,488.5 192.3,490.2" fill="#8a5a32" fill-opacity="0.62" stroke="#1f2528" stroke-width="0.8" /><polygon points="235.6,490.2 192.3,490.2 198.0,490.2 241.3,490.2" fill="#8a5a32" fill-opacity="0.62" stroke="#1f2528" stroke-width="0.8" /><polygon points="192.3,488.5 235.6,488.5 241.3,488.5 198.0,488.5" fill="#8a5a32" fill-opacity="0.62" stroke="#1f2528" stroke-width="0.8" /><polygon points="241.3,490.2 198.0,490.2 198.0,488.5 241.3,488.5" fill="#8a5a32" fill-opacity="0.62" stroke="#1f2528" stroke-width="0.8" /><polygon points="317.4,479.0 315.1,479.0 315.1,439.3 317.4,439.3" fill="#8a5a32" fill-opacity="0.62" stroke="#1f2528" stroke-width="0.8" /><polygon points="317.9,479.0 317.4,479.0 317.4,439.3 317.9,439.3" fill="#8a5a32" fill-opacity="0.62" stroke="#1f2528" stroke-width="0.8" /><polygon points="315.1,479.0 317.4,479.0 317.9,479.0 315.6,479.0" fill="#8a5a32" fill-opacity="0.62" stroke="#1f2528" stroke-width="0.8" /><polygon points="315.6,439.3 317.9,439.3 317.4,439.3 315.1,439.3" fill="#8a5a32" fill-opacity="0.62" stroke="#1f2528" stroke-width="0.8" /><polygon points="315.1,479.0 315.6,479.0 315.6,439.3 315.1,439.3" fill="#8a5a32" fill-opacity="0.62" stroke="#1f2528" stroke-width="0.8" /><polygon points="315.6,479.0 317.9,479.0 317.9,439.3 315.6,439.3" fill="#8a5a32" fill-opacity="0.62" stroke="#1f2528" stroke-width="0.8" /><polygon points="154.4,496.5 154.4,494.8 160.2,494.8 160.2,496.5" fill="#8a5a32" fill-opacity="0.62" stroke="#1f2528" stroke-width="0.8" /><polygon points="311.2,479.8 317.0,479.8 317.0,478.1 311.2,478.1" fill="#8a5a32" fill-opacity="0.62" stroke="#1f2528" stroke-width="0.8" /><polygon points="273.4,484.6 273.4,482.9 230.1,482.9 230.1,484.6" fill="#8a5a32" fill-opacity="0.62" stroke="#1f2528" stroke-width="0.8" /><polygon points="273.4,484.6 230.1,484.6 235.9,484.6 279.2,484.6" fill="#8a5a32" fill-opacity="0.62" stroke="#1f2528" stroke-width="0.8" /><polygon points="230.1,482.9 273.4,482.9 279.2,482.9 235.9,482.9" fill="#8a5a32" fill-opacity="0.62" stroke="#1f2528" stroke-width="0.8" /><polygon points="279.2,484.6 235.9,484.6 235.9,482.9 279.2,482.9" fill="#8a5a32" fill-opacity="0.62" stroke="#1f2528" stroke-width="0.8" /><polygon points="192.3,490.2 192.3,488.5 198.0,488.5 198.0,490.2" fill="#8a5a32" fill-opacity="0.62" stroke="#1f2528" stroke-width="0.8" /><polygon points="349.0,475.7 354.8,475.7 354.8,474.0 349.0,474.0" fill="#8a5a32" fill-opacity="0.62" stroke="#1f2528" stroke-width="0.8" /><polygon points="193.6,489.4 191.3,489.4 191.3,449.7 193.6,449.7" fill="#8a5a32" fill-opacity="0.62" stroke="#1f2528" stroke-width="0.8" /><polygon points="194.2,489.4 193.6,489.4 193.6,449.7 194.2,449.7" fill="#8a5a32" fill-opacity="0.62" stroke="#1f2528" stroke-width="0.8" /><polygon points="191.3,489.4 193.6,489.4 194.2,489.4 191.8,489.4" fill="#8a5a32" fill-opacity="0.62" stroke="#1f2528" stroke-width="0.8" /><polygon points="191.8,449.7 194.2,449.7 193.6,449.7 191.3,449.7" fill="#8a5a32" fill-opacity="0.62" stroke="#1f2528" stroke-width="0.8" /><polygon points="191.3,489.4 191.8,489.4 191.8,449.7 191.3,449.7" fill="#8a5a32" fill-opacity="0.62" stroke="#1f2528" stroke-width="0.8" /><polygon points="191.8,489.4 194.2,489.4 194.2,449.7 191.8,449.7" fill="#8a5a32" fill-opacity="0.62" stroke="#1f2528" stroke-width="0.8" /><polygon points="311.2,479.8 311.2,478.1 267.9,478.1 267.9,479.8" fill="#8a5a32" fill-opacity="0.62" stroke="#1f2528" stroke-width="0.8" /><polygon points="311.2,479.8 267.9,479.8 273.7,479.8 317.0,479.8" fill="#8a5a32" fill-opacity="0.62" stroke="#1f2528" stroke-width="0.8" /><polygon points="267.9,478.1 311.2,478.1 317.0,478.1 273.7,478.1" fill="#8a5a32" fill-opacity="0.62" stroke="#1f2528" stroke-width="0.8" /><polygon points="317.0,479.8 273.7,479.8 273.7,478.1 317.0,478.1" fill="#8a5a32" fill-opacity="0.62" stroke="#1f2528" stroke-width="0.8" /><polygon points="393.1,471.6 390.7,471.6 390.7,431.8 393.1,431.8" fill="#8a5a32" fill-opacity="0.62" stroke="#1f2528" stroke-width="0.8" /><polygon points="393.6,471.6 393.1,471.6 393.1,431.8 393.6,431.8" fill="#8a5a32" fill-opacity="0.62" stroke="#1f2528" stroke-width="0.8" /><polygon points="390.7,471.6 393.1,471.6 393.6,471.6 391.2,471.6" fill="#8a5a32" fill-opacity="0.62" stroke="#1f2528" stroke-width="0.8" /><polygon points="391.2,431.8 393.6,431.8 393.1,431.8 390.7,431.8" fill="#8a5a32" fill-opacity="0.62" stroke="#1f2528" stroke-width="0.8" /><polygon points="390.7,471.6 391.2,471.6 391.2,431.8 390.7,431.8" fill="#8a5a32" fill-opacity="0.62" stroke="#1f2528" stroke-width="0.8" /><polygon points="391.2,471.6 393.6,471.6 393.6,431.8 391.2,431.8" fill="#8a5a32" fill-opacity="0.62" stroke="#1f2528" stroke-width="0.8" /><polygon points="230.1,484.6 230.1,482.9 235.9,482.9 235.9,484.6" fill="#8a5a32" fill-opacity="0.62" stroke="#1f2528" stroke-width="0.8" /><polygon points="386.9,472.4 392.6,472.4 392.6,470.7 386.9,470.7" fill="#8a5a32" fill-opacity="0.62" stroke="#1f2528" stroke-width="0.8" /><polygon points="349.0,475.7 349.0,474.0 305.7,474.0 305.7,475.7" fill="#8a5a32" fill-opacity="0.62" stroke="#1f2528" stroke-width="0.8" /><polygon points="349.0,475.7 305.7,475.7 311.5,475.7 354.8,475.7" fill="#8a5a32" fill-opacity="0.62" stroke="#1f2528" stroke-width="0.8" /><polygon points="305.7,474.0 349.0,474.0 354.8,474.0 311.5,474.0" fill="#8a5a32" fill-opacity="0.62" stroke="#1f2528" stroke-width="0.8" /><polygon points="354.8,475.7 311.5,475.7 311.5,474.0 354.8,474.0" fill="#8a5a32" fill-opacity="0.62" stroke="#1f2528" stroke-width="0.8" /><polygon points="267.9,479.8 267.9,478.1 273.7,478.1 273.7,479.8" fill="#8a5a32" fill-opacity="0.62" stroke="#1f2528" stroke-width="0.8" /><polygon points="424.7,469.8 430.5,469.8 430.5,468.1 424.7,468.1" fill="#8a5a32" fill-opacity="0.62" stroke="#1f2528" stroke-width="0.8" /><polygon points="269.3,479.0 266.9,479.0 266.9,439.3 269.3,439.3" fill="#8a5a32" fill-opacity="0.62" stroke="#1f2528" stroke-width="0.8" /><polygon points="269.8,479.0 269.3,479.0 269.3,439.3 269.8,439.3" fill="#8a5a32" fill-opacity="0.62" stroke="#1f2528" stroke-width="0.8" /><polygon points="266.9,479.0 269.3,479.0 269.8,479.0 267.5,479.0" fill="#8a5a32" fill-opacity="0.62" stroke="#1f2528" stroke-width="0.8" /><polygon points="267.5,439.3 269.8,439.3 269.3,439.3 266.9,439.3" fill="#8a5a32" fill-opacity="0.62" stroke="#1f2528" stroke-width="0.8" /><polygon points="266.9,479.0 267.5,479.0 267.5,439.3 266.9,439.3" fill="#8a5a32" fill-opacity="0.62" stroke="#1f2528" stroke-width="0.8" /><polygon points="267.5,479.0 269.8,479.0 269.8,439.3 267.5,439.3" fill="#8a5a32" fill-opacity="0.62" stroke="#1f2528" stroke-width="0.8" /><polygon points="386.9,472.4 386.9,470.7 343.6,470.7 343.6,472.4" fill="#8a5a32" fill-opacity="0.62" stroke="#1f2528" stroke-width="0.8" /><polygon points="386.9,472.4 343.6,472.4 349.3,472.4 392.6,472.4" fill="#8a5a32" fill-opacity="0.62" stroke="#1f2528" stroke-width="0.8" /><polygon points="343.6,470.7 386.9,470.7 392.6,470.7 349.3,470.7" fill="#8a5a32" fill-opacity="0.62" stroke="#1f2528" stroke-width="0.8" /><polygon points="392.6,472.4 349.3,472.4 349.3,470.7 392.6,470.7" fill="#8a5a32" fill-opacity="0.62" stroke="#1f2528" stroke-width="0.8" /><polygon points="468.7,467.1 466.4,467.1 466.4,427.4 468.7,427.4" fill="#8a5a32" fill-opacity="0.62" stroke="#1f2528" stroke-width="0.8" /><polygon points="469.2,467.1 468.7,467.1 468.7,427.4 469.2,427.4" fill="#8a5a32" fill-opacity="0.62" stroke="#1f2528" stroke-width="0.8" /><polygon points="466.4,467.1 468.7,467.1 469.2,467.1 466.9,467.1" fill="#8a5a32" fill-opacity="0.62" stroke="#1f2528" stroke-width="0.8" /><polygon points="466.9,427.4 469.2,427.4 468.7,427.4 466.4,427.4" fill="#8a5a32" fill-opacity="0.62" stroke="#1f2528" stroke-width="0.8" /><polygon points="466.4,467.1 466.9,467.1 466.9,427.4 466.4,427.4" fill="#8a5a32" fill-opacity="0.62" stroke="#1f2528" stroke-width="0.8" /><polygon points="466.9,467.1 469.2,467.1 469.2,427.4 466.9,427.4" fill="#8a5a32" fill-opacity="0.62" stroke="#1f2528" stroke-width="0.8" /><polygon points="305.7,475.7 305.7,474.0 311.5,474.0 311.5,475.7" fill="#8a5a32" fill-opacity="0.62" stroke="#1f2528" stroke-width="0.8" /><polygon points="462.5,468.0 468.3,468.0 468.3,466.3 462.5,466.3" fill="#8a5a32" fill-opacity="0.62" stroke="#1f2528" stroke-width="0.8" /><polygon points="424.7,469.8 424.7,468.1 381.4,468.1 381.4,469.8" fill="#8a5a32" fill-opacity="0.62" stroke="#1f2528" stroke-width="0.8" /><polygon points="424.7,469.8 381.4,469.8 387.2,469.8 430.5,469.8" fill="#8a5a32" fill-opacity="0.62" stroke="#1f2528" stroke-width="0.8" /><polygon points="381.4,468.1 424.7,468.1 430.5,468.1 387.2,468.1" fill="#8a5a32" fill-opacity="0.62" stroke="#1f2528" stroke-width="0.8" /><polygon points="430.5,469.8 387.2,469.8 387.2,468.1 430.5,468.1" fill="#8a5a32" fill-opacity="0.62" stroke="#1f2528" stroke-width="0.8" /><polygon points="343.6,472.4 343.6,470.7 349.3,470.7 349.3,472.4" fill="#8a5a32" fill-opacity="0.62" stroke="#1f2528" stroke-width="0.8" /><polygon points="500.3,466.8 506.1,466.8 506.1,465.1 500.3,465.1" fill="#8a5a32" fill-opacity="0.62" stroke="#1f2528" stroke-width="0.8" /><polygon points="344.9,471.6 342.6,471.6 342.6,431.8 344.9,431.8" fill="#8a5a32" fill-opacity="0.62" stroke="#1f2528" stroke-width="0.8" /><polygon points="345.5,471.6 344.9,471.6 344.9,431.8 345.5,431.8" fill="#8a5a32" fill-opacity="0.62" stroke="#1f2528" stroke-width="0.8" /><polygon points="342.6,471.6 344.9,471.6 345.5,471.6 343.1,471.6" fill="#8a5a32" fill-opacity="0.62" stroke="#1f2528" stroke-width="0.8" /><polygon points="343.1,431.8 345.5,431.8 344.9,431.8 342.6,431.8" fill="#8a5a32" fill-opacity="0.62" stroke="#1f2528" stroke-width="0.8" /><polygon points="342.6,471.6 343.1,471.6 343.1,431.8 342.6,431.8" fill="#8a5a32" fill-opacity="0.62" stroke="#1f2528" stroke-width="0.8" /><polygon points="343.1,471.6 345.5,471.6 345.5,431.8 343.1,431.8" fill="#8a5a32" fill-opacity="0.62" stroke="#1f2528" stroke-width="0.8" /><polygon points="462.5,468.0 462.5,466.3 419.2,466.3 419.2,468.0" fill="#8a5a32" fill-opacity="0.62" stroke="#1f2528" stroke-width="0.8" /><polygon points="462.5,468.0 419.2,468.0 425.0,468.0 468.3,468.0" fill="#8a5a32" fill-opacity="0.62" stroke="#1f2528" stroke-width="0.8" /><polygon points="419.2,466.3 462.5,466.3 468.3,466.3 425.0,466.3" fill="#8a5a32" fill-opacity="0.62" stroke="#1f2528" stroke-width="0.8" /><polygon points="468.3,468.0 425.0,468.0 425.0,466.3 468.3,466.3" fill="#8a5a32" fill-opacity="0.62" stroke="#1f2528" stroke-width="0.8" /><polygon points="544.4,465.6 542.0,465.6 542.0,425.9 544.4,425.9" fill="#8a5a32" fill-opacity="0.62" stroke="#1f2528" stroke-width="0.8" /><polygon points="544.9,465.6 544.4,465.6 544.4,425.9 544.9,425.9" fill="#8a5a32" fill-opacity="0.62" stroke="#1f2528" stroke-width="0.8" /><polygon points="542.0,465.6 544.4,465.6 544.9,465.6 542.5,465.6" fill="#8a5a32" fill-opacity="0.62" stroke="#1f2528" stroke-width="0.8" /><polygon points="542.5,425.9 544.9,425.9 544.4,425.9 542.0,425.9" fill="#8a5a32" fill-opacity="0.62" stroke="#1f2528" stroke-width="0.8" /><polygon points="542.0,465.6 542.5,465.6 542.5,425.9 542.0,425.9" fill="#8a5a32" fill-opacity="0.62" stroke="#1f2528" stroke-width="0.8" /><polygon points="542.5,465.6 544.9,465.6 544.9,425.9 542.5,425.9" fill="#8a5a32" fill-opacity="0.62" stroke="#1f2528" stroke-width="0.8" /><polygon points="381.4,469.8 381.4,468.1 387.2,468.1 387.2,469.8" fill="#8a5a32" fill-opacity="0.62" stroke="#1f2528" stroke-width="0.8" /><polygon points="538.2,466.5 543.9,466.5 543.9,464.8 538.2,464.8" fill="#8a5a32" fill-opacity="0.62" stroke="#1f2528" stroke-width="0.8" /><polygon points="500.3,466.8 500.3,465.1 457.0,465.1 457.0,466.8" fill="#8a5a32" fill-opacity="0.62" stroke="#1f2528" stroke-width="0.8" /><polygon points="500.3,466.8 457.0,466.8 462.8,466.8 506.1,466.8" fill="#8a5a32" fill-opacity="0.62" stroke="#1f2528" stroke-width="0.8" /><polygon points="457.0,465.1 500.3,465.1 506.1,465.1 462.8,465.1" fill="#8a5a32" fill-opacity="0.62" stroke="#1f2528" stroke-width="0.8" /><polygon points="506.1,466.8 462.8,466.8 462.8,465.1 506.1,465.1" fill="#8a5a32" fill-opacity="0.62" stroke="#1f2528" stroke-width="0.8" /><polygon points="419.2,468.0 419.2,466.3 425.0,466.3 425.0,468.0" fill="#8a5a32" fill-opacity="0.62" stroke="#1f2528" stroke-width="0.8" /><polygon points="576.0,466.8 581.8,466.8 581.8,465.1 576.0,465.1" fill="#8a5a32" fill-opacity="0.62" stroke="#1f2528" stroke-width="0.8" /><polygon points="420.6,467.1 418.2,467.1 418.2,427.4 420.6,427.4" fill="#8a5a32" fill-opacity="0.62" stroke="#1f2528" stroke-width="0.8" /><polygon points="421.1,467.1 420.6,467.1 420.6,427.4 421.1,427.4" fill="#8a5a32" fill-opacity="0.62" stroke="#1f2528" stroke-width="0.8" /><polygon points="418.2,467.1 420.6,467.1 421.1,467.1 418.8,467.1" fill="#8a5a32" fill-opacity="0.62" stroke="#1f2528" stroke-width="0.8" /><polygon points="418.8,427.4 421.1,427.4 420.6,427.4 418.2,427.4" fill="#8a5a32" fill-opacity="0.62" stroke="#1f2528" stroke-width="0.8" /><polygon points="418.2,467.1 418.8,467.1 418.8,427.4 418.2,427.4" fill="#8a5a32" fill-opacity="0.62" stroke="#1f2528" stroke-width="0.8" /><polygon points="418.8,467.1 421.1,467.1 421.1,427.4 418.8,427.4" fill="#8a5a32" fill-opacity="0.62" stroke="#1f2528" stroke-width="0.8" /><polygon points="538.2,466.5 538.2,464.8 494.9,464.8 494.9,466.5" fill="#8a5a32" fill-opacity="0.62" stroke="#1f2528" stroke-width="0.8" /><polygon points="538.2,466.5 494.9,466.5 500.6,466.5 543.9,466.5" fill="#8a5a32" fill-opacity="0.62" stroke="#1f2528" stroke-width="0.8" /><polygon points="494.9,464.8 538.2,464.8 543.9,464.8 500.6,464.8" fill="#8a5a32" fill-opacity="0.62" stroke="#1f2528" stroke-width="0.8" /><polygon points="543.9,466.5 500.6,466.5 500.6,464.8 543.9,464.8" fill="#8a5a32" fill-opacity="0.62" stroke="#1f2528" stroke-width="0.8" /><polygon points="620.0,467.1 617.7,467.1 617.7,427.4 620.0,427.4" fill="#8a5a32" fill-opacity="0.62" stroke="#1f2528" stroke-width="0.8" /><polygon points="620.5,467.1 620.0,467.1 620.0,427.4 620.5,427.4" fill="#8a5a32" fill-opacity="0.62" stroke="#1f2528" stroke-width="0.8" /><polygon points="617.7,467.1 620.0,467.1 620.5,467.1 618.2,467.1" fill="#8a5a32" fill-opacity="0.62" stroke="#1f2528" stroke-width="0.8" /><polygon points="618.2,427.4 620.5,427.4 620.0,427.4 617.7,427.4" fill="#8a5a32" fill-opacity="0.62" stroke="#1f2528" stroke-width="0.8" /><polygon points="617.7,467.1 618.2,467.1 618.2,427.4 617.7,427.4" fill="#8a5a32" fill-opacity="0.62" stroke="#1f2528" stroke-width="0.8" /><polygon points="618.2,467.1 620.5,467.1 620.5,427.4 618.2,427.4" fill="#8a5a32" fill-opacity="0.62" stroke="#1f2528" stroke-width="0.8" /><polygon points="457.0,466.8 457.0,465.1 462.8,465.1 462.8,466.8" fill="#8a5a32" fill-opacity="0.62" stroke="#1f2528" stroke-width="0.8" /><polygon points="613.8,468.0 619.6,468.0 619.6,466.3 613.8,466.3" fill="#8a5a32" fill-opacity="0.62" stroke="#1f2528" stroke-width="0.8" /><polygon points="576.0,466.8 576.0,465.1 532.7,465.1 532.7,466.8" fill="#8a5a32" fill-opacity="0.62" stroke="#1f2528" stroke-width="0.8" /><polygon points="576.0,466.8 532.7,466.8 538.5,466.8 581.8,466.8" fill="#8a5a32" fill-opacity="0.62" stroke="#1f2528" stroke-width="0.8" /><polygon points="532.7,465.1 576.0,465.1 581.8,465.1 538.5,465.1" fill="#8a5a32" fill-opacity="0.62" stroke="#1f2528" stroke-width="0.8" /><polygon points="581.8,466.8 538.5,466.8 538.5,465.1 581.8,465.1" fill="#8a5a32" fill-opacity="0.62" stroke="#1f2528" stroke-width="0.8" /><polygon points="494.9,466.5 494.9,464.8 500.6,464.8 500.6,466.5" fill="#8a5a32" fill-opacity="0.62" stroke="#1f2528" stroke-width="0.8" /><polygon points="651.6,469.8 657.4,469.8 657.4,468.1 651.6,468.1" fill="#8a5a32" fill-opacity="0.62" stroke="#1f2528" stroke-width="0.8" /><polygon points="496.2,465.6 493.9,465.6 493.9,425.9 496.2,425.9" fill="#8a5a32" fill-opacity="0.62" stroke="#1f2528" stroke-width="0.8" /><polygon points="496.8,465.6 496.2,465.6 496.2,425.9 496.8,425.9" fill="#8a5a32" fill-opacity="0.62" stroke="#1f2528" stroke-width="0.8" /><polygon points="493.9,465.6 496.2,465.6 496.8,465.6 494.4,465.6" fill="#8a5a32" fill-opacity="0.62" stroke="#1f2528" stroke-width="0.8" /><polygon points="494.4,425.9 496.8,425.9 496.2,425.9 493.9,425.9" fill="#8a5a32" fill-opacity="0.62" stroke="#1f2528" stroke-width="0.8" /><polygon points="493.9,465.6 494.4,465.6 494.4,425.9 493.9,425.9" fill="#8a5a32" fill-opacity="0.62" stroke="#1f2528" stroke-width="0.8" /><polygon points="494.4,465.6 496.8,465.6 496.8,425.9 494.4,425.9" fill="#8a5a32" fill-opacity="0.62" stroke="#1f2528" stroke-width="0.8" /><polygon points="613.8,468.0 613.8,466.3 570.5,466.3 570.5,468.0" fill="#8a5a32" fill-opacity="0.62" stroke="#1f2528" stroke-width="0.8" /><polygon points="613.8,468.0 570.5,468.0 576.3,468.0 619.6,468.0" fill="#8a5a32" fill-opacity="0.62" stroke="#1f2528" stroke-width="0.8" /><polygon points="570.5,466.3 613.8,466.3 619.6,466.3 576.3,466.3" fill="#8a5a32" fill-opacity="0.62" stroke="#1f2528" stroke-width="0.8" /><polygon points="619.6,468.0 576.3,468.0 576.3,466.3 619.6,466.3" fill="#8a5a32" fill-opacity="0.62" stroke="#1f2528" stroke-width="0.8" /><polygon points="695.6,471.6 693.3,471.6 693.3,431.8 695.6,431.8" fill="#8a5a32" fill-opacity="0.62" stroke="#1f2528" stroke-width="0.8" /><polygon points="696.2,471.6 695.6,471.6 695.6,431.8 696.2,431.8" fill="#8a5a32" fill-opacity="0.62" stroke="#1f2528" stroke-width="0.8" /><polygon points="693.3,471.6 695.6,471.6 696.2,471.6 693.8,471.6" fill="#8a5a32" fill-opacity="0.62" stroke="#1f2528" stroke-width="0.8" /><polygon points="693.8,431.8 696.2,431.8 695.6,431.8 693.3,431.8" fill="#8a5a32" fill-opacity="0.62" stroke="#1f2528" stroke-width="0.8" /><polygon points="693.3,471.6 693.8,471.6 693.8,431.8 693.3,431.8" fill="#8a5a32" fill-opacity="0.62" stroke="#1f2528" stroke-width="0.8" /><polygon points="693.8,471.6 696.2,471.6 696.2,431.8 693.8,431.8" fill="#8a5a32" fill-opacity="0.62" stroke="#1f2528" stroke-width="0.8" /><polygon points="532.7,466.8 532.7,465.1 538.5,465.1 538.5,466.8" fill="#8a5a32" fill-opacity="0.62" stroke="#1f2528" stroke-width="0.8" /><polygon points="689.5,472.4 695.2,472.4 695.2,470.7 689.5,470.7" fill="#8a5a32" fill-opacity="0.62" stroke="#1f2528" stroke-width="0.8" /><polygon points="651.6,469.8 651.6,468.1 608.3,468.1 608.3,469.8" fill="#8a5a32" fill-opacity="0.62" stroke="#1f2528" stroke-width="0.8" /><polygon points="651.6,469.8 608.3,469.8 614.1,469.8 657.4,469.8" fill="#8a5a32" fill-opacity="0.62" stroke="#1f2528" stroke-width="0.8" /><polygon points="608.3,468.1 651.6,468.1 657.4,468.1 614.1,468.1" fill="#8a5a32" fill-opacity="0.62" stroke="#1f2528" stroke-width="0.8" /><polygon points="657.4,469.8 614.1,469.8 614.1,468.1 657.4,468.1" fill="#8a5a32" fill-opacity="0.62" stroke="#1f2528" stroke-width="0.8" /><polygon points="570.5,468.0 570.5,466.3 576.3,466.3 576.3,468.0" fill="#8a5a32" fill-opacity="0.62" stroke="#1f2528" stroke-width="0.8" /><polygon points="727.3,475.7 733.1,475.7 733.1,474.0 727.3,474.0" fill="#8a5a32" fill-opacity="0.62" stroke="#1f2528" stroke-width="0.8" /><polygon points="571.9,467.1 569.5,467.1 569.5,427.4 571.9,427.4" fill="#8a5a32" fill-opacity="0.62" stroke="#1f2528" stroke-width="0.8" /><polygon points="572.4,467.1 571.9,467.1 571.9,427.4 572.4,427.4" fill="#8a5a32" fill-opacity="0.62" stroke="#1f2528" stroke-width="0.8" /><polygon points="569.5,467.1 571.9,467.1 572.4,467.1 570.1,467.1" fill="#8a5a32" fill-opacity="0.62" stroke="#1f2528" stroke-width="0.8" /><polygon points="570.1,427.4 572.4,427.4 571.9,427.4 569.5,427.4" fill="#8a5a32" fill-opacity="0.62" stroke="#1f2528" stroke-width="0.8" /><polygon points="569.5,467.1 570.1,467.1 570.1,427.4 569.5,427.4" fill="#8a5a32" fill-opacity="0.62" stroke="#1f2528" stroke-width="0.8" /><polygon points="570.1,467.1 572.4,467.1 572.4,427.4 570.1,427.4" fill="#8a5a32" fill-opacity="0.62" stroke="#1f2528" stroke-width="0.8" /><polygon points="689.5,472.4 689.5,470.7 646.2,470.7 646.2,472.4" fill="#8a5a32" fill-opacity="0.62" stroke="#1f2528" stroke-width="0.8" /><polygon points="689.5,472.4 646.2,472.4 651.9,472.4 695.2,472.4" fill="#8a5a32" fill-opacity="0.62" stroke="#1f2528" stroke-width="0.8" /><polygon points="646.2,470.7 689.5,470.7 695.2,470.7 651.9,470.7" fill="#8a5a32" fill-opacity="0.62" stroke="#1f2528" stroke-width="0.8" /><polygon points="695.2,472.4 651.9,472.4 651.9,470.7 695.2,470.7" fill="#8a5a32" fill-opacity="0.62" stroke="#1f2528" stroke-width="0.8" /><polygon points="771.3,479.0 769.0,479.0 769.0,439.3 771.3,439.3" fill="#8a5a32" fill-opacity="0.62" stroke="#1f2528" stroke-width="0.8" /><polygon points="771.8,479.0 771.3,479.0 771.3,439.3 771.8,439.3" fill="#8a5a32" fill-opacity="0.62" stroke="#1f2528" stroke-width="0.8" /><polygon points="769.0,479.0 771.3,479.0 771.8,479.0 769.5,479.0" fill="#8a5a32" fill-opacity="0.62" stroke="#1f2528" stroke-width="0.8" /><polygon points="769.5,439.3 771.8,439.3 771.3,439.3 769.0,439.3" fill="#8a5a32" fill-opacity="0.62" stroke="#1f2528" stroke-width="0.8" /><polygon points="769.0,479.0 769.5,479.0 769.5,439.3 769.0,439.3" fill="#8a5a32" fill-opacity="0.62" stroke="#1f2528" stroke-width="0.8" /><polygon points="769.5,479.0 771.8,479.0 771.8,439.3 769.5,439.3" fill="#8a5a32" fill-opacity="0.62" stroke="#1f2528" stroke-width="0.8" /><polygon points="608.3,469.8 608.3,468.1 614.1,468.1 614.1,469.8" fill="#8a5a32" fill-opacity="0.62" stroke="#1f2528" stroke-width="0.8" /><polygon points="765.1,479.8 770.9,479.8 770.9,478.1 765.1,478.1" fill="#8a5a32" fill-opacity="0.62" stroke="#1f2528" stroke-width="0.8" /><polygon points="727.3,475.7 727.3,474.0 684.0,474.0 684.0,475.7" fill="#8a5a32" fill-opacity="0.62" stroke="#1f2528" stroke-width="0.8" /><polygon points="727.3,475.7 684.0,475.7 689.8,475.7 733.1,475.7" fill="#8a5a32" fill-opacity="0.62" stroke="#1f2528" stroke-width="0.8" /><polygon points="684.0,474.0 727.3,474.0 733.1,474.0 689.8,474.0" fill="#8a5a32" fill-opacity="0.62" stroke="#1f2528" stroke-width="0.8" /><polygon points="733.1,475.7 689.8,475.7 689.8,474.0 733.1,474.0" fill="#8a5a32" fill-opacity="0.62" stroke="#1f2528" stroke-width="0.8" /><polygon points="646.2,472.4 646.2,470.7 651.9,470.7 651.9,472.4" fill="#8a5a32" fill-opacity="0.62" stroke="#1f2528" stroke-width="0.8" /><polygon points="802.9,484.6 808.7,484.6 808.7,482.9 802.9,482.9" fill="#8a5a32" fill-opacity="0.62" stroke="#1f2528" stroke-width="0.8" /><polygon points="647.5,471.6 645.2,471.6 645.2,431.8 647.5,431.8" fill="#8a5a32" fill-opacity="0.62" stroke="#1f2528" stroke-width="0.8" /><polygon points="648.1,471.6 647.5,471.6 647.5,431.8 648.1,431.8" fill="#8a5a32" fill-opacity="0.62" stroke="#1f2528" stroke-width="0.8" /><polygon points="645.2,471.6 647.5,471.6 648.1,471.6 645.7,471.6" fill="#8a5a32" fill-opacity="0.62" stroke="#1f2528" stroke-width="0.8" /><polygon points="645.7,431.8 648.1,431.8 647.5,431.8 645.2,431.8" fill="#8a5a32" fill-opacity="0.62" stroke="#1f2528" stroke-width="0.8" /><polygon points="645.2,471.6 645.7,471.6 645.7,431.8 645.2,431.8" fill="#8a5a32" fill-opacity="0.62" stroke="#1f2528" stroke-width="0.8" /><polygon points="645.7,471.6 648.1,471.6 648.1,431.8 645.7,431.8" fill="#8a5a32" fill-opacity="0.62" stroke="#1f2528" stroke-width="0.8" /><polygon points="765.1,479.8 765.1,478.1 721.8,478.1 721.8,479.8" fill="#8a5a32" fill-opacity="0.62" stroke="#1f2528" stroke-width="0.8" /><polygon points="765.1,479.8 721.8,479.8 727.6,479.8 770.9,479.8" fill="#8a5a32" fill-opacity="0.62" stroke="#1f2528" stroke-width="0.8" /><polygon points="721.8,478.1 765.1,478.1 770.9,478.1 727.6,478.1" fill="#8a5a32" fill-opacity="0.62" stroke="#1f2528" stroke-width="0.8" /><polygon points="770.9,479.8 727.6,479.8 727.6,478.1 770.9,478.1" fill="#8a5a32" fill-opacity="0.62" stroke="#1f2528" stroke-width="0.8" /><polygon points="846.9,489.4 844.6,489.4 844.6,449.7 846.9,449.7" fill="#8a5a32" fill-opacity="0.62" stroke="#1f2528" stroke-width="0.8" /><polygon points="847.5,489.4 846.9,489.4 846.9,449.7 847.5,449.7" fill="#8a5a32" fill-opacity="0.62" stroke="#1f2528" stroke-width="0.8" /><polygon points="844.6,489.4 846.9,489.4 847.5,489.4 845.1,489.4" fill="#8a5a32" fill-opacity="0.62" stroke="#1f2528" stroke-width="0.8" /><polygon points="845.1,449.7 847.5,449.7 846.9,449.7 844.6,449.7" fill="#8a5a32" fill-opacity="0.62" stroke="#1f2528" stroke-width="0.8" /><polygon points="844.6,489.4 845.1,489.4 845.1,449.7 844.6,449.7" fill="#8a5a32" fill-opacity="0.62" stroke="#1f2528" stroke-width="0.8" /><polygon points="845.1,489.4 847.5,489.4 847.5,449.7 845.1,449.7" fill="#8a5a32" fill-opacity="0.62" stroke="#1f2528" stroke-width="0.8" /><polygon points="684.0,475.7 684.0,474.0 689.8,474.0 689.8,475.7" fill="#8a5a32" fill-opacity="0.62" stroke="#1f2528" stroke-width="0.8" /><polygon points="840.8,490.2 846.5,490.2 846.5,488.5 840.8,488.5" fill="#8a5a32" fill-opacity="0.62" stroke="#1f2528" stroke-width="0.8" /><polygon points="802.9,484.6 802.9,482.9 759.6,482.9 759.6,484.6" fill="#8a5a32" fill-opacity="0.62" stroke="#1f2528" stroke-width="0.8" /><polygon points="802.9,484.6 759.6,484.6 765.4,484.6 808.7,484.6" fill="#8a5a32" fill-opacity="0.62" stroke="#1f2528" stroke-width="0.8" /><polygon points="759.6,482.9 802.9,482.9 808.7,482.9 765.4,482.9" fill="#8a5a32" fill-opacity="0.62" stroke="#1f2528" stroke-width="0.8" /><polygon points="808.7,484.6 765.4,484.6 765.4,482.9 808.7,482.9" fill="#8a5a32" fill-opacity="0.62" stroke="#1f2528" stroke-width="0.8" /><polygon points="721.8,479.8 721.8,478.1 727.6,478.1 727.6,479.8" fill="#8a5a32" fill-opacity="0.62" stroke="#1f2528" stroke-width="0.8" /><polygon points="878.6,496.5 884.4,496.5 884.4,494.8 878.6,494.8" fill="#8a5a32" fill-opacity="0.62" stroke="#1f2528" stroke-width="0.8" /><polygon points="723.2,479.0 720.8,479.0 720.8,439.3 723.2,439.3" fill="#8a5a32" fill-opacity="0.62" stroke="#1f2528" stroke-width="0.8" /><polygon points="723.7,479.0 723.2,479.0 723.2,439.3 723.7,439.3" fill="#8a5a32" fill-opacity="0.62" stroke="#1f2528" stroke-width="0.8" /><polygon points="720.8,479.0 723.2,479.0 723.7,479.0 721.4,479.0" fill="#8a5a32" fill-opacity="0.62" stroke="#1f2528" stroke-width="0.8" /><polygon points="721.4,439.3 723.7,439.3 723.2,439.3 720.8,439.3" fill="#8a5a32" fill-opacity="0.62" stroke="#1f2528" stroke-width="0.8" /><polygon points="720.8,479.0 721.4,479.0 721.4,439.3 720.8,439.3" fill="#8a5a32" fill-opacity="0.62" stroke="#1f2528" stroke-width="0.8" /><polygon points="721.4,479.0 723.7,479.0 723.7,439.3 721.4,439.3" fill="#8a5a32" fill-opacity="0.62" stroke="#1f2528" stroke-width="0.8" /><polygon points="840.8,490.2 840.8,488.5 797.5,488.5 797.5,490.2" fill="#8a5a32" fill-opacity="0.62" stroke="#1f2528" stroke-width="0.8" /><polygon points="840.8,490.2 797.5,490.2 803.2,490.2 846.5,490.2" fill="#8a5a32" fill-opacity="0.62" stroke="#1f2528" stroke-width="0.8" /><polygon points="797.5,488.5 840.8,488.5 846.5,488.5 803.2,488.5" fill="#8a5a32" fill-opacity="0.62" stroke="#1f2528" stroke-width="0.8" /><polygon points="846.5,490.2 803.2,490.2 803.2,488.5 846.5,488.5" fill="#8a5a32" fill-opacity="0.62" stroke="#1f2528" stroke-width="0.8" /><polygon points="922.6,502.8 920.3,502.8 920.3,463.0 922.6,463.0" fill="#8a5a32" fill-opacity="0.62" stroke="#1f2528" stroke-width="0.8" /><polygon points="923.1,502.8 922.6,502.8 922.6,463.0 923.1,463.0" fill="#8a5a32" fill-opacity="0.62" stroke="#1f2528" stroke-width="0.8" /><polygon points="920.3,502.8 922.6,502.8 923.1,502.8 920.8,502.8" fill="#8a5a32" fill-opacity="0.62" stroke="#1f2528" stroke-width="0.8" /><polygon points="920.8,463.0 923.1,463.0 922.6,463.0 920.3,463.0" fill="#8a5a32" fill-opacity="0.62" stroke="#1f2528" stroke-width="0.8" /><polygon points="920.3,502.8 920.8,502.8 920.8,463.0 920.3,463.0" fill="#8a5a32" fill-opacity="0.62" stroke="#1f2528" stroke-width="0.8" /><polygon points="920.8,502.8 923.1,502.8 923.1,463.0 920.8,463.0" fill="#8a5a32" fill-opacity="0.62" stroke="#1f2528" stroke-width="0.8" /><polygon points="759.6,484.6 759.6,482.9 765.4,482.9 765.4,484.6" fill="#8a5a32" fill-opacity="0.62" stroke="#1f2528" stroke-width="0.8" /><polygon points="916.4,503.6 922.2,503.6 922.2,501.9 916.4,501.9" fill="#8a5a32" fill-opacity="0.62" stroke="#1f2528" stroke-width="0.8" /><polygon points="878.6,496.5 878.6,494.8 835.3,494.8 835.3,496.5" fill="#8a5a32" fill-opacity="0.62" stroke="#1f2528" stroke-width="0.8" /><polygon points="878.6,496.5 835.3,496.5 841.0,496.5 884.4,496.5" fill="#8a5a32" fill-opacity="0.62" stroke="#1f2528" stroke-width="0.8" /><polygon points="835.3,494.8 878.6,494.8 884.4,494.8 841.0,494.8" fill="#8a5a32" fill-opacity="0.62" stroke="#1f2528" stroke-width="0.8" /><polygon points="884.4,496.5 841.0,496.5 841.0,494.8 884.4,494.8" fill="#8a5a32" fill-opacity="0.62" stroke="#1f2528" stroke-width="0.8" /><polygon points="797.5,490.2 797.5,488.5 803.2,488.5 803.2,490.2" fill="#8a5a32" fill-opacity="0.62" stroke="#1f2528" stroke-width="0.8" /><polygon points="954.2,511.4 960.0,511.4 960.0,509.7 954.2,509.7" fill="#8a5a32" fill-opacity="0.62" stroke="#1f2528" stroke-width="0.8" /><polygon points="798.8,489.4 796.5,489.4 796.5,449.7 798.8,449.7" fill="#8a5a32" fill-opacity="0.62" stroke="#1f2528" stroke-width="0.8" /><polygon points="799.4,489.4 798.8,489.4 798.8,449.7 799.4,449.7" fill="#8a5a32" fill-opacity="0.62" stroke="#1f2528" stroke-width="0.8" /><polygon points="796.5,489.4 798.8,489.4 799.4,489.4 797.0,489.4" fill="#8a5a32" fill-opacity="0.62" stroke="#1f2528" stroke-width="0.8" /><polygon points="797.0,449.7 799.4,449.7 798.8,449.7 796.5,449.7" fill="#8a5a32" fill-opacity="0.62" stroke="#1f2528" stroke-width="0.8" /><polygon points="796.5,489.4 797.0,489.4 797.0,449.7 796.5,449.7" fill="#8a5a32" fill-opacity="0.62" stroke="#1f2528" stroke-width="0.8" /><polygon points="797.0,489.4 799.4,489.4 799.4,449.7 797.0,449.7" fill="#8a5a32" fill-opacity="0.62" stroke="#1f2528" stroke-width="0.8" /><polygon points="916.4,503.6 916.4,501.9 873.1,501.9 873.1,503.6" fill="#8a5a32" fill-opacity="0.62" stroke="#1f2528" stroke-width="0.8" /><polygon points="916.4,503.6 873.1,503.6 878.9,503.6 922.2,503.6" fill="#8a5a32" fill-opacity="0.62" stroke="#1f2528" stroke-width="0.8" /><polygon points="873.1,501.9 916.4,501.9 922.2,501.9 878.9,501.9" fill="#8a5a32" fill-opacity="0.62" stroke="#1f2528" stroke-width="0.8" /><polygon points="922.2,503.6 878.9,503.6 878.9,501.9 922.2,501.9" fill="#8a5a32" fill-opacity="0.62" stroke="#1f2528" stroke-width="0.8" /><polygon points="835.3,496.5 835.3,494.8 841.0,494.8 841.0,496.5" fill="#8a5a32" fill-opacity="0.62" stroke="#1f2528" stroke-width="0.8" /><polygon points="954.2,511.4 954.2,509.7 910.9,509.7 910.9,511.4" fill="#8a5a32" fill-opacity="0.62" stroke="#1f2528" stroke-width="0.8" /><polygon points="954.2,511.4 910.9,511.4 916.7,511.4 960.0,511.4" fill="#8a5a32" fill-opacity="0.62" stroke="#1f2528" stroke-width="0.8" /><polygon points="910.9,509.7 954.2,509.7 960.0,509.7 916.7,509.7" fill="#8a5a32" fill-opacity="0.62" stroke="#1f2528" stroke-width="0.8" /><polygon points="960.0,511.4 916.7,511.4 916.7,509.7 960.0,509.7" fill="#8a5a32" fill-opacity="0.62" stroke="#1f2528" stroke-width="0.8" /><polygon points="873.1,503.6 873.1,501.9 878.9,501.9 878.9,503.6" fill="#8a5a32" fill-opacity="0.62" stroke="#1f2528" stroke-width="0.8" /><polygon points="874.5,502.8 872.1,502.8 872.1,463.0 874.5,463.0" fill="#8a5a32" fill-opacity="0.62" stroke="#1f2528" stroke-width="0.8" /><polygon points="875.0,502.8 874.5,502.8 874.5,463.0 875.0,463.0" fill="#8a5a32" fill-opacity="0.62" stroke="#1f2528" stroke-width="0.8" /><polygon points="872.1,502.8 874.5,502.8 875.0,502.8 872.7,502.8" fill="#8a5a32" fill-opacity="0.62" stroke="#1f2528" stroke-width="0.8" /><polygon points="872.7,463.0 875.0,463.0 874.5,463.0 872.1,463.0" fill="#8a5a32" fill-opacity="0.62" stroke="#1f2528" stroke-width="0.8" /><polygon points="872.1,502.8 872.7,502.8 872.7,463.0 872.1,463.0" fill="#8a5a32" fill-opacity="0.62" stroke="#1f2528" stroke-width="0.8" /><polygon points="872.7,502.8 875.0,502.8 875.0,463.0 872.7,463.0" fill="#8a5a32" fill-opacity="0.62" stroke="#1f2528" stroke-width="0.8" /><polygon points="910.9,511.4 910.9,509.7 916.7,509.7 916.7,511.4" fill="#8a5a32" fill-opacity="0.62" stroke="#1f2528" stroke-width="0.8" /></svg>
