v -0.686803 -2.403810 5.000000
v 0.686803 2.403810 5.000000
v -0.686803 -2.403810 4.660000
v 0.686803 2.403810 4.660000
v 0.585924 -2.767446 4.818182
v 1.959530 2.040174 4.818182
v 0.585924 -2.767446 4.478182
v 1.959530 2.040174 4.478182
v 1.858652 -3.131083 4.636364
v 3.232257 1.676537 4.636364
v 1.858652 -3.131083 4.296364
v 3.232257 1.676537 4.296364
v 3.131379 -3.494719 4.454545
v 4.504985 1.312901 4.454545
v 3.131379 -3.494719 4.114545
v 4.504985 1.312901 4.114545
v 4.404106 -3.858355 4.272727
v 5.777712 0.949264 4.272727
v 4.404106 -3.858355 3.932727
v 5.777712 0.949264 3.932727
v 5.676834 -4.221992 4.090909
v 7.050439 0.585628 4.090909
v 5.676834 -4.221992 3.750909
v 7.050439 0.585628 3.750909
v 6.949561 -4.585628 3.909091
v 8.323166 0.221992 3.909091
v 6.949561 -4.585628 3.569091
v 8.323166 0.221992 3.569091
v 8.222288 -4.949264 3.727273
v 9.595894 -0.141645 3.727273
v 8.222288 -4.949264 3.387273
v 9.595894 -0.141645 3.387273
v 9.495015 -5.312901 3.545455
v 10.868621 -0.505281 3.545455
v 9.495015 -5.312901 3.205455
v 10.868621 -0.505281 3.205455
v 10.767743 -5.676537 3.363636
v 12.141348 -0.868917 3.363636
v 10.767743 -5.676537 3.023636
v 12.141348 -0.868917 3.023636
v 12.040470 -6.040174 3.181818
v 13.414076 -1.232554 3.181818
v 12.040470 -6.040174 2.841818
v 13.414076 -1.232554 2.841818
v 14.133737 -6.496420 3.000000
v 13.866263 -1.503580 3.000000
v 14.133737 -6.496420 2.660000
v 13.866263 -1.503580 2.660000
v 16.186858 -5.826879 2.818182
v 14.358596 -1.173121 2.818182
v 16.186858 -5.826879 2.478182
v 14.358596 -1.173121 2.478182
v 17.459585 -5.326879 2.636364
v 15.631324 -0.673121 2.636364
v 17.459585 -5.326879 2.296364
v 15.631324 -0.673121 2.296364
v 18.732313 -4.826879 2.454545
v 16.904051 -0.173121 2.454545
v 18.732313 -4.826879 2.114545
v 16.904051 -0.173121 2.114545
v 20.005040 -4.326879 2.272727
v 18.176778 0.326879 2.272727
v 20.005040 -4.326879 1.932727
v 18.176778 0.326879 1.932727
v 21.277767 -3.826879 2.090909
v 19.449505 0.826879 2.090909
v 21.277767 -3.826879 1.750909
v 19.449505 0.826879 1.750909
v 22.550495 -3.326879 1.909091
v 20.722233 1.326879 1.909091
v 22.550495 -3.326879 1.569091
v 20.722233 1.326879 1.569091
v 23.823222 -2.826879 1.727273
v 21.994960 1.826879 1.727273
v 23.823222 -2.826879 1.387273
v 21.994960 1.826879 1.387273
v 25.095949 -2.326879 1.545455
v 23.267687 2.326879 1.545455
v 25.095949 -2.326879 1.205455
v 23.267687 2.326879 1.205455
v 26.368676 -1.826879 1.363636
v 24.540415 2.826879 1.363636
v 26.368676 -1.826879 1.023636
v 24.540415 2.826879 1.023636
v 27.641404 -1.326879 1.181818
v 25.813142 3.326879 1.181818
v 27.641404 -1.326879 0.841818
v 25.813142 3.326879 0.841818
v 28.914131 -0.826879 1.000000
v 27.085869 3.826879 1.000000
v 28.914131 -0.826879 0.660000
v 27.085869 3.826879 0.660000
v -0.659331 -2.307657 2.755377
v -0.796691 -2.788419 2.755377
v -0.659331 -2.307657 5.660000
v -0.796691 -2.788419 5.660000
v 0.613397 -2.671294 3.469365
v 0.476036 -3.152056 3.469365
v 0.613397 -2.671294 5.478182
v 0.476036 -3.152056 5.478182
v 1.886124 -3.034930 4.005928
v 1.748763 -3.515692 4.005928
v 1.886124 -3.034930 5.296364
v 1.748763 -3.515692 5.296364
v 3.158851 -3.398567 4.222781
v 3.021491 -3.879329 4.222781
v 3.158851 -3.398567 5.114545
v 3.021491 -3.879329 5.114545
v 4.431578 -3.762203 4.040963
v 4.294218 -4.242965 4.040963
v 4.431578 -3.762203 4.932727
v 4.294218 -4.242965 4.932727
v 5.704306 -4.125839 3.460473
v 5.566945 -4.606601 3.460473
v 5.704306 -4.125839 4.750909
v 5.566945 -4.606601 4.750909
v 6.977033 -4.489476 2.560274
v 6.839672 -4.970238 2.560274
v 6.977033 -4.489476 4.569091
v 6.839672 -4.970238 4.569091
v 8.249760 -4.853112 1.482649
v 8.112400 -5.333874 1.482649
v 8.249760 -4.853112 4.387273
v 8.112400 -5.333874 4.387273
v -1.131033 -2.937297 2.655377
v -1.043122 -2.629609 2.655377
v -1.043122 -2.629609 2.855377
v -1.131033 -2.937297 2.855377
v -0.591468 -3.091458 2.655377
v -0.503558 -2.783771 2.655377
v -0.503558 -2.783771 2.855377
v -0.591468 -3.091458 2.855377
v 0.141694 -3.300933 3.395398
v 0.229605 -2.993246 3.395398
v 0.229605 -2.993246 3.595398
v 0.141694 -3.300933 3.595398
v 0.681259 -3.455095 3.395398
v 0.769170 -3.147407 3.395398
v 0.769170 -3.147407 3.595398
v 0.681259 -3.455095 3.595398
v 1.414421 -3.664570 3.952838
v 1.502332 -3.356882 3.952838
v 1.502332 -3.356882 4.152838
v 1.414421 -3.664570 4.152838
v 1.953986 -3.818731 3.952838
v 2.041897 -3.511043 3.952838
v 2.041897 -3.511043 4.152838
v 1.953986 -3.818731 4.152838
v 2.687149 -4.028206 4.181277
v 2.775059 -3.720518 4.181277
v 2.775059 -3.720518 4.381277
v 2.687149 -4.028206 4.381277
v 3.226713 -4.182367 4.181277
v 3.314624 -3.874680 4.181277
v 3.314624 -3.874680 4.381277
v 3.226713 -4.182367 4.381277
v 3.959876 -4.391842 3.999459
v 4.047787 -4.084155 3.999459
v 4.047787 -4.084155 4.199459
v 3.959876 -4.391842 4.199459
v 4.499441 -4.546004 3.999459
v 4.587352 -4.238316 3.999459
v 4.587352 -4.238316 4.199459
v 4.499441 -4.546004 4.199459
v 5.232603 -4.755479 3.407383
v 5.320514 -4.447791 3.407383
v 5.320514 -4.447791 3.607383
v 5.232603 -4.755479 3.607383
v 5.772168 -4.909640 3.407383
v 5.860079 -4.601952 3.407383
v 5.860079 -4.601952 3.607383
v 5.772168 -4.909640 3.607383
v 6.505331 -5.119115 2.486307
v 6.593241 -4.811427 2.486307
v 6.593241 -4.811427 2.686307
v 6.505331 -5.119115 2.686307
v 7.044895 -5.273276 2.486307
v 7.132806 -4.965589 2.486307
v 7.132806 -4.965589 2.686307
v 7.044895 -5.273276 2.686307
v 7.778058 -5.482751 1.382649
v 7.865969 -5.175064 1.382649
v 7.865969 -5.175064 1.582649
v 7.778058 -5.482751 1.582649
v 8.317623 -5.636913 1.382649
v 8.405533 -5.329225 1.382649
v 8.405533 -5.329225 1.582649
v 8.317623 -5.636913 1.582649
v 8.249760 -4.853112 1.120355
v 8.112400 -5.333874 1.120355
v 8.249760 -4.853112 4.387273
v 8.112400 -5.333874 4.387273
v 9.522487 -5.216748 1.867278
v 9.385127 -5.697510 1.867278
v 9.522487 -5.216748 4.205455
v 9.385127 -5.697510 4.205455
v 10.795215 -5.580385 2.472809
v 10.657854 -6.061147 2.472809
v 10.795215 -5.580385 4.023636
v 10.657854 -6.061147 4.023636
v 12.067942 -5.944021 2.817080
v 11.930581 -6.424783 2.817080
v 12.067942 -5.944021 3.841818
v 11.930581 -6.424783 3.841818
v 14.128387 -6.396564 2.820000
v 14.155135 -6.895848 2.820000
v 14.128387 -6.396564 3.660000
v 14.155135 -6.895848 3.660000
v 16.150293 -5.733804 2.453444
v 16.333119 -6.199179 2.453444
v 16.150293 -5.733804 3.478182
v 16.333119 -6.199179 3.478182
v 17.423020 -5.233804 1.745536
v 17.605846 -5.699179 1.745536
v 17.423020 -5.233804 3.296364
v 17.605846 -5.699179 3.296364
v 18.695748 -4.733804 0.776369
v 18.878574 -5.199179 0.776369
v 18.695748 -4.733804 3.114545
v 18.878574 -5.199179 3.114545
v 19.968475 -4.233804 -0.334190
v 20.151301 -4.699179 -0.334190
v 19.968475 -4.233804 2.932727
v 20.151301 -4.699179 2.932727
v 7.769328 -5.480257 1.020355
v 7.857238 -5.172569 1.020355
v 7.857238 -5.172569 1.220355
v 7.769328 -5.480257 1.220355
v 8.326353 -5.639407 1.020355
v 8.414264 -5.331719 1.020355
v 8.414264 -5.331719 1.220355
v 8.326353 -5.639407 1.220355
v 9.042055 -5.843893 1.790239
v 9.129966 -5.536206 1.790239
v 9.129966 -5.536206 1.990239
v 9.042055 -5.843893 1.990239
v 9.599080 -6.003044 1.790239
v 9.686991 -5.695356 1.790239
v 9.686991 -5.695356 1.990239
v 9.599080 -6.003044 1.990239
v 10.314782 -6.207530 2.415235
v 10.402693 -5.899842 2.415235
v 10.402693 -5.899842 2.615235
v 10.314782 -6.207530 2.615235
v 10.871807 -6.366680 2.415235
v 10.959718 -6.058992 2.415235
v 10.959718 -6.058992 2.615235
v 10.871807 -6.366680 2.615235
v 11.587509 -6.571166 2.772513
v 11.675420 -6.263479 2.772513
v 11.675420 -6.263479 2.972513
v 11.587509 -6.571166 2.972513
v 12.144535 -6.730316 2.772513
v 12.232445 -6.422629 2.772513
v 12.232445 -6.422629 2.972513
v 12.144535 -6.730316 2.972513
v 13.878463 -7.146006 2.780000
v 13.861345 -6.826464 2.780000
v 13.861345 -6.826464 2.980000
v 13.878463 -7.146006 2.980000
v 14.456949 -7.115016 2.780000
v 14.439830 -6.795474 2.780000
v 14.439830 -6.795474 2.980000
v 14.456949 -7.115016 2.980000
v 16.149448 -6.523820 2.408876
v 16.032440 -6.225979 2.408876
v 16.032440 -6.225979 2.608876
v 16.149448 -6.523820 2.608876
v 16.688647 -6.311992 2.408876
v 16.571638 -6.014152 2.408876
v 16.571638 -6.014152 2.608876
v 16.688647 -6.311992 2.608876
v 17.422176 -6.023820 1.687962
v 17.305167 -5.725979 1.687962
v 17.305167 -5.725979 1.887962
v 17.422176 -6.023820 1.887962
v 17.961374 -5.811992 1.687962
v 17.844365 -5.514152 1.687962
v 17.844365 -5.514152 1.887962
v 17.961374 -5.811992 1.887962
v 18.694903 -5.523820 0.699330
v 18.577894 -5.225979 0.699330
v 18.577894 -5.225979 0.899330
v 18.694903 -5.523820 0.899330
v 19.234101 -5.311992 0.699330
v 19.117092 -5.014152 0.699330
v 19.117092 -5.014152 0.899330
v 19.234101 -5.311992 0.899330
v 19.967630 -5.023820 -0.434190
v 19.850621 -4.725979 -0.434190
v 19.850621 -4.725979 -0.234190
v 19.967630 -5.023820 -0.234190
v 20.506828 -4.811992 -0.434190
v 20.389820 -4.514152 -0.434190
v 20.389820 -4.514152 -0.234190
v 20.506828 -4.811992 -0.234190
v 19.968475 -4.233804 -0.044755
v 20.151301 -4.699179 -0.044755
v 19.968475 -4.233804 2.932727
v 20.151301 -4.699179 2.932727
v 21.241202 -3.733804 0.700846
v 21.424028 -4.199179 0.700846
v 21.241202 -3.733804 2.750909
v 21.424028 -4.199179 2.750909
v 22.513929 -3.233804 1.262760
v 22.696756 -3.699179 1.262760
v 22.513929 -3.233804 2.569091
v 22.696756 -3.699179 2.569091
v 23.786657 -2.733804 1.493682
v 23.969483 -3.199179 1.493682
v 23.786657 -2.733804 2.387273
v 23.969483 -3.199179 2.387273
v 25.059384 -2.233804 1.311863
v 25.242210 -2.699179 1.311863
v 25.059384 -2.233804 2.205455
v 25.242210 -2.699179 2.205455
v 26.332111 -1.733804 0.717305
v 26.514937 -2.199179 0.717305
v 26.332111 -1.733804 2.023636
v 26.514937 -2.199179 2.023636
v 27.604838 -1.233804 -0.208245
v 27.787665 -1.699179 -0.208245
v 27.604838 -1.233804 1.841818
v 27.787665 -1.699179 1.841818
v 28.877566 -0.733804 -1.317482
v 29.060392 -1.199179 -1.317482
v 28.877566 -0.733804 1.660000
v 29.060392 -1.199179 1.660000
v 19.967604 -5.023830 -0.144755
v 19.850596 -4.725990 -0.144755
v 19.850596 -4.725990 0.055245
v 19.967604 -5.023830 0.055245
v 20.506854 -4.811982 -0.144755
v 20.389846 -4.514141 -0.144755
v 20.389846 -4.514141 0.055245
v 20.506854 -4.811982 0.055245
v 21.240332 -4.523830 0.626879
v 21.123323 -4.225990 0.626879
v 21.123323 -4.225990 0.826879
v 21.240332 -4.523830 0.826879
v 21.779582 -4.311982 0.626879
v 21.662573 -4.014141 0.626879
v 21.662573 -4.014141 0.826879
v 21.779582 -4.311982 0.826879
v 22.513059 -4.023830 1.209669
v 22.396050 -3.725990 1.209669
v 22.396050 -3.725990 1.409669
v 22.513059 -4.023830 1.409669
v 23.052309 -3.811982 1.209669
v 22.935300 -3.514141 1.209669
v 22.935300 -3.514141 1.409669
v 23.052309 -3.811982 1.409669
v 23.785786 -3.523830 1.452177
v 23.668777 -3.225990 1.452177
v 23.668777 -3.225990 1.652177
v 23.785786 -3.523830 1.652177
v 24.325036 -3.311982 1.452177
v 24.208027 -3.014141 1.452177
v 24.208027 -3.014141 1.652177
v 24.325036 -3.311982 1.652177
v 25.058513 -3.023830 1.270359
v 24.941505 -2.725990 1.270359
v 24.941505 -2.725990 1.470359
v 25.058513 -3.023830 1.470359
v 25.597763 -2.811982 1.270359
v 25.480755 -2.514141 1.270359
v 25.480755 -2.514141 1.470359
v 25.597763 -2.811982 1.470359
v 26.331241 -2.523830 0.664215
v 26.214232 -2.225990 0.664215
v 26.214232 -2.225990 0.864215
v 26.331241 -2.523830 0.864215
v 26.870491 -2.311982 0.664215
v 26.753482 -2.014141 0.664215
v 26.753482 -2.014141 0.864215
v 26.870491 -2.311982 0.864215
v 27.603968 -2.023830 -0.282212
v 27.486959 -1.725990 -0.282212
v 27.486959 -1.725990 -0.082212
v 27.603968 -2.023830 -0.082212
v 28.143218 -1.811982 -0.282212
v 28.026209 -1.514141 -0.282212
v 28.026209 -1.514141 -0.082212
v 28.143218 -1.811982 -0.082212
v 28.876695 -1.523830 -1.417482
v 28.759686 -1.225990 -1.417482
v 28.759686 -1.225990 -1.217482
v 28.876695 -1.523830 -1.217482
v 29.415945 -1.311982 -1.417482
v 29.298936 -1.014141 -1.417482
v 29.298936 -1.014141 -1.217482
v 29.415945 -1.311982 -1.217482
v 0.659331 2.307657 2.755377
v 0.796691 2.788419 2.755377
v 0.659331 2.307657 5.660000
v 0.796691 2.788419 5.660000
v 1.932058 1.944021 3.469365
v 2.069419 2.424783 3.469365
v 1.932058 1.944021 5.478182
v 2.069419 2.424783 5.478182
v 3.204785 1.580385 4.005928
v 3.342146 2.061147 4.005928
v 3.204785 1.580385 5.296364
v 3.342146 2.061147 5.296364
v 4.477513 1.216748 4.222781
v 4.614873 1.697510 4.222781
v 4.477513 1.216748 5.114545
v 4.614873 1.697510 5.114545
v 5.750240 0.853112 4.040963
v 5.887600 1.333874 4.040963
v 5.750240 0.853112 4.932727
v 5.887600 1.333874 4.932727
v 7.022967 0.489476 3.460473
v 7.160328 0.970238 3.460473
v 7.022967 0.489476 4.750909
v 7.160328 0.970238 4.750909
v 8.295694 0.125839 2.560274
v 8.433055 0.606601 2.560274
v 8.295694 0.125839 4.569091
v 8.433055 0.606601 4.569091
v 9.568422 -0.237797 1.482649
v 9.705782 0.242965 1.482649
v 9.568422 -0.237797 4.387273
v 9.705782 0.242965 4.387273
v 0.503558 2.783771 2.655377
v 0.591468 3.091458 2.655377
v 0.591468 3.091458 2.855377
v 0.503558 2.783771 2.855377
v 1.043122 2.629609 2.655377
v 1.131033 2.937297 2.655377
v 1.131033 2.937297 2.855377
v 1.043122 2.629609 2.855377
v 1.776285 2.420134 3.395398
v 1.864196 2.727822 3.395398
v 1.864196 2.727822 3.595398
v 1.776285 2.420134 3.595398
v 2.315850 2.265973 3.395398
v 2.403760 2.573661 3.395398
v 2.403760 2.573661 3.595398
v 2.315850 2.265973 3.595398
v 3.049012 2.056498 3.952838
v 3.136923 2.364186 3.952838
v 3.136923 2.364186 4.152838
v 3.049012 2.056498 4.152838
v 3.588577 1.902337 3.952838
v 3.676488 2.210024 3.952838
v 3.676488 2.210024 4.152838
v 3.588577 1.902337 4.152838
v 4.321739 1.692862 4.181277
v 4.409650 2.000549 4.181277
v 4.409650 2.000549 4.381277
v 4.321739 1.692862 4.381277
v 4.861304 1.538700 4.181277
v 4.949215 1.846388 4.181277
v 4.949215 1.846388 4.381277
v 4.861304 1.538700 4.381277
v 5.594467 1.329225 3.999459
v 5.682377 1.636913 3.999459
v 5.682377 1.636913 4.199459
v 5.594467 1.329225 4.199459
v 6.134031 1.175064 3.999459
v 6.221942 1.482751 3.999459
v 6.221942 1.482751 4.199459
v 6.134031 1.175064 4.199459
v 6.867194 0.965589 3.407383
v 6.955105 1.273276 3.407383
v 6.955105 1.273276 3.607383
v 6.867194 0.965589 3.607383
v 7.406759 0.811427 3.407383
v 7.494669 1.119115 3.407383
v 7.494669 1.119115 3.607383
v 7.406759 0.811427 3.607383
v 8.139921 0.601952 2.486307
v 8.227832 0.909640 2.486307
v 8.227832 0.909640 2.686307
v 8.139921 0.601952 2.686307
v 8.679486 0.447791 2.486307
v 8.767397 0.755479 2.486307
v 8.767397 0.755479 2.686307
v 8.679486 0.447791 2.686307
v 9.412648 0.238316 1.382649
v 9.500559 0.546004 1.382649
v 9.500559 0.546004 1.582649
v 9.412648 0.238316 1.582649
v 9.952213 0.084155 1.382649
v 10.040124 0.391842 1.382649
v 10.040124 0.391842 1.582649
v 9.952213 0.084155 1.582649
v 9.568422 -0.237797 1.120355
v 9.705782 0.242965 1.120355
v 9.568422 -0.237797 4.387273
v 9.705782 0.242965 4.387273
v 10.841149 -0.601433 1.867278
v 10.978509 -0.120671 1.867278
v 10.841149 -0.601433 4.205455
v 10.978509 -0.120671 4.205455
v 12.113876 -0.965070 2.472809
v 12.251237 -0.484308 2.472809
v 12.113876 -0.965070 4.023636
v 12.251237 -0.484308 4.023636
v 13.386603 -1.328706 2.817080
v 13.523964 -0.847944 2.817080
v 13.386603 -1.328706 3.841818
v 13.523964 -0.847944 3.841818
v 13.871613 -1.603436 2.820000
v 13.844865 -1.104152 2.820000
v 13.871613 -1.603436 3.660000
v 13.844865 -1.104152 3.660000
v 14.395162 -1.266196 2.453444
v 14.212335 -0.800821 2.453444
v 14.395162 -1.266196 3.478182
v 14.212335 -0.800821 3.478182
v 15.667889 -0.766196 1.745536
v 15.485063 -0.300821 1.745536
v 15.667889 -0.766196 3.296364
v 15.485063 -0.300821 3.296364
v 16.940616 -0.266196 0.776369
v 16.757790 0.199179 0.776369
v 16.940616 -0.266196 3.114545
v 16.757790 0.199179 3.114545
v 18.213343 0.233804 -0.334190
v 18.030517 0.699179 -0.334190
v 18.213343 0.233804 2.932727
v 18.030517 0.699179 2.932727
v 9.403918 0.240810 1.020355
v 9.491829 0.548498 1.020355
v 9.491829 0.548498 1.220355
v 9.403918 0.240810 1.220355
v 9.960944 0.081660 1.020355
v 10.048854 0.389348 1.020355
v 10.048854 0.389348 1.220355
v 9.960944 0.081660 1.220355
v 10.676646 -0.122826 1.790239
v 10.764556 0.184862 1.790239
v 10.764556 0.184862 1.990239
v 10.676646 -0.122826 1.990239
v 11.233671 -0.281976 1.790239
v 11.321582 0.025712 1.790239
v 11.321582 0.025712 1.990239
v 11.233671 -0.281976 1.990239
v 11.949373 -0.486462 2.415235
v 12.037284 -0.178775 2.415235
v 12.037284 -0.178775 2.615235
v 11.949373 -0.486462 2.615235
v 12.506398 -0.645612 2.415235
v 12.594309 -0.337925 2.415235
v 12.594309 -0.337925 2.615235
v 12.506398 -0.645612 2.615235
v 13.222100 -0.850099 2.772513
v 13.310011 -0.542411 2.772513
v 13.310011 -0.542411 2.972513
v 13.222100 -0.850099 2.972513
v 13.779125 -1.009249 2.772513
v 13.867036 -0.701561 2.772513
v 13.867036 -0.701561 2.972513
v 13.779125 -1.009249 2.972513
v 13.560170 -1.204526 2.780000
v 13.543051 -0.884984 2.780000
v 13.543051 -0.884984 2.980000
v 13.560170 -1.204526 2.980000
v 14.138655 -1.173536 2.780000
v 14.121537 -0.853994 2.780000
v 14.121537 -0.853994 2.980000
v 14.138655 -1.173536 2.980000
v 13.973817 -0.985848 2.408876
v 13.856808 -0.688008 2.408876
v 13.856808 -0.688008 2.608876
v 13.973817 -0.985848 2.608876
v 14.513015 -0.774021 2.408876
v 14.396006 -0.476180 2.408876
v 14.396006 -0.476180 2.608876
v 14.513015 -0.774021 2.608876
v 15.246544 -0.485848 1.687962
v 15.129535 -0.188008 1.687962
v 15.129535 -0.188008 1.887962
v 15.246544 -0.485848 1.887962
v 15.785742 -0.274021 1.687962
v 15.668734 0.023820 1.687962
v 15.668734 0.023820 1.887962
v 15.785742 -0.274021 1.887962
v 16.519271 0.014152 0.699330
v 16.402262 0.311992 0.699330
v 16.402262 0.311992 0.899330
v 16.519271 0.014152 0.899330
v 17.058470 0.225979 0.699330
v 16.941461 0.523820 0.699330
v 16.941461 0.523820 0.899330
v 17.058470 0.225979 0.899330
v 17.791999 0.514152 -0.434190
v 17.674990 0.811992 -0.434190
v 17.674990 0.811992 -0.234190
v 17.791999 0.514152 -0.234190
v 18.331197 0.725979 -0.434190
v 18.214188 1.023820 -0.434190
v 18.214188 1.023820 -0.234190
v 18.331197 0.725979 -0.234190
v 18.213343 0.233804 -0.044755
v 18.030517 0.699179 -0.044755
v 18.213343 0.233804 2.932727
v 18.030517 0.699179 2.932727
v 19.486071 0.733804 0.700846
v 19.303244 1.199179 0.700846
v 19.486071 0.733804 2.750909
v 19.303244 1.199179 2.750909
v 20.758798 1.233804 1.262760
v 20.575972 1.699179 1.262760
v 20.758798 1.233804 2.569091
v 20.575972 1.699179 2.569091
v 22.031525 1.733804 1.493682
v 21.848699 2.199179 1.493682
v 22.031525 1.733804 2.387273
v 21.848699 2.199179 2.387273
v 23.304252 2.233804 1.311863
v 23.121426 2.699179 1.311863
v 23.304252 2.233804 2.205455
v 23.121426 2.699179 2.205455
v 24.576980 2.733804 0.717305
v 24.394154 3.199179 0.717305
v 24.576980 2.733804 2.023636
v 24.394154 3.199179 2.023636
v 25.849707 3.233804 -0.208245
v 25.666881 3.699179 -0.208245
v 25.849707 3.233804 1.841818
v 25.666881 3.699179 1.841818
v 27.122434 3.733804 -1.317482
v 26.939608 4.199179 -1.317482
v 27.122434 3.733804 1.660000
v 26.939608 4.199179 1.660000
v 17.791973 0.514141 -0.144755
v 17.674964 0.811982 -0.144755
v 17.674964 0.811982 0.055245
v 17.791973 0.514141 0.055245
v 18.331223 0.725990 -0.144755
v 18.214214 1.023830 -0.144755
v 18.214214 1.023830 0.055245
v 18.331223 0.725990 0.055245
v 19.064700 1.014141 0.626879
v 18.947691 1.311982 0.626879
v 18.947691 1.311982 0.826879
v 19.064700 1.014141 0.826879
v 19.603950 1.225990 0.626879
v 19.486941 1.523830 0.626879
v 19.486941 1.523830 0.826879
v 19.603950 1.225990 0.826879
v 20.337427 1.514141 1.209669
v 20.220418 1.811982 1.209669
v 20.220418 1.811982 1.409669
v 20.337427 1.514141 1.409669
v 20.876677 1.725990 1.209669
v 20.759668 2.023830 1.209669
v 20.759668 2.023830 1.409669
v 20.876677 1.725990 1.409669
v 21.610154 2.014141 1.452177
v 21.493146 2.311982 1.452177
v 21.493146 2.311982 1.652177
v 21.610154 2.014141 1.652177
v 22.149404 2.225990 1.452177
v 22.032396 2.523830 1.452177
v 22.032396 2.523830 1.652177
v 22.149404 2.225990 1.652177
v 22.882882 2.514141 1.270359
v 22.765873 2.811982 1.270359
v 22.765873 2.811982 1.470359
v 22.882882 2.514141 1.470359
v 23.422132 2.725990 1.270359
v 23.305123 3.023830 1.270359
v 23.305123 3.023830 1.470359
v 23.422132 2.725990 1.470359
v 24.155609 3.014141 0.664215
v 24.038600 3.311982 0.664215
v 24.038600 3.311982 0.864215
v 24.155609 3.014141 0.864215
v 24.694859 3.225990 0.664215
v 24.577850 3.523830 0.664215
v 24.577850 3.523830 0.864215
v 24.694859 3.225990 0.864215
v 25.428336 3.514141 -0.282212
v 25.311328 3.811982 -0.282212
v 25.311328 3.811982 -0.082212
v 25.428336 3.514141 -0.082212
v 25.967586 3.725990 -0.282212
v 25.850578 4.023830 -0.282212
v 25.850578 4.023830 -0.082212
v 25.967586 3.725990 -0.082212
v 26.701064 4.014141 -1.417482
v 26.584055 4.311982 -1.417482
v 26.584055 4.311982 -1.217482
v 26.701064 4.014141 -1.217482
v 27.240314 4.225990 -1.417482
v 27.123305 4.523830 -1.417482
v 27.123305 4.523830 -1.217482
v 27.240314 4.225990 -1.217482
v -1.096137 -2.598862 -4.500000
v 0.442301 2.785672 -4.500000
v 0.442301 2.785672 4.920000
v -1.096137 -2.598862 4.920000
v -0.442301 -2.785672 -4.500000
v 1.096137 2.598862 -4.500000
v 1.096137 2.598862 4.920000
v -0.442301 -2.785672 4.920000
v -1.120862 -2.903802 5.760000
v 0.582409 3.057646 5.760000
v 0.582409 3.057646 5.880000
v -1.120862 -2.903802 5.880000
v -0.582409 -3.057646 5.760000
v 1.120862 2.903802 5.760000
v 1.120862 2.903802 5.880000
v -0.582409 -3.057646 5.880000
v -1.107126 -2.710124 5.680000
v -1.019215 -2.402436 5.680000
v -1.019215 -2.402436 5.840000
v -1.107126 -2.710124 5.840000
v -0.491751 -2.885945 5.680000
v -0.403840 -2.578258 5.680000
v -0.403840 -2.578258 5.840000
v -0.491751 -2.885945 5.840000
v 0.403840 2.578258 5.680000
v 0.491751 2.885945 5.680000
v 0.491751 2.885945 5.840000
v 0.403840 2.578258 5.840000
v 1.019215 2.402436 5.680000
v 1.107126 2.710124 5.680000
v 1.107126 2.710124 5.840000
v 1.019215 2.402436 5.840000
v 1.424592 -3.631075 5.396364
v 3.127863 2.330373 5.396364
v 3.127863 2.330373 5.516364
v 1.424592 -3.631075 5.516364
v 1.963046 -3.784919 5.396364
v 3.666317 2.176530 5.396364
v 3.666317 2.176530 5.516364
v 1.963046 -3.784919 5.516364
v 2.711056 -3.801033 5.134545
v 2.798966 -3.493345 5.134545
v 2.798966 -3.493345 5.294545
v 2.711056 -3.801033 5.294545
v 3.326431 -3.976855 5.134545
v 3.414342 -3.669167 5.134545
v 3.414342 -3.669167 5.294545
v 3.326431 -3.976855 5.294545
v 4.222022 1.487349 5.134545
v 4.309933 1.795036 5.134545
v 4.309933 1.795036 5.294545
v 4.222022 1.487349 5.294545
v 4.837397 1.311527 5.134545
v 4.925308 1.619215 5.134545
v 4.925308 1.619215 5.294545
v 4.837397 1.311527 5.294545
v 4.110155 -4.086374 -4.500000
v 5.648593 1.298160 -4.500000
v 5.648593 1.298160 4.192727
v 4.110155 -4.086374 4.192727
v 4.533225 -4.207251 -4.500000
v 6.071664 1.177283 -4.500000
v 6.071664 1.177283 4.192727
v 4.533225 -4.207251 4.192727
v 3.970047 -4.358348 5.032727
v 5.673318 1.603101 5.032727
v 5.673318 1.603101 5.152727
v 3.970047 -4.358348 5.152727
v 4.508500 -4.512192 5.032727
v 6.211771 1.449257 5.032727
v 6.211771 1.449257 5.152727
v 4.508500 -4.512192 5.152727
v 6.515501 -5.085621 4.669091
v 8.218772 0.875828 4.669091
v 8.218772 0.875828 4.789091
v 6.515501 -5.085621 4.789091
v 7.053955 -5.239464 4.669091
v 8.757226 0.721984 4.669091
v 8.757226 0.721984 4.789091
v 7.053955 -5.239464 4.789091
v 6.529237 -4.891942 4.589091
v 6.617148 -4.584254 4.589091
v 6.617148 -4.584254 4.749091
v 6.529237 -4.891942 4.749091
v 7.144613 -5.067764 4.589091
v 7.232524 -4.760076 4.589091
v 7.232524 -4.760076 4.749091
v 7.144613 -5.067764 4.749091
v 8.040204 0.396440 4.589091
v 8.128114 0.704127 4.589091
v 8.128114 0.704127 4.749091
v 8.040204 0.396440 4.749091
v 8.655579 0.220618 4.589091
v 8.743490 0.528306 4.589091
v 8.743490 0.528306 4.749091
v 8.655579 0.220618 4.749091
v 9.201064 -5.540919 -4.500000
v 10.739502 -0.156385 -4.500000
v 10.739502 -0.156385 3.465455
v 9.201064 -5.540919 3.465455
v 9.624134 -5.661797 -4.500000
v 11.162573 -0.277263 -4.500000
v 11.162573 -0.277263 3.465455
v 9.624134 -5.661797 3.465455
v 9.060956 -5.812893 4.305455
v 10.764227 0.148555 4.305455
v 10.764227 0.148555 4.425455
v 9.060956 -5.812893 4.425455
v 9.599409 -5.966737 4.305455
v 11.302680 -0.005289 4.305455
v 11.302680 -0.005289 4.425455
v 9.599409 -5.966737 4.425455
v 10.347419 -5.982851 4.043636
v 10.435330 -5.675164 4.043636
v 10.435330 -5.675164 4.203636
v 10.347419 -5.982851 4.203636
v 10.962795 -6.158673 4.043636
v 11.050705 -5.850985 4.043636
v 11.050705 -5.850985 4.203636
v 10.962795 -6.158673 4.203636
v 11.858386 -0.694469 4.043636
v 11.946296 -0.386782 4.043636
v 11.946296 -0.386782 4.203636
v 11.858386 -0.694469 4.203636
v 12.473761 -0.870291 4.043636
v 12.561672 -0.562603 4.043636
v 12.561672 -0.562603 4.203636
v 12.473761 -0.870291 4.203636
v 11.606411 -6.540166 3.941818
v 13.309682 -0.578717 3.941818
v 13.309682 -0.578717 4.061818
v 11.606411 -6.540166 4.061818
v 12.144864 -6.694010 3.941818
v 13.848135 -0.732561 3.941818
v 13.848135 -0.732561 4.061818
v 12.144864 -6.694010 4.061818
v 16.091789 -6.186548 -4.500000
v 14.044135 -0.974339 -4.500000
v 14.044135 -0.974339 2.738182
v 16.091789 -6.186548 2.738182
v 16.501319 -6.025661 -4.500000
v 14.453666 -0.813452 -4.500000
v 14.453666 -0.813452 2.738182
v 16.501319 -6.025661 2.738182
v 16.145639 -6.487712 3.578182
v 13.878595 -0.717053 3.578182
v 13.878595 -0.717053 3.698182
v 16.145639 -6.487712 3.698182
v 16.666860 -6.282947 3.578182
v 14.399815 -0.512288 3.578182
v 14.399815 -0.512288 3.698182
v 16.666860 -6.282947 3.698182
v 16.038935 -6.325496 3.498182
v 15.921926 -6.027655 3.498182
v 15.921926 -6.027655 3.658182
v 16.038935 -6.325496 3.658182
v 16.634616 -6.091478 3.498182
v 16.517607 -5.793638 3.498182
v 16.517607 -5.793638 3.658182
v 16.634616 -6.091478 3.658182
v 14.027847 -1.206362 3.498182
v 13.910838 -0.908522 3.498182
v 13.910838 -0.908522 3.658182
v 14.027847 -1.206362 3.658182
v 14.623528 -0.972345 3.498182
v 14.506519 -0.674504 3.498182
v 14.506519 -0.674504 3.658182
v 14.623528 -0.972345 3.658182
v 18.691094 -5.487712 3.214545
v 16.424049 0.282947 3.214545
v 16.424049 0.282947 3.334545
v 18.691094 -5.487712 3.334545
v 19.212315 -5.282947 3.214545
v 16.945270 0.487712 3.214545
v 16.945270 0.487712 3.334545
v 19.212315 -5.282947 3.334545
v 19.857117 -4.825496 2.952727
v 19.740108 -4.527655 2.952727
v 19.740108 -4.527655 3.112727
v 19.857117 -4.825496 3.112727
v 20.452798 -4.591478 2.952727
v 20.335789 -4.293638 2.952727
v 20.335789 -4.293638 3.112727
v 20.452798 -4.591478 3.112727
v 17.846029 0.293638 2.952727
v 17.729020 0.591478 2.952727
v 17.729020 0.591478 3.112727
v 17.846029 0.293638 3.112727
v 18.441710 0.527655 2.952727
v 18.324701 0.825496 2.952727
v 18.324701 0.825496 3.112727
v 18.441710 0.527655 3.112727
v 21.182698 -4.186548 -4.500000
v 19.135044 1.025661 -4.500000
v 19.135044 1.025661 2.010909
v 21.182698 -4.186548 2.010909
v 21.592228 -4.025661 -4.500000
v 19.544575 1.186548 -4.500000
v 19.544575 1.186548 2.010909
v 21.592228 -4.025661 2.010909
v 21.236548 -4.487712 2.850909
v 18.969504 1.282947 2.850909
v 18.969504 1.282947 2.970909
v 21.236548 -4.487712 2.970909
v 21.757769 -4.282947 2.850909
v 19.490724 1.487712 2.850909
v 19.490724 1.487712 2.970909
v 21.757769 -4.282947 2.970909
v 23.782003 -3.487712 2.487273
v 21.514958 2.282947 2.487273
v 21.514958 2.282947 2.607273
v 23.782003 -3.487712 2.607273
v 24.303224 -3.282947 2.487273
v 22.036179 2.487712 2.487273
v 22.036179 2.487712 2.607273
v 24.303224 -3.282947 2.607273
v 23.675299 -3.325496 2.407273
v 23.558290 -3.027655 2.407273
v 23.558290 -3.027655 2.567273
v 23.675299 -3.325496 2.567273
v 24.270980 -3.091478 2.407273
v 24.153971 -2.793638 2.407273
v 24.153971 -2.793638 2.567273
v 24.270980 -3.091478 2.567273
v 21.664211 1.793638 2.407273
v 21.547202 2.091478 2.407273
v 21.547202 2.091478 2.567273
v 21.664211 1.793638 2.567273
v 22.259892 2.027655 2.407273
v 22.142883 2.325496 2.407273
v 22.142883 2.325496 2.567273
v 22.259892 2.027655 2.567273
v 26.273607 -2.186548 -4.500000
v 24.225953 3.025661 -4.500000
v 24.225953 3.025661 1.283636
v 26.273607 -2.186548 1.283636
v 26.683137 -2.025661 -4.500000
v 24.635484 3.186548 -4.500000
v 24.635484 3.186548 1.283636
v 26.683137 -2.025661 1.283636
v 26.327457 -2.487712 2.123636
v 24.060413 3.282947 2.123636
v 24.060413 3.282947 2.243636
v 26.327457 -2.487712 2.243636
v 26.848678 -2.282947 2.123636
v 24.581634 3.487712 2.123636
v 24.581634 3.487712 2.243636
v 26.848678 -2.282947 2.243636
v 27.493481 -1.825496 1.861818
v 27.376472 -1.527655 1.861818
v 27.376472 -1.527655 2.021818
v 27.493481 -1.825496 2.021818
v 28.089162 -1.591478 1.861818
v 27.972153 -1.293638 1.861818
v 27.972153 -1.293638 2.021818
v 28.089162 -1.591478 2.021818
v 25.482393 3.293638 1.861818
v 25.365384 3.591478 1.861818
v 25.365384 3.591478 2.021818
v 25.482393 3.293638 2.021818
v 26.078074 3.527655 1.861818
v 25.961065 3.825496 1.861818
v 25.961065 3.825496 2.021818
v 26.078074 3.527655 2.021818
v 28.707371 -1.230426 -4.500000
v 26.659718 3.981782 -4.500000
v 26.659718 3.981782 0.920000
v 28.707371 -1.230426 0.920000
v 29.340282 -0.981782 -4.500000
v 27.292629 4.230426 -4.500000
v 27.292629 4.230426 0.920000
v 29.340282 -0.981782 0.920000
v 28.872912 -1.487712 1.760000
v 26.605867 4.282947 1.760000
v 26.605867 4.282947 1.880000
v 28.872912 -1.487712 1.880000
v 29.394133 -1.282947 1.760000
v 27.127088 4.487712 1.760000
v 27.127088 4.487712 1.880000
v 29.394133 -1.282947 1.880000
v -0.758230 -1.634591 5.010000
v -0.593398 -1.057676 5.010000
v -0.593398 -1.057676 5.060000
v -0.758230 -1.634591 5.060000
v -0.219777 -1.788435 5.010000
v -0.054944 -1.211520 5.010000
v -0.054944 -1.211520 5.060000
v -0.219777 -1.788435 5.060000
v -0.527465 -0.826911 5.010000
v -0.362632 -0.249996 5.010000
v -0.362632 -0.249996 5.060000
v -0.527465 -0.826911 5.060000
v 0.010989 -0.980754 5.010000
v 0.175822 -0.403840 5.010000
v 0.175822 -0.403840 5.060000
v 0.010989 -0.980754 5.060000
v -0.351643 -0.211535 5.010000
v -0.186810 0.365379 5.010000
v -0.186810 0.365379 5.060000
v -0.351643 -0.211535 5.060000
v 0.186810 -0.365379 5.010000
v 0.351643 0.211535 5.010000
v 0.351643 0.211535 5.060000
v 0.186810 -0.365379 5.060000
v -0.120877 0.596145 5.010000
v 0.043955 1.173059 5.010000
v 0.043955 1.173059 5.060000
v -0.120877 0.596145 5.060000
v 0.417576 0.442301 5.010000
v 0.582409 1.019215 5.010000
v 0.582409 1.019215 5.060000
v 0.417576 0.442301 5.060000
v 0.054944 1.211520 5.010000
v 0.219777 1.788435 5.010000
v 0.219777 1.788435 5.060000
v 0.054944 1.211520 5.060000
v 0.593398 1.057676 5.010000
v 0.758230 1.634591 5.010000
v 0.758230 1.634591 5.060000
v 0.593398 1.057676 5.060000
v 1.787224 -2.361863 4.646364
v 1.952057 -1.784949 4.646364
v 1.952057 -1.784949 4.696364
v 1.787224 -2.361863 4.696364
v 2.325678 -2.515707 4.646364
v 2.490510 -1.938793 4.646364
v 2.490510 -1.938793 4.696364
v 2.325678 -2.515707 4.696364
v 2.017990 -1.554183 4.646364
v 2.182823 -0.977269 4.646364
v 2.182823 -0.977269 4.696364
v 2.017990 -1.554183 4.696364
v 2.556443 -1.708027 4.646364
v 2.721276 -1.131113 4.646364
v 2.721276 -1.131113 4.696364
v 2.556443 -1.708027 4.696364
v 2.193812 -0.938808 4.646364
v 2.358644 -0.361894 4.646364
v 2.358644 -0.361894 4.696364
v 2.193812 -0.938808 4.696364
v 2.732265 -1.092652 4.646364
v 2.897098 -0.515737 4.646364
v 2.897098 -0.515737 4.696364
v 2.732265 -1.092652 4.696364
v 2.424577 -0.131128 4.646364
v 2.589410 0.445786 4.646364
v 2.589410 0.445786 4.696364
v 2.424577 -0.131128 4.696364
v 2.963031 -0.284972 4.646364
v 3.127863 0.291943 4.646364
v 3.127863 0.291943 4.696364
v 2.963031 -0.284972 4.696364
v 2.600399 0.484247 4.646364
v 2.765231 1.061162 4.646364
v 2.765231 1.061162 4.696364
v 2.600399 0.484247 4.696364
v 3.138852 0.330404 4.646364
v 3.303685 0.907318 4.646364
v 3.303685 0.907318 4.696364
v 3.138852 0.330404 4.696364
v 4.332679 -3.089136 4.282727
v 4.497511 -2.512222 4.282727
v 4.497511 -2.512222 4.332727
v 4.332679 -3.089136 4.332727
v 4.871132 -3.242980 4.282727
v 5.035965 -2.666066 4.282727
v 5.035965 -2.666066 4.332727
v 4.871132 -3.242980 4.332727
v 4.563445 -2.281456 4.282727
v 4.728277 -1.704542 4.282727
v 4.728277 -1.704542 4.332727
v 4.563445 -2.281456 4.332727
v 5.101898 -2.435300 4.282727
v 5.266731 -1.858386 4.282727
v 5.266731 -1.858386 4.332727
v 5.101898 -2.435300 4.332727
v 4.739266 -1.666081 4.282727
v 4.904099 -1.089166 4.282727
v 4.904099 -1.089166 4.332727
v 4.739266 -1.666081 4.332727
v 5.277719 -1.819925 4.282727
v 5.442552 -1.243010 4.282727
v 5.442552 -1.243010 4.332727
v 5.277719 -1.819925 4.332727
v 4.970032 -0.858401 4.282727
v 5.134864 -0.281486 4.282727
v 5.134864 -0.281486 4.332727
v 4.970032 -0.858401 4.332727
v 5.508485 -1.012244 4.282727
v 5.673318 -0.435330 4.282727
v 5.673318 -0.435330 4.332727
v 5.508485 -1.012244 4.332727
v 5.145853 -0.243025 4.282727
v 5.310686 0.333889 4.282727
v 5.310686 0.333889 4.332727
v 5.145853 -0.243025 4.332727
v 5.684307 -0.396869 4.282727
v 5.849139 0.180045 4.282727
v 5.849139 0.180045 4.332727
v 5.684307 -0.396869 4.332727
v 6.878133 -3.816409 3.919091
v 7.042966 -3.239495 3.919091
v 7.042966 -3.239495 3.969091
v 6.878133 -3.816409 3.969091
v 7.416587 -3.970253 3.919091
v 7.581419 -3.393338 3.919091
v 7.581419 -3.393338 3.969091
v 7.416587 -3.970253 3.969091
v 7.108899 -3.008729 3.919091
v 7.273732 -2.431814 3.919091
v 7.273732 -2.431814 3.969091
v 7.108899 -3.008729 3.969091
v 7.647352 -3.162573 3.919091
v 7.812185 -2.585658 3.919091
v 7.812185 -2.585658 3.969091
v 7.647352 -3.162573 3.969091
v 7.284721 -2.393353 3.919091
v 7.449553 -1.816439 3.919091
v 7.449553 -1.816439 3.969091
v 7.284721 -2.393353 3.969091
v 7.823174 -2.547197 3.919091
v 7.988007 -1.970283 3.919091
v 7.988007 -1.970283 3.969091
v 7.823174 -2.547197 3.969091
v 7.515486 -1.585673 3.919091
v 7.680319 -1.008759 3.919091
v 7.680319 -1.008759 3.969091
v 7.515486 -1.585673 3.969091
v 8.053940 -1.739517 3.919091
v 8.218772 -1.162603 3.919091
v 8.218772 -1.162603 3.969091
v 8.053940 -1.739517 3.969091
v 7.691308 -0.970298 3.919091
v 7.856141 -0.393384 3.919091
v 7.856141 -0.393384 3.969091
v 7.691308 -0.970298 3.969091
v 8.229761 -1.124142 3.919091
v 8.394594 -0.547227 3.919091
v 8.394594 -0.547227 3.969091
v 8.229761 -1.124142 3.969091
v 9.423588 -4.543682 3.555455
v 9.588421 -3.966767 3.555455
v 9.588421 -3.966767 3.605455
v 9.423588 -4.543682 3.605455
v 9.962041 -4.697525 3.555455
v 10.126874 -4.120611 3.555455
v 10.126874 -4.120611 3.605455
v 9.962041 -4.697525 3.605455
v 9.654354 -3.736002 3.555455
v 9.819186 -3.159087 3.555455
v 9.819186 -3.159087 3.605455
v 9.654354 -3.736002 3.605455
v 10.192807 -3.889845 3.555455
v 10.357640 -3.312931 3.555455
v 10.357640 -3.312931 3.605455
v 10.192807 -3.889845 3.605455
v 9.830175 -3.120626 3.555455
v 9.995008 -2.543712 3.555455
v 9.995008 -2.543712 3.605455
v 9.830175 -3.120626 3.605455
v 10.368629 -3.274470 3.555455
v 10.533461 -2.697556 3.555455
v 10.533461 -2.697556 3.605455
v 10.368629 -3.274470 3.605455
v 10.060941 -2.312946 3.555455
v 10.225774 -1.736032 3.555455
v 10.225774 -1.736032 3.605455
v 10.060941 -2.312946 3.605455
v 10.599394 -2.466790 3.555455
v 10.764227 -1.889876 3.555455
v 10.764227 -1.889876 3.605455
v 10.599394 -2.466790 3.605455
v 10.236762 -1.697571 3.555455
v 10.401595 -1.120656 3.555455
v 10.401595 -1.120656 3.605455
v 10.236762 -1.697571 3.605455
v 10.775216 -1.851415 3.555455
v 10.940048 -1.274500 3.555455
v 10.940048 -1.274500 3.605455
v 10.775216 -1.851415 3.605455
v 11.969042 -5.270954 3.191818
v 12.133875 -4.694040 3.191818
v 12.133875 -4.694040 3.241818
v 11.969042 -5.270954 3.241818
v 12.507496 -5.424798 3.191818
v 12.672329 -4.847884 3.191818
v 12.672329 -4.847884 3.241818
v 12.507496 -5.424798 3.241818
v 12.199808 -4.463274 3.191818
v 12.364641 -3.886360 3.191818
v 12.364641 -3.886360 3.241818
v 12.199808 -4.463274 3.241818
v 12.738262 -4.617118 3.191818
v 12.903094 -4.040204 3.191818
v 12.903094 -4.040204 3.241818
v 12.738262 -4.617118 3.241818
v 12.375630 -3.847899 3.191818
v 12.540462 -3.270985 3.191818
v 12.540462 -3.270985 3.241818
v 12.375630 -3.847899 3.241818
v 12.914083 -4.001743 3.191818
v 13.078916 -3.424828 3.191818
v 13.078916 -3.424828 3.241818
v 12.914083 -4.001743 3.241818
v 12.606395 -3.040219 3.191818
v 12.771228 -2.463304 3.191818
v 12.771228 -2.463304 3.241818
v 12.606395 -3.040219 3.241818
v 13.144849 -3.194063 3.191818
v 13.309682 -2.617148 3.191818
v 13.309682 -2.617148 3.241818
v 13.144849 -3.194063 3.241818
v 12.782217 -2.424843 3.191818
v 12.947050 -1.847929 3.191818
v 12.947050 -1.847929 3.241818
v 12.782217 -2.424843 3.241818
v 13.320670 -2.578687 3.191818
v 13.485503 -2.001773 3.191818
v 13.485503 -2.001773 3.241818
v 13.320670 -2.578687 3.241818
v 15.662978 -5.259120 2.828182
v 15.443587 -4.700669 2.828182
v 15.443587 -4.700669 2.878182
v 15.662978 -5.259120 2.878182
v 16.184199 -5.054355 2.828182
v 15.964807 -4.495904 2.828182
v 15.964807 -4.495904 2.878182
v 16.184199 -5.054355 2.878182
v 15.355830 -4.477289 2.828182
v 15.136439 -3.918838 2.828182
v 15.136439 -3.918838 2.878182
v 15.355830 -4.477289 2.878182
v 15.877051 -4.272524 2.828182
v 15.657659 -3.714073 2.828182
v 15.657659 -3.714073 2.878182
v 15.877051 -4.272524 2.878182
v 15.121813 -3.881608 2.828182
v 14.902421 -3.323157 2.828182
v 14.902421 -3.323157 2.878182
v 15.121813 -3.881608 2.878182
v 15.643033 -3.676843 2.828182
v 15.423642 -3.118392 2.828182
v 15.423642 -3.118392 2.878182
v 15.643033 -3.676843 2.878182
v 14.814665 -3.099777 2.828182
v 14.595273 -2.541326 2.828182
v 14.595273 -2.541326 2.878182
v 14.814665 -3.099777 2.878182
v 15.335885 -2.895012 2.828182
v 15.116494 -2.336561 2.828182
v 15.116494 -2.336561 2.878182
v 15.335885 -2.895012 2.878182
v 14.580647 -2.504096 2.828182
v 14.361256 -1.945645 2.828182
v 14.361256 -1.945645 2.878182
v 14.580647 -2.504096 2.878182
v 15.101868 -2.299331 2.828182
v 14.882476 -1.740880 2.828182
v 14.882476 -1.740880 2.878182
v 15.101868 -2.299331 2.878182
v 18.208433 -4.259120 2.464545
v 17.989041 -3.700669 2.464545
v 17.989041 -3.700669 2.514545
v 18.208433 -4.259120 2.514545
v 18.729653 -4.054355 2.464545
v 18.510262 -3.495904 2.464545
v 18.510262 -3.495904 2.514545
v 18.729653 -4.054355 2.514545
v 17.901285 -3.477289 2.464545
v 17.681893 -2.918838 2.464545
v 17.681893 -2.918838 2.514545
v 17.901285 -3.477289 2.514545
v 18.422505 -3.272524 2.464545
v 18.203114 -2.714073 2.464545
v 18.203114 -2.714073 2.514545
v 18.422505 -3.272524 2.514545
v 17.667267 -2.881608 2.464545
v 17.447876 -2.323157 2.464545
v 17.447876 -2.323157 2.514545
v 17.667267 -2.881608 2.514545
v 18.188488 -2.676843 2.464545
v 17.969097 -2.118392 2.464545
v 17.969097 -2.118392 2.514545
v 18.188488 -2.676843 2.514545
v 17.360119 -2.099777 2.464545
v 17.140728 -1.541326 2.464545
v 17.140728 -1.541326 2.514545
v 17.360119 -2.099777 2.514545
v 17.881340 -1.895012 2.464545
v 17.661949 -1.336561 2.464545
v 17.661949 -1.336561 2.514545
v 17.881340 -1.895012 2.514545
v 17.126102 -1.504096 2.464545
v 16.906710 -0.945645 2.464545
v 16.906710 -0.945645 2.514545
v 17.126102 -1.504096 2.514545
v 17.647322 -1.299331 2.464545
v 17.427931 -0.740880 2.464545
v 17.427931 -0.740880 2.514545
v 17.647322 -1.299331 2.514545
v 20.753887 -3.259120 2.100909
v 20.534496 -2.700669 2.100909
v 20.534496 -2.700669 2.150909
v 20.753887 -3.259120 2.150909
v 21.275108 -3.054355 2.100909
v 21.055717 -2.495904 2.100909
v 21.055717 -2.495904 2.150909
v 21.275108 -3.054355 2.150909
v 20.446739 -2.477289 2.100909
v 20.227348 -1.918838 2.100909
v 20.227348 -1.918838 2.150909
v 20.446739 -2.477289 2.150909
v 20.967960 -2.272524 2.100909
v 20.748569 -1.714073 2.100909
v 20.748569 -1.714073 2.150909
v 20.967960 -2.272524 2.150909
v 20.212722 -1.881608 2.100909
v 19.993330 -1.323157 2.100909
v 19.993330 -1.323157 2.150909
v 20.212722 -1.881608 2.150909
v 20.733942 -1.676843 2.100909
v 20.514551 -1.118392 2.100909
v 20.514551 -1.118392 2.150909
v 20.733942 -1.676843 2.150909
v 19.905574 -1.099777 2.100909
v 19.686182 -0.541326 2.100909
v 19.686182 -0.541326 2.150909
v 19.905574 -1.099777 2.150909
v 20.426795 -0.895012 2.100909
v 20.207403 -0.336561 2.100909
v 20.207403 -0.336561 2.150909
v 20.426795 -0.895012 2.150909
v 19.671556 -0.504096 2.100909
v 19.452165 0.054355 2.100909
v 19.452165 0.054355 2.150909
v 19.671556 -0.504096 2.150909
v 20.192777 -0.299331 2.100909
v 19.973386 0.259120 2.100909
v 19.973386 0.259120 2.150909
v 20.192777 -0.299331 2.150909
v 23.299342 -2.259120 1.737273
v 23.079950 -1.700669 1.737273
v 23.079950 -1.700669 1.787273
v 23.299342 -2.259120 1.787273
v 23.820563 -2.054355 1.737273
v 23.601171 -1.495904 1.737273
v 23.601171 -1.495904 1.787273
v 23.820563 -2.054355 1.787273
v 22.992194 -1.477289 1.737273
v 22.772802 -0.918838 1.737273
v 22.772802 -0.918838 1.787273
v 22.992194 -1.477289 1.787273
v 23.513415 -1.272524 1.737273
v 23.294023 -0.714073 1.737273
v 23.294023 -0.714073 1.787273
v 23.513415 -1.272524 1.787273
v 22.758176 -0.881608 1.737273
v 22.538785 -0.323157 1.737273
v 22.538785 -0.323157 1.787273
v 22.758176 -0.881608 1.787273
v 23.279397 -0.676843 1.737273
v 23.060006 -0.118392 1.737273
v 23.060006 -0.118392 1.787273
v 23.279397 -0.676843 1.787273
v 22.451028 -0.099777 1.737273
v 22.231637 0.458674 1.737273
v 22.231637 0.458674 1.787273
v 22.451028 -0.099777 1.787273
v 22.972249 0.104988 1.737273
v 22.752858 0.663439 1.737273
v 22.752858 0.663439 1.787273
v 22.972249 0.104988 1.787273
v 22.217011 0.495904 1.737273
v 21.997619 1.054355 1.737273
v 21.997619 1.054355 1.787273
v 22.217011 0.495904 1.787273
v 22.738232 0.700669 1.737273
v 22.518840 1.259120 1.737273
v 22.518840 1.259120 1.787273
v 22.738232 0.700669 1.787273
v 25.844796 -1.259120 1.373636
v 25.625405 -0.700669 1.373636
v 25.625405 -0.700669 1.423636
v 25.844796 -1.259120 1.423636
v 26.366017 -1.054355 1.373636
v 26.146626 -0.495904 1.373636
v 26.146626 -0.495904 1.423636
v 26.366017 -1.054355 1.423636
v 25.537648 -0.477289 1.373636
v 25.318257 0.081162 1.373636
v 25.318257 0.081162 1.423636
v 25.537648 -0.477289 1.423636
v 26.058869 -0.272524 1.373636
v 25.839478 0.285927 1.373636
v 25.839478 0.285927 1.423636
v 26.058869 -0.272524 1.423636
v 25.303631 0.118392 1.373636
v 25.084239 0.676843 1.373636
v 25.084239 0.676843 1.423636
v 25.303631 0.118392 1.423636
v 25.824852 0.323157 1.373636
v 25.605460 0.881608 1.373636
v 25.605460 0.881608 1.423636
v 25.824852 0.323157 1.423636
v 24.996483 0.900223 1.373636
v 24.777091 1.458674 1.373636
v 24.777091 1.458674 1.423636
v 24.996483 0.900223 1.423636
v 25.517704 1.104988 1.373636
v 25.298312 1.663439 1.373636
v 25.298312 1.663439 1.423636
v 25.517704 1.104988 1.423636
v 24.762465 1.495904 1.373636
v 24.543074 2.054355 1.373636
v 24.543074 2.054355 1.423636
v 24.762465 1.495904 1.423636
v 25.283686 1.700669 1.373636
v 25.064295 2.259120 1.373636
v 25.064295 2.259120 1.423636
v 25.283686 1.700669 1.423636
v 28.390251 -0.259120 1.010000
v 28.170859 0.299331 1.010000
v 28.170859 0.299331 1.060000
v 28.390251 -0.259120 1.060000
v 28.911472 -0.054355 1.010000
v 28.692080 0.504096 1.010000
v 28.692080 0.504096 1.060000
v 28.911472 -0.054355 1.060000
v 28.083103 0.522711 1.010000
v 27.863711 1.081162 1.010000
v 27.863711 1.081162 1.060000
v 28.083103 0.522711 1.060000
v 28.604324 0.727476 1.010000
v 28.384932 1.285927 1.010000
v 28.384932 1.285927 1.060000
v 28.604324 0.727476 1.060000
v 27.849085 1.118392 1.010000
v 27.629694 1.676843 1.010000
v 27.629694 1.676843 1.060000
v 27.849085 1.118392 1.060000
v 28.370306 1.323157 1.010000
v 28.150915 1.881608 1.010000
v 28.150915 1.881608 1.060000
v 28.370306 1.323157 1.060000
v 27.541937 1.900223 1.010000
v 27.322546 2.458674 1.010000
v 27.322546 2.458674 1.060000
v 27.541937 1.900223 1.060000
v 28.063158 2.104988 1.010000
v 27.843767 2.663439 1.010000
v 27.843767 2.663439 1.060000
v 28.063158 2.104988 1.060000
v 27.307920 2.495904 1.010000
v 27.088528 3.054355 1.010000
v 27.088528 3.054355 1.060000
v 27.307920 2.495904 1.060000
v 27.829141 2.700669 1.010000
v 27.609749 3.259120 1.010000
v 27.609749 3.259120 1.060000
v 27.829141 2.700669 1.060000
v -0.807680 -1.225256 4.480000
v -0.038461 1.467011 4.480000
v -0.038461 1.467011 4.680000
v -0.807680 -1.225256 4.680000
v 0.038461 -1.467011 4.480000
v 0.807680 1.225256 4.480000
v 0.807680 1.225256 4.680000
v 0.038461 -1.467011 4.680000
v 8.101411 -3.770711 3.207273
v 8.870630 -1.078444 3.207273
v 8.870630 -1.078444 3.407273
v 8.101411 -3.770711 3.407273
v 8.947552 -4.012465 3.207273
v 9.716771 -1.320198 3.207273
v 9.716771 -1.320198 3.407273
v 8.947552 -4.012465 3.407273
v 17.920564 -3.963939 1.934545
v 16.896738 -1.357835 1.934545
v 16.896738 -1.357835 2.134545
v 17.920564 -3.963939 2.134545
v 18.739626 -3.642165 1.934545
v 17.715799 -1.036061 1.934545
v 17.715799 -1.036061 2.134545
v 18.739626 -3.642165 2.134545
v 26.829655 -0.463939 0.661818
v 25.805829 2.142165 0.661818
v 25.805829 2.142165 0.861818
v 26.829655 -0.463939 0.861818
v 27.648717 -0.142165 0.661818
v 26.624890 2.463939 0.661818
v 26.624890 2.463939 0.861818
v 27.648717 -0.142165 0.861818
f 1 5 6 2
f 3 4 8 7
f 1 3 7 5
f 2 6 8 4
f 5 9 10 6
f 7 8 12 11
f 5 7 11 9
f 6 10 12 8
f 9 13 14 10
f 11 12 16 15
f 9 11 15 13
f 10 14 16 12
f 13 17 18 14
f 15 16 20 19
f 13 15 19 17
f 14 18 20 16
f 17 21 22 18
f 19 20 24 23
f 17 19 23 21
f 18 22 24 20
f 21 25 26 22
f 23 24 28 27
f 21 23 27 25
f 22 26 28 24
f 25 29 30 26
f 27 28 32 31
f 25 27 31 29
f 26 30 32 28
f 29 33 34 30
f 31 32 36 35
f 29 31 35 33
f 30 34 36 32
f 33 37 38 34
f 35 36 40 39
f 33 35 39 37
f 34 38 40 36
f 37 41 42 38
f 39 40 44 43
f 37 39 43 41
f 38 42 44 40
f 41 45 46 42
f 43 44 48 47
f 41 43 47 45
f 42 46 48 44
f 45 49 50 46
f 47 48 52 51
f 45 47 51 49
f 46 50 52 48
f 49 53 54 50
f 51 52 56 55
f 49 51 55 53
f 50 54 56 52
f 53 57 58 54
f 55 56 60 59
f 53 55 59 57
f 54 58 60 56
f 57 61 62 58
f 59 60 64 63
f 57 59 63 61
f 58 62 64 60
f 61 65 66 62
f 63 64 68 67
f 61 63 67 65
f 62 66 68 64
f 65 69 70 66
f 67 68 72 71
f 65 67 71 69
f 66 70 72 68
f 69 73 74 70
f 71 72 76 75
f 69 71 75 73
f 70 74 76 72
f 73 77 78 74
f 75 76 80 79
f 73 75 79 77
f 74 78 80 76
f 77 81 82 78
f 79 80 84 83
f 77 79 83 81
f 78 82 84 80
f 81 85 86 82
f 83 84 88 87
f 81 83 87 85
f 82 86 88 84
f 85 89 90 86
f 87 88 92 91
f 85 87 91 89
f 86 90 92 88
f 93 97 99 95
f 94 96 100 98
f 95 99 100 96
f 93 94 98 97
f 97 101 103 99
f 98 100 104 102
f 99 103 104 100
f 97 98 102 101
f 101 105 107 103
f 102 104 108 106
f 103 107 108 104
f 101 102 106 105
f 105 109 111 107
f 106 108 112 110
f 107 111 112 108
f 105 106 110 109
f 109 113 115 111
f 110 112 116 114
f 111 115 116 112
f 109 110 114 113
f 113 117 119 115
f 114 116 120 118
f 115 119 120 116
f 113 114 118 117
f 117 121 123 119
f 118 120 124 122
f 119 123 124 120
f 117 118 122 121
f 125 128 127 126
f 129 130 131 132
f 125 126 130 129
f 127 128 132 131
f 125 129 132 128
f 126 127 131 130
f 133 136 135 134
f 137 138 139 140
f 133 134 138 137
f 135 136 140 139
f 133 137 140 136
f 134 135 139 138
f 141 144 143 142
f 145 146 147 148
f 141 142 146 145
f 143 144 148 147
f 141 145 148 144
f 142 143 147 146
f 149 152 151 150
f 153 154 155 156
f 149 150 154 153
f 151 152 156 155
f 149 153 156 152
f 150 151 155 154
f 157 160 159 158
f 161 162 163 164
f 157 158 162 161
f 159 160 164 163
f 157 161 164 160
f 158 159 163 162
f 165 168 167 166
f 169 170 171 172
f 165 166 170 169
f 167 168 172 171
f 165 169 172 168
f 166 167 171 170
f 173 176 175 174
f 177 178 179 180
f 173 174 178 177
f 175 176 180 179
f 173 177 180 176
f 174 175 179 178
f 181 184 183 182
f 185 186 187 188
f 181 182 186 185
f 183 184 188 187
f 181 185 188 184
f 182 183 187 186
f 189 193 195 191
f 190 192 196 194
f 191 195 196 192
f 189 190 194 193
f 193 197 199 195
f 194 196 200 198
f 195 199 200 196
f 193 194 198 197
f 197 201 203 199
f 198 200 204 202
f 199 203 204 200
f 197 198 202 201
f 201 205 207 203
f 202 204 208 206
f 203 207 208 204
f 201 202 206 205
f 205 209 211 207
f 206 208 212 210
f 207 211 212 208
f 205 206 210 209
f 209 213 215 211
f 210 212 216 214
f 211 215 216 212
f 209 210 214 213
f 213 217 219 215
f 214 216 220 218
f 215 219 220 216
f 213 214 218 217
f 217 221 223 219
f 218 220 224 222
f 219 223 224 220
f 217 218 222 221
f 225 228 227 226
f 229 230 231 232
f 225 226 230 229
f 227 228 232 231
f 225 229 232 228
f 226 227 231 230
f 233 236 235 234
f 237 238 239 240
f 233 234 238 237
f 235 236 240 239
f 233 237 240 236
f 234 235 239 238
f 241 244 243 242
f 245 246 247 248
f 241 242 246 245
f 243 244 248 247
f 241 245 248 244
f 242 243 247 246
f 249 252 251 250
f 253 254 255 256
f 249 250 254 253
f 251 252 256 255
f 249 253 256 252
f 250 251 255 254
f 257 260 259 258
f 261 262 263 264
f 257 258 262 261
f 259 260 264 263
f 257 261 264 260
f 258 259 263 262
f 265 268 267 266
f 269 270 271 272
f 265 266 270 269
f 267 268 272 271
f 265 269 272 268
f 266 267 271 270
f 273 276 275 274
f 277 278 279 280
f 273 274 278 277
f 275 276 280 279
f 273 277 280 276
f 274 275 279 278
f 281 284 283 282
f 285 286 287 288
f 281 282 286 285
f 283 284 288 287
f 281 285 288 284
f 282 283 287 286
f 289 292 291 290
f 293 294 295 296
f 289 290 294 293
f 291 292 296 295
f 289 293 296 292
f 290 291 295 294
f 297 301 303 299
f 298 300 304 302
f 299 303 304 300
f 297 298 302 301
f 301 305 307 303
f 302 304 308 306
f 303 307 308 304
f 301 302 306 305
f 305 309 311 307
f 306 308 312 310
f 307 311 312 308
f 305 306 310 309
f 309 313 315 311
f 310 312 316 314
f 311 315 316 312
f 309 310 314 313
f 313 317 319 315
f 314 316 320 318
f 315 319 320 316
f 313 314 318 317
f 317 321 323 319
f 318 320 324 322
f 319 323 324 320
f 317 318 322 321
f 321 325 327 323
f 322 324 328 326
f 323 327 328 324
f 321 322 326 325
f 329 332 331 330
f 333 334 335 336
f 329 330 334 333
f 331 332 336 335
f 329 333 336 332
f 330 331 335 334
f 337 340 339 338
f 341 342 343 344
f 337 338 342 341
f 339 340 344 343
f 337 341 344 340
f 338 339 343 342
f 345 348 347 346
f 349 350 351 352
f 345 346 350 349
f 347 348 352 351
f 345 349 352 348
f 346 347 351 350
f 353 356 355 354
f 357 358 359 360
f 353 354 358 357
f 355 356 360 359
f 353 357 360 356
f 354 355 359 358
f 361 364 363 362
f 365 366 367 368
f 361 362 366 365
f 363 364 368 367
f 361 365 368 364
f 362 363 367 366
f 369 372 371 370
f 373 374 375 376
f 369 370 374 373
f 371 372 376 375
f 369 373 376 372
f 370 371 375 374
f 377 380 379 378
f 381 382 383 384
f 377 378 382 381
f 379 380 384 383
f 377 381 384 380
f 378 379 383 382
f 385 388 387 386
f 389 390 391 392
f 385 386 390 389
f 387 388 392 391
f 385 389 392 388
f 386 387 391 390
f 393 397 399 395
f 394 396 400 398
f 395 399 400 396
f 393 394 398 397
f 397 401 403 399
f 398 400 404 402
f 399 403 404 400
f 397 398 402 401
f 401 405 407 403
f 402 404 408 406
f 403 407 408 404
f 401 402 406 405
f 405 409 411 407
f 406 408 412 410
f 407 411 412 408
f 405 406 410 409
f 409 413 415 411
f 410 412 416 414
f 411 415 416 412
f 409 410 414 413
f 413 417 419 415
f 414 416 420 418
f 415 419 420 416
f 413 414 418 417
f 417 421 423 419
f 418 420 424 422
f 419 423 424 420
f 417 418 422 421
f 425 428 427 426
f 429 430 431 432
f 425 426 430 429
f 427 428 432 431
f 425 429 432 428
f 426 427 431 430
f 433 436 435 434
f 437 438 439 440
f 433 434 438 437
f 435 436 440 439
f 433 437 440 436
f 434 435 439 438
f 441 444 443 442
f 445 446 447 448
f 441 442 446 445
f 443 444 448 447
f 441 445 448 444
f 442 443 447 446
f 449 452 451 450
f 453 454 455 456
f 449 450 454 453
f 451 452 456 455
f 449 453 456 452
f 450 451 455 454
f 457 460 459 458
f 461 462 463 464
f 457 458 462 461
f 459 460 464 463
f 457 461 464 460
f 458 459 463 462
f 465 468 467 466
f 469 470 471 472
f 465 466 470 469
f 467 468 472 471
f 465 469 472 468
f 466 467 471 470
f 473 476 475 474
f 477 478 479 480
f 473 474 478 477
f 475 476 480 479
f 473 477 480 476
f 474 475 479 478
f 481 484 483 482
f 485 486 487 488
f 481 482 486 485
f 483 484 488 487
f 481 485 488 484
f 482 483 487 486
f 489 493 495 491
f 490 492 496 494
f 491 495 496 492
f 489 490 494 493
f 493 497 499 495
f 494 496 500 498
f 495 499 500 496
f 493 494 498 497
f 497 501 503 499
f 498 500 504 502
f 499 503 504 500
f 497 498 502 501
f 501 505 507 503
f 502 504 508 506
f 503 507 508 504
f 501 502 506 505
f 505 509 511 507
f 506 508 512 510
f 507 511 512 508
f 505 506 510 509
f 509 513 515 511
f 510 512 516 514
f 511 515 516 512
f 509 510 514 513
f 513 517 519 515
f 514 516 520 518
f 515 519 520 516
f 513 514 518 517
f 517 521 523 519
f 518 520 524 522
f 519 523 524 520
f 517 518 522 521
f 525 528 527 526
f 529 530 531 532
f 525 526 530 529
f 527 528 532 531
f 525 529 532 528
f 526 527 531 530
f 533 536 535 534
f 537 538 539 540
f 533 534 538 537
f 535 536 540 539
f 533 537 540 536
f 534 535 539 538
f 541 544 543 542
f 545 546 547 548
f 541 542 546 545
f 543 544 548 547
f 541 545 548 544
f 542 543 547 546
f 549 552 551 550
f 553 554 555 556
f 549 550 554 553
f 551 552 556 555
f 549 553 556 552
f 550 551 555 554
f 557 560 559 558
f 561 562 563 564
f 557 558 562 561
f 559 560 564 563
f 557 561 564 560
f 558 559 563 562
f 565 568 567 566
f 569 570 571 572
f 565 566 570 569
f 567 568 572 571
f 565 569 572 568
f 566 567 571 570
f 573 576 575 574
f 577 578 579 580
f 573 574 578 577
f 575 576 580 579
f 573 577 580 576
f 574 575 579 578
f 581 584 583 582
f 585 586 587 588
f 581 582 586 585
f 583 584 588 587
f 581 585 588 584
f 582 583 587 586
f 589 592 591 590
f 593 594 595 596
f 589 590 594 593
f 591 592 596 595
f 589 593 596 592
f 590 591 595 594
f 597 601 603 599
f 598 600 604 602
f 599 603 604 600
f 597 598 602 601
f 601 605 607 603
f 602 604 608 606
f 603 607 608 604
f 601 602 606 605
f 605 609 611 607
f 606 608 612 610
f 607 611 612 608
f 605 606 610 609
f 609 613 615 611
f 610 612 616 614
f 611 615 616 612
f 609 610 614 613
f 613 617 619 615
f 614 616 620 618
f 615 619 620 616
f 613 614 618 617
f 617 621 623 619
f 618 620 624 622
f 619 623 624 620
f 617 618 622 621
f 621 625 627 623
f 622 624 628 626
f 623 627 628 624
f 621 622 626 625
f 629 632 631 630
f 633 634 635 636
f 629 630 634 633
f 631 632 636 635
f 629 633 636 632
f 630 631 635 634
f 637 640 639 638
f 641 642 643 644
f 637 638 642 641
f 639 640 644 643
f 637 641 644 640
f 638 639 643 642
f 645 648 647 646
f 649 650 651 652
f 645 646 650 649
f 647 648 652 651
f 645 649 652 648
f 646 647 651 650
f 653 656 655 654
f 657 658 659 660
f 653 654 658 657
f 655 656 660 659
f 653 657 660 656
f 654 655 659 658
f 661 664 663 662
f 665 666 667 668
f 661 662 666 665
f 663 664 668 667
f 661 665 668 664
f 662 663 667 666
f 669 672 671 670
f 673 674 675 676
f 669 670 674 673
f 671 672 676 675
f 669 673 676 672
f 670 671 675 674
f 677 680 679 678
f 681 682 683 684
f 677 678 682 681
f 679 680 684 683
f 677 681 684 680
f 678 679 683 682
f 685 688 687 686
f 689 690 691 692
f 685 686 690 689
f 687 688 692 691
f 685 689 692 688
f 686 687 691 690
f 693 696 695 694
f 697 698 699 700
f 693 694 698 697
f 695 696 700 699
f 693 697 700 696
f 694 695 699 698
f 701 704 703 702
f 705 706 707 708
f 701 702 706 705
f 703 704 708 707
f 701 705 708 704
f 702 703 707 706
f 709 712 711 710
f 713 714 715 716
f 709 710 714 713
f 711 712 716 715
f 709 713 716 712
f 710 711 715 714
f 717 720 719 718
f 721 722 723 724
f 717 718 722 721
f 719 720 724 723
f 717 721 724 720
f 718 719 723 722
f 725 728 727 726
f 729 730 731 732
f 725 726 730 729
f 727 728 732 731
f 725 729 732 728
f 726 727 731 730
f 733 736 735 734
f 737 738 739 740
f 733 734 738 737
f 735 736 740 739
f 733 737 740 736
f 734 735 739 738
f 741 744 743 742
f 745 746 747 748
f 741 742 746 745
f 743 744 748 747
f 741 745 748 744
f 742 743 747 746
f 749 752 751 750
f 753 754 755 756
f 749 750 754 753
f 751 752 756 755
f 749 753 756 752
f 750 751 755 754
f 757 760 759 758
f 761 762 763 764
f 757 758 762 761
f 759 760 764 763
f 757 761 764 760
f 758 759 763 762
f 765 768 767 766
f 769 770 771 772
f 765 766 770 769
f 767 768 772 771
f 765 769 772 768
f 766 767 771 770
f 773 776 775 774
f 777 778 779 780
f 773 774 778 777
f 775 776 780 779
f 773 777 780 776
f 774 775 779 778
f 781 784 783 782
f 785 786 787 788
f 781 782 786 785
f 783 784 788 787
f 781 785 788 784
f 782 783 787 786
f 789 792 791 790
f 793 794 795 796
f 789 790 794 793
f 791 792 796 795
f 789 793 796 792
f 790 791 795 794
f 797 800 799 798
f 801 802 803 804
f 797 798 802 801
f 799 800 804 803
f 797 801 804 800
f 798 799 803 802
f 805 808 807 806
f 809 810 811 812
f 805 806 810 809
f 807 808 812 811
f 805 809 812 808
f 806 807 811 810
f 813 816 815 814
f 817 818 819 820
f 813 814 818 817
f 815 816 820 819
f 813 817 820 816
f 814 815 819 818
f 821 824 823 822
f 825 826 827 828
f 821 822 826 825
f 823 824 828 827
f 821 825 828 824
f 822 823 827 826
f 829 832 831 830
f 833 834 835 836
f 829 830 834 833
f 831 832 836 835
f 829 833 836 832
f 830 831 835 834
f 837 840 839 838
f 841 842 843 844
f 837 838 842 841
f 839 840 844 843
f 837 841 844 840
f 838 839 843 842
f 845 848 847 846
f 849 850 851 852
f 845 846 850 849
f 847 848 852 851
f 845 849 852 848
f 846 847 851 850
f 853 856 855 854
f 857 858 859 860
f 853 854 858 857
f 855 856 860 859
f 853 857 860 856
f 854 855 859 858
f 861 864 863 862
f 865 866 867 868
f 861 862 866 865
f 863 864 868 867
f 861 865 868 864
f 862 863 867 866
f 869 872 871 870
f 873 874 875 876
f 869 870 874 873
f 871 872 876 875
f 869 873 876 872
f 870 871 875 874
f 877 880 879 878
f 881 882 883 884
f 877 878 882 881
f 879 880 884 883
f 877 881 884 880
f 878 879 883 882
f 885 888 887 886
f 889 890 891 892
f 885 886 890 889
f 887 888 892 891
f 885 889 892 888
f 886 887 891 890
f 893 896 895 894
f 897 898 899 900
f 893 894 898 897
f 895 896 900 899
f 893 897 900 896
f 894 895 899 898
f 901 904 903 902
f 905 906 907 908
f 901 902 906 905
f 903 904 908 907
f 901 905 908 904
f 902 903 907 906
f 909 912 911 910
f 913 914 915 916
f 909 910 914 913
f 911 912 916 915
f 909 913 916 912
f 910 911 915 914
f 917 920 919 918
f 921 922 923 924
f 917 918 922 921
f 919 920 924 923
f 917 921 924 920
f 918 919 923 922
f 925 928 927 926
f 929 930 931 932
f 925 926 930 929
f 927 928 932 931
f 925 929 932 928
f 926 927 931 930
f 933 936 935 934
f 937 938 939 940
f 933 934 938 937
f 935 936 940 939
f 933 937 940 936
f 934 935 939 938
f 941 944 943 942
f 945 946 947 948
f 941 942 946 945
f 943 944 948 947
f 941 945 948 944
f 942 943 947 946
f 949 952 951 950
f 953 954 955 956
f 949 950 954 953
f 951 952 956 955
f 949 953 956 952
f 950 951 955 954
f 957 960 959 958
f 961 962 963 964
f 957 958 962 961
f 959 960 964 963
f 957 961 964 960
f 958 959 963 962
f 965 968 967 966
f 969 970 971 972
f 965 966 970 969
f 967 968 972 971
f 965 969 972 968
f 966 967 971 970
f 973 976 975 974
f 977 978 979 980
f 973 974 978 977
f 975 976 980 979
f 973 977 980 976
f 974 975 979 978
f 981 984 983 982
f 985 986 987 988
f 981 982 986 985
f 983 984 988 987
f 981 985 988 984
f 982 983 987 986
f 989 992 991 990
f 993 994 995 996
f 989 990 994 993
f 991 992 996 995
f 989 993 996 992
f 990 991 995 994
f 997 1000 999 998
f 1001 1002 1003 1004
f 997 998 1002 1001
f 999 1000 1004 1003
f 997 1001 1004 1000
f 998 999 1003 1002
f 1005 1008 1007 1006
f 1009 1010 1011 1012
f 1005 1006 1010 1009
f 1007 1008 1012 1011
f 1005 1009 1012 1008
f 1006 1007 1011 1010
f 1013 1016 1015 1014
f 1017 1018 1019 1020
f 1013 1014 1018 1017
f 1015 1016 1020 1019
f 1013 1017 1020 1016
f 1014 1015 1019 1018
f 1021 1024 1023 1022
f 1025 1026 1027 1028
f 1021 1022 1026 1025
f 1023 1024 1028 1027
f 1021 1025 1028 1024
f 1022 1023 1027 1026
f 1029 1032 1031 1030
f 1033 1034 1035 1036
f 1029 1030 1034 1033
f 1031 1032 1036 1035
f 1029 1033 1036 1032
f 1030 1031 1035 1034
f 1037 1040 1039 1038
f 1041 1042 1043 1044
f 1037 1038 1042 1041
f 1039 1040 1044 1043
f 1037 1041 1044 1040
f 1038 1039 1043 1042
f 1045 1048 1047 1046
f 1049 1050 1051 1052
f 1045 1046 1050 1049
f 1047 1048 1052 1051
f 1045 1049 1052 1048
f 1046 1047 1051 1050
f 1053 1056 1055 1054
f 1057 1058 1059 1060
f 1053 1054 1058 1057
f 1055 1056 1060 1059
f 1053 1057 1060 1056
f 1054 1055 1059 1058
f 1061 1064 1063 1062
f 1065 1066 1067 1068
f 1061 1062 1066 1065
f 1063 1064 1068 1067
f 1061 1065 1068 1064
f 1062 1063 1067 1066
f 1069 1072 1071 1070
f 1073 1074 1075 1076
f 1069 1070 1074 1073
f 1071 1072 1076 1075
f 1069 1073 1076 1072
f 1070 1071 1075 1074
f 1077 1080 1079 1078
f 1081 1082 1083 1084
f 1077 1078 1082 1081
f 1079 1080 1084 1083
f 1077 1081 1084 1080
f 1078 1079 1083 1082
f 1085 1088 1087 1086
f 1089 1090 1091 1092
f 1085 1086 1090 1089
f 1087 1088 1092 1091
f 1085 1089 1092 1088
f 1086 1087 1091 1090
f 1093 1096 1095 1094
f 1097 1098 1099 1100
f 1093 1094 1098 1097
f 1095 1096 1100 1099
f 1093 1097 1100 1096
f 1094 1095 1099 1098
f 1101 1104 1103 1102
f 1105 1106 1107 1108
f 1101 1102 1106 1105
f 1103 1104 1108 1107
f 1101 1105 1108 1104
f 1102 1103 1107 1106
f 1109 1112 1111 1110
f 1113 1114 1115 1116
f 1109 1110 1114 1113
f 1111 1112 1116 1115
f 1109 1113 1116 1112
f 1110 1111 1115 1114
f 1117 1120 1119 1118
f 1121 1122 1123 1124
f 1117 1118 1122 1121
f 1119 1120 1124 1123
f 1117 1121 1124 1120
f 1118 1119 1123 1122
f 1125 1128 1127 1126
f 1129 1130 1131 1132
f 1125 1126 1130 1129
f 1127 1128 1132 1131
f 1125 1129 1132 1128
f 1126 1127 1131 1130
f 1133 1136 1135 1134
f 1137 1138 1139 1140
f 1133 1134 1138 1137
f 1135 1136 1140 1139
f 1133 1137 1140 1136
f 1134 1135 1139 1138
f 1141 1144 1143 1142
f 1145 1146 1147 1148
f 1141 1142 1146 1145
f 1143 1144 1148 1147
f 1141 1145 1148 1144
f 1142 1143 1147 1146
f 1149 1152 1151 1150
f 1153 1154 1155 1156
f 1149 1150 1154 1153
f 1151 1152 1156 1155
f 1149 1153 1156 1152
f 1150 1151 1155 1154
f 1157 1160 1159 1158
f 1161 1162 1163 1164
f 1157 1158 1162 1161
f 1159 1160 1164 1163
f 1157 1161 1164 1160
f 1158 1159 1163 1162
f 1165 1168 1167 1166
f 1169 1170 1171 1172
f 1165 1166 1170 1169
f 1167 1168 1172 1171
f 1165 1169 1172 1168
f 1166 1167 1171 1170
f 1173 1176 1175 1174
f 1177 1178 1179 1180
f 1173 1174 1178 1177
f 1175 1176 1180 1179
f 1173 1177 1180 1176
f 1174 1175 1179 1178
f 1181 1184 1183 1182
f 1185 1186 1187 1188
f 1181 1182 1186 1185
f 1183 1184 1188 1187
f 1181 1185 1188 1184
f 1182 1183 1187 1186
f 1189 1192 1191 1190
f 1193 1194 1195 1196
f 1189 1190 1194 1193
f 1191 1192 1196 1195
f 1189 1193 1196 1192
f 1190 1191 1195 1194
f 1197 1200 1199 1198
f 1201 1202 1203 1204
f 1197 1198 1202 1201
f 1199 1200 1204 1203
f 1197 1201 1204 1200
f 1198 1199 1203 1202
f 1205 1208 1207 1206
f 1209 1210 1211 1212
f 1205 1206 1210 1209
f 1207 1208 1212 1211
f 1205 1209 1212 1208
f 1206 1207 1211 1210
f 1213 1216 1215 1214
f 1217 1218 1219 1220
f 1213 1214 1218 1217
f 1215 1216 1220 1219
f 1213 1217 1220 1216
f 1214 1215 1219 1218
f 1221 1224 1223 1222
f 1225 1226 1227 1228
f 1221 1222 1226 1225
f 1223 1224 1228 1227
f 1221 1225 1228 1224
f 1222 1223 1227 1226
f 1229 1232 1231 1230
f 1233 1234 1235 1236
f 1229 1230 1234 1233
f 1231 1232 1236 1235
f 1229 1233 1236 1232
f 1230 1231 1235 1234
f 1237 1240 1239 1238
f 1241 1242 1243 1244
f 1237 1238 1242 1241
f 1239 1240 1244 1243
f 1237 1241 1244 1240
f 1238 1239 1243 1242
f 1245 1248 1247 1246
f 1249 1250 1251 1252
f 1245 1246 1250 1249
f 1247 1248 1252 1251
f 1245 1249 1252 1248
f 1246 1247 1251 1250
f 1253 1256 1255 1254
f 1257 1258 1259 1260
f 1253 1254 1258 1257
f 1255 1256 1260 1259
f 1253 1257 1260 1256
f 1254 1255 1259 1258
f 1261 1264 1263 1262
f 1265 1266 1267 1268
f 1261 1262 1266 1265
f 1263 1264 1268 1267
f 1261 1265 1268 1264
f 1262 1263 1267 1266
f 1269 1272 1271 1270
f 1273 1274 1275 1276
f 1269 1270 1274 1273
f 1271 1272 1276 1275
f 1269 1273 1276 1272
f 1270 1271 1275 1274
f 1277 1280 1279 1278
f 1281 1282 1283 1284
f 1277 1278 1282 1281
f 1279 1280 1284 1283
f 1277 1281 1284 1280
f 1278 1279 1283 1282
f 1285 1288 1287 1286
f 1289 1290 1291 1292
f 1285 1286 1290 1289
f 1287 1288 1292 1291
f 1285 1289 1292 1288
f 1286 1287 1291 1290
f 1293 1296 1295 1294
f 1297 1298 1299 1300
f 1293 1294 1298 1297
f 1295 1296 1300 1299
f 1293 1297 1300 1296
f 1294 1295 1299 1298
f 1301 1304 1303 1302
f 1305 1306 1307 1308
f 1301 1302 1306 1305
f 1303 1304 1308 1307
f 1301 1305 1308 1304
f 1302 1303 1307 1306
f 1309 1312 1311 1310
f 1313 1314 1315 1316
f 1309 1310 1314 1313
f 1311 1312 1316 1315
f 1309 1313 1316 1312
f 1310 1311 1315 1314
f 1317 1320 1319 1318
f 1321 1322 1323 1324
f 1317 1318 1322 1321
f 1319 1320 1324 1323
f 1317 1321 1324 1320
f 1318 1319 1323 1322
f 1325 1328 1327 1326
f 1329 1330 1331 1332
f 1325 1326 1330 1329
f 1327 1328 1332 1331
f 1325 1329 1332 1328
f 1326 1327 1331 1330
f 1333 1336 1335 1334
f 1337 1338 1339 1340
f 1333 1334 1338 1337
f 1335 1336 1340 1339
f 1333 1337 1340 1336
f 1334 1335 1339 1338
f 1341 1344 1343 1342
f 1345 1346 1347 1348
f 1341 1342 1346 1345
f 1343 1344 1348 1347
f 1341 1345 1348 1344
f 1342 1343 1347 1346
f 1349 1352 1351 1350
f 1353 1354 1355 1356
f 1349 1350 1354 1353
f 1351 1352 1356 1355
f 1349 1353 1356 1352
f 1350 1351 1355 1354
f 1357 1360 1359 1358
f 1361 1362 1363 1364
f 1357 1358 1362 1361
f 1359 1360 1364 1363
f 1357 1361 1364 1360
f 1358 1359 1363 1362
f 1365 1368 1367 1366
f 1369 1370 1371 1372
f 1365 1366 1370 1369
f 1367 1368 1372 1371
f 1365 1369 1372 1368
f 1366 1367 1371 1370
f 1373 1376 1375 1374
f 1377 1378 1379 1380
f 1373 1374 1378 1377
f 1375 1376 1380 1379
f 1373 1377 1380 1376
f 1374 1375 1379 1378
f 1381 1384 1383 1382
f 1385 1386 1387 1388
f 1381 1382 1386 1385
f 1383 1384 1388 1387
f 1381 1385 1388 1384
f 1382 1383 1387 1386
f 1389 1392 1391 1390
f 1393 1394 1395 1396
f 1389 1390 1394 1393
f 1391 1392 1396 1395
f 1389 1393 1396 1392
f 1390 1391 1395 1394
f 1397 1400 1399 1398
f 1401 1402 1403 1404
f 1397 1398 1402 1401
f 1399 1400 1404 1403
f 1397 1401 1404 1400
f 1398 1399 1403 1402
f 1405 1408 1407 1406
f 1409 1410 1411 1412
f 1405 1406 1410 1409
f 1407 1408 1412 1411
f 1405 1409 1412 1408
f 1406 1407 1411 1410
f 1413 1416 1415 1414
f 1417 1418 1419 1420
f 1413 1414 1418 1417
f 1415 1416 1420 1419
f 1413 1417 1420 1416
f 1414 1415 1419 1418
f 1421 1424 1423 1422
f 1425 1426 1427 1428
f 1421 1422 1426 1425
f 1423 1424 1428 1427
f 1421 1425 1428 1424
f 1422 1423 1427 1426
f 1429 1432 1431 1430
f 1433 1434 1435 1436
f 1429 1430 1434 1433
f 1431 1432 1436 1435
f 1429 1433 1436 1432
f 1430 1431 1435 1434
f 1437 1440 1439 1438
f 1441 1442 1443 1444
f 1437 1438 1442 1441
f 1439 1440 1444 1443
f 1437 1441 1444 1440
f 1438 1439 1443 1442
f 1445 1448 1447 1446
f 1449 1450 1451 1452
f 1445 1446 1450 1449
f 1447 1448 1452 1451
f 1445 1449 1452 1448
f 1446 1447 1451 1450
f 1453 1456 1455 1454
f 1457 1458 1459 1460
f 1453 1454 1458 1457
f 1455 1456 1460 1459
f 1453 1457 1460 1456
f 1454 1455 1459 1458
f 1461 1464 1463 1462
f 1465 1466 1467 1468
f 1461 1462 1466 1465
f 1463 1464 1468 1467
f 1461 1465 1468 1464
f 1462 1463 1467 1466
f 1469 1472 1471 1470
f 1473 1474 1475 1476
f 1469 1470 1474 1473
f 1471 1472 1476 1475
f 1469 1473 1476 1472
f 1470 1471 1475 1474
f 1477 1480 1479 1478
f 1481 1482 1483 1484
f 1477 1478 1482 1481
f 1479 1480 1484 1483
f 1477 1481 1484 1480
f 1478 1479 1483 1482
