v 0.000000 -2.750000 0.000000
v 0.000000 2.750000 0.000000
v 0.000000 -2.750000 -0.340000
v 0.000000 2.750000 -0.340000
v 1.448276 -2.750000 0.000000
v 1.448276 2.750000 0.000000
v 1.448276 -2.750000 -0.340000
v 1.448276 2.750000 -0.340000
v 2.896552 -2.750000 0.000000
v 2.896552 2.750000 0.000000
v 2.896552 -2.750000 -0.340000
v 2.896552 2.750000 -0.340000
v 4.344828 -2.750000 0.000000
v 4.344828 2.750000 0.000000
v 4.344828 -2.750000 -0.340000
v 4.344828 2.750000 -0.340000
v 5.793103 -2.750000 0.000000
v 5.793103 2.750000 0.000000
v 5.793103 -2.750000 -0.340000
v 5.793103 2.750000 -0.340000
v 7.241379 -2.750000 0.000000
v 7.241379 2.750000 0.000000
v 7.241379 -2.750000 -0.340000
v 7.241379 2.750000 -0.340000
v 8.689655 -2.750000 0.000000
v 8.689655 2.750000 0.000000
v 8.689655 -2.750000 -0.340000
v 8.689655 2.750000 -0.340000
v 10.137931 -2.750000 0.000000
v 10.137931 2.750000 0.000000
v 10.137931 -2.750000 -0.340000
v 10.137931 2.750000 -0.340000
v 11.586207 -2.750000 0.000000
v 11.586207 2.750000 0.000000
v 11.586207 -2.750000 -0.340000
v 11.586207 2.750000 -0.340000
v 13.034483 -2.750000 0.000000
v 13.034483 2.750000 0.000000
v 13.034483 -2.750000 -0.340000
v 13.034483 2.750000 -0.340000
v 14.482759 -2.750000 0.000000
v 14.482759 2.750000 0.000000
v 14.482759 -2.750000 -0.340000
v 14.482759 2.750000 -0.340000
v 15.931034 -2.750000 0.000000
v 15.931034 2.750000 0.000000
v 15.931034 -2.750000 -0.340000
v 15.931034 2.750000 -0.340000
v 17.379310 -2.750000 0.000000
v 17.379310 2.750000 0.000000
v 17.379310 -2.750000 -0.340000
v 17.379310 2.750000 -0.340000
v 18.827586 -2.750000 0.000000
v 18.827586 2.750000 0.000000
v 18.827586 -2.750000 -0.340000
v 18.827586 2.750000 -0.340000
v 20.275862 -2.750000 0.000000
v 20.275862 2.750000 0.000000
v 20.275862 -2.750000 -0.340000
v 20.275862 2.750000 -0.340000
v 21.724138 -2.750000 0.000000
v 21.724138 2.750000 0.000000
v 21.724138 -2.750000 -0.340000
v 21.724138 2.750000 -0.340000
v 23.172414 -2.750000 0.000000
v 23.172414 2.750000 0.000000
v 23.172414 -2.750000 -0.340000
v 23.172414 2.750000 -0.340000
v 24.620690 -2.750000 0.000000
v 24.620690 2.750000 0.000000
v 24.620690 -2.750000 -0.340000
v 24.620690 2.750000 -0.340000
v 26.068966 -2.750000 0.000000
v 26.068966 2.750000 0.000000
v 26.068966 -2.750000 -0.340000
v 26.068966 2.750000 -0.340000
v 27.517241 -2.750000 0.000000
v 27.517241 2.750000 0.000000
v 27.517241 -2.750000 -0.340000
v 27.517241 2.750000 -0.340000
v 28.965517 -2.750000 0.000000
v 28.965517 2.750000 0.000000
v 28.965517 -2.750000 -0.340000
v 28.965517 2.750000 -0.340000
v 30.413793 -2.750000 0.000000
v 30.413793 2.750000 0.000000
v 30.413793 -2.750000 -0.340000
v 30.413793 2.750000 -0.340000
v 31.862069 -2.750000 0.000000
v 31.862069 2.750000 0.000000
v 31.862069 -2.750000 -0.340000
v 31.862069 2.750000 -0.340000
v 33.310345 -2.750000 0.000000
v 33.310345 2.750000 0.000000
v 33.310345 -2.750000 -0.340000
v 33.310345 2.750000 -0.340000
v 34.758621 -2.750000 0.000000
v 34.758621 2.750000 0.000000
v 34.758621 -2.750000 -0.340000
v 34.758621 2.750000 -0.340000
v 36.206897 -2.750000 0.000000
v 36.206897 2.750000 0.000000
v 36.206897 -2.750000 -0.340000
v 36.206897 2.750000 -0.340000
v 37.655172 -2.750000 0.000000
v 37.655172 2.750000 0.000000
v 37.655172 -2.750000 -0.340000
v 37.655172 2.750000 -0.340000
v 39.103448 -2.750000 0.000000
v 39.103448 2.750000 0.000000
v 39.103448 -2.750000 -0.340000
v 39.103448 2.750000 -0.340000
v 40.551724 -2.750000 0.000000
v 40.551724 2.750000 0.000000
v 40.551724 -2.750000 -0.340000
v 40.551724 2.750000 -0.340000
v 42.000000 -2.750000 0.000000
v 42.000000 2.750000 0.000000
v 42.000000 -2.750000 -0.340000
v 42.000000 2.750000 -0.340000
v 0.000000 -2.640000 -2.433103
v 0.000000 -3.190000 -2.433103
v 0.000000 -2.640000 0.660000
v 0.000000 -3.190000 0.660000
v 1.448276 -2.640000 -1.455518
v 1.448276 -3.190000 -1.455518
v 1.448276 -2.640000 0.660000
v 1.448276 -3.190000 0.660000
v 2.896552 -2.640000 -0.671556
v 2.896552 -3.190000 -0.671556
v 2.896552 -2.640000 0.660000
v 2.896552 -3.190000 0.660000
v 4.344828 -2.640000 -0.236490
v 4.344828 -3.190000 -0.236490
v 4.344828 -2.640000 0.660000
v 4.344828 -3.190000 0.660000
v 5.793103 -2.640000 -0.236490
v 5.793103 -3.190000 -0.236490
v 5.793103 -2.640000 0.660000
v 5.793103 -3.190000 0.660000
v 7.241379 -2.640000 -0.671556
v 7.241379 -3.190000 -0.671556
v 7.241379 -2.640000 0.660000
v 7.241379 -3.190000 0.660000
v 8.689655 -2.640000 -1.455518
v 8.689655 -3.190000 -1.455518
v 8.689655 -2.640000 0.660000
v 8.689655 -3.190000 0.660000
v 10.137931 -2.640000 -2.433103
v 10.137931 -3.190000 -2.433103
v 10.137931 -2.640000 0.660000
v 10.137931 -3.190000 0.660000
v -0.304138 -3.432500 -2.533103
v -0.304138 -3.112500 -2.533103
v -0.304138 -3.112500 -2.333103
v -0.304138 -3.432500 -2.333103
v 0.304138 -3.432500 -2.533103
v 0.304138 -3.112500 -2.533103
v 0.304138 -3.112500 -2.333103
v 0.304138 -3.432500 -2.333103
v 1.144138 -3.432500 -1.529485
v 1.144138 -3.112500 -1.529485
v 1.144138 -3.112500 -1.329485
v 1.144138 -3.432500 -1.329485
v 1.752414 -3.432500 -1.529485
v 1.752414 -3.112500 -1.529485
v 1.752414 -3.112500 -1.329485
v 1.752414 -3.432500 -1.329485
v 2.592414 -3.432500 -0.724646
v 2.592414 -3.112500 -0.724646
v 2.592414 -3.112500 -0.524646
v 2.592414 -3.432500 -0.524646
v 3.200690 -3.432500 -0.724646
v 3.200690 -3.112500 -0.724646
v 3.200690 -3.112500 -0.524646
v 3.200690 -3.432500 -0.524646
v 4.040690 -3.432500 -0.277994
v 4.040690 -3.112500 -0.277994
v 4.040690 -3.112500 -0.077994
v 4.040690 -3.432500 -0.077994
v 4.648966 -3.432500 -0.277994
v 4.648966 -3.112500 -0.277994
v 4.648966 -3.112500 -0.077994
v 4.648966 -3.432500 -0.077994
v 5.488966 -3.432500 -0.277994
v 5.488966 -3.112500 -0.277994
v 5.488966 -3.112500 -0.077994
v 5.488966 -3.432500 -0.077994
v 6.097241 -3.432500 -0.277994
v 6.097241 -3.112500 -0.277994
v 6.097241 -3.112500 -0.077994
v 6.097241 -3.432500 -0.077994
v 6.937241 -3.432500 -0.724646
v 6.937241 -3.112500 -0.724646
v 6.937241 -3.112500 -0.524646
v 6.937241 -3.432500 -0.524646
v 7.545517 -3.432500 -0.724646
v 7.545517 -3.112500 -0.724646
v 7.545517 -3.112500 -0.524646
v 7.545517 -3.432500 -0.524646
v 8.385517 -3.432500 -1.529485
v 8.385517 -3.112500 -1.529485
v 8.385517 -3.112500 -1.329485
v 8.385517 -3.432500 -1.329485
v 8.993793 -3.432500 -1.529485
v 8.993793 -3.112500 -1.529485
v 8.993793 -3.112500 -1.329485
v 8.993793 -3.432500 -1.329485
v 9.833793 -3.432500 -2.533103
v 9.833793 -3.112500 -2.533103
v 9.833793 -3.112500 -2.333103
v 9.833793 -3.432500 -2.333103
v 10.442069 -3.432500 -2.533103
v 10.442069 -3.112500 -2.533103
v 10.442069 -3.112500 -2.333103
v 10.442069 -3.432500 -2.333103
v 10.137931 -2.640000 -2.433103
v 10.137931 -3.190000 -2.433103
v 10.137931 -2.640000 0.660000
v 10.137931 -3.190000 0.660000
v 11.586207 -2.640000 -1.455518
v 11.586207 -3.190000 -1.455518
v 11.586207 -2.640000 0.660000
v 11.586207 -3.190000 0.660000
v 13.034483 -2.640000 -0.671556
v 13.034483 -3.190000 -0.671556
v 13.034483 -2.640000 0.660000
v 13.034483 -3.190000 0.660000
v 14.482759 -2.640000 -0.236490
v 14.482759 -3.190000 -0.236490
v 14.482759 -2.640000 0.660000
v 14.482759 -3.190000 0.660000
v 15.931034 -2.640000 -0.236490
v 15.931034 -3.190000 -0.236490
v 15.931034 -2.640000 0.660000
v 15.931034 -3.190000 0.660000
v 17.379310 -2.640000 -0.671556
v 17.379310 -3.190000 -0.671556
v 17.379310 -2.640000 0.660000
v 17.379310 -3.190000 0.660000
v 18.827586 -2.640000 -1.455518
v 18.827586 -3.190000 -1.455518
v 18.827586 -2.640000 0.660000
v 18.827586 -3.190000 0.660000
v 20.275862 -2.640000 -2.433103
v 20.275862 -3.190000 -2.433103
v 20.275862 -2.640000 0.660000
v 20.275862 -3.190000 0.660000
v 9.833793 -3.432500 -2.533103
v 9.833793 -3.112500 -2.533103
v 9.833793 -3.112500 -2.333103
v 9.833793 -3.432500 -2.333103
v 10.442069 -3.432500 -2.533103
v 10.442069 -3.112500 -2.533103
v 10.442069 -3.112500 -2.333103
v 10.442069 -3.432500 -2.333103
v 11.282069 -3.432500 -1.529485
v 11.282069 -3.112500 -1.529485
v 11.282069 -3.112500 -1.329485
v 11.282069 -3.432500 -1.329485
v 11.890345 -3.432500 -1.529485
v 11.890345 -3.112500 -1.529485
v 11.890345 -3.112500 -1.329485
v 11.890345 -3.432500 -1.329485
v 12.730345 -3.432500 -0.724646
v 12.730345 -3.112500 -0.724646
v 12.730345 -3.112500 -0.524646
v 12.730345 -3.432500 -0.524646
v 13.338621 -3.432500 -0.724646
v 13.338621 -3.112500 -0.724646
v 13.338621 -3.112500 -0.524646
v 13.338621 -3.432500 -0.524646
v 14.178621 -3.432500 -0.277994
v 14.178621 -3.112500 -0.277994
v 14.178621 -3.112500 -0.077994
v 14.178621 -3.432500 -0.077994
v 14.786897 -3.432500 -0.277994
v 14.786897 -3.112500 -0.277994
v 14.786897 -3.112500 -0.077994
v 14.786897 -3.432500 -0.077994
v 15.626897 -3.432500 -0.277994
v 15.626897 -3.112500 -0.277994
v 15.626897 -3.112500 -0.077994
v 15.626897 -3.432500 -0.077994
v 16.235172 -3.432500 -0.277994
v 16.235172 -3.112500 -0.277994
v 16.235172 -3.112500 -0.077994
v 16.235172 -3.432500 -0.077994
v 17.075172 -3.432500 -0.724646
v 17.075172 -3.112500 -0.724646
v 17.075172 -3.112500 -0.524646
v 17.075172 -3.432500 -0.524646
v 17.683448 -3.432500 -0.724646
v 17.683448 -3.112500 -0.724646
v 17.683448 -3.112500 -0.524646
v 17.683448 -3.432500 -0.524646
v 18.523448 -3.432500 -1.529485
v 18.523448 -3.112500 -1.529485
v 18.523448 -3.112500 -1.329485
v 18.523448 -3.432500 -1.329485
v 19.131724 -3.432500 -1.529485
v 19.131724 -3.112500 -1.529485
v 19.131724 -3.112500 -1.329485
v 19.131724 -3.432500 -1.329485
v 19.971724 -3.432500 -2.533103
v 19.971724 -3.112500 -2.533103
v 19.971724 -3.112500 -2.333103
v 19.971724 -3.432500 -2.333103
v 20.580000 -3.432500 -2.533103
v 20.580000 -3.112500 -2.533103
v 20.580000 -3.112500 -2.333103
v 20.580000 -3.432500 -2.333103
v 20.275862 -2.640000 -2.780690
v 20.275862 -3.190000 -2.780690
v 20.275862 -2.640000 0.660000
v 20.275862 -3.190000 0.660000
v 21.724138 -2.640000 -1.785449
v 21.724138 -3.190000 -1.785449
v 21.724138 -2.640000 0.660000
v 21.724138 -3.190000 0.660000
v 23.172414 -2.640000 -0.941724
v 23.172414 -3.190000 -0.941724
v 23.172414 -2.640000 0.660000
v 23.172414 -3.190000 0.660000
v 24.620690 -2.640000 -0.377966
v 24.620690 -3.190000 -0.377966
v 24.620690 -2.640000 0.660000
v 24.620690 -3.190000 0.660000
v 26.068966 -2.640000 -0.180000
v 26.068966 -3.190000 -0.180000
v 26.068966 -2.640000 0.660000
v 26.068966 -3.190000 0.660000
v 27.517241 -2.640000 -0.377966
v 27.517241 -3.190000 -0.377966
v 27.517241 -2.640000 0.660000
v 27.517241 -3.190000 0.660000
v 28.965517 -2.640000 -0.941724
v 28.965517 -3.190000 -0.941724
v 28.965517 -2.640000 0.660000
v 28.965517 -3.190000 0.660000
v 30.413793 -2.640000 -1.785449
v 30.413793 -3.190000 -1.785449
v 30.413793 -2.640000 0.660000
v 30.413793 -3.190000 0.660000
v 31.862069 -2.640000 -2.780690
v 31.862069 -3.190000 -2.780690
v 31.862069 -2.640000 0.660000
v 31.862069 -3.190000 0.660000
v 19.966897 -3.432500 -2.880690
v 19.966897 -3.112500 -2.880690
v 19.966897 -3.112500 -2.680690
v 19.966897 -3.432500 -2.680690
v 20.584828 -3.432500 -2.880690
v 20.584828 -3.112500 -2.880690
v 20.584828 -3.112500 -2.680690
v 20.584828 -3.432500 -2.680690
v 21.415172 -3.432500 -1.862488
v 21.415172 -3.112500 -1.862488
v 21.415172 -3.112500 -1.662488
v 21.415172 -3.432500 -1.662488
v 22.033103 -3.432500 -1.862488
v 22.033103 -3.112500 -1.862488
v 22.033103 -3.112500 -1.662488
v 22.033103 -3.432500 -1.662488
v 22.863448 -3.432500 -0.999298
v 22.863448 -3.112500 -0.999298
v 22.863448 -3.112500 -0.799298
v 22.863448 -3.432500 -0.799298
v 23.481379 -3.432500 -0.999298
v 23.481379 -3.112500 -0.999298
v 23.481379 -3.112500 -0.799298
v 23.481379 -3.432500 -0.799298
v 24.311724 -3.432500 -0.422533
v 24.311724 -3.112500 -0.422533
v 24.311724 -3.112500 -0.222533
v 24.311724 -3.432500 -0.222533
v 24.929655 -3.432500 -0.422533
v 24.929655 -3.112500 -0.422533
v 24.929655 -3.112500 -0.222533
v 24.929655 -3.432500 -0.222533
v 25.760000 -3.432500 -0.220000
v 25.760000 -3.112500 -0.220000
v 25.760000 -3.112500 -0.020000
v 25.760000 -3.432500 -0.020000
v 26.377931 -3.432500 -0.220000
v 26.377931 -3.112500 -0.220000
v 26.377931 -3.112500 -0.020000
v 26.377931 -3.432500 -0.020000
v 27.208276 -3.432500 -0.422533
v 27.208276 -3.112500 -0.422533
v 27.208276 -3.112500 -0.222533
v 27.208276 -3.432500 -0.222533
v 27.826207 -3.432500 -0.422533
v 27.826207 -3.112500 -0.422533
v 27.826207 -3.112500 -0.222533
v 27.826207 -3.432500 -0.222533
v 28.656552 -3.432500 -0.999298
v 28.656552 -3.112500 -0.999298
v 28.656552 -3.112500 -0.799298
v 28.656552 -3.432500 -0.799298
v 29.274483 -3.432500 -0.999298
v 29.274483 -3.112500 -0.999298
v 29.274483 -3.112500 -0.799298
v 29.274483 -3.432500 -0.799298
v 30.104828 -3.432500 -1.862488
v 30.104828 -3.112500 -1.862488
v 30.104828 -3.112500 -1.662488
v 30.104828 -3.432500 -1.662488
v 30.722759 -3.432500 -1.862488
v 30.722759 -3.112500 -1.862488
v 30.722759 -3.112500 -1.662488
v 30.722759 -3.432500 -1.662488
v 31.553103 -3.432500 -2.880690
v 31.553103 -3.112500 -2.880690
v 31.553103 -3.112500 -2.680690
v 31.553103 -3.432500 -2.680690
v 32.171034 -3.432500 -2.880690
v 32.171034 -3.112500 -2.880690
v 32.171034 -3.112500 -2.680690
v 32.171034 -3.432500 -2.680690
v 31.862069 -2.640000 -2.433103
v 31.862069 -3.190000 -2.433103
v 31.862069 -2.640000 0.660000
v 31.862069 -3.190000 0.660000
v 33.310345 -2.640000 -1.455518
v 33.310345 -3.190000 -1.455518
v 33.310345 -2.640000 0.660000
v 33.310345 -3.190000 0.660000
v 34.758621 -2.640000 -0.671556
v 34.758621 -3.190000 -0.671556
v 34.758621 -2.640000 0.660000
v 34.758621 -3.190000 0.660000
v 36.206897 -2.640000 -0.236490
v 36.206897 -3.190000 -0.236490
v 36.206897 -2.640000 0.660000
v 36.206897 -3.190000 0.660000
v 37.655172 -2.640000 -0.236490
v 37.655172 -3.190000 -0.236490
v 37.655172 -2.640000 0.660000
v 37.655172 -3.190000 0.660000
v 39.103448 -2.640000 -0.671556
v 39.103448 -3.190000 -0.671556
v 39.103448 -2.640000 0.660000
v 39.103448 -3.190000 0.660000
v 40.551724 -2.640000 -1.455518
v 40.551724 -3.190000 -1.455518
v 40.551724 -2.640000 0.660000
v 40.551724 -3.190000 0.660000
v 42.000000 -2.640000 -2.433103
v 42.000000 -3.190000 -2.433103
v 42.000000 -2.640000 0.660000
v 42.000000 -3.190000 0.660000
v 31.557931 -3.432500 -2.533103
v 31.557931 -3.112500 -2.533103
v 31.557931 -3.112500 -2.333103
v 31.557931 -3.432500 -2.333103
v 32.166207 -3.432500 -2.533103
v 32.166207 -3.112500 -2.533103
v 32.166207 -3.112500 -2.333103
v 32.166207 -3.432500 -2.333103
v 33.006207 -3.432500 -1.529485
v 33.006207 -3.112500 -1.529485
v 33.006207 -3.112500 -1.329485
v 33.006207 -3.432500 -1.329485
v 33.614483 -3.432500 -1.529485
v 33.614483 -3.112500 -1.529485
v 33.614483 -3.112500 -1.329485
v 33.614483 -3.432500 -1.329485
v 34.454483 -3.432500 -0.724646
v 34.454483 -3.112500 -0.724646
v 34.454483 -3.112500 -0.524646
v 34.454483 -3.432500 -0.524646
v 35.062759 -3.432500 -0.724646
v 35.062759 -3.112500 -0.724646
v 35.062759 -3.112500 -0.524646
v 35.062759 -3.432500 -0.524646
v 35.902759 -3.432500 -0.277994
v 35.902759 -3.112500 -0.277994
v 35.902759 -3.112500 -0.077994
v 35.902759 -3.432500 -0.077994
v 36.511034 -3.432500 -0.277994
v 36.511034 -3.112500 -0.277994
v 36.511034 -3.112500 -0.077994
v 36.511034 -3.432500 -0.077994
v 37.351034 -3.432500 -0.277994
v 37.351034 -3.112500 -0.277994
v 37.351034 -3.112500 -0.077994
v 37.351034 -3.432500 -0.077994
v 37.959310 -3.432500 -0.277994
v 37.959310 -3.112500 -0.277994
v 37.959310 -3.112500 -0.077994
v 37.959310 -3.432500 -0.077994
v 38.799310 -3.432500 -0.724646
v 38.799310 -3.112500 -0.724646
v 38.799310 -3.112500 -0.524646
v 38.799310 -3.432500 -0.524646
v 39.407586 -3.432500 -0.724646
v 39.407586 -3.112500 -0.724646
v 39.407586 -3.112500 -0.524646
v 39.407586 -3.432500 -0.524646
v 40.247586 -3.432500 -1.529485
v 40.247586 -3.112500 -1.529485
v 40.247586 -3.112500 -1.329485
v 40.247586 -3.432500 -1.329485
v 40.855862 -3.432500 -1.529485
v 40.855862 -3.112500 -1.529485
v 40.855862 -3.112500 -1.329485
v 40.855862 -3.432500 -1.329485
v 41.695862 -3.432500 -2.533103
v 41.695862 -3.112500 -2.533103
v 41.695862 -3.112500 -2.333103
v 41.695862 -3.432500 -2.333103
v 42.304138 -3.432500 -2.533103
v 42.304138 -3.112500 -2.533103
v 42.304138 -3.112500 -2.333103
v 42.304138 -3.432500 -2.333103
v 0.000000 2.640000 -2.433103
v 0.000000 3.190000 -2.433103
v 0.000000 2.640000 0.660000
v 0.000000 3.190000 0.660000
v 1.448276 2.640000 -1.455518
v 1.448276 3.190000 -1.455518
v 1.448276 2.640000 0.660000
v 1.448276 3.190000 0.660000
v 2.896552 2.640000 -0.671556
v 2.896552 3.190000 -0.671556
v 2.896552 2.640000 0.660000
v 2.896552 3.190000 0.660000
v 4.344828 2.640000 -0.236490
v 4.344828 3.190000 -0.236490
v 4.344828 2.640000 0.660000
v 4.344828 3.190000 0.660000
v 5.793103 2.640000 -0.236490
v 5.793103 3.190000 -0.236490
v 5.793103 2.640000 0.660000
v 5.793103 3.190000 0.660000
v 7.241379 2.640000 -0.671556
v 7.241379 3.190000 -0.671556
v 7.241379 2.640000 0.660000
v 7.241379 3.190000 0.660000
v 8.689655 2.640000 -1.455518
v 8.689655 3.190000 -1.455518
v 8.689655 2.640000 0.660000
v 8.689655 3.190000 0.660000
v 10.137931 2.640000 -2.433103
v 10.137931 3.190000 -2.433103
v 10.137931 2.640000 0.660000
v 10.137931 3.190000 0.660000
v -0.304138 3.112500 -2.533103
v -0.304138 3.432500 -2.533103
v -0.304138 3.432500 -2.333103
v -0.304138 3.112500 -2.333103
v 0.304138 3.112500 -2.533103
v 0.304138 3.432500 -2.533103
v 0.304138 3.432500 -2.333103
v 0.304138 3.112500 -2.333103
v 1.144138 3.112500 -1.529485
v 1.144138 3.432500 -1.529485
v 1.144138 3.432500 -1.329485
v 1.144138 3.112500 -1.329485
v 1.752414 3.112500 -1.529485
v 1.752414 3.432500 -1.529485
v 1.752414 3.432500 -1.329485
v 1.752414 3.112500 -1.329485
v 2.592414 3.112500 -0.724646
v 2.592414 3.432500 -0.724646
v 2.592414 3.432500 -0.524646
v 2.592414 3.112500 -0.524646
v 3.200690 3.112500 -0.724646
v 3.200690 3.432500 -0.724646
v 3.200690 3.432500 -0.524646
v 3.200690 3.112500 -0.524646
v 4.040690 3.112500 -0.277994
v 4.040690 3.432500 -0.277994
v 4.040690 3.432500 -0.077994
v 4.040690 3.112500 -0.077994
v 4.648966 3.112500 -0.277994
v 4.648966 3.432500 -0.277994
v 4.648966 3.432500 -0.077994
v 4.648966 3.112500 -0.077994
v 5.488966 3.112500 -0.277994
v 5.488966 3.432500 -0.277994
v 5.488966 3.432500 -0.077994
v 5.488966 3.112500 -0.077994
v 6.097241 3.112500 -0.277994
v 6.097241 3.432500 -0.277994
v 6.097241 3.432500 -0.077994
v 6.097241 3.112500 -0.077994
v 6.937241 3.112500 -0.724646
v 6.937241 3.432500 -0.724646
v 6.937241 3.432500 -0.524646
v 6.937241 3.112500 -0.524646
v 7.545517 3.112500 -0.724646
v 7.545517 3.432500 -0.724646
v 7.545517 3.432500 -0.524646
v 7.545517 3.112500 -0.524646
v 8.385517 3.112500 -1.529485
v 8.385517 3.432500 -1.529485
v 8.385517 3.432500 -1.329485
v 8.385517 3.112500 -1.329485
v 8.993793 3.112500 -1.529485
v 8.993793 3.432500 -1.529485
v 8.993793 3.432500 -1.329485
v 8.993793 3.112500 -1.329485
v 9.833793 3.112500 -2.533103
v 9.833793 3.432500 -2.533103
v 9.833793 3.432500 -2.333103
v 9.833793 3.112500 -2.333103
v 10.442069 3.112500 -2.533103
v 10.442069 3.432500 -2.533103
v 10.442069 3.432500 -2.333103
v 10.442069 3.112500 -2.333103
v 10.137931 2.640000 -2.433103
v 10.137931 3.190000 -2.433103
v 10.137931 2.640000 0.660000
v 10.137931 3.190000 0.660000
v 11.586207 2.640000 -1.455518
v 11.586207 3.190000 -1.455518
v 11.586207 2.640000 0.660000
v 11.586207 3.190000 0.660000
v 13.034483 2.640000 -0.671556
v 13.034483 3.190000 -0.671556
v 13.034483 2.640000 0.660000
v 13.034483 3.190000 0.660000
v 14.482759 2.640000 -0.236490
v 14.482759 3.190000 -0.236490
v 14.482759 2.640000 0.660000
v 14.482759 3.190000 0.660000
v 15.931034 2.640000 -0.236490
v 15.931034 3.190000 -0.236490
v 15.931034 2.640000 0.660000
v 15.931034 3.190000 0.660000
v 17.379310 2.640000 -0.671556
v 17.379310 3.190000 -0.671556
v 17.379310 2.640000 0.660000
v 17.379310 3.190000 0.660000
v 18.827586 2.640000 -1.455518
v 18.827586 3.190000 -1.455518
v 18.827586 2.640000 0.660000
v 18.827586 3.190000 0.660000
v 20.275862 2.640000 -2.433103
v 20.275862 3.190000 -2.433103
v 20.275862 2.640000 0.660000
v 20.275862 3.190000 0.660000
v 9.833793 3.112500 -2.533103
v 9.833793 3.432500 -2.533103
v 9.833793 3.432500 -2.333103
v 9.833793 3.112500 -2.333103
v 10.442069 3.112500 -2.533103
v 10.442069 3.432500 -2.533103
v 10.442069 3.432500 -2.333103
v 10.442069 3.112500 -2.333103
v 11.282069 3.112500 -1.529485
v 11.282069 3.432500 -1.529485
v 11.282069 3.432500 -1.329485
v 11.282069 3.112500 -1.329485
v 11.890345 3.112500 -1.529485
v 11.890345 3.432500 -1.529485
v 11.890345 3.432500 -1.329485
v 11.890345 3.112500 -1.329485
v 12.730345 3.112500 -0.724646
v 12.730345 3.432500 -0.724646
v 12.730345 3.432500 -0.524646
v 12.730345 3.112500 -0.524646
v 13.338621 3.112500 -0.724646
v 13.338621 3.432500 -0.724646
v 13.338621 3.432500 -0.524646
v 13.338621 3.112500 -0.524646
v 14.178621 3.112500 -0.277994
v 14.178621 3.432500 -0.277994
v 14.178621 3.432500 -0.077994
v 14.178621 3.112500 -0.077994
v 14.786897 3.112500 -0.277994
v 14.786897 3.432500 -0.277994
v 14.786897 3.432500 -0.077994
v 14.786897 3.112500 -0.077994
v 15.626897 3.112500 -0.277994
v 15.626897 3.432500 -0.277994
v 15.626897 3.432500 -0.077994
v 15.626897 3.112500 -0.077994
v 16.235172 3.112500 -0.277994
v 16.235172 3.432500 -0.277994
v 16.235172 3.432500 -0.077994
v 16.235172 3.112500 -0.077994
v 17.075172 3.112500 -0.724646
v 17.075172 3.432500 -0.724646
v 17.075172 3.432500 -0.524646
v 17.075172 3.112500 -0.524646
v 17.683448 3.112500 -0.724646
v 17.683448 3.432500 -0.724646
v 17.683448 3.432500 -0.524646
v 17.683448 3.112500 -0.524646
v 18.523448 3.112500 -1.529485
v 18.523448 3.432500 -1.529485
v 18.523448 3.432500 -1.329485
v 18.523448 3.112500 -1.329485
v 19.131724 3.112500 -1.529485
v 19.131724 3.432500 -1.529485
v 19.131724 3.432500 -1.329485
v 19.131724 3.112500 -1.329485
v 19.971724 3.112500 -2.533103
v 19.971724 3.432500 -2.533103
v 19.971724 3.432500 -2.333103
v 19.971724 3.112500 -2.333103
v 20.580000 3.112500 -2.533103
v 20.580000 3.432500 -2.533103
v 20.580000 3.432500 -2.333103
v 20.580000 3.112500 -2.333103
v 20.275862 2.640000 -2.780690
v 20.275862 3.190000 -2.780690
v 20.275862 2.640000 0.660000
v 20.275862 3.190000 0.660000
v 21.724138 2.640000 -1.785449
v 21.724138 3.190000 -1.785449
v 21.724138 2.640000 0.660000
v 21.724138 3.190000 0.660000
v 23.172414 2.640000 -0.941724
v 23.172414 3.190000 -0.941724
v 23.172414 2.640000 0.660000
v 23.172414 3.190000 0.660000
v 24.620690 2.640000 -0.377966
v 24.620690 3.190000 -0.377966
v 24.620690 2.640000 0.660000
v 24.620690 3.190000 0.660000
v 26.068966 2.640000 -0.180000
v 26.068966 3.190000 -0.180000
v 26.068966 2.640000 0.660000
v 26.068966 3.190000 0.660000
v 27.517241 2.640000 -0.377966
v 27.517241 3.190000 -0.377966
v 27.517241 2.640000 0.660000
v 27.517241 3.190000 0.660000
v 28.965517 2.640000 -0.941724
v 28.965517 3.190000 -0.941724
v 28.965517 2.640000 0.660000
v 28.965517 3.190000 0.660000
v 30.413793 2.640000 -1.785449
v 30.413793 3.190000 -1.785449
v 30.413793 2.640000 0.660000
v 30.413793 3.190000 0.660000
v 31.862069 2.640000 -2.780690
v 31.862069 3.190000 -2.780690
v 31.862069 2.640000 0.660000
v 31.862069 3.190000 0.660000
v 19.966897 3.112500 -2.880690
v 19.966897 3.432500 -2.880690
v 19.966897 3.432500 -2.680690
v 19.966897 3.112500 -2.680690
v 20.584828 3.112500 -2.880690
v 20.584828 3.432500 -2.880690
v 20.584828 3.432500 -2.680690
v 20.584828 3.112500 -2.680690
v 21.415172 3.112500 -1.862488
v 21.415172 3.432500 -1.862488
v 21.415172 3.432500 -1.662488
v 21.415172 3.112500 -1.662488
v 22.033103 3.112500 -1.862488
v 22.033103 3.432500 -1.862488
v 22.033103 3.432500 -1.662488
v 22.033103 3.112500 -1.662488
v 22.863448 3.112500 -0.999298
v 22.863448 3.432500 -0.999298
v 22.863448 3.432500 -0.799298
v 22.863448 3.112500 -0.799298
v 23.481379 3.112500 -0.999298
v 23.481379 3.432500 -0.999298
v 23.481379 3.432500 -0.799298
v 23.481379 3.112500 -0.799298
v 24.311724 3.112500 -0.422533
v 24.311724 3.432500 -0.422533
v 24.311724 3.432500 -0.222533
v 24.311724 3.112500 -0.222533
v 24.929655 3.112500 -0.422533
v 24.929655 3.432500 -0.422533
v 24.929655 3.432500 -0.222533
v 24.929655 3.112500 -0.222533
v 25.760000 3.112500 -0.220000
v 25.760000 3.432500 -0.220000
v 25.760000 3.432500 -0.020000
v 25.760000 3.112500 -0.020000
v 26.377931 3.112500 -0.220000
v 26.377931 3.432500 -0.220000
v 26.377931 3.432500 -0.020000
v 26.377931 3.112500 -0.020000
v 27.208276 3.112500 -0.422533
v 27.208276 3.432500 -0.422533
v 27.208276 3.432500 -0.222533
v 27.208276 3.112500 -0.222533
v 27.826207 3.112500 -0.422533
v 27.826207 3.432500 -0.422533
v 27.826207 3.432500 -0.222533
v 27.826207 3.112500 -0.222533
v 28.656552 3.112500 -0.999298
v 28.656552 3.432500 -0.999298
v 28.656552 3.432500 -0.799298
v 28.656552 3.112500 -0.799298
v 29.274483 3.112500 -0.999298
v 29.274483 3.432500 -0.999298
v 29.274483 3.432500 -0.799298
v 29.274483 3.112500 -0.799298
v 30.104828 3.112500 -1.862488
v 30.104828 3.432500 -1.862488
v 30.104828 3.432500 -1.662488
v 30.104828 3.112500 -1.662488
v 30.722759 3.112500 -1.862488
v 30.722759 3.432500 -1.862488
v 30.722759 3.432500 -1.662488
v 30.722759 3.112500 -1.662488
v 31.553103 3.112500 -2.880690
v 31.553103 3.432500 -2.880690
v 31.553103 3.432500 -2.680690
v 31.553103 3.112500 -2.680690
v 32.171034 3.112500 -2.880690
v 32.171034 3.432500 -2.880690
v 32.171034 3.432500 -2.680690
v 32.171034 3.112500 -2.680690
v 31.862069 2.640000 -2.433103
v 31.862069 3.190000 -2.433103
v 31.862069 2.640000 0.660000
v 31.862069 3.190000 0.660000
v 33.310345 2.640000 -1.455518
v 33.310345 3.190000 -1.455518
v 33.310345 2.640000 0.660000
v 33.310345 3.190000 0.660000
v 34.758621 2.640000 -0.671556
v 34.758621 3.190000 -0.671556
v 34.758621 2.640000 0.660000
v 34.758621 3.190000 0.660000
v 36.206897 2.640000 -0.236490
v 36.206897 3.190000 -0.236490
v 36.206897 2.640000 0.660000
v 36.206897 3.190000 0.660000
v 37.655172 2.640000 -0.236490
v 37.655172 3.190000 -0.236490
v 37.655172 2.640000 0.660000
v 37.655172 3.190000 0.660000
v 39.103448 2.640000 -0.671556
v 39.103448 3.190000 -0.671556
v 39.103448 2.640000 0.660000
v 39.103448 3.190000 0.660000
v 40.551724 2.640000 -1.455518
v 40.551724 3.190000 -1.455518
v 40.551724 2.640000 0.660000
v 40.551724 3.190000 0.660000
v 42.000000 2.640000 -2.433103
v 42.000000 3.190000 -2.433103
v 42.000000 2.640000 0.660000
v 42.000000 3.190000 0.660000
v 31.557931 3.112500 -2.533103
v 31.557931 3.432500 -2.533103
v 31.557931 3.432500 -2.333103
v 31.557931 3.112500 -2.333103
v 32.166207 3.112500 -2.533103
v 32.166207 3.432500 -2.533103
v 32.166207 3.432500 -2.333103
v 32.166207 3.112500 -2.333103
v 33.006207 3.112500 -1.529485
v 33.006207 3.432500 -1.529485
v 33.006207 3.432500 -1.329485
v 33.006207 3.112500 -1.329485
v 33.614483 3.112500 -1.529485
v 33.614483 3.432500 -1.529485
v 33.614483 3.432500 -1.329485
v 33.614483 3.112500 -1.329485
v 34.454483 3.112500 -0.724646
v 34.454483 3.432500 -0.724646
v 34.454483 3.432500 -0.524646
v 34.454483 3.112500 -0.524646
v 35.062759 3.112500 -0.724646
v 35.062759 3.432500 -0.724646
v 35.062759 3.432500 -0.524646
v 35.062759 3.112500 -0.524646
v 35.902759 3.112500 -0.277994
v 35.902759 3.432500 -0.277994
v 35.902759 3.432500 -0.077994
v 35.902759 3.112500 -0.077994
v 36.511034 3.112500 -0.277994
v 36.511034 3.432500 -0.277994
v 36.511034 3.432500 -0.077994
v 36.511034 3.112500 -0.077994
v 37.351034 3.112500 -0.277994
v 37.351034 3.432500 -0.277994
v 37.351034 3.432500 -0.077994
v 37.351034 3.112500 -0.077994
v 37.959310 3.112500 -0.277994
v 37.959310 3.432500 -0.277994
v 37.959310 3.432500 -0.077994
v 37.959310 3.112500 -0.077994
v 38.799310 3.112500 -0.724646
v 38.799310 3.432500 -0.724646
v 38.799310 3.432500 -0.524646
v 38.799310 3.112500 -0.524646
v 39.407586 3.112500 -0.724646
v 39.407586 3.432500 -0.724646
v 39.407586 3.432500 -0.524646
v 39.407586 3.112500 -0.524646
v 40.247586 3.112500 -1.529485
v 40.247586 3.432500 -1.529485
v 40.247586 3.432500 -1.329485
v 40.247586 3.112500 -1.329485
v 40.855862 3.112500 -1.529485
v 40.855862 3.432500 -1.529485
v 40.855862 3.432500 -1.329485
v 40.855862 3.112500 -1.329485
v 41.695862 3.112500 -2.533103
v 41.695862 3.432500 -2.533103
v 41.695862 3.432500 -2.333103
v 41.695862 3.112500 -2.333103
v 42.304138 3.112500 -2.533103
v 42.304138 3.432500 -2.533103
v 42.304138 3.432500 -2.333103
v 42.304138 3.112500 -2.333103
v -0.340000 -3.080000 -3.200000
v -0.340000 3.080000 -3.200000
v -0.340000 3.080000 -0.080000
v -0.340000 -3.080000 -0.080000
v 0.340000 -3.080000 -3.200000
v 0.340000 3.080000 -3.200000
v 0.340000 3.080000 -0.080000
v 0.340000 -3.080000 -0.080000
v -0.280000 -3.410000 0.760000
v -0.280000 3.410000 0.760000
v -0.280000 3.410000 0.880000
v -0.280000 -3.410000 0.880000
v 0.280000 -3.410000 0.760000
v 0.280000 3.410000 0.760000
v 0.280000 3.410000 0.880000
v 0.280000 -3.410000 0.880000
v -0.320000 -3.185000 0.680000
v -0.320000 -2.865000 0.680000
v -0.320000 -2.865000 0.840000
v -0.320000 -3.185000 0.840000
v 0.320000 -3.185000 0.680000
v 0.320000 -2.865000 0.680000
v 0.320000 -2.865000 0.840000
v 0.320000 -3.185000 0.840000
v -0.320000 2.865000 0.680000
v -0.320000 3.185000 0.680000
v -0.320000 3.185000 0.840000
v -0.320000 2.865000 0.840000
v 0.320000 2.865000 0.680000
v 0.320000 3.185000 0.680000
v 0.320000 3.185000 0.840000
v 0.320000 2.865000 0.840000
v 2.616552 -3.410000 0.760000
v 2.616552 3.410000 0.760000
v 2.616552 3.410000 0.880000
v 2.616552 -3.410000 0.880000
v 3.176552 -3.410000 0.760000
v 3.176552 3.410000 0.760000
v 3.176552 3.410000 0.880000
v 3.176552 -3.410000 0.880000
v 4.024828 -3.185000 0.680000
v 4.024828 -2.865000 0.680000
v 4.024828 -2.865000 0.840000
v 4.024828 -3.185000 0.840000
v 4.664828 -3.185000 0.680000
v 4.664828 -2.865000 0.680000
v 4.664828 -2.865000 0.840000
v 4.664828 -3.185000 0.840000
v 4.024828 2.865000 0.680000
v 4.024828 3.185000 0.680000
v 4.024828 3.185000 0.840000
v 4.024828 2.865000 0.840000
v 4.664828 2.865000 0.680000
v 4.664828 3.185000 0.680000
v 4.664828 3.185000 0.840000
v 4.664828 2.865000 0.840000
v 5.573103 -3.080000 -3.200000
v 5.573103 3.080000 -3.200000
v 5.573103 3.080000 -0.080000
v 5.573103 -3.080000 -0.080000
v 6.013103 -3.080000 -3.200000
v 6.013103 3.080000 -3.200000
v 6.013103 3.080000 -0.080000
v 6.013103 -3.080000 -0.080000
v 5.513103 -3.410000 0.760000
v 5.513103 3.410000 0.760000
v 5.513103 3.410000 0.880000
v 5.513103 -3.410000 0.880000
v 6.073103 -3.410000 0.760000
v 6.073103 3.410000 0.760000
v 6.073103 3.410000 0.880000
v 6.073103 -3.410000 0.880000
v 8.409655 -3.410000 0.760000
v 8.409655 3.410000 0.760000
v 8.409655 3.410000 0.880000
v 8.409655 -3.410000 0.880000
v 8.969655 -3.410000 0.760000
v 8.969655 3.410000 0.760000
v 8.969655 3.410000 0.880000
v 8.969655 -3.410000 0.880000
v 8.369655 -3.185000 0.680000
v 8.369655 -2.865000 0.680000
v 8.369655 -2.865000 0.840000
v 8.369655 -3.185000 0.840000
v 9.009655 -3.185000 0.680000
v 9.009655 -2.865000 0.680000
v 9.009655 -2.865000 0.840000
v 9.009655 -3.185000 0.840000
v 8.369655 2.865000 0.680000
v 8.369655 3.185000 0.680000
v 8.369655 3.185000 0.840000
v 8.369655 2.865000 0.840000
v 9.009655 2.865000 0.680000
v 9.009655 3.185000 0.680000
v 9.009655 3.185000 0.840000
v 9.009655 2.865000 0.840000
v 11.366207 -3.080000 -3.200000
v 11.366207 3.080000 -3.200000
v 11.366207 3.080000 -0.080000
v 11.366207 -3.080000 -0.080000
v 11.806207 -3.080000 -3.200000
v 11.806207 3.080000 -3.200000
v 11.806207 3.080000 -0.080000
v 11.806207 -3.080000 -0.080000
v 11.306207 -3.410000 0.760000
v 11.306207 3.410000 0.760000
v 11.306207 3.410000 0.880000
v 11.306207 -3.410000 0.880000
v 11.866207 -3.410000 0.760000
v 11.866207 3.410000 0.760000
v 11.866207 3.410000 0.880000
v 11.866207 -3.410000 0.880000
v 12.714483 -3.185000 0.680000
v 12.714483 -2.865000 0.680000
v 12.714483 -2.865000 0.840000
v 12.714483 -3.185000 0.840000
v 13.354483 -3.185000 0.680000
v 13.354483 -2.865000 0.680000
v 13.354483 -2.865000 0.840000
v 13.354483 -3.185000 0.840000
v 12.714483 2.865000 0.680000
v 12.714483 3.185000 0.680000
v 12.714483 3.185000 0.840000
v 12.714483 2.865000 0.840000
v 13.354483 2.865000 0.680000
v 13.354483 3.185000 0.680000
v 13.354483 3.185000 0.840000
v 13.354483 2.865000 0.840000
v 14.202759 -3.410000 0.760000
v 14.202759 3.410000 0.760000
v 14.202759 3.410000 0.880000
v 14.202759 -3.410000 0.880000
v 14.762759 -3.410000 0.760000
v 14.762759 3.410000 0.760000
v 14.762759 3.410000 0.880000
v 14.762759 -3.410000 0.880000
v 17.159310 -3.080000 -3.200000
v 17.159310 3.080000 -3.200000
v 17.159310 3.080000 -0.080000
v 17.159310 -3.080000 -0.080000
v 17.599310 -3.080000 -3.200000
v 17.599310 3.080000 -3.200000
v 17.599310 3.080000 -0.080000
v 17.599310 -3.080000 -0.080000
v 17.099310 -3.410000 0.760000
v 17.099310 3.410000 0.760000
v 17.099310 3.410000 0.880000
v 17.099310 -3.410000 0.880000
v 17.659310 -3.410000 0.760000
v 17.659310 3.410000 0.760000
v 17.659310 3.410000 0.880000
v 17.659310 -3.410000 0.880000
v 17.059310 -3.185000 0.680000
v 17.059310 -2.865000 0.680000
v 17.059310 -2.865000 0.840000
v 17.059310 -3.185000 0.840000
v 17.699310 -3.185000 0.680000
v 17.699310 -2.865000 0.680000
v 17.699310 -2.865000 0.840000
v 17.699310 -3.185000 0.840000
v 17.059310 2.865000 0.680000
v 17.059310 3.185000 0.680000
v 17.059310 3.185000 0.840000
v 17.059310 2.865000 0.840000
v 17.699310 2.865000 0.680000
v 17.699310 3.185000 0.680000
v 17.699310 3.185000 0.840000
v 17.699310 2.865000 0.840000
v 19.995862 -3.410000 0.760000
v 19.995862 3.410000 0.760000
v 19.995862 3.410000 0.880000
v 19.995862 -3.410000 0.880000
v 20.555862 -3.410000 0.760000
v 20.555862 3.410000 0.760000
v 20.555862 3.410000 0.880000
v 20.555862 -3.410000 0.880000
v 21.404138 -3.185000 0.680000
v 21.404138 -2.865000 0.680000
v 21.404138 -2.865000 0.840000
v 21.404138 -3.185000 0.840000
v 22.044138 -3.185000 0.680000
v 22.044138 -2.865000 0.680000
v 22.044138 -2.865000 0.840000
v 22.044138 -3.185000 0.840000
v 21.404138 2.865000 0.680000
v 21.404138 3.185000 0.680000
v 21.404138 3.185000 0.840000
v 21.404138 2.865000 0.840000
v 22.044138 2.865000 0.680000
v 22.044138 3.185000 0.680000
v 22.044138 3.185000 0.840000
v 22.044138 2.865000 0.840000
v 22.952414 -3.080000 -3.200000
v 22.952414 3.080000 -3.200000
v 22.952414 3.080000 -0.080000
v 22.952414 -3.080000 -0.080000
v 23.392414 -3.080000 -3.200000
v 23.392414 3.080000 -3.200000
v 23.392414 3.080000 -0.080000
v 23.392414 -3.080000 -0.080000
v 22.892414 -3.410000 0.760000
v 22.892414 3.410000 0.760000
v 22.892414 3.410000 0.880000
v 22.892414 -3.410000 0.880000
v 23.452414 -3.410000 0.760000
v 23.452414 3.410000 0.760000
v 23.452414 3.410000 0.880000
v 23.452414 -3.410000 0.880000
v 25.788966 -3.410000 0.760000
v 25.788966 3.410000 0.760000
v 25.788966 3.410000 0.880000
v 25.788966 -3.410000 0.880000
v 26.348966 -3.410000 0.760000
v 26.348966 3.410000 0.760000
v 26.348966 3.410000 0.880000
v 26.348966 -3.410000 0.880000
v 25.748966 -3.185000 0.680000
v 25.748966 -2.865000 0.680000
v 25.748966 -2.865000 0.840000
v 25.748966 -3.185000 0.840000
v 26.388966 -3.185000 0.680000
v 26.388966 -2.865000 0.680000
v 26.388966 -2.865000 0.840000
v 26.388966 -3.185000 0.840000
v 25.748966 2.865000 0.680000
v 25.748966 3.185000 0.680000
v 25.748966 3.185000 0.840000
v 25.748966 2.865000 0.840000
v 26.388966 2.865000 0.680000
v 26.388966 3.185000 0.680000
v 26.388966 3.185000 0.840000
v 26.388966 2.865000 0.840000
v 28.745517 -3.080000 -3.200000
v 28.745517 3.080000 -3.200000
v 28.745517 3.080000 -0.080000
v 28.745517 -3.080000 -0.080000
v 29.185517 -3.080000 -3.200000
v 29.185517 3.080000 -3.200000
v 29.185517 3.080000 -0.080000
v 29.185517 -3.080000 -0.080000
v 28.685517 -3.410000 0.760000
v 28.685517 3.410000 0.760000
v 28.685517 3.410000 0.880000
v 28.685517 -3.410000 0.880000
v 29.245517 -3.410000 0.760000
v 29.245517 3.410000 0.760000
v 29.245517 3.410000 0.880000
v 29.245517 -3.410000 0.880000
v 30.093793 -3.185000 0.680000
v 30.093793 -2.865000 0.680000
v 30.093793 -2.865000 0.840000
v 30.093793 -3.185000 0.840000
v 30.733793 -3.185000 0.680000
v 30.733793 -2.865000 0.680000
v 30.733793 -2.865000 0.840000
v 30.733793 -3.185000 0.840000
v 30.093793 2.865000 0.680000
v 30.093793 3.185000 0.680000
v 30.093793 3.185000 0.840000
v 30.093793 2.865000 0.840000
v 30.733793 2.865000 0.680000
v 30.733793 3.185000 0.680000
v 30.733793 3.185000 0.840000
v 30.733793 2.865000 0.840000
v 31.582069 -3.410000 0.760000
v 31.582069 3.410000 0.760000
v 31.582069 3.410000 0.880000
v 31.582069 -3.410000 0.880000
v 32.142069 -3.410000 0.760000
v 32.142069 3.410000 0.760000
v 32.142069 3.410000 0.880000
v 32.142069 -3.410000 0.880000
v 34.538621 -3.080000 -3.200000
v 34.538621 3.080000 -3.200000
v 34.538621 3.080000 -0.080000
v 34.538621 -3.080000 -0.080000
v 34.978621 -3.080000 -3.200000
v 34.978621 3.080000 -3.200000
v 34.978621 3.080000 -0.080000
v 34.978621 -3.080000 -0.080000
v 34.478621 -3.410000 0.760000
v 34.478621 3.410000 0.760000
v 34.478621 3.410000 0.880000
v 34.478621 -3.410000 0.880000
v 35.038621 -3.410000 0.760000
v 35.038621 3.410000 0.760000
v 35.038621 3.410000 0.880000
v 35.038621 -3.410000 0.880000
v 34.438621 -3.185000 0.680000
v 34.438621 -2.865000 0.680000
v 34.438621 -2.865000 0.840000
v 34.438621 -3.185000 0.840000
v 35.078621 -3.185000 0.680000
v 35.078621 -2.865000 0.680000
v 35.078621 -2.865000 0.840000
v 35.078621 -3.185000 0.840000
v 34.438621 2.865000 0.680000
v 34.438621 3.185000 0.680000
v 34.438621 3.185000 0.840000
v 34.438621 2.865000 0.840000
v 35.078621 2.865000 0.680000
v 35.078621 3.185000 0.680000
v 35.078621 3.185000 0.840000
v 35.078621 2.865000 0.840000
v 37.375172 -3.410000 0.760000
v 37.375172 3.410000 0.760000
v 37.375172 3.410000 0.880000
v 37.375172 -3.410000 0.880000
v 37.935172 -3.410000 0.760000
v 37.935172 3.410000 0.760000
v 37.935172 3.410000 0.880000
v 37.935172 -3.410000 0.880000
v 38.783448 -3.185000 0.680000
v 38.783448 -2.865000 0.680000
v 38.783448 -2.865000 0.840000
v 38.783448 -3.185000 0.840000
v 39.423448 -3.185000 0.680000
v 39.423448 -2.865000 0.680000
v 39.423448 -2.865000 0.840000
v 39.423448 -3.185000 0.840000
v 38.783448 2.865000 0.680000
v 38.783448 3.185000 0.680000
v 38.783448 3.185000 0.840000
v 38.783448 2.865000 0.840000
v 39.423448 2.865000 0.680000
v 39.423448 3.185000 0.680000
v 39.423448 3.185000 0.840000
v 39.423448 2.865000 0.840000
v 40.331724 -3.080000 -3.200000
v 40.331724 3.080000 -3.200000
v 40.331724 3.080000 -0.080000
v 40.331724 -3.080000 -0.080000
v 40.771724 -3.080000 -3.200000
v 40.771724 3.080000 -3.200000
v 40.771724 3.080000 -0.080000
v 40.771724 -3.080000 -0.080000
v 40.271724 -3.410000 0.760000
v 40.271724 3.410000 0.760000
v 40.271724 3.410000 0.880000
v 40.271724 -3.410000 0.880000
v 40.831724 -3.410000 0.760000
v 40.831724 3.410000 0.760000
v 40.831724 3.410000 0.880000
v 40.831724 -3.410000 0.880000
v 41.660000 -3.080000 -3.200000
v 41.660000 3.080000 -3.200000
v 41.660000 3.080000 -0.080000
v 41.660000 -3.080000 -0.080000
v 42.340000 -3.080000 -3.200000
v 42.340000 3.080000 -3.200000
v 42.340000 3.080000 -0.080000
v 42.340000 -3.080000 -0.080000
v -0.280000 -1.958000 0.010000
v -0.280000 -1.298000 0.010000
v -0.280000 -1.298000 0.060000
v -0.280000 -1.958000 0.060000
v 0.280000 -1.958000 0.010000
v 0.280000 -1.298000 0.010000
v 0.280000 -1.298000 0.060000
v 0.280000 -1.958000 0.060000
v -0.280000 -1.044000 0.010000
v -0.280000 -0.384000 0.010000
v -0.280000 -0.384000 0.060000
v -0.280000 -1.044000 0.060000
v 0.280000 -1.044000 0.010000
v 0.280000 -0.384000 0.010000
v 0.280000 -0.384000 0.060000
v 0.280000 -1.044000 0.060000
v -0.280000 -0.330000 0.010000
v -0.280000 0.330000 0.010000
v -0.280000 0.330000 0.060000
v -0.280000 -0.330000 0.060000
v 0.280000 -0.330000 0.010000
v 0.280000 0.330000 0.010000
v 0.280000 0.330000 0.060000
v 0.280000 -0.330000 0.060000
v -0.280000 0.584000 0.010000
v -0.280000 1.244000 0.010000
v -0.280000 1.244000 0.060000
v -0.280000 0.584000 0.060000
v 0.280000 0.584000 0.010000
v 0.280000 1.244000 0.010000
v 0.280000 1.244000 0.060000
v 0.280000 0.584000 0.060000
v -0.280000 1.298000 0.010000
v -0.280000 1.958000 0.010000
v -0.280000 1.958000 0.060000
v -0.280000 1.298000 0.060000
v 0.280000 1.298000 0.010000
v 0.280000 1.958000 0.010000
v 0.280000 1.958000 0.060000
v 0.280000 1.298000 0.060000
v 2.616552 -1.958000 0.010000
v 2.616552 -1.298000 0.010000
v 2.616552 -1.298000 0.060000
v 2.616552 -1.958000 0.060000
v 3.176552 -1.958000 0.010000
v 3.176552 -1.298000 0.010000
v 3.176552 -1.298000 0.060000
v 3.176552 -1.958000 0.060000
v 2.616552 -1.044000 0.010000
v 2.616552 -0.384000 0.010000
v 2.616552 -0.384000 0.060000
v 2.616552 -1.044000 0.060000
v 3.176552 -1.044000 0.010000
v 3.176552 -0.384000 0.010000
v 3.176552 -0.384000 0.060000
v 3.176552 -1.044000 0.060000
v 2.616552 -0.330000 0.010000
v 2.616552 0.330000 0.010000
v 2.616552 0.330000 0.060000
v 2.616552 -0.330000 0.060000
v 3.176552 -0.330000 0.010000
v 3.176552 0.330000 0.010000
v 3.176552 0.330000 0.060000
v 3.176552 -0.330000 0.060000
v 2.616552 0.584000 0.010000
v 2.616552 1.244000 0.010000
v 2.616552 1.244000 0.060000
v 2.616552 0.584000 0.060000
v 3.176552 0.584000 0.010000
v 3.176552 1.244000 0.010000
v 3.176552 1.244000 0.060000
v 3.176552 0.584000 0.060000
v 2.616552 1.298000 0.010000
v 2.616552 1.958000 0.010000
v 2.616552 1.958000 0.060000
v 2.616552 1.298000 0.060000
v 3.176552 1.298000 0.010000
v 3.176552 1.958000 0.010000
v 3.176552 1.958000 0.060000
v 3.176552 1.298000 0.060000
v 5.513103 -1.958000 0.010000
v 5.513103 -1.298000 0.010000
v 5.513103 -1.298000 0.060000
v 5.513103 -1.958000 0.060000
v 6.073103 -1.958000 0.010000
v 6.073103 -1.298000 0.010000
v 6.073103 -1.298000 0.060000
v 6.073103 -1.958000 0.060000
v 5.513103 -1.044000 0.010000
v 5.513103 -0.384000 0.010000
v 5.513103 -0.384000 0.060000
v 5.513103 -1.044000 0.060000
v 6.073103 -1.044000 0.010000
v 6.073103 -0.384000 0.010000
v 6.073103 -0.384000 0.060000
v 6.073103 -1.044000 0.060000
v 5.513103 -0.330000 0.010000
v 5.513103 0.330000 0.010000
v 5.513103 0.330000 0.060000
v 5.513103 -0.330000 0.060000
v 6.073103 -0.330000 0.010000
v 6.073103 0.330000 0.010000
v 6.073103 0.330000 0.060000
v 6.073103 -0.330000 0.060000
v 5.513103 0.584000 0.010000
v 5.513103 1.244000 0.010000
v 5.513103 1.244000 0.060000
v 5.513103 0.584000 0.060000
v 6.073103 0.584000 0.010000
v 6.073103 1.244000 0.010000
v 6.073103 1.244000 0.060000
v 6.073103 0.584000 0.060000
v 5.513103 1.298000 0.010000
v 5.513103 1.958000 0.010000
v 5.513103 1.958000 0.060000
v 5.513103 1.298000 0.060000
v 6.073103 1.298000 0.010000
v 6.073103 1.958000 0.010000
v 6.073103 1.958000 0.060000
v 6.073103 1.298000 0.060000
v 8.409655 -1.958000 0.010000
v 8.409655 -1.298000 0.010000
v 8.409655 -1.298000 0.060000
v 8.409655 -1.958000 0.060000
v 8.969655 -1.958000 0.010000
v 8.969655 -1.298000 0.010000
v 8.969655 -1.298000 0.060000
v 8.969655 -1.958000 0.060000
v 8.409655 -1.044000 0.010000
v 8.409655 -0.384000 0.010000
v 8.409655 -0.384000 0.060000
v 8.409655 -1.044000 0.060000
v 8.969655 -1.044000 0.010000
v 8.969655 -0.384000 0.010000
v 8.969655 -0.384000 0.060000
v 8.969655 -1.044000 0.060000
v 8.409655 -0.330000 0.010000
v 8.409655 0.330000 0.010000
v 8.409655 0.330000 0.060000
v 8.409655 -0.330000 0.060000
v 8.969655 -0.330000 0.010000
v 8.969655 0.330000 0.010000
v 8.969655 0.330000 0.060000
v 8.969655 -0.330000 0.060000
v 8.409655 0.584000 0.010000
v 8.409655 1.244000 0.010000
v 8.409655 1.244000 0.060000
v 8.409655 0.584000 0.060000
v 8.969655 0.584000 0.010000
v 8.969655 1.244000 0.010000
v 8.969655 1.244000 0.060000
v 8.969655 0.584000 0.060000
v 8.409655 1.298000 0.010000
v 8.409655 1.958000 0.010000
v 8.409655 1.958000 0.060000
v 8.409655 1.298000 0.060000
v 8.969655 1.298000 0.010000
v 8.969655 1.958000 0.010000
v 8.969655 1.958000 0.060000
v 8.969655 1.298000 0.060000
v 11.306207 -1.958000 0.010000
v 11.306207 -1.298000 0.010000
v 11.306207 -1.298000 0.060000
v 11.306207 -1.958000 0.060000
v 11.866207 -1.958000 0.010000
v 11.866207 -1.298000 0.010000
v 11.866207 -1.298000 0.060000
v 11.866207 -1.958000 0.060000
v 11.306207 -1.044000 0.010000
v 11.306207 -0.384000 0.010000
v 11.306207 -0.384000 0.060000
v 11.306207 -1.044000 0.060000
v 11.866207 -1.044000 0.010000
v 11.866207 -0.384000 0.010000
v 11.866207 -0.384000 0.060000
v 11.866207 -1.044000 0.060000
v 11.306207 -0.330000 0.010000
v 11.306207 0.330000 0.010000
v 11.306207 0.330000 0.060000
v 11.306207 -0.330000 0.060000
v 11.866207 -0.330000 0.010000
v 11.866207 0.330000 0.010000
v 11.866207 0.330000 0.060000
v 11.866207 -0.330000 0.060000
v 11.306207 0.584000 0.010000
v 11.306207 1.244000 0.010000
v 11.306207 1.244000 0.060000
v 11.306207 0.584000 0.060000
v 11.866207 0.584000 0.010000
v 11.866207 1.244000 0.010000
v 11.866207 1.244000 0.060000
v 11.866207 0.584000 0.060000
v 11.306207 1.298000 0.010000
v 11.306207 1.958000 0.010000
v 11.306207 1.958000 0.060000
v 11.306207 1.298000 0.060000
v 11.866207 1.298000 0.010000
v 11.866207 1.958000 0.010000
v 11.866207 1.958000 0.060000
v 11.866207 1.298000 0.060000
v 14.202759 -1.958000 0.010000
v 14.202759 -1.298000 0.010000
v 14.202759 -1.298000 0.060000
v 14.202759 -1.958000 0.060000
v 14.762759 -1.958000 0.010000
v 14.762759 -1.298000 0.010000
v 14.762759 -1.298000 0.060000
v 14.762759 -1.958000 0.060000
v 14.202759 -1.044000 0.010000
v 14.202759 -0.384000 0.010000
v 14.202759 -0.384000 0.060000
v 14.202759 -1.044000 0.060000
v 14.762759 -1.044000 0.010000
v 14.762759 -0.384000 0.010000
v 14.762759 -0.384000 0.060000
v 14.762759 -1.044000 0.060000
v 14.202759 -0.330000 0.010000
v 14.202759 0.330000 0.010000
v 14.202759 0.330000 0.060000
v 14.202759 -0.330000 0.060000
v 14.762759 -0.330000 0.010000
v 14.762759 0.330000 0.010000
v 14.762759 0.330000 0.060000
v 14.762759 -0.330000 0.060000
v 14.202759 0.584000 0.010000
v 14.202759 1.244000 0.010000
v 14.202759 1.244000 0.060000
v 14.202759 0.584000 0.060000
v 14.762759 0.584000 0.010000
v 14.762759 1.244000 0.010000
v 14.762759 1.244000 0.060000
v 14.762759 0.584000 0.060000
v 14.202759 1.298000 0.010000
v 14.202759 1.958000 0.010000
v 14.202759 1.958000 0.060000
v 14.202759 1.298000 0.060000
v 14.762759 1.298000 0.010000
v 14.762759 1.958000 0.010000
v 14.762759 1.958000 0.060000
v 14.762759 1.298000 0.060000
v 17.099310 -1.958000 0.010000
v 17.099310 -1.298000 0.010000
v 17.099310 -1.298000 0.060000
v 17.099310 -1.958000 0.060000
v 17.659310 -1.958000 0.010000
v 17.659310 -1.298000 0.010000
v 17.659310 -1.298000 0.060000
v 17.659310 -1.958000 0.060000
v 17.099310 -1.044000 0.010000
v 17.099310 -0.384000 0.010000
v 17.099310 -0.384000 0.060000
v 17.099310 -1.044000 0.060000
v 17.659310 -1.044000 0.010000
v 17.659310 -0.384000 0.010000
v 17.659310 -0.384000 0.060000
v 17.659310 -1.044000 0.060000
v 17.099310 -0.330000 0.010000
v 17.099310 0.330000 0.010000
v 17.099310 0.330000 0.060000
v 17.099310 -0.330000 0.060000
v 17.659310 -0.330000 0.010000
v 17.659310 0.330000 0.010000
v 17.659310 0.330000 0.060000
v 17.659310 -0.330000 0.060000
v 17.099310 0.584000 0.010000
v 17.099310 1.244000 0.010000
v 17.099310 1.244000 0.060000
v 17.099310 0.584000 0.060000
v 17.659310 0.584000 0.010000
v 17.659310 1.244000 0.010000
v 17.659310 1.244000 0.060000
v 17.659310 0.584000 0.060000
v 17.099310 1.298000 0.010000
v 17.099310 1.958000 0.010000
v 17.099310 1.958000 0.060000
v 17.099310 1.298000 0.060000
v 17.659310 1.298000 0.010000
v 17.659310 1.958000 0.010000
v 17.659310 1.958000 0.060000
v 17.659310 1.298000 0.060000
v 19.995862 -1.958000 0.010000
v 19.995862 -1.298000 0.010000
v 19.995862 -1.298000 0.060000
v 19.995862 -1.958000 0.060000
v 20.555862 -1.958000 0.010000
v 20.555862 -1.298000 0.010000
v 20.555862 -1.298000 0.060000
v 20.555862 -1.958000 0.060000
v 19.995862 -1.044000 0.010000
v 19.995862 -0.384000 0.010000
v 19.995862 -0.384000 0.060000
v 19.995862 -1.044000 0.060000
v 20.555862 -1.044000 0.010000
v 20.555862 -0.384000 0.010000
v 20.555862 -0.384000 0.060000
v 20.555862 -1.044000 0.060000
v 19.995862 -0.330000 0.010000
v 19.995862 0.330000 0.010000
v 19.995862 0.330000 0.060000
v 19.995862 -0.330000 0.060000
v 20.555862 -0.330000 0.010000
v 20.555862 0.330000 0.010000
v 20.555862 0.330000 0.060000
v 20.555862 -0.330000 0.060000
v 19.995862 0.584000 0.010000
v 19.995862 1.244000 0.010000
v 19.995862 1.244000 0.060000
v 19.995862 0.584000 0.060000
v 20.555862 0.584000 0.010000
v 20.555862 1.244000 0.010000
v 20.555862 1.244000 0.060000
v 20.555862 0.584000 0.060000
v 19.995862 1.298000 0.010000
v 19.995862 1.958000 0.010000
v 19.995862 1.958000 0.060000
v 19.995862 1.298000 0.060000
v 20.555862 1.298000 0.010000
v 20.555862 1.958000 0.010000
v 20.555862 1.958000 0.060000
v 20.555862 1.298000 0.060000
v 22.892414 -1.958000 0.010000
v 22.892414 -1.298000 0.010000
v 22.892414 -1.298000 0.060000
v 22.892414 -1.958000 0.060000
v 23.452414 -1.958000 0.010000
v 23.452414 -1.298000 0.010000
v 23.452414 -1.298000 0.060000
v 23.452414 -1.958000 0.060000
v 22.892414 -1.044000 0.010000
v 22.892414 -0.384000 0.010000
v 22.892414 -0.384000 0.060000
v 22.892414 -1.044000 0.060000
v 23.452414 -1.044000 0.010000
v 23.452414 -0.384000 0.010000
v 23.452414 -0.384000 0.060000
v 23.452414 -1.044000 0.060000
v 22.892414 -0.330000 0.010000
v 22.892414 0.330000 0.010000
v 22.892414 0.330000 0.060000
v 22.892414 -0.330000 0.060000
v 23.452414 -0.330000 0.010000
v 23.452414 0.330000 0.010000
v 23.452414 0.330000 0.060000
v 23.452414 -0.330000 0.060000
v 22.892414 0.584000 0.010000
v 22.892414 1.244000 0.010000
v 22.892414 1.244000 0.060000
v 22.892414 0.584000 0.060000
v 23.452414 0.584000 0.010000
v 23.452414 1.244000 0.010000
v 23.452414 1.244000 0.060000
v 23.452414 0.584000 0.060000
v 22.892414 1.298000 0.010000
v 22.892414 1.958000 0.010000
v 22.892414 1.958000 0.060000
v 22.892414 1.298000 0.060000
v 23.452414 1.298000 0.010000
v 23.452414 1.958000 0.010000
v 23.452414 1.958000 0.060000
v 23.452414 1.298000 0.060000
v 25.788966 -1.958000 0.010000
v 25.788966 -1.298000 0.010000
v 25.788966 -1.298000 0.060000
v 25.788966 -1.958000 0.060000
v 26.348966 -1.958000 0.010000
v 26.348966 -1.298000 0.010000
v 26.348966 -1.298000 0.060000
v 26.348966 -1.958000 0.060000
v 25.788966 -1.044000 0.010000
v 25.788966 -0.384000 0.010000
v 25.788966 -0.384000 0.060000
v 25.788966 -1.044000 0.060000
v 26.348966 -1.044000 0.010000
v 26.348966 -0.384000 0.010000
v 26.348966 -0.384000 0.060000
v 26.348966 -1.044000 0.060000
v 25.788966 -0.330000 0.010000
v 25.788966 0.330000 0.010000
v 25.788966 0.330000 0.060000
v 25.788966 -0.330000 0.060000
v 26.348966 -0.330000 0.010000
v 26.348966 0.330000 0.010000
v 26.348966 0.330000 0.060000
v 26.348966 -0.330000 0.060000
v 25.788966 0.584000 0.010000
v 25.788966 1.244000 0.010000
v 25.788966 1.244000 0.060000
v 25.788966 0.584000 0.060000
v 26.348966 0.584000 0.010000
v 26.348966 1.244000 0.010000
v 26.348966 1.244000 0.060000
v 26.348966 0.584000 0.060000
v 25.788966 1.298000 0.010000
v 25.788966 1.958000 0.010000
v 25.788966 1.958000 0.060000
v 25.788966 1.298000 0.060000
v 26.348966 1.298000 0.010000
v 26.348966 1.958000 0.010000
v 26.348966 1.958000 0.060000
v 26.348966 1.298000 0.060000
v 28.685517 -1.958000 0.010000
v 28.685517 -1.298000 0.010000
v 28.685517 -1.298000 0.060000
v 28.685517 -1.958000 0.060000
v 29.245517 -1.958000 0.010000
v 29.245517 -1.298000 0.010000
v 29.245517 -1.298000 0.060000
v 29.245517 -1.958000 0.060000
v 28.685517 -1.044000 0.010000
v 28.685517 -0.384000 0.010000
v 28.685517 -0.384000 0.060000
v 28.685517 -1.044000 0.060000
v 29.245517 -1.044000 0.010000
v 29.245517 -0.384000 0.010000
v 29.245517 -0.384000 0.060000
v 29.245517 -1.044000 0.060000
v 28.685517 -0.330000 0.010000
v 28.685517 0.330000 0.010000
v 28.685517 0.330000 0.060000
v 28.685517 -0.330000 0.060000
v 29.245517 -0.330000 0.010000
v 29.245517 0.330000 0.010000
v 29.245517 0.330000 0.060000
v 29.245517 -0.330000 0.060000
v 28.685517 0.584000 0.010000
v 28.685517 1.244000 0.010000
v 28.685517 1.244000 0.060000
v 28.685517 0.584000 0.060000
v 29.245517 0.584000 0.010000
v 29.245517 1.244000 0.010000
v 29.245517 1.244000 0.060000
v 29.245517 0.584000 0.060000
v 28.685517 1.298000 0.010000
v 28.685517 1.958000 0.010000
v 28.685517 1.958000 0.060000
v 28.685517 1.298000 0.060000
v 29.245517 1.298000 0.010000
v 29.245517 1.958000 0.010000
v 29.245517 1.958000 0.060000
v 29.245517 1.298000 0.060000
v 31.582069 -1.958000 0.010000
v 31.582069 -1.298000 0.010000
v 31.582069 -1.298000 0.060000
v 31.582069 -1.958000 0.060000
v 32.142069 -1.958000 0.010000
v 32.142069 -1.298000 0.010000
v 32.142069 -1.298000 0.060000
v 32.142069 -1.958000 0.060000
v 31.582069 -1.044000 0.010000
v 31.582069 -0.384000 0.010000
v 31.582069 -0.384000 0.060000
v 31.582069 -1.044000 0.060000
v 32.142069 -1.044000 0.010000
v 32.142069 -0.384000 0.010000
v 32.142069 -0.384000 0.060000
v 32.142069 -1.044000 0.060000
v 31.582069 -0.330000 0.010000
v 31.582069 0.330000 0.010000
v 31.582069 0.330000 0.060000
v 31.582069 -0.330000 0.060000
v 32.142069 -0.330000 0.010000
v 32.142069 0.330000 0.010000
v 32.142069 0.330000 0.060000
v 32.142069 -0.330000 0.060000
v 31.582069 0.584000 0.010000
v 31.582069 1.244000 0.010000
v 31.582069 1.244000 0.060000
v 31.582069 0.584000 0.060000
v 32.142069 0.584000 0.010000
v 32.142069 1.244000 0.010000
v 32.142069 1.244000 0.060000
v 32.142069 0.584000 0.060000
v 31.582069 1.298000 0.010000
v 31.582069 1.958000 0.010000
v 31.582069 1.958000 0.060000
v 31.582069 1.298000 0.060000
v 32.142069 1.298000 0.010000
v 32.142069 1.958000 0.010000
v 32.142069 1.958000 0.060000
v 32.142069 1.298000 0.060000
v 34.478621 -1.958000 0.010000
v 34.478621 -1.298000 0.010000
v 34.478621 -1.298000 0.060000
v 34.478621 -1.958000 0.060000
v 35.038621 -1.958000 0.010000
v 35.038621 -1.298000 0.010000
v 35.038621 -1.298000 0.060000
v 35.038621 -1.958000 0.060000
v 34.478621 -1.044000 0.010000
v 34.478621 -0.384000 0.010000
v 34.478621 -0.384000 0.060000
v 34.478621 -1.044000 0.060000
v 35.038621 -1.044000 0.010000
v 35.038621 -0.384000 0.010000
v 35.038621 -0.384000 0.060000
v 35.038621 -1.044000 0.060000
v 34.478621 -0.330000 0.010000
v 34.478621 0.330000 0.010000
v 34.478621 0.330000 0.060000
v 34.478621 -0.330000 0.060000
v 35.038621 -0.330000 0.010000
v 35.038621 0.330000 0.010000
v 35.038621 0.330000 0.060000
v 35.038621 -0.330000 0.060000
v 34.478621 0.584000 0.010000
v 34.478621 1.244000 0.010000
v 34.478621 1.244000 0.060000
v 34.478621 0.584000 0.060000
v 35.038621 0.584000 0.010000
v 35.038621 1.244000 0.010000
v 35.038621 1.244000 0.060000
v 35.038621 0.584000 0.060000
v 34.478621 1.298000 0.010000
v 34.478621 1.958000 0.010000
v 34.478621 1.958000 0.060000
v 34.478621 1.298000 0.060000
v 35.038621 1.298000 0.010000
v 35.038621 1.958000 0.010000
v 35.038621 1.958000 0.060000
v 35.038621 1.298000 0.060000
v 37.375172 -1.958000 0.010000
v 37.375172 -1.298000 0.010000
v 37.375172 -1.298000 0.060000
v 37.375172 -1.958000 0.060000
v 37.935172 -1.958000 0.010000
v 37.935172 -1.298000 0.010000
v 37.935172 -1.298000 0.060000
v 37.935172 -1.958000 0.060000
v 37.375172 -1.044000 0.010000
v 37.375172 -0.384000 0.010000
v 37.375172 -0.384000 0.060000
v 37.375172 -1.044000 0.060000
v 37.935172 -1.044000 0.010000
v 37.935172 -0.384000 0.010000
v 37.935172 -0.384000 0.060000
v 37.935172 -1.044000 0.060000
v 37.375172 -0.330000 0.010000
v 37.375172 0.330000 0.010000
v 37.375172 0.330000 0.060000
v 37.375172 -0.330000 0.060000
v 37.935172 -0.330000 0.010000
v 37.935172 0.330000 0.010000
v 37.935172 0.330000 0.060000
v 37.935172 -0.330000 0.060000
v 37.375172 0.584000 0.010000
v 37.375172 1.244000 0.010000
v 37.375172 1.244000 0.060000
v 37.375172 0.584000 0.060000
v 37.935172 0.584000 0.010000
v 37.935172 1.244000 0.010000
v 37.935172 1.244000 0.060000
v 37.935172 0.584000 0.060000
v 37.375172 1.298000 0.010000
v 37.375172 1.958000 0.010000
v 37.375172 1.958000 0.060000
v 37.375172 1.298000 0.060000
v 37.935172 1.298000 0.010000
v 37.935172 1.958000 0.010000
v 37.935172 1.958000 0.060000
v 37.935172 1.298000 0.060000
v 40.271724 -1.958000 0.010000
v 40.271724 -1.298000 0.010000
v 40.271724 -1.298000 0.060000
v 40.271724 -1.958000 0.060000
v 40.831724 -1.958000 0.010000
v 40.831724 -1.298000 0.010000
v 40.831724 -1.298000 0.060000
v 40.831724 -1.958000 0.060000
v 40.271724 -1.044000 0.010000
v 40.271724 -0.384000 0.010000
v 40.271724 -0.384000 0.060000
v 40.271724 -1.044000 0.060000
v 40.831724 -1.044000 0.010000
v 40.831724 -0.384000 0.010000
v 40.831724 -0.384000 0.060000
v 40.831724 -1.044000 0.060000
v 40.271724 -0.330000 0.010000
v 40.271724 0.330000 0.010000
v 40.271724 0.330000 0.060000
v 40.271724 -0.330000 0.060000
v 40.831724 -0.330000 0.010000
v 40.831724 0.330000 0.010000
v 40.831724 0.330000 0.060000
v 40.831724 -0.330000 0.060000
v 40.271724 0.584000 0.010000
v 40.271724 1.244000 0.010000
v 40.271724 1.244000 0.060000
v 40.271724 0.584000 0.060000
v 40.831724 0.584000 0.010000
v 40.831724 1.244000 0.010000
v 40.831724 1.244000 0.060000
v 40.831724 0.584000 0.060000
v 40.271724 1.298000 0.010000
v 40.271724 1.958000 0.010000
v 40.271724 1.958000 0.060000
v 40.271724 1.298000 0.060000
v 40.831724 1.298000 0.010000
v 40.831724 1.958000 0.010000
v 40.831724 1.958000 0.060000
v 40.831724 1.298000 0.060000
v 41.720000 -1.858000 0.010000
v 41.720000 -1.198000 0.010000
v 41.720000 -1.198000 0.060000
v 41.720000 -1.858000 0.060000
v 42.280000 -1.858000 0.010000
v 42.280000 -1.198000 0.010000
v 42.280000 -1.198000 0.060000
v 42.280000 -1.858000 0.060000
v 41.720000 -1.144000 0.010000
v 41.720000 -0.484000 0.010000
v 41.720000 -0.484000 0.060000
v 41.720000 -1.144000 0.060000
v 42.280000 -1.144000 0.010000
v 42.280000 -0.484000 0.010000
v 42.280000 -0.484000 0.060000
v 42.280000 -1.144000 0.060000
v 41.720000 -0.230000 0.010000
v 41.720000 0.430000 0.010000
v 41.720000 0.430000 0.060000
v 41.720000 -0.230000 0.060000
v 42.280000 -0.230000 0.010000
v 42.280000 0.430000 0.010000
v 42.280000 0.430000 0.060000
v 42.280000 -0.230000 0.060000
v 41.720000 0.484000 0.010000
v 41.720000 1.144000 0.010000
v 41.720000 1.144000 0.060000
v 41.720000 0.484000 0.060000
v 42.280000 0.484000 0.010000
v 42.280000 1.144000 0.010000
v 42.280000 1.144000 0.060000
v 42.280000 0.484000 0.060000
v 41.720000 1.398000 0.010000
v 41.720000 2.058000 0.010000
v 41.720000 2.058000 0.060000
v 41.720000 1.398000 0.060000
v 42.280000 1.398000 0.010000
v 42.280000 2.058000 0.010000
v 42.280000 2.058000 0.060000
v 42.280000 1.398000 0.060000
v -0.440000 -1.540000 -0.520000
v -0.440000 1.540000 -0.520000
v -0.440000 1.540000 -0.320000
v -0.440000 -1.540000 -0.320000
v 0.440000 -1.540000 -0.520000
v 0.440000 1.540000 -0.520000
v 0.440000 1.540000 -0.320000
v 0.440000 -1.540000 -0.320000
v 9.697931 -1.540000 -0.520000
v 9.697931 1.540000 -0.520000
v 9.697931 1.540000 -0.320000
v 9.697931 -1.540000 -0.320000
v 10.577931 -1.540000 -0.520000
v 10.577931 1.540000 -0.520000
v 10.577931 1.540000 -0.320000
v 10.577931 -1.540000 -0.320000
v 19.835862 -1.540000 -0.520000
v 19.835862 1.540000 -0.520000
v 19.835862 1.540000 -0.320000
v 19.835862 -1.540000 -0.320000
v 20.715862 -1.540000 -0.520000
v 20.715862 1.540000 -0.520000
v 20.715862 1.540000 -0.320000
v 20.715862 -1.540000 -0.320000
v 29.973793 -1.540000 -0.520000
v 29.973793 1.540000 -0.520000
v 29.973793 1.540000 -0.320000
v 29.973793 -1.540000 -0.320000
v 30.853793 -1.540000 -0.520000
v 30.853793 1.540000 -0.520000
v 30.853793 1.540000 -0.320000
v 30.853793 -1.540000 -0.320000
v 40.111724 -1.540000 -0.520000
v 40.111724 1.540000 -0.520000
v 40.111724 1.540000 -0.320000
v 40.111724 -1.540000 -0.320000
v 40.991724 -1.540000 -0.520000
v 40.991724 1.540000 -0.520000
v 40.991724 1.540000 -0.320000
v 40.991724 -1.540000 -0.320000
f 1 5 6 2
f 3 4 8 7
f 1 3 7 5
f 2 6 8 4
f 5 9 10 6
f 7 8 12 11
f 5 7 11 9
f 6 10 12 8
f 9 13 14 10
f 11 12 16 15
f 9 11 15 13
f 10 14 16 12
f 13 17 18 14
f 15 16 20 19
f 13 15 19 17
f 14 18 20 16
f 17 21 22 18
f 19 20 24 23
f 17 19 23 21
f 18 22 24 20
f 21 25 26 22
f 23 24 28 27
f 21 23 27 25
f 22 26 28 24
f 25 29 30 26
f 27 28 32 31
f 25 27 31 29
f 26 30 32 28
f 29 33 34 30
f 31 32 36 35
f 29 31 35 33
f 30 34 36 32
f 33 37 38 34
f 35 36 40 39
f 33 35 39 37
f 34 38 40 36
f 37 41 42 38
f 39 40 44 43
f 37 39 43 41
f 38 42 44 40
f 41 45 46 42
f 43 44 48 47
f 41 43 47 45
f 42 46 48 44
f 45 49 50 46
f 47 48 52 51
f 45 47 51 49
f 46 50 52 48
f 49 53 54 50
f 51 52 56 55
f 49 51 55 53
f 50 54 56 52
f 53 57 58 54
f 55 56 60 59
f 53 55 59 57
f 54 58 60 56
f 57 61 62 58
f 59 60 64 63
f 57 59 63 61
f 58 62 64 60
f 61 65 66 62
f 63 64 68 67
f 61 63 67 65
f 62 66 68 64
f 65 69 70 66
f 67 68 72 71
f 65 67 71 69
f 66 70 72 68
f 69 73 74 70
f 71 72 76 75
f 69 71 75 73
f 70 74 76 72
f 73 77 78 74
f 75 76 80 79
f 73 75 79 77
f 74 78 80 76
f 77 81 82 78
f 79 80 84 83
f 77 79 83 81
f 78 82 84 80
f 81 85 86 82
f 83 84 88 87
f 81 83 87 85
f 82 86 88 84
f 85 89 90 86
f 87 88 92 91
f 85 87 91 89
f 86 90 92 88
f 89 93 94 90
f 91 92 96 95
f 89 91 95 93
f 90 94 96 92
f 93 97 98 94
f 95 96 100 99
f 93 95 99 97
f 94 98 100 96
f 97 101 102 98
f 99 100 104 103
f 97 99 103 101
f 98 102 104 100
f 101 105 106 102
f 103 104 108 107
f 101 103 107 105
f 102 106 108 104
f 105 109 110 106
f 107 108 112 111
f 105 107 111 109
f 106 110 112 108
f 109 113 114 110
f 111 112 116 115
f 109 111 115 113
f 110 114 116 112
f 113 117 118 114
f 115 116 120 119
f 113 115 119 117
f 114 118 120 116
f 121 125 127 123
f 122 124 128 126
f 123 127 128 124
f 121 122 126 125
f 125 129 131 127
f 126 128 132 130
f 127 131 132 128
f 125 126 130 129
f 129 133 135 131
f 130 132 136 134
f 131 135 136 132
f 129 130 134 133
f 133 137 139 135
f 134 136 140 138
f 135 139 140 136
f 133 134 138 137
f 137 141 143 139
f 138 140 144 142
f 139 143 144 140
f 137 138 142 141
f 141 145 147 143
f 142 144 148 146
f 143 147 148 144
f 141 142 146 145
f 145 149 151 147
f 146 148 152 150
f 147 151 152 148
f 145 146 150 149
f 153 156 155 154
f 157 158 159 160
f 153 154 158 157
f 155 156 160 159
f 153 157 160 156
f 154 155 159 158
f 161 164 163 162
f 165 166 167 168
f 161 162 166 165
f 163 164 168 167
f 161 165 168 164
f 162 163 167 166
f 169 172 171 170
f 173 174 175 176
f 169 170 174 173
f 171 172 176 175
f 169 173 176 172
f 170 171 175 174
f 177 180 179 178
f 181 182 183 184
f 177 178 182 181
f 179 180 184 183
f 177 181 184 180
f 178 179 183 182
f 185 188 187 186
f 189 190 191 192
f 185 186 190 189
f 187 188 192 191
f 185 189 192 188
f 186 187 191 190
f 193 196 195 194
f 197 198 199 200
f 193 194 198 197
f 195 196 200 199
f 193 197 200 196
f 194 195 199 198
f 201 204 203 202
f 205 206 207 208
f 201 202 206 205
f 203 204 208 207
f 201 205 208 204
f 202 203 207 206
f 209 212 211 210
f 213 214 215 216
f 209 210 214 213
f 211 212 216 215
f 209 213 216 212
f 210 211 215 214
f 217 221 223 219
f 218 220 224 222
f 219 223 224 220
f 217 218 222 221
f 221 225 227 223
f 222 224 228 226
f 223 227 228 224
f 221 222 226 225
f 225 229 231 227
f 226 228 232 230
f 227 231 232 228
f 225 226 230 229
f 229 233 235 231
f 230 232 236 234
f 231 235 236 232
f 229 230 234 233
f 233 237 239 235
f 234 236 240 238
f 235 239 240 236
f 233 234 238 237
f 237 241 243 239
f 238 240 244 242
f 239 243 244 240
f 237 238 242 241
f 241 245 247 243
f 242 244 248 246
f 243 247 248 244
f 241 242 246 245
f 249 252 251 250
f 253 254 255 256
f 249 250 254 253
f 251 252 256 255
f 249 253 256 252
f 250 251 255 254
f 257 260 259 258
f 261 262 263 264
f 257 258 262 261
f 259 260 264 263
f 257 261 264 260
f 258 259 263 262
f 265 268 267 266
f 269 270 271 272
f 265 266 270 269
f 267 268 272 271
f 265 269 272 268
f 266 267 271 270
f 273 276 275 274
f 277 278 279 280
f 273 274 278 277
f 275 276 280 279
f 273 277 280 276
f 274 275 279 278
f 281 284 283 282
f 285 286 287 288
f 281 282 286 285
f 283 284 288 287
f 281 285 288 284
f 282 283 287 286
f 289 292 291 290
f 293 294 295 296
f 289 290 294 293
f 291 292 296 295
f 289 293 296 292
f 290 291 295 294
f 297 300 299 298
f 301 302 303 304
f 297 298 302 301
f 299 300 304 303
f 297 301 304 300
f 298 299 303 302
f 305 308 307 306
f 309 310 311 312
f 305 306 310 309
f 307 308 312 311
f 305 309 312 308
f 306 307 311 310
f 313 317 319 315
f 314 316 320 318
f 315 319 320 316
f 313 314 318 317
f 317 321 323 319
f 318 320 324 322
f 319 323 324 320
f 317 318 322 321
f 321 325 327 323
f 322 324 328 326
f 323 327 328 324
f 321 322 326 325
f 325 329 331 327
f 326 328 332 330
f 327 331 332 328
f 325 326 330 329
f 329 333 335 331
f 330 332 336 334
f 331 335 336 332
f 329 330 334 333
f 333 337 339 335
f 334 336 340 338
f 335 339 340 336
f 333 334 338 337
f 337 341 343 339
f 338 340 344 342
f 339 343 344 340
f 337 338 342 341
f 341 345 347 343
f 342 344 348 346
f 343 347 348 344
f 341 342 346 345
f 349 352 351 350
f 353 354 355 356
f 349 350 354 353
f 351 352 356 355
f 349 353 356 352
f 350 351 355 354
f 357 360 359 358
f 361 362 363 364
f 357 358 362 361
f 359 360 364 363
f 357 361 364 360
f 358 359 363 362
f 365 368 367 366
f 369 370 371 372
f 365 366 370 369
f 367 368 372 371
f 365 369 372 368
f 366 367 371 370
f 373 376 375 374
f 377 378 379 380
f 373 374 378 377
f 375 376 380 379
f 373 377 380 376
f 374 375 379 378
f 381 384 383 382
f 385 386 387 388
f 381 382 386 385
f 383 384 388 387
f 381 385 388 384
f 382 383 387 386
f 389 392 391 390
f 393 394 395 396
f 389 390 394 393
f 391 392 396 395
f 389 393 396 392
f 390 391 395 394
f 397 400 399 398
f 401 402 403 404
f 397 398 402 401
f 399 400 404 403
f 397 401 404 400
f 398 399 403 402
f 405 408 407 406
f 409 410 411 412
f 405 406 410 409
f 407 408 412 411
f 405 409 412 408
f 406 407 411 410
f 413 416 415 414
f 417 418 419 420
f 413 414 418 417
f 415 416 420 419
f 413 417 420 416
f 414 415 419 418
f 421 425 427 423
f 422 424 428 426
f 423 427 428 424
f 421 422 426 425
f 425 429 431 427
f 426 428 432 430
f 427 431 432 428
f 425 426 430 429
f 429 433 435 431
f 430 432 436 434
f 431 435 436 432
f 429 430 434 433
f 433 437 439 435
f 434 436 440 438
f 435 439 440 436
f 433 434 438 437
f 437 441 443 439
f 438 440 444 442
f 439 443 444 440
f 437 438 442 441
f 441 445 447 443
f 442 444 448 446
f 443 447 448 444
f 441 442 446 445
f 445 449 451 447
f 446 448 452 450
f 447 451 452 448
f 445 446 450 449
f 453 456 455 454
f 457 458 459 460
f 453 454 458 457
f 455 456 460 459
f 453 457 460 456
f 454 455 459 458
f 461 464 463 462
f 465 466 467 468
f 461 462 466 465
f 463 464 468 467
f 461 465 468 464
f 462 463 467 466
f 469 472 471 470
f 473 474 475 476
f 469 470 474 473
f 471 472 476 475
f 469 473 476 472
f 470 471 475 474
f 477 480 479 478
f 481 482 483 484
f 477 478 482 481
f 479 480 484 483
f 477 481 484 480
f 478 479 483 482
f 485 488 487 486
f 489 490 491 492
f 485 486 490 489
f 487 488 492 491
f 485 489 492 488
f 486 487 491 490
f 493 496 495 494
f 497 498 499 500
f 493 494 498 497
f 495 496 500 499
f 493 497 500 496
f 494 495 499 498
f 501 504 503 502
f 505 506 507 508
f 501 502 506 505
f 503 504 508 507
f 501 505 508 504
f 502 503 507 506
f 509 512 511 510
f 513 514 515 516
f 509 510 514 513
f 511 512 516 515
f 509 513 516 512
f 510 511 515 514
f 517 521 523 519
f 518 520 524 522
f 519 523 524 520
f 517 518 522 521
f 521 525 527 523
f 522 524 528 526
f 523 527 528 524
f 521 522 526 525
f 525 529 531 527
f 526 528 532 530
f 527 531 532 528
f 525 526 530 529
f 529 533 535 531
f 530 532 536 534
f 531 535 536 532
f 529 530 534 533
f 533 537 539 535
f 534 536 540 538
f 535 539 540 536
f 533 534 538 537
f 537 541 543 539
f 538 540 544 542
f 539 543 544 540
f 537 538 542 541
f 541 545 547 543
f 542 544 548 546
f 543 547 548 544
f 541 542 546 545
f 549 552 551 550
f 553 554 555 556
f 549 550 554 553
f 551 552 556 555
f 549 553 556 552
f 550 551 555 554
f 557 560 559 558
f 561 562 563 564
f 557 558 562 561
f 559 560 564 563
f 557 561 564 560
f 558 559 563 562
f 565 568 567 566
f 569 570 571 572
f 565 566 570 569
f 567 568 572 571
f 565 569 572 568
f 566 567 571 570
f 573 576 575 574
f 577 578 579 580
f 573 574 578 577
f 575 576 580 579
f 573 577 580 576
f 574 575 579 578
f 581 584 583 582
f 585 586 587 588
f 581 582 586 585
f 583 584 588 587
f 581 585 588 584
f 582 583 587 586
f 589 592 591 590
f 593 594 595 596
f 589 590 594 593
f 591 592 596 595
f 589 593 596 592
f 590 591 595 594
f 597 600 599 598
f 601 602 603 604
f 597 598 602 601
f 599 600 604 603
f 597 601 604 600
f 598 599 603 602
f 605 608 607 606
f 609 610 611 612
f 605 606 610 609
f 607 608 612 611
f 605 609 612 608
f 606 607 611 610
f 613 617 619 615
f 614 616 620 618
f 615 619 620 616
f 613 614 618 617
f 617 621 623 619
f 618 620 624 622
f 619 623 624 620
f 617 618 622 621
f 621 625 627 623
f 622 624 628 626
f 623 627 628 624
f 621 622 626 625
f 625 629 631 627
f 626 628 632 630
f 627 631 632 628
f 625 626 630 629
f 629 633 635 631
f 630 632 636 634
f 631 635 636 632
f 629 630 634 633
f 633 637 639 635
f 634 636 640 638
f 635 639 640 636
f 633 634 638 637
f 637 641 643 639
f 638 640 644 642
f 639 643 644 640
f 637 638 642 641
f 645 648 647 646
f 649 650 651 652
f 645 646 650 649
f 647 648 652 651
f 645 649 652 648
f 646 647 651 650
f 653 656 655 654
f 657 658 659 660
f 653 654 658 657
f 655 656 660 659
f 653 657 660 656
f 654 655 659 658
f 661 664 663 662
f 665 666 667 668
f 661 662 666 665
f 663 664 668 667
f 661 665 668 664
f 662 663 667 666
f 669 672 671 670
f 673 674 675 676
f 669 670 674 673
f 671 672 676 675
f 669 673 676 672
f 670 671 675 674
f 677 680 679 678
f 681 682 683 684
f 677 678 682 681
f 679 680 684 683
f 677 681 684 680
f 678 679 683 682
f 685 688 687 686
f 689 690 691 692
f 685 686 690 689
f 687 688 692 691
f 685 689 692 688
f 686 687 691 690
f 693 696 695 694
f 697 698 699 700
f 693 694 698 697
f 695 696 700 699
f 693 697 700 696
f 694 695 699 698
f 701 704 703 702
f 705 706 707 708
f 701 702 706 705
f 703 704 708 707
f 701 705 708 704
f 702 703 707 706
f 709 713 715 711
f 710 712 716 714
f 711 715 716 712
f 709 710 714 713
f 713 717 719 715
f 714 716 720 718
f 715 719 720 716
f 713 714 718 717
f 717 721 723 719
f 718 720 724 722
f 719 723 724 720
f 717 718 722 721
f 721 725 727 723
f 722 724 728 726
f 723 727 728 724
f 721 722 726 725
f 725 729 731 727
f 726 728 732 730
f 727 731 732 728
f 725 726 730 729
f 729 733 735 731
f 730 732 736 734
f 731 735 736 732
f 729 730 734 733
f 733 737 739 735
f 734 736 740 738
f 735 739 740 736
f 733 734 738 737
f 737 741 743 739
f 738 740 744 742
f 739 743 744 740
f 737 738 742 741
f 745 748 747 746
f 749 750 751 752
f 745 746 750 749
f 747 748 752 751
f 745 749 752 748
f 746 747 751 750
f 753 756 755 754
f 757 758 759 760
f 753 754 758 757
f 755 756 760 759
f 753 757 760 756
f 754 755 759 758
f 761 764 763 762
f 765 766 767 768
f 761 762 766 765
f 763 764 768 767
f 761 765 768 764
f 762 763 767 766
f 769 772 771 770
f 773 774 775 776
f 769 770 774 773
f 771 772 776 775
f 769 773 776 772
f 770 771 775 774
f 777 780 779 778
f 781 782 783 784
f 777 778 782 781
f 779 780 784 783
f 777 781 784 780
f 778 779 783 782
f 785 788 787 786
f 789 790 791 792
f 785 786 790 789
f 787 788 792 791
f 785 789 792 788
f 786 787 791 790
f 793 796 795 794
f 797 798 799 800
f 793 794 798 797
f 795 796 800 799
f 793 797 800 796
f 794 795 799 798
f 801 804 803 802
f 805 806 807 808
f 801 802 806 805
f 803 804 808 807
f 801 805 808 804
f 802 803 807 806
f 809 812 811 810
f 813 814 815 816
f 809 810 814 813
f 811 812 816 815
f 809 813 816 812
f 810 811 815 814
f 817 821 823 819
f 818 820 824 822
f 819 823 824 820
f 817 818 822 821
f 821 825 827 823
f 822 824 828 826
f 823 827 828 824
f 821 822 826 825
f 825 829 831 827
f 826 828 832 830
f 827 831 832 828
f 825 826 830 829
f 829 833 835 831
f 830 832 836 834
f 831 835 836 832
f 829 830 834 833
f 833 837 839 835
f 834 836 840 838
f 835 839 840 836
f 833 834 838 837
f 837 841 843 839
f 838 840 844 842
f 839 843 844 840
f 837 838 842 841
f 841 845 847 843
f 842 844 848 846
f 843 847 848 844
f 841 842 846 845
f 849 852 851 850
f 853 854 855 856
f 849 850 854 853
f 851 852 856 855
f 849 853 856 852
f 850 851 855 854
f 857 860 859 858
f 861 862 863 864
f 857 858 862 861
f 859 860 864 863
f 857 861 864 860
f 858 859 863 862
f 865 868 867 866
f 869 870 871 872
f 865 866 870 869
f 867 868 872 871
f 865 869 872 868
f 866 867 871 870
f 873 876 875 874
f 877 878 879 880
f 873 874 878 877
f 875 876 880 879
f 873 877 880 876
f 874 875 879 878
f 881 884 883 882
f 885 886 887 888
f 881 882 886 885
f 883 884 888 887
f 881 885 888 884
f 882 883 887 886
f 889 892 891 890
f 893 894 895 896
f 889 890 894 893
f 891 892 896 895
f 889 893 896 892
f 890 891 895 894
f 897 900 899 898
f 901 902 903 904
f 897 898 902 901
f 899 900 904 903
f 897 901 904 900
f 898 899 903 902
f 905 908 907 906
f 909 910 911 912
f 905 906 910 909
f 907 908 912 911
f 905 909 912 908
f 906 907 911 910
f 913 916 915 914
f 917 918 919 920
f 913 914 918 917
f 915 916 920 919
f 913 917 920 916
f 914 915 919 918
f 921 924 923 922
f 925 926 927 928
f 921 922 926 925
f 923 924 928 927
f 921 925 928 924
f 922 923 927 926
f 929 932 931 930
f 933 934 935 936
f 929 930 934 933
f 931 932 936 935
f 929 933 936 932
f 930 931 935 934
f 937 940 939 938
f 941 942 943 944
f 937 938 942 941
f 939 940 944 943
f 937 941 944 940
f 938 939 943 942
f 945 948 947 946
f 949 950 951 952
f 945 946 950 949
f 947 948 952 951
f 945 949 952 948
f 946 947 951 950
f 953 956 955 954
f 957 958 959 960
f 953 954 958 957
f 955 956 960 959
f 953 957 960 956
f 954 955 959 958
f 961 964 963 962
f 965 966 967 968
f 961 962 966 965
f 963 964 968 967
f 961 965 968 964
f 962 963 967 966
f 969 972 971 970
f 973 974 975 976
f 969 970 974 973
f 971 972 976 975
f 969 973 976 972
f 970 971 975 974
f 977 980 979 978
f 981 982 983 984
f 977 978 982 981
f 979 980 984 983
f 977 981 984 980
f 978 979 983 982
f 985 988 987 986
f 989 990 991 992
f 985 986 990 989
f 987 988 992 991
f 985 989 992 988
f 986 987 991 990
f 993 996 995 994
f 997 998 999 1000
f 993 994 998 997
f 995 996 1000 999
f 993 997 1000 996
f 994 995 999 998
f 1001 1004 1003 1002
f 1005 1006 1007 1008
f 1001 1002 1006 1005
f 1003 1004 1008 1007
f 1001 1005 1008 1004
f 1002 1003 1007 1006
f 1009 1012 1011 1010
f 1013 1014 1015 1016
f 1009 1010 1014 1013
f 1011 1012 1016 1015
f 1009 1013 1016 1012
f 1010 1011 1015 1014
f 1017 1020 1019 1018
f 1021 1022 1023 1024
f 1017 1018 1022 1021
f 1019 1020 1024 1023
f 1017 1021 1024 1020
f 1018 1019 1023 1022
f 1025 1028 1027 1026
f 1029 1030 1031 1032
f 1025 1026 1030 1029
f 1027 1028 1032 1031
f 1025 1029 1032 1028
f 1026 1027 1031 1030
f 1033 1036 1035 1034
f 1037 1038 1039 1040
f 1033 1034 1038 1037
f 1035 1036 1040 1039
f 1033 1037 1040 1036
f 1034 1035 1039 1038
f 1041 1044 1043 1042
f 1045 1046 1047 1048
f 1041 1042 1046 1045
f 1043 1044 1048 1047
f 1041 1045 1048 1044
f 1042 1043 1047 1046
f 1049 1052 1051 1050
f 1053 1054 1055 1056
f 1049 1050 1054 1053
f 1051 1052 1056 1055
f 1049 1053 1056 1052
f 1050 1051 1055 1054
f 1057 1060 1059 1058
f 1061 1062 1063 1064
f 1057 1058 1062 1061
f 1059 1060 1064 1063
f 1057 1061 1064 1060
f 1058 1059 1063 1062
f 1065 1068 1067 1066
f 1069 1070 1071 1072
f 1065 1066 1070 1069
f 1067 1068 1072 1071
f 1065 1069 1072 1068
f 1066 1067 1071 1070
f 1073 1076 1075 1074
f 1077 1078 1079 1080
f 1073 1074 1078 1077
f 1075 1076 1080 1079
f 1073 1077 1080 1076
f 1074 1075 1079 1078
f 1081 1084 1083 1082
f 1085 1086 1087 1088
f 1081 1082 1086 1085
f 1083 1084 1088 1087
f 1081 1085 1088 1084
f 1082 1083 1087 1086
f 1089 1092 1091 1090
f 1093 1094 1095 1096
f 1089 1090 1094 1093
f 1091 1092 1096 1095
f 1089 1093 1096 1092
f 1090 1091 1095 1094
f 1097 1100 1099 1098
f 1101 1102 1103 1104
f 1097 1098 1102 1101
f 1099 1100 1104 1103
f 1097 1101 1104 1100
f 1098 1099 1103 1102
f 1105 1108 1107 1106
f 1109 1110 1111 1112
f 1105 1106 1110 1109
f 1107 1108 1112 1111
f 1105 1109 1112 1108
f 1106 1107 1111 1110
f 1113 1116 1115 1114
f 1117 1118 1119 1120
f 1113 1114 1118 1117
f 1115 1116 1120 1119
f 1113 1117 1120 1116
f 1114 1115 1119 1118
f 1121 1124 1123 1122
f 1125 1126 1127 1128
f 1121 1122 1126 1125
f 1123 1124 1128 1127
f 1121 1125 1128 1124
f 1122 1123 1127 1126
f 1129 1132 1131 1130
f 1133 1134 1135 1136
f 1129 1130 1134 1133
f 1131 1132 1136 1135
f 1129 1133 1136 1132
f 1130 1131 1135 1134
f 1137 1140 1139 1138
f 1141 1142 1143 1144
f 1137 1138 1142 1141
f 1139 1140 1144 1143
f 1137 1141 1144 1140
f 1138 1139 1143 1142
f 1145 1148 1147 1146
f 1149 1150 1151 1152
f 1145 1146 1150 1149
f 1147 1148 1152 1151
f 1145 1149 1152 1148
f 1146 1147 1151 1150
f 1153 1156 1155 1154
f 1157 1158 1159 1160
f 1153 1154 1158 1157
f 1155 1156 1160 1159
f 1153 1157 1160 1156
f 1154 1155 1159 1158
f 1161 1164 1163 1162
f 1165 1166 1167 1168
f 1161 1162 1166 1165
f 1163 1164 1168 1167
f 1161 1165 1168 1164
f 1162 1163 1167 1166
f 1169 1172 1171 1170
f 1173 1174 1175 1176
f 1169 1170 1174 1173
f 1171 1172 1176 1175
f 1169 1173 1176 1172
f 1170 1171 1175 1174
f 1177 1180 1179 1178
f 1181 1182 1183 1184
f 1177 1178 1182 1181
f 1179 1180 1184 1183
f 1177 1181 1184 1180
f 1178 1179 1183 1182
f 1185 1188 1187 1186
f 1189 1190 1191 1192
f 1185 1186 1190 1189
f 1187 1188 1192 1191
f 1185 1189 1192 1188
f 1186 1187 1191 1190
f 1193 1196 1195 1194
f 1197 1198 1199 1200
f 1193 1194 1198 1197
f 1195 1196 1200 1199
f 1193 1197 1200 1196
f 1194 1195 1199 1198
f 1201 1204 1203 1202
f 1205 1206 1207 1208
f 1201 1202 1206 1205
f 1203 1204 1208 1207
f 1201 1205 1208 1204
f 1202 1203 1207 1206
f 1209 1212 1211 1210
f 1213 1214 1215 1216
f 1209 1210 1214 1213
f 1211 1212 1216 1215
f 1209 1213 1216 1212
f 1210 1211 1215 1214
f 1217 1220 1219 1218
f 1221 1222 1223 1224
f 1217 1218 1222 1221
f 1219 1220 1224 1223
f 1217 1221 1224 1220
f 1218 1219 1223 1222
f 1225 1228 1227 1226
f 1229 1230 1231 1232
f 1225 1226 1230 1229
f 1227 1228 1232 1231
f 1225 1229 1232 1228
f 1226 1227 1231 1230
f 1233 1236 1235 1234
f 1237 1238 1239 1240
f 1233 1234 1238 1237
f 1235 1236 1240 1239
f 1233 1237 1240 1236
f 1234 1235 1239 1238
f 1241 1244 1243 1242
f 1245 1246 1247 1248
f 1241 1242 1246 1245
f 1243 1244 1248 1247
f 1241 1245 1248 1244
f 1242 1243 1247 1246
f 1249 1252 1251 1250
f 1253 1254 1255 1256
f 1249 1250 1254 1253
f 1251 1252 1256 1255
f 1249 1253 1256 1252
f 1250 1251 1255 1254
f 1257 1260 1259 1258
f 1261 1262 1263 1264
f 1257 1258 1262 1261
f 1259 1260 1264 1263
f 1257 1261 1264 1260
f 1258 1259 1263 1262
f 1265 1268 1267 1266
f 1269 1270 1271 1272
f 1265 1266 1270 1269
f 1267 1268 1272 1271
f 1265 1269 1272 1268
f 1266 1267 1271 1270
f 1273 1276 1275 1274
f 1277 1278 1279 1280
f 1273 1274 1278 1277
f 1275 1276 1280 1279
f 1273 1277 1280 1276
f 1274 1275 1279 1278
f 1281 1284 1283 1282
f 1285 1286 1287 1288
f 1281 1282 1286 1285
f 1283 1284 1288 1287
f 1281 1285 1288 1284
f 1282 1283 1287 1286
f 1289 1292 1291 1290
f 1293 1294 1295 1296
f 1289 1290 1294 1293
f 1291 1292 1296 1295
f 1289 1293 1296 1292
f 1290 1291 1295 1294
f 1297 1300 1299 1298
f 1301 1302 1303 1304
f 1297 1298 1302 1301
f 1299 1300 1304 1303
f 1297 1301 1304 1300
f 1298 1299 1303 1302
f 1305 1308 1307 1306
f 1309 1310 1311 1312
f 1305 1306 1310 1309
f 1307 1308 1312 1311
f 1305 1309 1312 1308
f 1306 1307 1311 1310
f 1313 1316 1315 1314
f 1317 1318 1319 1320
f 1313 1314 1318 1317
f 1315 1316 1320 1319
f 1313 1317 1320 1316
f 1314 1315 1319 1318
f 1321 1324 1323 1322
f 1325 1326 1327 1328
f 1321 1322 1326 1325
f 1323 1324 1328 1327
f 1321 1325 1328 1324
f 1322 1323 1327 1326
f 1329 1332 1331 1330
f 1333 1334 1335 1336
f 1329 1330 1334 1333
f 1331 1332 1336 1335
f 1329 1333 1336 1332
f 1330 1331 1335 1334
f 1337 1340 1339 1338
f 1341 1342 1343 1344
f 1337 1338 1342 1341
f 1339 1340 1344 1343
f 1337 1341 1344 1340
f 1338 1339 1343 1342
f 1345 1348 1347 1346
f 1349 1350 1351 1352
f 1345 1346 1350 1349
f 1347 1348 1352 1351
f 1345 1349 1352 1348
f 1346 1347 1351 1350
f 1353 1356 1355 1354
f 1357 1358 1359 1360
f 1353 1354 1358 1357
f 1355 1356 1360 1359
f 1353 1357 1360 1356
f 1354 1355 1359 1358
f 1361 1364 1363 1362
f 1365 1366 1367 1368
f 1361 1362 1366 1365
f 1363 1364 1368 1367
f 1361 1365 1368 1364
f 1362 1363 1367 1366
f 1369 1372 1371 1370
f 1373 1374 1375 1376
f 1369 1370 1374 1373
f 1371 1372 1376 1375
f 1369 1373 1376 1372
f 1370 1371 1375 1374
f 1377 1380 1379 1378
f 1381 1382 1383 1384
f 1377 1378 1382 1381
f 1379 1380 1384 1383
f 1377 1381 1384 1380
f 1378 1379 1383 1382
f 1385 1388 1387 1386
f 1389 1390 1391 1392
f 1385 1386 1390 1389
f 1387 1388 1392 1391
f 1385 1389 1392 1388
f 1386 1387 1391 1390
f 1393 1396 1395 1394
f 1397 1398 1399 1400
f 1393 1394 1398 1397
f 1395 1396 1400 1399
f 1393 1397 1400 1396
f 1394 1395 1399 1398
f 1401 1404 1403 1402
f 1405 1406 1407 1408
f 1401 1402 1406 1405
f 1403 1404 1408 1407
f 1401 1405 1408 1404
f 1402 1403 1407 1406
f 1409 1412 1411 1410
f 1413 1414 1415 1416
f 1409 1410 1414 1413
f 1411 1412 1416 1415
f 1409 1413 1416 1412
f 1410 1411 1415 1414
f 1417 1420 1419 1418
f 1421 1422 1423 1424
f 1417 1418 1422 1421
f 1419 1420 1424 1423
f 1417 1421 1424 1420
f 1418 1419 1423 1422
f 1425 1428 1427 1426
f 1429 1430 1431 1432
f 1425 1426 1430 1429
f 1427 1428 1432 1431
f 1425 1429 1432 1428
f 1426 1427 1431 1430
f 1433 1436 1435 1434
f 1437 1438 1439 1440
f 1433 1434 1438 1437
f 1435 1436 1440 1439
f 1433 1437 1440 1436
f 1434 1435 1439 1438
f 1441 1444 1443 1442
f 1445 1446 1447 1448
f 1441 1442 1446 1445
f 1443 1444 1448 1447
f 1441 1445 1448 1444
f 1442 1443 1447 1446
f 1449 1452 1451 1450
f 1453 1454 1455 1456
f 1449 1450 1454 1453
f 1451 1452 1456 1455
f 1449 1453 1456 1452
f 1450 1451 1455 1454
f 1457 1460 1459 1458
f 1461 1462 1463 1464
f 1457 1458 1462 1461
f 1459 1460 1464 1463
f 1457 1461 1464 1460
f 1458 1459 1463 1462
f 1465 1468 1467 1466
f 1469 1470 1471 1472
f 1465 1466 1470 1469
f 1467 1468 1472 1471
f 1465 1469 1472 1468
f 1466 1467 1471 1470
f 1473 1476 1475 1474
f 1477 1478 1479 1480
f 1473 1474 1478 1477
f 1475 1476 1480 1479
f 1473 1477 1480 1476
f 1474 1475 1479 1478
f 1481 1484 1483 1482
f 1485 1486 1487 1488
f 1481 1482 1486 1485
f 1483 1484 1488 1487
f 1481 1485 1488 1484
f 1482 1483 1487 1486
f 1489 1492 1491 1490
f 1493 1494 1495 1496
f 1489 1490 1494 1493
f 1491 1492 1496 1495
f 1489 1493 1496 1492
f 1490 1491 1495 1494
f 1497 1500 1499 1498
f 1501 1502 1503 1504
f 1497 1498 1502 1501
f 1499 1500 1504 1503
f 1497 1501 1504 1500
f 1498 1499 1503 1502
f 1505 1508 1507 1506
f 1509 1510 1511 1512
f 1505 1506 1510 1509
f 1507 1508 1512 1511
f 1505 1509 1512 1508
f 1506 1507 1511 1510
f 1513 1516 1515 1514
f 1517 1518 1519 1520
f 1513 1514 1518 1517
f 1515 1516 1520 1519
f 1513 1517 1520 1516
f 1514 1515 1519 1518
f 1521 1524 1523 1522
f 1525 1526 1527 1528
f 1521 1522 1526 1525
f 1523 1524 1528 1527
f 1521 1525 1528 1524
f 1522 1523 1527 1526
f 1529 1532 1531 1530
f 1533 1534 1535 1536
f 1529 1530 1534 1533
f 1531 1532 1536 1535
f 1529 1533 1536 1532
f 1530 1531 1535 1534
f 1537 1540 1539 1538
f 1541 1542 1543 1544
f 1537 1538 1542 1541
f 1539 1540 1544 1543
f 1537 1541 1544 1540
f 1538 1539 1543 1542
f 1545 1548 1547 1546
f 1549 1550 1551 1552
f 1545 1546 1550 1549
f 1547 1548 1552 1551
f 1545 1549 1552 1548
f 1546 1547 1551 1550
f 1553 1556 1555 1554
f 1557 1558 1559 1560
f 1553 1554 1558 1557
f 1555 1556 1560 1559
f 1553 1557 1560 1556
f 1554 1555 1559 1558
f 1561 1564 1563 1562
f 1565 1566 1567 1568
f 1561 1562 1566 1565
f 1563 1564 1568 1567
f 1561 1565 1568 1564
f 1562 1563 1567 1566
f 1569 1572 1571 1570
f 1573 1574 1575 1576
f 1569 1570 1574 1573
f 1571 1572 1576 1575
f 1569 1573 1576 1572
f 1570 1571 1575 1574
f 1577 1580 1579 1578
f 1581 1582 1583 1584
f 1577 1578 1582 1581
f 1579 1580 1584 1583
f 1577 1581 1584 1580
f 1578 1579 1583 1582
f 1585 1588 1587 1586
f 1589 1590 1591 1592
f 1585 1586 1590 1589
f 1587 1588 1592 1591
f 1585 1589 1592 1588
f 1586 1587 1591 1590
f 1593 1596 1595 1594
f 1597 1598 1599 1600
f 1593 1594 1598 1597
f 1595 1596 1600 1599
f 1593 1597 1600 1596
f 1594 1595 1599 1598
f 1601 1604 1603 1602
f 1605 1606 1607 1608
f 1601 1602 1606 1605
f 1603 1604 1608 1607
f 1601 1605 1608 1604
f 1602 1603 1607 1606
f 1609 1612 1611 1610
f 1613 1614 1615 1616
f 1609 1610 1614 1613
f 1611 1612 1616 1615
f 1609 1613 1616 1612
f 1610 1611 1615 1614
f 1617 1620 1619 1618
f 1621 1622 1623 1624
f 1617 1618 1622 1621
f 1619 1620 1624 1623
f 1617 1621 1624 1620
f 1618 1619 1623 1622
f 1625 1628 1627 1626
f 1629 1630 1631 1632
f 1625 1626 1630 1629
f 1627 1628 1632 1631
f 1625 1629 1632 1628
f 1626 1627 1631 1630
f 1633 1636 1635 1634
f 1637 1638 1639 1640
f 1633 1634 1638 1637
f 1635 1636 1640 1639
f 1633 1637 1640 1636
f 1634 1635 1639 1638
f 1641 1644 1643 1642
f 1645 1646 1647 1648
f 1641 1642 1646 1645
f 1643 1644 1648 1647
f 1641 1645 1648 1644
f 1642 1643 1647 1646
f 1649 1652 1651 1650
f 1653 1654 1655 1656
f 1649 1650 1654 1653
f 1651 1652 1656 1655
f 1649 1653 1656 1652
f 1650 1651 1655 1654
f 1657 1660 1659 1658
f 1661 1662 1663 1664
f 1657 1658 1662 1661
f 1659 1660 1664 1663
f 1657 1661 1664 1660
f 1658 1659 1663 1662
f 1665 1668 1667 1666
f 1669 1670 1671 1672
f 1665 1666 1670 1669
f 1667 1668 1672 1671
f 1665 1669 1672 1668
f 1666 1667 1671 1670
f 1673 1676 1675 1674
f 1677 1678 1679 1680
f 1673 1674 1678 1677
f 1675 1676 1680 1679
f 1673 1677 1680 1676
f 1674 1675 1679 1678
f 1681 1684 1683 1682
f 1685 1686 1687 1688
f 1681 1682 1686 1685
f 1683 1684 1688 1687
f 1681 1685 1688 1684
f 1682 1683 1687 1686
f 1689 1692 1691 1690
f 1693 1694 1695 1696
f 1689 1690 1694 1693
f 1691 1692 1696 1695
f 1689 1693 1696 1692
f 1690 1691 1695 1694
f 1697 1700 1699 1698
f 1701 1702 1703 1704
f 1697 1698 1702 1701
f 1699 1700 1704 1703
f 1697 1701 1704 1700
f 1698 1699 1703 1702
f 1705 1708 1707 1706
f 1709 1710 1711 1712
f 1705 1706 1710 1709
f 1707 1708 1712 1711
f 1705 1709 1712 1708
f 1706 1707 1711 1710
f 1713 1716 1715 1714
f 1717 1718 1719 1720
f 1713 1714 1718 1717
f 1715 1716 1720 1719
f 1713 1717 1720 1716
f 1714 1715 1719 1718
f 1721 1724 1723 1722
f 1725 1726 1727 1728
f 1721 1722 1726 1725
f 1723 1724 1728 1727
f 1721 1725 1728 1724
f 1722 1723 1727 1726
f 1729 1732 1731 1730
f 1733 1734 1735 1736
f 1729 1730 1734 1733
f 1731 1732 1736 1735
f 1729 1733 1736 1732
f 1730 1731 1735 1734
f 1737 1740 1739 1738
f 1741 1742 1743 1744
f 1737 1738 1742 1741
f 1739 1740 1744 1743
f 1737 1741 1744 1740
f 1738 1739 1743 1742
f 1745 1748 1747 1746
f 1749 1750 1751 1752
f 1745 1746 1750 1749
f 1747 1748 1752 1751
f 1745 1749 1752 1748
f 1746 1747 1751 1750
f 1753 1756 1755 1754
f 1757 1758 1759 1760
f 1753 1754 1758 1757
f 1755 1756 1760 1759
f 1753 1757 1760 1756
f 1754 1755 1759 1758
f 1761 1764 1763 1762
f 1765 1766 1767 1768
f 1761 1762 1766 1765
f 1763 1764 1768 1767
f 1761 1765 1768 1764
f 1762 1763 1767 1766
f 1769 1772 1771 1770
f 1773 1774 1775 1776
f 1769 1770 1774 1773
f 1771 1772 1776 1775
f 1769 1773 1776 1772
f 1770 1771 1775 1774
f 1777 1780 1779 1778
f 1781 1782 1783 1784
f 1777 1778 1782 1781
f 1779 1780 1784 1783
f 1777 1781 1784 1780
f 1778 1779 1783 1782
f 1785 1788 1787 1786
f 1789 1790 1791 1792
f 1785 1786 1790 1789
f 1787 1788 1792 1791
f 1785 1789 1792 1788
f 1786 1787 1791 1790
f 1793 1796 1795 1794
f 1797 1798 1799 1800
f 1793 1794 1798 1797
f 1795 1796 1800 1799
f 1793 1797 1800 1796
f 1794 1795 1799 1798
f 1801 1804 1803 1802
f 1805 1806 1807 1808
f 1801 1802 1806 1805
f 1803 1804 1808 1807
f 1801 1805 1808 1804
f 1802 1803 1807 1806
f 1809 1812 1811 1810
f 1813 1814 1815 1816
f 1809 1810 1814 1813
f 1811 1812 1816 1815
f 1809 1813 1816 1812
f 1810 1811 1815 1814
f 1817 1820 1819 1818
f 1821 1822 1823 1824
f 1817 1818 1822 1821
f 1819 1820 1824 1823
f 1817 1821 1824 1820
f 1818 1819 1823 1822
f 1825 1828 1827 1826
f 1829 1830 1831 1832
f 1825 1826 1830 1829
f 1827 1828 1832 1831
f 1825 1829 1832 1828
f 1826 1827 1831 1830
f 1833 1836 1835 1834
f 1837 1838 1839 1840
f 1833 1834 1838 1837
f 1835 1836 1840 1839
f 1833 1837 1840 1836
f 1834 1835 1839 1838
f 1841 1844 1843 1842
f 1845 1846 1847 1848
f 1841 1842 1846 1845
f 1843 1844 1848 1847
f 1841 1845 1848 1844
f 1842 1843 1847 1846
f 1849 1852 1851 1850
f 1853 1854 1855 1856
f 1849 1850 1854 1853
f 1851 1852 1856 1855
f 1849 1853 1856 1852
f 1850 1851 1855 1854
f 1857 1860 1859 1858
f 1861 1862 1863 1864
f 1857 1858 1862 1861
f 1859 1860 1864 1863
f 1857 1861 1864 1860
f 1858 1859 1863 1862
f 1865 1868 1867 1866
f 1869 1870 1871 1872
f 1865 1866 1870 1869
f 1867 1868 1872 1871
f 1865 1869 1872 1868
f 1866 1867 1871 1870
f 1873 1876 1875 1874
f 1877 1878 1879 1880
f 1873 1874 1878 1877
f 1875 1876 1880 1879
f 1873 1877 1880 1876
f 1874 1875 1879 1878
f 1881 1884 1883 1882
f 1885 1886 1887 1888
f 1881 1882 1886 1885
f 1883 1884 1888 1887
f 1881 1885 1888 1884
f 1882 1883 1887 1886
f 1889 1892 1891 1890
f 1893 1894 1895 1896
f 1889 1890 1894 1893
f 1891 1892 1896 1895
f 1889 1893 1896 1892
f 1890 1891 1895 1894
f 1897 1900 1899 1898
f 1901 1902 1903 1904
f 1897 1898 1902 1901
f 1899 1900 1904 1903
f 1897 1901 1904 1900
f 1898 1899 1903 1902
f 1905 1908 1907 1906
f 1909 1910 1911 1912
f 1905 1906 1910 1909
f 1907 1908 1912 1911
f 1905 1909 1912 1908
f 1906 1907 1911 1910
f 1913 1916 1915 1914
f 1917 1918 1919 1920
f 1913 1914 1918 1917
f 1915 1916 1920 1919
f 1913 1917 1920 1916
f 1914 1915 1919 1918
f 1921 1924 1923 1922
f 1925 1926 1927 1928
f 1921 1922 1926 1925
f 1923 1924 1928 1927
f 1921 1925 1928 1924
f 1922 1923 1927 1926
f 1929 1932 1931 1930
f 1933 1934 1935 1936
f 1929 1930 1934 1933
f 1931 1932 1936 1935
f 1929 1933 1936 1932
f 1930 1931 1935 1934
f 1937 1940 1939 1938
f 1941 1942 1943 1944
f 1937 1938 1942 1941
f 1939 1940 1944 1943
f 1937 1941 1944 1940
f 1938 1939 1943 1942
