v 0.491935 -0.983870 0.000000
v -0.491935 0.983870 0.000000
v 0.491935 -0.983870 -0.180000
v -0.491935 0.983870 -0.180000
v 1.491935 -0.483870 0.066667
v 0.508065 1.483870 0.066667
v 1.491935 -0.483870 -0.113333
v 0.508065 1.483870 -0.113333
v 2.491935 0.016130 0.133333
v 1.508065 1.983870 0.133333
v 2.491935 0.016130 -0.046667
v 1.508065 1.983870 -0.046667
v 3.491935 0.516130 0.200000
v 2.508065 2.483870 0.200000
v 3.491935 0.516130 0.020000
v 2.508065 2.483870 0.020000
v 4.491935 1.016130 0.266667
v 3.508065 2.983870 0.266667
v 4.491935 1.016130 0.086667
v 3.508065 2.983870 0.086667
v 5.491935 1.516130 0.333333
v 4.508065 3.483870 0.333333
v 5.491935 1.516130 0.153333
v 4.508065 3.483870 0.153333
v 6.000000 1.900000 0.400000
v 6.000000 4.100000 0.400000
v 6.000000 1.900000 0.220000
v 6.000000 4.100000 0.220000
v 6.508065 1.516130 0.466667
v 7.491935 3.483870 0.466667
v 6.508065 1.516130 0.286667
v 7.491935 3.483870 0.286667
v 7.508065 1.016130 0.533333
v 8.491935 2.983870 0.533333
v 7.508065 1.016130 0.353333
v 8.491935 2.983870 0.353333
v 8.508065 0.516130 0.600000
v 9.491935 2.483870 0.600000
v 8.508065 0.516130 0.420000
v 9.491935 2.483870 0.420000
v 9.508065 0.016130 0.666667
v 10.491935 1.983870 0.666667
v 9.508065 0.016130 0.486667
v 10.491935 1.983870 0.486667
v 10.508065 -0.483870 0.733333
v 11.491935 1.483870 0.733333
v 10.508065 -0.483870 0.553333
v 11.491935 1.483870 0.553333
v 11.508065 -0.983870 0.800000
v 12.491935 0.983870 0.800000
v 11.508065 -0.983870 0.620000
v 12.491935 0.983870 0.620000
v 0.409648 -1.221788 -0.240000
v -0.731641 1.060791 -0.240000
v -0.731641 1.060791 -0.080000
v 0.409648 -1.221788 -0.080000
v 0.731641 -1.060791 -0.240000
v -0.409648 1.221788 -0.240000
v -0.409648 1.221788 -0.080000
v 0.731641 -1.060791 -0.080000
v 0.007155 -1.177066 0.000000
v -0.937360 0.711964 0.000000
v -0.937360 0.711964 0.070000
v 0.007155 -1.177066 0.070000
v 0.937360 -0.711964 0.000000
v -0.007155 1.177066 0.000000
v -0.007155 1.177066 0.070000
v 0.937360 -0.711964 0.070000
v 0.427983 -0.978951 0.000000
v 0.378790 -0.880564 0.000000
v 0.378790 -0.880564 0.720000
v 0.427983 -0.978951 0.720000
v 0.526370 -0.929757 0.000000
v 0.477177 -0.831370 0.000000
v 0.477177 -0.831370 0.720000
v 0.526370 -0.929757 0.720000
v -0.477177 0.831370 0.000000
v -0.526370 0.929757 0.000000
v -0.526370 0.929757 0.720000
v -0.477177 0.831370 0.720000
v -0.378790 0.880564 0.000000
v -0.427983 0.978951 0.000000
v -0.427983 0.978951 0.720000
v -0.378790 0.880564 0.720000
v 2.007155 -0.177066 0.133333
v 1.062640 1.711964 0.133333
v 1.062640 1.711964 0.203333
v 2.007155 -0.177066 0.203333
v 2.937360 0.288036 0.133333
v 1.992845 2.177066 0.133333
v 1.992845 2.177066 0.203333
v 2.937360 0.288036 0.203333
v 2.427983 0.021049 0.133333
v 2.378790 0.119436 0.133333
v 2.378790 0.119436 0.853333
v 2.427983 0.021049 0.853333
v 2.526370 0.070243 0.133333
v 2.477177 0.168630 0.133333
v 2.477177 0.168630 0.853333
v 2.526370 0.070243 0.853333
v 1.522823 1.831370 0.133333
v 1.473630 1.929757 0.133333
v 1.473630 1.929757 0.853333
v 1.522823 1.831370 0.853333
v 1.621210 1.880564 0.133333
v 1.572017 1.978951 0.133333
v 1.572017 1.978951 0.853333
v 1.621210 1.880564 0.853333
v 4.007155 0.822934 0.266667
v 3.062640 2.711964 0.266667
v 3.062640 2.711964 0.336667
v 4.007155 0.822934 0.336667
v 4.937360 1.288036 0.266667
v 3.992845 3.177066 0.266667
v 3.992845 3.177066 0.336667
v 4.937360 1.288036 0.336667
v 4.427983 1.021049 0.266667
v 4.378790 1.119436 0.266667
v 4.378790 1.119436 0.986667
v 4.427983 1.021049 0.986667
v 4.526370 1.070243 0.266667
v 4.477177 1.168630 0.266667
v 4.477177 1.168630 0.986667
v 4.526370 1.070243 0.986667
v 3.522823 2.831370 0.266667
v 3.473630 2.929757 0.266667
v 3.473630 2.929757 0.986667
v 3.522823 2.831370 0.986667
v 3.621210 2.880564 0.266667
v 3.572017 2.978951 0.266667
v 3.572017 2.978951 0.986667
v 3.621210 2.880564 0.986667
v 5.480000 1.944000 0.400000
v 5.480000 4.056000 0.400000
v 5.480000 4.056000 0.470000
v 5.480000 1.944000 0.470000
v 6.520000 1.944000 0.400000
v 6.520000 4.056000 0.400000
v 6.520000 4.056000 0.470000
v 6.520000 1.944000 0.470000
v 5.945000 1.933000 0.400000
v 5.945000 2.043000 0.400000
v 5.945000 2.043000 1.120000
v 5.945000 1.933000 1.120000
v 6.055000 1.933000 0.400000
v 6.055000 2.043000 0.400000
v 6.055000 2.043000 1.120000
v 6.055000 1.933000 1.120000
v 5.945000 3.957000 0.400000
v 5.945000 4.067000 0.400000
v 5.945000 4.067000 1.120000
v 5.945000 3.957000 1.120000
v 6.055000 3.957000 0.400000
v 6.055000 4.067000 0.400000
v 6.055000 4.067000 1.120000
v 6.055000 3.957000 1.120000
v 7.062640 1.288036 0.533333
v 8.007155 3.177066 0.533333
v 8.007155 3.177066 0.603333
v 7.062640 1.288036 0.603333
v 7.992845 0.822934 0.533333
v 8.937360 2.711964 0.533333
v 8.937360 2.711964 0.603333
v 7.992845 0.822934 0.603333
v 7.473630 1.070243 0.533333
v 7.522823 1.168630 0.533333
v 7.522823 1.168630 1.253333
v 7.473630 1.070243 1.253333
v 7.572017 1.021049 0.533333
v 7.621210 1.119436 0.533333
v 7.621210 1.119436 1.253333
v 7.572017 1.021049 1.253333
v 8.378790 2.880564 0.533333
v 8.427983 2.978951 0.533333
v 8.427983 2.978951 1.253333
v 8.378790 2.880564 1.253333
v 8.477177 2.831370 0.533333
v 8.526370 2.929757 0.533333
v 8.526370 2.929757 1.253333
v 8.477177 2.831370 1.253333
v 9.062640 0.288036 0.666667
v 10.007155 2.177066 0.666667
v 10.007155 2.177066 0.736667
v 9.062640 0.288036 0.736667
v 9.992845 -0.177066 0.666667
v 10.937360 1.711964 0.666667
v 10.937360 1.711964 0.736667
v 9.992845 -0.177066 0.736667
v 9.473630 0.070243 0.666667
v 9.522823 0.168630 0.666667
v 9.522823 0.168630 1.386667
v 9.473630 0.070243 1.386667
v 9.572017 0.021049 0.666667
v 9.621210 0.119436 0.666667
v 9.621210 0.119436 1.386667
v 9.572017 0.021049 1.386667
v 10.378790 1.880564 0.666667
v 10.427983 1.978951 0.666667
v 10.427983 1.978951 1.386667
v 10.378790 1.880564 1.386667
v 10.477177 1.831370 0.666667
v 10.526370 1.929757 0.666667
v 10.526370 1.929757 1.386667
v 10.477177 1.831370 1.386667
v 11.268359 -1.060791 0.560000
v 12.409648 1.221788 0.560000
v 12.409648 1.221788 0.720000
v 11.268359 -1.060791 0.720000
v 11.590352 -1.221788 0.560000
v 12.731641 1.060791 0.560000
v 12.731641 1.060791 0.720000
v 11.590352 -1.221788 0.720000
v 11.062640 -0.711964 0.800000
v 12.007155 1.177066 0.800000
v 12.007155 1.177066 0.870000
v 11.062640 -0.711964 0.870000
v 11.992845 -1.177066 0.800000
v 12.937360 0.711964 0.800000
v 12.937360 0.711964 0.870000
v 11.992845 -1.177066 0.870000
v 11.473630 -0.929757 0.800000
v 11.522823 -0.831370 0.800000
v 11.522823 -0.831370 1.520000
v 11.473630 -0.929757 1.520000
v 11.572017 -0.978951 0.800000
v 11.621210 -0.880564 0.800000
v 11.621210 -0.880564 1.520000
v 11.572017 -0.978951 1.520000
v 12.378790 0.880564 0.800000
v 12.427983 0.978951 0.800000
v 12.427983 0.978951 1.520000
v 12.378790 0.880564 1.520000
v 12.477177 0.831370 0.800000
v 12.526370 0.929757 0.800000
v 12.526370 0.929757 1.520000
v 12.477177 0.831370 1.520000
v 0.427983 -0.855967 0.500000
v 0.477177 -0.954354 0.500000
v 0.477177 -0.954354 0.600000
v 0.427983 -0.855967 0.600000
v 1.427983 -0.355967 0.566667
v 1.477177 -0.454354 0.566667
v 1.477177 -0.454354 0.666667
v 1.427983 -0.355967 0.666667
v 2.427983 0.144033 0.633333
v 2.477177 0.045646 0.633333
v 2.477177 0.045646 0.733333
v 2.427983 0.144033 0.733333
v 3.427983 0.644033 0.700000
v 3.477177 0.545646 0.700000
v 3.477177 0.545646 0.800000
v 3.427983 0.644033 0.800000
v 4.427983 1.144033 0.766667
v 4.477177 1.045646 0.766667
v 4.477177 1.045646 0.866667
v 4.427983 1.144033 0.866667
v 5.427983 1.644033 0.833333
v 5.477177 1.545646 0.833333
v 5.477177 1.545646 0.933333
v 5.427983 1.644033 0.933333
v 6.000000 2.043000 0.900000
v 6.000000 1.933000 0.900000
v 6.000000 1.933000 1.000000
v 6.000000 2.043000 1.000000
v 6.572017 1.644033 0.966667
v 6.522823 1.545646 0.966667
v 6.522823 1.545646 1.066667
v 6.572017 1.644033 1.066667
v 7.572017 1.144033 1.033333
v 7.522823 1.045646 1.033333
v 7.522823 1.045646 1.133333
v 7.572017 1.144033 1.133333
v 8.572017 0.644033 1.100000
v 8.522823 0.545646 1.100000
v 8.522823 0.545646 1.200000
v 8.572017 0.644033 1.200000
v 9.572017 0.144033 1.166667
v 9.522823 0.045646 1.166667
v 9.522823 0.045646 1.266667
v 9.572017 0.144033 1.266667
v 10.572017 -0.355967 1.233333
v 10.522823 -0.454354 1.233333
v 10.522823 -0.454354 1.333333
v 10.572017 -0.355967 1.333333
v 11.572017 -0.855967 1.300000
v 11.522823 -0.954354 1.300000
v 11.522823 -0.954354 1.400000
v 11.572017 -0.855967 1.400000
v 0.423511 -0.847023 0.750000
v 0.481649 -0.963298 0.750000
v 0.481649 -0.963298 0.870000
v 0.423511 -0.847023 0.870000
v 1.423511 -0.347023 0.816667
v 1.481649 -0.463298 0.816667
v 1.481649 -0.463298 0.936667
v 1.423511 -0.347023 0.936667
v 2.423511 0.152977 0.883333
v 2.481649 0.036702 0.883333
v 2.481649 0.036702 1.003333
v 2.423511 0.152977 1.003333
v 3.423511 0.652977 0.950000
v 3.481649 0.536702 0.950000
v 3.481649 0.536702 1.070000
v 3.423511 0.652977 1.070000
v 4.423511 1.152977 1.016667
v 4.481649 1.036702 1.016667
v 4.481649 1.036702 1.136667
v 4.423511 1.152977 1.136667
v 5.423511 1.652977 1.083333
v 5.481649 1.536702 1.083333
v 5.481649 1.536702 1.203333
v 5.423511 1.652977 1.203333
v 6.000000 2.053000 1.150000
v 6.000000 1.923000 1.150000
v 6.000000 1.923000 1.270000
v 6.000000 2.053000 1.270000
v 6.576489 1.652977 1.216667
v 6.518351 1.536702 1.216667
v 6.518351 1.536702 1.336667
v 6.576489 1.652977 1.336667
v 7.576489 1.152977 1.283333
v 7.518351 1.036702 1.283333
v 7.518351 1.036702 1.403333
v 7.576489 1.152977 1.403333
v 8.576489 0.652977 1.350000
v 8.518351 0.536702 1.350000
v 8.518351 0.536702 1.470000
v 8.576489 0.652977 1.470000
v 9.576489 0.152977 1.416667
v 9.518351 0.036702 1.416667
v 9.518351 0.036702 1.536667
v 9.576489 0.152977 1.536667
v 10.576489 -0.347023 1.483333
v 10.518351 -0.463298 1.483333
v 10.518351 -0.463298 1.603333
v 10.576489 -0.347023 1.603333
v 11.576489 -0.847023 1.550000
v 11.518351 -0.963298 1.550000
v 11.518351 -0.963298 1.670000
v 11.576489 -0.847023 1.670000
v -0.427983 0.855967 0.500000
v -0.477177 0.954354 0.500000
v -0.477177 0.954354 0.600000
v -0.427983 0.855967 0.600000
v 0.572017 1.355967 0.566667
v 0.522823 1.454354 0.566667
v 0.522823 1.454354 0.666667
v 0.572017 1.355967 0.666667
v 1.572017 1.855967 0.633333
v 1.522823 1.954354 0.633333
v 1.522823 1.954354 0.733333
v 1.572017 1.855967 0.733333
v 2.572017 2.355967 0.700000
v 2.522823 2.454354 0.700000
v 2.522823 2.454354 0.800000
v 2.572017 2.355967 0.800000
v 3.572017 2.855967 0.766667
v 3.522823 2.954354 0.766667
v 3.522823 2.954354 0.866667
v 3.572017 2.855967 0.866667
v 4.572017 3.355967 0.833333
v 4.522823 3.454354 0.833333
v 4.522823 3.454354 0.933333
v 4.572017 3.355967 0.933333
v 6.000000 3.957000 0.900000
v 6.000000 4.067000 0.900000
v 6.000000 4.067000 1.000000
v 6.000000 3.957000 1.000000
v 7.427983 3.355967 0.966667
v 7.477177 3.454354 0.966667
v 7.477177 3.454354 1.066667
v 7.427983 3.355967 1.066667
v 8.427983 2.855967 1.033333
v 8.477177 2.954354 1.033333
v 8.477177 2.954354 1.133333
v 8.427983 2.855967 1.133333
v 9.427983 2.355967 1.100000
v 9.477177 2.454354 1.100000
v 9.477177 2.454354 1.200000
v 9.427983 2.355967 1.200000
v 10.427983 1.855967 1.166667
v 10.477177 1.954354 1.166667
v 10.477177 1.954354 1.266667
v 10.427983 1.855967 1.266667
v 11.427983 1.355967 1.233333
v 11.477177 1.454354 1.233333
v 11.477177 1.454354 1.333333
v 11.427983 1.355967 1.333333
v 12.427983 0.855967 1.300000
v 12.477177 0.954354 1.300000
v 12.477177 0.954354 1.400000
v 12.427983 0.855967 1.400000
v -0.423511 0.847023 0.750000
v -0.481649 0.963298 0.750000
v -0.481649 0.963298 0.870000
v -0.423511 0.847023 0.870000
v 0.576489 1.347023 0.816667
v 0.518351 1.463298 0.816667
v 0.518351 1.463298 0.936667
v 0.576489 1.347023 0.936667
v 1.576489 1.847023 0.883333
v 1.518351 1.963298 0.883333
v 1.518351 1.963298 1.003333
v 1.576489 1.847023 1.003333
v 2.576489 2.347023 0.950000
v 2.518351 2.463298 0.950000
v 2.518351 2.463298 1.070000
v 2.576489 2.347023 1.070000
v 3.576489 2.847023 1.016667
v 3.518351 2.963298 1.016667
v 3.518351 2.963298 1.136667
v 3.576489 2.847023 1.136667
v 4.576489 3.347023 1.083333
v 4.518351 3.463298 1.083333
v 4.518351 3.463298 1.203333
v 4.576489 3.347023 1.203333
v 6.000000 3.947000 1.150000
v 6.000000 4.077000 1.150000
v 6.000000 4.077000 1.270000
v 6.000000 3.947000 1.270000
v 7.423511 3.347023 1.216667
v 7.481649 3.463298 1.216667
v 7.481649 3.463298 1.336667
v 7.423511 3.347023 1.336667
v 8.423511 2.847023 1.283333
v 8.481649 2.963298 1.283333
v 8.481649 2.963298 1.403333
v 8.423511 2.847023 1.403333
v 9.423511 2.347023 1.350000
v 9.481649 2.463298 1.350000
v 9.481649 2.463298 1.470000
v 9.423511 2.347023 1.470000
v 10.423511 1.847023 1.416667
v 10.481649 1.963298 1.416667
v 10.481649 1.963298 1.536667
v 10.423511 1.847023 1.536667
v 11.423511 1.347023 1.483333
v 11.481649 1.463298 1.483333
v 11.481649 1.463298 1.603333
v 11.423511 1.347023 1.603333
v 12.423511 0.847023 1.550000
v 12.481649 0.963298 1.550000
v 12.481649 0.963298 1.670000
v 12.423511 0.847023 1.670000
v 0.463939 -0.927879 0.000000
v 0.504189 -1.008377 0.000000
v 0.504189 -1.008377 0.230000
v 0.463939 -0.927879 0.230000
v 1.463939 -0.427879 0.066667
v 1.504189 -0.508377 0.066667
v 1.504189 -0.508377 0.296667
v 1.463939 -0.427879 0.296667
v 2.463939 0.072121 0.133333
v 2.504189 -0.008377 0.133333
v 2.504189 -0.008377 0.363333
v 2.463939 0.072121 0.363333
v 3.463939 0.572121 0.200000
v 3.504189 0.491623 0.200000
v 3.504189 0.491623 0.430000
v 3.463939 0.572121 0.430000
v 4.463939 1.072121 0.266667
v 4.504189 0.991623 0.266667
v 4.504189 0.991623 0.496667
v 4.463939 1.072121 0.496667
v 5.463939 1.572121 0.333333
v 5.504189 1.491623 0.333333
v 5.504189 1.491623 0.563333
v 5.463939 1.572121 0.563333
v 6.000000 1.962600 0.400000
v 6.000000 1.872600 0.400000
v 6.000000 1.872600 0.630000
v 6.000000 1.962600 0.630000
v 6.536061 1.572121 0.466667
v 6.495811 1.491623 0.466667
v 6.495811 1.491623 0.696667
v 6.536061 1.572121 0.696667
v 7.536061 1.072121 0.533333
v 7.495811 0.991623 0.533333
v 7.495811 0.991623 0.763333
v 7.536061 1.072121 0.763333
v 8.536061 0.572121 0.600000
v 8.495811 0.491623 0.600000
v 8.495811 0.491623 0.830000
v 8.536061 0.572121 0.830000
v 9.536061 0.072121 0.666667
v 9.495811 -0.008377 0.666667
v 9.495811 -0.008377 0.896667
v 9.536061 0.072121 0.896667
v 10.536061 -0.427879 0.733333
v 10.495811 -0.508377 0.733333
v 10.495811 -0.508377 0.963333
v 10.536061 -0.427879 0.963333
v 11.536061 -0.927879 0.800000
v 11.495811 -1.008377 0.800000
v 11.495811 -1.008377 1.030000
v 11.536061 -0.927879 1.030000
v 0.420381 -0.840762 0.145000
v 0.465102 -0.930204 0.145000
v 0.465102 -0.930204 0.215000
v 0.420381 -0.840762 0.215000
v 1.420381 -0.340762 0.211667
v 1.465102 -0.430204 0.211667
v 1.465102 -0.430204 0.281667
v 1.420381 -0.340762 0.281667
v 2.420381 0.159238 0.278333
v 2.465102 0.069796 0.278333
v 2.465102 0.069796 0.348333
v 2.420381 0.159238 0.348333
v 3.420381 0.659238 0.345000
v 3.465102 0.569796 0.345000
v 3.465102 0.569796 0.415000
v 3.420381 0.659238 0.415000
v 4.420381 1.159238 0.411667
v 4.465102 1.069796 0.411667
v 4.465102 1.069796 0.481667
v 4.420381 1.159238 0.481667
v 5.420381 1.659238 0.478333
v 5.465102 1.569796 0.478333
v 5.465102 1.569796 0.548333
v 5.420381 1.659238 0.548333
v 6.000000 2.060000 0.545000
v 6.000000 1.960000 0.545000
v 6.000000 1.960000 0.615000
v 6.000000 2.060000 0.615000
v 6.579619 1.659238 0.611667
v 6.534898 1.569796 0.611667
v 6.534898 1.569796 0.681667
v 6.579619 1.659238 0.681667
v 7.579619 1.159238 0.678333
v 7.534898 1.069796 0.678333
v 7.534898 1.069796 0.748333
v 7.579619 1.159238 0.748333
v 8.579619 0.659238 0.745000
v 8.534898 0.569796 0.745000
v 8.534898 0.569796 0.815000
v 8.579619 0.659238 0.815000
v 9.579619 0.159238 0.811667
v 9.534898 0.069796 0.811667
v 9.534898 0.069796 0.881667
v 9.579619 0.159238 0.881667
v 10.579619 -0.340762 0.878333
v 10.534898 -0.430204 0.878333
v 10.534898 -0.430204 0.948333
v 10.579619 -0.340762 0.948333
v 11.579619 -0.840762 0.945000
v 11.534898 -0.930204 0.945000
v 11.534898 -0.930204 1.015000
v 11.579619 -0.840762 1.015000
v 0.422617 -0.845234 0.030000
v 0.462866 -0.925732 0.030000
v 0.462866 -0.925732 0.080000
v 0.422617 -0.845234 0.080000
v 1.422617 -0.345234 0.096667
v 1.462866 -0.425732 0.096667
v 1.462866 -0.425732 0.146667
v 1.422617 -0.345234 0.146667
v 2.422617 0.154766 0.163333
v 2.462866 0.074268 0.163333
v 2.462866 0.074268 0.213333
v 2.422617 0.154766 0.213333
v 3.422617 0.654766 0.230000
v 3.462866 0.574268 0.230000
v 3.462866 0.574268 0.280000
v 3.422617 0.654766 0.280000
v 4.422617 1.154766 0.296667
v 4.462866 1.074268 0.296667
v 4.462866 1.074268 0.346667
v 4.422617 1.154766 0.346667
v 5.422617 1.654766 0.363333
v 5.462866 1.574268 0.363333
v 5.462866 1.574268 0.413333
v 5.422617 1.654766 0.413333
v 6.000000 2.055000 0.430000
v 6.000000 1.965000 0.430000
v 6.000000 1.965000 0.480000
v 6.000000 2.055000 0.480000
v 6.577383 1.654766 0.496667
v 6.537134 1.574268 0.496667
v 6.537134 1.574268 0.546667
v 6.577383 1.654766 0.546667
v 7.577383 1.154766 0.563333
v 7.537134 1.074268 0.563333
v 7.537134 1.074268 0.613333
v 7.577383 1.154766 0.613333
v 8.577383 0.654766 0.630000
v 8.537134 0.574268 0.630000
v 8.537134 0.574268 0.680000
v 8.577383 0.654766 0.680000
v 9.577383 0.154766 0.696667
v 9.537134 0.074268 0.696667
v 9.537134 0.074268 0.746667
v 9.577383 0.154766 0.746667
v 10.577383 -0.345234 0.763333
v 10.537134 -0.425732 0.763333
v 10.537134 -0.425732 0.813333
v 10.577383 -0.345234 0.813333
v 11.577383 -0.845234 0.830000
v 11.537134 -0.925732 0.830000
v 11.537134 -0.925732 0.880000
v 11.577383 -0.845234 0.880000
v -0.463939 0.927879 0.000000
v -0.504189 1.008377 0.000000
v -0.504189 1.008377 0.230000
v -0.463939 0.927879 0.230000
v 0.536061 1.427879 0.066667
v 0.495811 1.508377 0.066667
v 0.495811 1.508377 0.296667
v 0.536061 1.427879 0.296667
v 1.536061 1.927879 0.133333
v 1.495811 2.008377 0.133333
v 1.495811 2.008377 0.363333
v 1.536061 1.927879 0.363333
v 2.536061 2.427879 0.200000
v 2.495811 2.508377 0.200000
v 2.495811 2.508377 0.430000
v 2.536061 2.427879 0.430000
v 3.536061 2.927879 0.266667
v 3.495811 3.008377 0.266667
v 3.495811 3.008377 0.496667
v 3.536061 2.927879 0.496667
v 4.536061 3.427879 0.333333
v 4.495811 3.508377 0.333333
v 4.495811 3.508377 0.563333
v 4.536061 3.427879 0.563333
v 6.000000 4.037400 0.400000
v 6.000000 4.127400 0.400000
v 6.000000 4.127400 0.630000
v 6.000000 4.037400 0.630000
v 7.463939 3.427879 0.466667
v 7.504189 3.508377 0.466667
v 7.504189 3.508377 0.696667
v 7.463939 3.427879 0.696667
v 8.463939 2.927879 0.533333
v 8.504189 3.008377 0.533333
v 8.504189 3.008377 0.763333
v 8.463939 2.927879 0.763333
v 9.463939 2.427879 0.600000
v 9.504189 2.508377 0.600000
v 9.504189 2.508377 0.830000
v 9.463939 2.427879 0.830000
v 10.463939 1.927879 0.666667
v 10.504189 2.008377 0.666667
v 10.504189 2.008377 0.896667
v 10.463939 1.927879 0.896667
v 11.463939 1.427879 0.733333
v 11.504189 1.508377 0.733333
v 11.504189 1.508377 0.963333
v 11.463939 1.427879 0.963333
v 12.463939 0.927879 0.800000
v 12.504189 1.008377 0.800000
v 12.504189 1.008377 1.030000
v 12.463939 0.927879 1.030000
v -0.420381 0.840762 0.145000
v -0.465102 0.930204 0.145000
v -0.465102 0.930204 0.215000
v -0.420381 0.840762 0.215000
v 0.579619 1.340762 0.211667
v 0.534898 1.430204 0.211667
v 0.534898 1.430204 0.281667
v 0.579619 1.340762 0.281667
v 1.579619 1.840762 0.278333
v 1.534898 1.930204 0.278333
v 1.534898 1.930204 0.348333
v 1.579619 1.840762 0.348333
v 2.579619 2.340762 0.345000
v 2.534898 2.430204 0.345000
v 2.534898 2.430204 0.415000
v 2.579619 2.340762 0.415000
v 3.579619 2.840762 0.411667
v 3.534898 2.930204 0.411667
v 3.534898 2.930204 0.481667
v 3.579619 2.840762 0.481667
v 4.579619 3.340762 0.478333
v 4.534898 3.430204 0.478333
v 4.534898 3.430204 0.548333
v 4.579619 3.340762 0.548333
v 6.000000 3.940000 0.545000
v 6.000000 4.040000 0.545000
v 6.000000 4.040000 0.615000
v 6.000000 3.940000 0.615000
v 7.420381 3.340762 0.611667
v 7.465102 3.430204 0.611667
v 7.465102 3.430204 0.681667
v 7.420381 3.340762 0.681667
v 8.420381 2.840762 0.678333
v 8.465102 2.930204 0.678333
v 8.465102 2.930204 0.748333
v 8.420381 2.840762 0.748333
v 9.420381 2.340762 0.745000
v 9.465102 2.430204 0.745000
v 9.465102 2.430204 0.815000
v 9.420381 2.340762 0.815000
v 10.420381 1.840762 0.811667
v 10.465102 1.930204 0.811667
v 10.465102 1.930204 0.881667
v 10.420381 1.840762 0.881667
v 11.420381 1.340762 0.878333
v 11.465102 1.430204 0.878333
v 11.465102 1.430204 0.948333
v 11.420381 1.340762 0.948333
v 12.420381 0.840762 0.945000
v 12.465102 0.930204 0.945000
v 12.465102 0.930204 1.015000
v 12.420381 0.840762 1.015000
v -0.422617 0.845234 0.030000
v -0.462866 0.925732 0.030000
v -0.462866 0.925732 0.080000
v -0.422617 0.845234 0.080000
v 0.577383 1.345234 0.096667
v 0.537134 1.425732 0.096667
v 0.537134 1.425732 0.146667
v 0.577383 1.345234 0.146667
v 1.577383 1.845234 0.163333
v 1.537134 1.925732 0.163333
v 1.537134 1.925732 0.213333
v 1.577383 1.845234 0.213333
v 2.577383 2.345234 0.230000
v 2.537134 2.425732 0.230000
v 2.537134 2.425732 0.280000
v 2.577383 2.345234 0.280000
v 3.577383 2.845234 0.296667
v 3.537134 2.925732 0.296667
v 3.537134 2.925732 0.346667
v 3.577383 2.845234 0.346667
v 4.577383 3.345234 0.363333
v 4.537134 3.425732 0.363333
v 4.537134 3.425732 0.413333
v 4.577383 3.345234 0.413333
v 6.000000 3.945000 0.430000
v 6.000000 4.035000 0.430000
v 6.000000 4.035000 0.480000
v 6.000000 3.945000 0.480000
v 7.422617 3.345234 0.496667
v 7.462866 3.425732 0.496667
v 7.462866 3.425732 0.546667
v 7.422617 3.345234 0.546667
v 8.422617 2.845234 0.563333
v 8.462866 2.925732 0.563333
v 8.462866 2.925732 0.613333
v 8.422617 2.845234 0.613333
v 9.422617 2.345234 0.630000
v 9.462866 2.425732 0.630000
v 9.462866 2.425732 0.680000
v 9.422617 2.345234 0.680000
v 10.422617 1.845234 0.696667
v 10.462866 1.925732 0.696667
v 10.462866 1.925732 0.746667
v 10.422617 1.845234 0.746667
v 11.422617 1.345234 0.763333
v 11.462866 1.425732 0.763333
v 11.462866 1.425732 0.813333
v 11.422617 1.345234 0.813333
v 12.422617 0.845234 0.830000
v 12.462866 0.925732 0.830000
v 12.462866 0.925732 0.880000
v 12.422617 0.845234 0.880000
v 0.394442 -1.079574 -0.040000
v 0.278167 -0.847023 -0.040000
v 0.278167 -0.847023 0.920000
v 0.394442 -1.079574 0.920000
v 0.626993 -0.963298 -0.040000
v 0.510718 -0.730747 -0.040000
v 0.510718 -0.730747 0.920000
v 0.626993 -0.963298 0.920000
v 0.376554 -1.133239 0.895000
v 0.224501 -0.829134 0.895000
v 0.224501 -0.829134 1.005000
v 0.376554 -1.133239 1.005000
v 0.680659 -0.981187 0.895000
v 0.528606 -0.677081 0.895000
v 0.528606 -0.677081 1.005000
v 0.680659 -0.981187 1.005000
v -0.510718 0.730747 -0.040000
v -0.626993 0.963298 -0.040000
v -0.626993 0.963298 0.920000
v -0.510718 0.730747 0.920000
v -0.278167 0.847023 -0.040000
v -0.394442 1.079574 -0.040000
v -0.394442 1.079574 0.920000
v -0.278167 0.847023 0.920000
v -0.528606 0.677081 0.895000
v -0.680659 0.981187 0.895000
v -0.680659 0.981187 1.005000
v -0.528606 0.677081 1.005000
v -0.224501 0.829134 0.895000
v -0.376554 1.133239 0.895000
v -0.376554 1.133239 1.005000
v -0.224501 0.829134 1.005000
v 11.373007 -0.963298 0.760000
v 11.489282 -0.730747 0.760000
v 11.489282 -0.730747 1.720000
v 11.373007 -0.963298 1.720000
v 11.605558 -1.079574 0.760000
v 11.721833 -0.847023 0.760000
v 11.721833 -0.847023 1.720000
v 11.605558 -1.079574 1.720000
v 11.319341 -0.981187 1.695000
v 11.471394 -0.677081 1.695000
v 11.471394 -0.677081 1.805000
v 11.319341 -0.981187 1.805000
v 11.623446 -1.133239 1.695000
v 11.775499 -0.829134 1.695000
v 11.775499 -0.829134 1.805000
v 11.623446 -1.133239 1.805000
v 12.278167 0.847023 0.760000
v 12.394442 1.079574 0.760000
v 12.394442 1.079574 1.720000
v 12.278167 0.847023 1.720000
v 12.510718 0.730747 0.760000
v 12.626993 0.963298 0.760000
v 12.626993 0.963298 1.720000
v 12.510718 0.730747 1.720000
v 12.224501 0.829134 1.695000
v 12.376554 1.133239 1.695000
v 12.376554 1.133239 1.805000
v 12.224501 0.829134 1.805000
v 12.528606 0.677081 1.695000
v 12.680659 0.981187 1.695000
v 12.680659 0.981187 1.805000
v 12.528606 0.677081 1.805000
v 0.300975 -0.769655 -1.800000
v 0.233893 -0.635491 -1.800000
v 0.233893 -0.635491 -0.200000
v 0.300975 -0.769655 -0.200000
v 0.435139 -0.702573 -1.800000
v 0.368057 -0.568408 -1.800000
v 0.368057 -0.568408 -0.200000
v 0.435139 -0.702573 -0.200000
v -0.368057 0.568408 -1.800000
v -0.435139 0.702573 -1.800000
v -0.435139 0.702573 -0.200000
v -0.368057 0.568408 -0.200000
v -0.233893 0.635491 -1.800000
v -0.300975 0.769655 -1.800000
v -0.300975 0.769655 -0.200000
v -0.233893 0.635491 -0.200000
v 3.300975 0.730345 -1.800000
v 3.233893 0.864509 -1.800000
v 3.233893 0.864509 0.000000
v 3.300975 0.730345 0.000000
v 3.435139 0.797427 -1.800000
v 3.368057 0.931592 -1.800000
v 3.368057 0.931592 0.000000
v 3.435139 0.797427 0.000000
v 2.631943 2.068408 -1.800000
v 2.564861 2.202573 -1.800000
v 2.564861 2.202573 0.000000
v 2.631943 2.068408 0.000000
v 2.766107 2.135491 -1.800000
v 2.699025 2.269655 -1.800000
v 2.699025 2.269655 0.000000
v 2.766107 2.135491 0.000000
v 5.925000 2.177000 -1.800000
v 5.925000 2.327000 -1.800000
v 5.925000 2.327000 0.200000
v 5.925000 2.177000 0.200000
v 6.075000 2.177000 -1.800000
v 6.075000 2.327000 -1.800000
v 6.075000 2.327000 0.200000
v 6.075000 2.177000 0.200000
v 5.925000 3.673000 -1.800000
v 5.925000 3.823000 -1.800000
v 5.925000 3.823000 0.200000
v 5.925000 3.673000 0.200000
v 6.075000 3.673000 -1.800000
v 6.075000 3.823000 -1.800000
v 6.075000 3.823000 0.200000
v 6.075000 3.673000 0.200000
v 8.564861 0.797427 -1.800000
v 8.631943 0.931592 -1.800000
v 8.631943 0.931592 0.400000
v 8.564861 0.797427 0.400000
v 8.699025 0.730345 -1.800000
v 8.766107 0.864509 -1.800000
v 8.766107 0.864509 0.400000
v 8.699025 0.730345 0.400000
v 9.233893 2.135491 -1.800000
v 9.300975 2.269655 -1.800000
v 9.300975 2.269655 0.400000
v 9.233893 2.135491 0.400000
v 9.368057 2.068408 -1.800000
v 9.435139 2.202573 -1.800000
v 9.435139 2.202573 0.400000
v 9.368057 2.068408 0.400000
v 11.564861 -0.702573 -1.800000
v 11.631943 -0.568408 -1.800000
v 11.631943 -0.568408 0.600000
v 11.564861 -0.702573 0.600000
v 11.699025 -0.769655 -1.800000
v 11.766107 -0.635491 -1.800000
v 11.766107 -0.635491 0.600000
v 11.699025 -0.769655 0.600000
v 12.233893 0.635491 -1.800000
v 12.300975 0.769655 -1.800000
v 12.300975 0.769655 0.600000
v 12.233893 0.635491 0.600000
v 12.368057 0.568408 -1.800000
v 12.435139 0.702573 -1.800000
v 12.435139 0.702573 0.600000
v 12.368057 0.568408 0.600000
f 1 5 6 2
f 3 4 8 7
f 1 3 7 5
f 2 6 8 4
f 5 9 10 6
f 7 8 12 11
f 5 7 11 9
f 6 10 12 8
f 9 13 14 10
f 11 12 16 15
f 9 11 15 13
f 10 14 16 12
f 13 17 18 14
f 15 16 20 19
f 13 15 19 17
f 14 18 20 16
f 17 21 22 18
f 19 20 24 23
f 17 19 23 21
f 18 22 24 20
f 21 25 26 22
f 23 24 28 27
f 21 23 27 25
f 22 26 28 24
f 25 29 30 26
f 27 28 32 31
f 25 27 31 29
f 26 30 32 28
f 29 33 34 30
f 31 32 36 35
f 29 31 35 33
f 30 34 36 32
f 33 37 38 34
f 35 36 40 39
f 33 35 39 37
f 34 38 40 36
f 37 41 42 38
f 39 40 44 43
f 37 39 43 41
f 38 42 44 40
f 41 45 46 42
f 43 44 48 47
f 41 43 47 45
f 42 46 48 44
f 45 49 50 46
f 47 48 52 51
f 45 47 51 49
f 46 50 52 48
f 53 56 55 54
f 57 58 59 60
f 53 54 58 57
f 55 56 60 59
f 53 57 60 56
f 54 55 59 58
f 61 64 63 62
f 65 66 67 68
f 61 62 66 65
f 63 64 68 67
f 61 65 68 64
f 62 63 67 66
f 69 72 71 70
f 73 74 75 76
f 69 70 74 73
f 71 72 76 75
f 69 73 76 72
f 70 71 75 74
f 77 80 79 78
f 81 82 83 84
f 77 78 82 81
f 79 80 84 83
f 77 81 84 80
f 78 79 83 82
f 85 88 87 86
f 89 90 91 92
f 85 86 90 89
f 87 88 92 91
f 85 89 92 88
f 86 87 91 90
f 93 96 95 94
f 97 98 99 100
f 93 94 98 97
f 95 96 100 99
f 93 97 100 96
f 94 95 99 98
f 101 104 103 102
f 105 106 107 108
f 101 102 106 105
f 103 104 108 107
f 101 105 108 104
f 102 103 107 106
f 109 112 111 110
f 113 114 115 116
f 109 110 114 113
f 111 112 116 115
f 109 113 116 112
f 110 111 115 114
f 117 120 119 118
f 121 122 123 124
f 117 118 122 121
f 119 120 124 123
f 117 121 124 120
f 118 119 123 122
f 125 128 127 126
f 129 130 131 132
f 125 126 130 129
f 127 128 132 131
f 125 129 132 128
f 126 127 131 130
f 133 136 135 134
f 137 138 139 140
f 133 134 138 137
f 135 136 140 139
f 133 137 140 136
f 134 135 139 138
f 141 144 143 142
f 145 146 147 148
f 141 142 146 145
f 143 144 148 147
f 141 145 148 144
f 142 143 147 146
f 149 152 151 150
f 153 154 155 156
f 149 150 154 153
f 151 152 156 155
f 149 153 156 152
f 150 151 155 154
f 157 160 159 158
f 161 162 163 164
f 157 158 162 161
f 159 160 164 163
f 157 161 164 160
f 158 159 163 162
f 165 168 167 166
f 169 170 171 172
f 165 166 170 169
f 167 168 172 171
f 165 169 172 168
f 166 167 171 170
f 173 176 175 174
f 177 178 179 180
f 173 174 178 177
f 175 176 180 179
f 173 177 180 176
f 174 175 179 178
f 181 184 183 182
f 185 186 187 188
f 181 182 186 185
f 183 184 188 187
f 181 185 188 184
f 182 183 187 186
f 189 192 191 190
f 193 194 195 196
f 189 190 194 193
f 191 192 196 195
f 189 193 196 192
f 190 191 195 194
f 197 200 199 198
f 201 202 203 204
f 197 198 202 201
f 199 200 204 203
f 197 201 204 200
f 198 199 203 202
f 205 208 207 206
f 209 210 211 212
f 205 206 210 209
f 207 208 212 211
f 205 209 212 208
f 206 207 211 210
f 213 216 215 214
f 217 218 219 220
f 213 214 218 217
f 215 216 220 219
f 213 217 220 216
f 214 215 219 218
f 221 224 223 222
f 225 226 227 228
f 221 222 226 225
f 223 224 228 227
f 221 225 228 224
f 222 223 227 226
f 229 232 231 230
f 233 234 235 236
f 229 230 234 233
f 231 232 236 235
f 229 233 236 232
f 230 231 235 234
f 237 241 242 238
f 238 242 243 239
f 239 243 244 240
f 240 244 241 237
f 241 245 246 242
f 242 246 247 243
f 243 247 248 244
f 244 248 245 241
f 245 249 250 246
f 246 250 251 247
f 247 251 252 248
f 248 252 249 245
f 249 253 254 250
f 250 254 255 251
f 251 255 256 252
f 252 256 253 249
f 253 257 258 254
f 254 258 259 255
f 255 259 260 256
f 256 260 257 253
f 257 261 262 258
f 258 262 263 259
f 259 263 264 260
f 260 264 261 257
f 261 265 266 262
f 262 266 267 263
f 263 267 268 264
f 264 268 265 261
f 265 269 270 266
f 266 270 271 267
f 267 271 272 268
f 268 272 269 265
f 269 273 274 270
f 270 274 275 271
f 271 275 276 272
f 272 276 273 269
f 273 277 278 274
f 274 278 279 275
f 275 279 280 276
f 276 280 277 273
f 277 281 282 278
f 278 282 283 279
f 279 283 284 280
f 280 284 281 277
f 281 285 286 282
f 282 286 287 283
f 283 287 288 284
f 284 288 285 281
f 289 293 294 290
f 290 294 295 291
f 291 295 296 292
f 292 296 293 289
f 293 297 298 294
f 294 298 299 295
f 295 299 300 296
f 296 300 297 293
f 297 301 302 298
f 298 302 303 299
f 299 303 304 300
f 300 304 301 297
f 301 305 306 302
f 302 306 307 303
f 303 307 308 304
f 304 308 305 301
f 305 309 310 306
f 306 310 311 307
f 307 311 312 308
f 308 312 309 305
f 309 313 314 310
f 310 314 315 311
f 311 315 316 312
f 312 316 313 309
f 313 317 318 314
f 314 318 319 315
f 315 319 320 316
f 316 320 317 313
f 317 321 322 318
f 318 322 323 319
f 319 323 324 320
f 320 324 321 317
f 321 325 326 322
f 322 326 327 323
f 323 327 328 324
f 324 328 325 321
f 325 329 330 326
f 326 330 331 327
f 327 331 332 328
f 328 332 329 325
f 329 333 334 330
f 330 334 335 331
f 331 335 336 332
f 332 336 333 329
f 333 337 338 334
f 334 338 339 335
f 335 339 340 336
f 336 340 337 333
f 341 345 346 342
f 342 346 347 343
f 343 347 348 344
f 344 348 345 341
f 345 349 350 346
f 346 350 351 347
f 347 351 352 348
f 348 352 349 345
f 349 353 354 350
f 350 354 355 351
f 351 355 356 352
f 352 356 353 349
f 353 357 358 354
f 354 358 359 355
f 355 359 360 356
f 356 360 357 353
f 357 361 362 358
f 358 362 363 359
f 359 363 364 360
f 360 364 361 357
f 361 365 366 362
f 362 366 367 363
f 363 367 368 364
f 364 368 365 361
f 365 369 370 366
f 366 370 371 367
f 367 371 372 368
f 368 372 369 365
f 369 373 374 370
f 370 374 375 371
f 371 375 376 372
f 372 376 373 369
f 373 377 378 374
f 374 378 379 375
f 375 379 380 376
f 376 380 377 373
f 377 381 382 378
f 378 382 383 379
f 379 383 384 380
f 380 384 381 377
f 381 385 386 382
f 382 386 387 383
f 383 387 388 384
f 384 388 385 381
f 385 389 390 386
f 386 390 391 387
f 387 391 392 388
f 388 392 389 385
f 393 397 398 394
f 394 398 399 395
f 395 399 400 396
f 396 400 397 393
f 397 401 402 398
f 398 402 403 399
f 399 403 404 400
f 400 404 401 397
f 401 405 406 402
f 402 406 407 403
f 403 407 408 404
f 404 408 405 401
f 405 409 410 406
f 406 410 411 407
f 407 411 412 408
f 408 412 409 405
f 409 413 414 410
f 410 414 415 411
f 411 415 416 412
f 412 416 413 409
f 413 417 418 414
f 414 418 419 415
f 415 419 420 416
f 416 420 417 413
f 417 421 422 418
f 418 422 423 419
f 419 423 424 420
f 420 424 421 417
f 421 425 426 422
f 422 426 427 423
f 423 427 428 424
f 424 428 425 421
f 425 429 430 426
f 426 430 431 427
f 427 431 432 428
f 428 432 429 425
f 429 433 434 430
f 430 434 435 431
f 431 435 436 432
f 432 436 433 429
f 433 437 438 434
f 434 438 439 435
f 435 439 440 436
f 436 440 437 433
f 437 441 442 438
f 438 442 443 439
f 439 443 444 440
f 440 444 441 437
f 445 449 450 446
f 446 450 451 447
f 447 451 452 448
f 448 452 449 445
f 449 453 454 450
f 450 454 455 451
f 451 455 456 452
f 452 456 453 449
f 453 457 458 454
f 454 458 459 455
f 455 459 460 456
f 456 460 457 453
f 457 461 462 458
f 458 462 463 459
f 459 463 464 460
f 460 464 461 457
f 461 465 466 462
f 462 466 467 463
f 463 467 468 464
f 464 468 465 461
f 465 469 470 466
f 466 470 471 467
f 467 471 472 468
f 468 472 469 465
f 469 473 474 470
f 470 474 475 471
f 471 475 476 472
f 472 476 473 469
f 473 477 478 474
f 474 478 479 475
f 475 479 480 476
f 476 480 477 473
f 477 481 482 478
f 478 482 483 479
f 479 483 484 480
f 480 484 481 477
f 481 485 486 482
f 482 486 487 483
f 483 487 488 484
f 484 488 485 481
f 485 489 490 486
f 486 490 491 487
f 487 491 492 488
f 488 492 489 485
f 489 493 494 490
f 490 494 495 491
f 491 495 496 492
f 492 496 493 489
f 497 501 502 498
f 498 502 503 499
f 499 503 504 500
f 500 504 501 497
f 501 505 506 502
f 502 506 507 503
f 503 507 508 504
f 504 508 505 501
f 505 509 510 506
f 506 510 511 507
f 507 511 512 508
f 508 512 509 505
f 509 513 514 510
f 510 514 515 511
f 511 515 516 512
f 512 516 513 509
f 513 517 518 514
f 514 518 519 515
f 515 519 520 516
f 516 520 517 513
f 517 521 522 518
f 518 522 523 519
f 519 523 524 520
f 520 524 521 517
f 521 525 526 522
f 522 526 527 523
f 523 527 528 524
f 524 528 525 521
f 525 529 530 526
f 526 530 531 527
f 527 531 532 528
f 528 532 529 525
f 529 533 534 530
f 530 534 535 531
f 531 535 536 532
f 532 536 533 529
f 533 537 538 534
f 534 538 539 535
f 535 539 540 536
f 536 540 537 533
f 537 541 542 538
f 538 542 543 539
f 539 543 544 540
f 540 544 541 537
f 541 545 546 542
f 542 546 547 543
f 543 547 548 544
f 544 548 545 541
f 549 553 554 550
f 550 554 555 551
f 551 555 556 552
f 552 556 553 549
f 553 557 558 554
f 554 558 559 555
f 555 559 560 556
f 556 560 557 553
f 557 561 562 558
f 558 562 563 559
f 559 563 564 560
f 560 564 561 557
f 561 565 566 562
f 562 566 567 563
f 563 567 568 564
f 564 568 565 561
f 565 569 570 566
f 566 570 571 567
f 567 571 572 568
f 568 572 569 565
f 569 573 574 570
f 570 574 575 571
f 571 575 576 572
f 572 576 573 569
f 573 577 578 574
f 574 578 579 575
f 575 579 580 576
f 576 580 577 573
f 577 581 582 578
f 578 582 583 579
f 579 583 584 580
f 580 584 581 577
f 581 585 586 582
f 582 586 587 583
f 583 587 588 584
f 584 588 585 581
f 585 589 590 586
f 586 590 591 587
f 587 591 592 588
f 588 592 589 585
f 589 593 594 590
f 590 594 595 591
f 591 595 596 592
f 592 596 593 589
f 593 597 598 594
f 594 598 599 595
f 595 599 600 596
f 596 600 597 593
f 601 605 606 602
f 602 606 607 603
f 603 607 608 604
f 604 608 605 601
f 605 609 610 606
f 606 610 611 607
f 607 611 612 608
f 608 612 609 605
f 609 613 614 610
f 610 614 615 611
f 611 615 616 612
f 612 616 613 609
f 613 617 618 614
f 614 618 619 615
f 615 619 620 616
f 616 620 617 613
f 617 621 622 618
f 618 622 623 619
f 619 623 624 620
f 620 624 621 617
f 621 625 626 622
f 622 626 627 623
f 623 627 628 624
f 624 628 625 621
f 625 629 630 626
f 626 630 631 627
f 627 631 632 628
f 628 632 629 625
f 629 633 634 630
f 630 634 635 631
f 631 635 636 632
f 632 636 633 629
f 633 637 638 634
f 634 638 639 635
f 635 639 640 636
f 636 640 637 633
f 637 641 642 638
f 638 642 643 639
f 639 643 644 640
f 640 644 641 637
f 641 645 646 642
f 642 646 647 643
f 643 647 648 644
f 644 648 645 641
f 645 649 650 646
f 646 650 651 647
f 647 651 652 648
f 648 652 649 645
f 653 657 658 654
f 654 658 659 655
f 655 659 660 656
f 656 660 657 653
f 657 661 662 658
f 658 662 663 659
f 659 663 664 660
f 660 664 661 657
f 661 665 666 662
f 662 666 667 663
f 663 667 668 664
f 664 668 665 661
f 665 669 670 666
f 666 670 671 667
f 667 671 672 668
f 668 672 669 665
f 669 673 674 670
f 670 674 675 671
f 671 675 676 672
f 672 676 673 669
f 673 677 678 674
f 674 678 679 675
f 675 679 680 676
f 676 680 677 673
f 677 681 682 678
f 678 682 683 679
f 679 683 684 680
f 680 684 681 677
f 681 685 686 682
f 682 686 687 683
f 683 687 688 684
f 684 688 685 681
f 685 689 690 686
f 686 690 691 687
f 687 691 692 688
f 688 692 689 685
f 689 693 694 690
f 690 694 695 691
f 691 695 696 692
f 692 696 693 689
f 693 697 698 694
f 694 698 699 695
f 695 699 700 696
f 696 700 697 693
f 697 701 702 698
f 698 702 703 699
f 699 703 704 700
f 700 704 701 697
f 705 709 710 706
f 706 710 711 707
f 707 711 712 708
f 708 712 709 705
f 709 713 714 710
f 710 714 715 711
f 711 715 716 712
f 712 716 713 709
f 713 717 718 714
f 714 718 719 715
f 715 719 720 716
f 716 720 717 713
f 717 721 722 718
f 718 722 723 719
f 719 723 724 720
f 720 724 721 717
f 721 725 726 722
f 722 726 727 723
f 723 727 728 724
f 724 728 725 721
f 725 729 730 726
f 726 730 731 727
f 727 731 732 728
f 728 732 729 725
f 729 733 734 730
f 730 734 735 731
f 731 735 736 732
f 732 736 733 729
f 733 737 738 734
f 734 738 739 735
f 735 739 740 736
f 736 740 737 733
f 737 741 742 738
f 738 742 743 739
f 739 743 744 740
f 740 744 741 737
f 741 745 746 742
f 742 746 747 743
f 743 747 748 744
f 744 748 745 741
f 745 749 750 746
f 746 750 751 747
f 747 751 752 748
f 748 752 749 745
f 749 753 754 750
f 750 754 755 751
f 751 755 756 752
f 752 756 753 749
f 757 760 759 758
f 761 762 763 764
f 757 758 762 761
f 759 760 764 763
f 757 761 764 760
f 758 759 763 762
f 765 768 767 766
f 769 770 771 772
f 765 766 770 769
f 767 768 772 771
f 765 769 772 768
f 766 767 771 770
f 773 776 775 774
f 777 778 779 780
f 773 774 778 777
f 775 776 780 779
f 773 777 780 776
f 774 775 779 778
f 781 784 783 782
f 785 786 787 788
f 781 782 786 785
f 783 784 788 787
f 781 785 788 784
f 782 783 787 786
f 789 792 791 790
f 793 794 795 796
f 789 790 794 793
f 791 792 796 795
f 789 793 796 792
f 790 791 795 794
f 797 800 799 798
f 801 802 803 804
f 797 798 802 801
f 799 800 804 803
f 797 801 804 800
f 798 799 803 802
f 805 808 807 806
f 809 810 811 812
f 805 806 810 809
f 807 808 812 811
f 805 809 812 808
f 806 807 811 810
f 813 816 815 814
f 817 818 819 820
f 813 814 818 817
f 815 816 820 819
f 813 817 820 816
f 814 815 819 818
f 821 824 823 822
f 825 826 827 828
f 821 822 826 825
f 823 824 828 827
f 821 825 828 824
f 822 823 827 826
f 829 832 831 830
f 833 834 835 836
f 829 830 834 833
f 831 832 836 835
f 829 833 836 832
f 830 831 835 834
f 837 840 839 838
f 841 842 843 844
f 837 838 842 841
f 839 840 844 843
f 837 841 844 840
f 838 839 843 842
f 845 848 847 846
f 849 850 851 852
f 845 846 850 849
f 847 848 852 851
f 845 849 852 848
f 846 847 851 850
f 853 856 855 854
f 857 858 859 860
f 853 854 858 857
f 855 856 860 859
f 853 857 860 856
f 854 855 859 858
f 861 864 863 862
f 865 866 867 868
f 861 862 866 865
f 863 864 868 867
f 861 865 868 864
f 862 863 867 866
f 869 872 871 870
f 873 874 875 876
f 869 870 874 873
f 871 872 876 875
f 869 873 876 872
f 870 871 875 874
f 877 880 879 878
f 881 882 883 884
f 877 878 882 881
f 879 880 884 883
f 877 881 884 880
f 878 879 883 882
f 885 888 887 886
f 889 890 891 892
f 885 886 890 889
f 887 888 892 891
f 885 889 892 888
f 886 887 891 890
f 893 896 895 894
f 897 898 899 900
f 893 894 898 897
f 895 896 900 899
f 893 897 900 896
f 894 895 899 898
