v 0.000000 -1.000000 0.000000
v 0.000000 1.000000 0.000000
v 0.000000 -1.000000 -0.180000
v 0.000000 1.000000 -0.180000
v 1.142857 -1.000000 0.000000
v 1.142857 1.000000 0.000000
v 1.142857 -1.000000 -0.180000
v 1.142857 1.000000 -0.180000
v 2.285714 -1.000000 0.000000
v 2.285714 1.000000 0.000000
v 2.285714 -1.000000 -0.180000
v 2.285714 1.000000 -0.180000
v 3.428571 -1.000000 0.000000
v 3.428571 1.000000 0.000000
v 3.428571 -1.000000 -0.180000
v 3.428571 1.000000 -0.180000
v 4.571429 -1.000000 0.000000
v 4.571429 1.000000 0.000000
v 4.571429 -1.000000 -0.180000
v 4.571429 1.000000 -0.180000
v 5.714286 -1.000000 0.000000
v 5.714286 1.000000 0.000000
v 5.714286 -1.000000 -0.180000
v 5.714286 1.000000 -0.180000
v 6.857143 -1.000000 0.000000
v 6.857143 1.000000 0.000000
v 6.857143 -1.000000 -0.180000
v 6.857143 1.000000 -0.180000
v 8.000000 -1.000000 0.000000
v 8.000000 1.000000 0.000000
v 8.000000 -1.000000 -0.180000
v 8.000000 1.000000 -0.180000
v -0.180000 -1.160000 -0.240000
v -0.180000 1.160000 -0.240000
v -0.180000 1.160000 -0.080000
v -0.180000 -1.160000 -0.080000
v 0.180000 -1.160000 -0.240000
v 0.180000 1.160000 -0.240000
v 0.180000 1.160000 -0.080000
v 0.180000 -1.160000 -0.080000
v -0.520000 -0.960000 0.000000
v -0.520000 0.960000 0.000000
v -0.520000 0.960000 0.070000
v -0.520000 -0.960000 0.070000
v 0.520000 -0.960000 0.000000
v 0.520000 0.960000 0.000000
v 0.520000 0.960000 0.070000
v 0.520000 -0.960000 0.070000
v -0.055000 -0.975000 0.000000
v -0.055000 -0.865000 0.000000
v -0.055000 -0.865000 0.720000
v -0.055000 -0.975000 0.720000
v 0.055000 -0.975000 0.000000
v 0.055000 -0.865000 0.000000
v 0.055000 -0.865000 0.720000
v 0.055000 -0.975000 0.720000
v -0.055000 0.865000 0.000000
v -0.055000 0.975000 0.000000
v -0.055000 0.975000 0.720000
v -0.055000 0.865000 0.720000
v 0.055000 0.865000 0.000000
v 0.055000 0.975000 0.000000
v 0.055000 0.975000 0.720000
v 0.055000 0.865000 0.720000
v 1.765714 -0.960000 0.000000
v 1.765714 0.960000 0.000000
v 1.765714 0.960000 0.070000
v 1.765714 -0.960000 0.070000
v 2.805714 -0.960000 0.000000
v 2.805714 0.960000 0.000000
v 2.805714 0.960000 0.070000
v 2.805714 -0.960000 0.070000
v 2.230714 -0.975000 0.000000
v 2.230714 -0.865000 0.000000
v 2.230714 -0.865000 0.720000
v 2.230714 -0.975000 0.720000
v 2.340714 -0.975000 0.000000
v 2.340714 -0.865000 0.000000
v 2.340714 -0.865000 0.720000
v 2.340714 -0.975000 0.720000
v 2.230714 0.865000 0.000000
v 2.230714 0.975000 0.000000
v 2.230714 0.975000 0.720000
v 2.230714 0.865000 0.720000
v 2.340714 0.865000 0.000000
v 2.340714 0.975000 0.000000
v 2.340714 0.975000 0.720000
v 2.340714 0.865000 0.720000
v 4.051429 -0.960000 0.000000
v 4.051429 0.960000 0.000000
v 4.051429 0.960000 0.070000
v 4.051429 -0.960000 0.070000
v 5.091429 -0.960000 0.000000
v 5.091429 0.960000 0.000000
v 5.091429 0.960000 0.070000
v 5.091429 -0.960000 0.070000
v 4.516429 -0.975000 0.000000
v 4.516429 -0.865000 0.000000
v 4.516429 -0.865000 0.720000
v 4.516429 -0.975000 0.720000
v 4.626429 -0.975000 0.000000
v 4.626429 -0.865000 0.000000
v 4.626429 -0.865000 0.720000
v 4.626429 -0.975000 0.720000
v 4.516429 0.865000 0.000000
v 4.516429 0.975000 0.000000
v 4.516429 0.975000 0.720000
v 4.516429 0.865000 0.720000
v 4.626429 0.865000 0.000000
v 4.626429 0.975000 0.000000
v 4.626429 0.975000 0.720000
v 4.626429 0.865000 0.720000
v 6.337143 -0.960000 0.000000
v 6.337143 0.960000 0.000000
v 6.337143 0.960000 0.070000
v 6.337143 -0.960000 0.070000
v 7.377143 -0.960000 0.000000
v 7.377143 0.960000 0.000000
v 7.377143 0.960000 0.070000
v 7.377143 -0.960000 0.070000
v 6.802143 -0.975000 0.000000
v 6.802143 -0.865000 0.000000
v 6.802143 -0.865000 0.720000
v 6.802143 -0.975000 0.720000
v 6.912143 -0.975000 0.000000
v 6.912143 -0.865000 0.000000
v 6.912143 -0.865000 0.720000
v 6.912143 -0.975000 0.720000
v 6.802143 0.865000 0.000000
v 6.802143 0.975000 0.000000
v 6.802143 0.975000 0.720000
v 6.802143 0.865000 0.720000
v 6.912143 0.865000 0.000000
v 6.912143 0.975000 0.000000
v 6.912143 0.975000 0.720000
v 6.912143 0.865000 0.720000
v 7.820000 -1.160000 -0.240000
v 7.820000 1.160000 -0.240000
v 7.820000 1.160000 -0.080000
v 7.820000 -1.160000 -0.080000
v 8.180000 -1.160000 -0.240000
v 8.180000 1.160000 -0.240000
v 8.180000 1.160000 -0.080000
v 8.180000 -1.160000 -0.080000
v 7.480000 -0.960000 0.000000
v 7.480000 0.960000 0.000000
v 7.480000 0.960000 0.070000
v 7.480000 -0.960000 0.070000
v 8.520000 -0.960000 0.000000
v 8.520000 0.960000 0.000000
v 8.520000 0.960000 0.070000
v 8.520000 -0.960000 0.070000
v 7.945000 -0.975000 0.000000
v 7.945000 -0.865000 0.000000
v 7.945000 -0.865000 0.720000
v 7.945000 -0.975000 0.720000
v 8.055000 -0.975000 0.000000
v 8.055000 -0.865000 0.000000
v 8.055000 -0.865000 0.720000
v 8.055000 -0.975000 0.720000
v 7.945000 0.865000 0.000000
v 7.945000 0.975000 0.000000
v 7.945000 0.975000 0.720000
v 7.945000 0.865000 0.720000
v 8.055000 0.865000 0.000000
v 8.055000 0.975000 0.000000
v 8.055000 0.975000 0.720000
v 8.055000 0.865000 0.720000
v 0.000000 -0.865000 0.500000
v 0.000000 -0.975000 0.500000
v 0.000000 -0.975000 0.600000
v 0.000000 -0.865000 0.600000
v 1.142857 -0.865000 0.500000
v 1.142857 -0.975000 0.500000
v 1.142857 -0.975000 0.600000
v 1.142857 -0.865000 0.600000
v 2.285714 -0.865000 0.500000
v 2.285714 -0.975000 0.500000
v 2.285714 -0.975000 0.600000
v 2.285714 -0.865000 0.600000
v 3.428571 -0.865000 0.500000
v 3.428571 -0.975000 0.500000
v 3.428571 -0.975000 0.600000
v 3.428571 -0.865000 0.600000
v 4.571429 -0.865000 0.500000
v 4.571429 -0.975000 0.500000
v 4.571429 -0.975000 0.600000
v 4.571429 -0.865000 0.600000
v 5.714286 -0.865000 0.500000
v 5.714286 -0.975000 0.500000
v 5.714286 -0.975000 0.600000
v 5.714286 -0.865000 0.600000
v 6.857143 -0.865000 0.500000
v 6.857143 -0.975000 0.500000
v 6.857143 -0.975000 0.600000
v 6.857143 -0.865000 0.600000
v 8.000000 -0.865000 0.500000
v 8.000000 -0.975000 0.500000
v 8.000000 -0.975000 0.600000
v 8.000000 -0.865000 0.600000
v 0.000000 -0.855000 0.750000
v 0.000000 -0.985000 0.750000
v 0.000000 -0.985000 0.870000
v 0.000000 -0.855000 0.870000
v 1.142857 -0.855000 0.750000
v 1.142857 -0.985000 0.750000
v 1.142857 -0.985000 0.870000
v 1.142857 -0.855000 0.870000
v 2.285714 -0.855000 0.750000
v 2.285714 -0.985000 0.750000
v 2.285714 -0.985000 0.870000
v 2.285714 -0.855000 0.870000
v 3.428571 -0.855000 0.750000
v 3.428571 -0.985000 0.750000
v 3.428571 -0.985000 0.870000
v 3.428571 -0.855000 0.870000
v 4.571429 -0.855000 0.750000
v 4.571429 -0.985000 0.750000
v 4.571429 -0.985000 0.870000
v 4.571429 -0.855000 0.870000
v 5.714286 -0.855000 0.750000
v 5.714286 -0.985000 0.750000
v 5.714286 -0.985000 0.870000
v 5.714286 -0.855000 0.870000
v 6.857143 -0.855000 0.750000
v 6.857143 -0.985000 0.750000
v 6.857143 -0.985000 0.870000
v 6.857143 -0.855000 0.870000
v 8.000000 -0.855000 0.750000
v 8.000000 -0.985000 0.750000
v 8.000000 -0.985000 0.870000
v 8.000000 -0.855000 0.870000
v 0.000000 0.865000 0.500000
v 0.000000 0.975000 0.500000
v 0.000000 0.975000 0.600000
v 0.000000 0.865000 0.600000
v 1.142857 0.865000 0.500000
v 1.142857 0.975000 0.500000
v 1.142857 0.975000 0.600000
v 1.142857 0.865000 0.600000
v 2.285714 0.865000 0.500000
v 2.285714 0.975000 0.500000
v 2.285714 0.975000 0.600000
v 2.285714 0.865000 0.600000
v 3.428571 0.865000 0.500000
v 3.428571 0.975000 0.500000
v 3.428571 0.975000 0.600000
v 3.428571 0.865000 0.600000
v 4.571429 0.865000 0.500000
v 4.571429 0.975000 0.500000
v 4.571429 0.975000 0.600000
v 4.571429 0.865000 0.600000
v 5.714286 0.865000 0.500000
v 5.714286 0.975000 0.500000
v 5.714286 0.975000 0.600000
v 5.714286 0.865000 0.600000
v 6.857143 0.865000 0.500000
v 6.857143 0.975000 0.500000
v 6.857143 0.975000 0.600000
v 6.857143 0.865000 0.600000
v 8.000000 0.865000 0.500000
v 8.000000 0.975000 0.500000
v 8.000000 0.975000 0.600000
v 8.000000 0.865000 0.600000
v 0.000000 0.855000 0.750000
v 0.000000 0.985000 0.750000
v 0.000000 0.985000 0.870000
v 0.000000 0.855000 0.870000
v 1.142857 0.855000 0.750000
v 1.142857 0.985000 0.750000
v 1.142857 0.985000 0.870000
v 1.142857 0.855000 0.870000
v 2.285714 0.855000 0.750000
v 2.285714 0.985000 0.750000
v 2.285714 0.985000 0.870000
v 2.285714 0.855000 0.870000
v 3.428571 0.855000 0.750000
v 3.428571 0.985000 0.750000
v 3.428571 0.985000 0.870000
v 3.428571 0.855000 0.870000
v 4.571429 0.855000 0.750000
v 4.571429 0.985000 0.750000
v 4.571429 0.985000 0.870000
v 4.571429 0.855000 0.870000
v 5.714286 0.855000 0.750000
v 5.714286 0.985000 0.750000
v 5.714286 0.985000 0.870000
v 5.714286 0.855000 0.870000
v 6.857143 0.855000 0.750000
v 6.857143 0.985000 0.750000
v 6.857143 0.985000 0.870000
v 6.857143 0.855000 0.870000
v 8.000000 0.855000 0.750000
v 8.000000 0.985000 0.750000
v 8.000000 0.985000 0.870000
v 8.000000 0.855000 0.870000
v 0.000000 -0.939000 0.000000
v 0.000000 -1.029000 0.000000
v 0.000000 -1.029000 0.230000
v 0.000000 -0.939000 0.230000
v 1.142857 -0.939000 0.000000
v 1.142857 -1.029000 0.000000
v 1.142857 -1.029000 0.230000
v 1.142857 -0.939000 0.230000
v 2.285714 -0.939000 0.000000
v 2.285714 -1.029000 0.000000
v 2.285714 -1.029000 0.230000
v 2.285714 -0.939000 0.230000
v 3.428571 -0.939000 0.000000
v 3.428571 -1.029000 0.000000
v 3.428571 -1.029000 0.230000
v 3.428571 -0.939000 0.230000
v 4.571429 -0.939000 0.000000
v 4.571429 -1.029000 0.000000
v 4.571429 -1.029000 0.230000
v 4.571429 -0.939000 0.230000
v 5.714286 -0.939000 0.000000
v 5.714286 -1.029000 0.000000
v 5.714286 -1.029000 0.230000
v 5.714286 -0.939000 0.230000
v 6.857143 -0.939000 0.000000
v 6.857143 -1.029000 0.000000
v 6.857143 -1.029000 0.230000
v 6.857143 -0.939000 0.230000
v 8.000000 -0.939000 0.000000
v 8.000000 -1.029000 0.000000
v 8.000000 -1.029000 0.230000
v 8.000000 -0.939000 0.230000
v 0.000000 -0.850000 0.145000
v 0.000000 -0.950000 0.145000
v 0.000000 -0.950000 0.215000
v 0.000000 -0.850000 0.215000
v 1.142857 -0.850000 0.145000
v 1.142857 -0.950000 0.145000
v 1.142857 -0.950000 0.215000
v 1.142857 -0.850000 0.215000
v 2.285714 -0.850000 0.145000
v 2.285714 -0.950000 0.145000
v 2.285714 -0.950000 0.215000
v 2.285714 -0.850000 0.215000
v 3.428571 -0.850000 0.145000
v 3.428571 -0.950000 0.145000
v 3.428571 -0.950000 0.215000
v 3.428571 -0.850000 0.215000
v 4.571429 -0.850000 0.145000
v 4.571429 -0.950000 0.145000
v 4.571429 -0.950000 0.215000
v 4.571429 -0.850000 0.215000
v 5.714286 -0.850000 0.145000
v 5.714286 -0.950000 0.145000
v 5.714286 -0.950000 0.215000
v 5.714286 -0.850000 0.215000
v 6.857143 -0.850000 0.145000
v 6.857143 -0.950000 0.145000
v 6.857143 -0.950000 0.215000
v 6.857143 -0.850000 0.215000
v 8.000000 -0.850000 0.145000
v 8.000000 -0.950000 0.145000
v 8.000000 -0.950000 0.215000
v 8.000000 -0.850000 0.215000
v 0.000000 -0.855000 0.030000
v 0.000000 -0.945000 0.030000
v 0.000000 -0.945000 0.080000
v 0.000000 -0.855000 0.080000
v 1.142857 -0.855000 0.030000
v 1.142857 -0.945000 0.030000
v 1.142857 -0.945000 0.080000
v 1.142857 -0.855000 0.080000
v 2.285714 -0.855000 0.030000
v 2.285714 -0.945000 0.030000
v 2.285714 -0.945000 0.080000
v 2.285714 -0.855000 0.080000
v 3.428571 -0.855000 0.030000
v 3.428571 -0.945000 0.030000
v 3.428571 -0.945000 0.080000
v 3.428571 -0.855000 0.080000
v 4.571429 -0.855000 0.030000
v 4.571429 -0.945000 0.030000
v 4.571429 -0.945000 0.080000
v 4.571429 -0.855000 0.080000
v 5.714286 -0.855000 0.030000
v 5.714286 -0.945000 0.030000
v 5.714286 -0.945000 0.080000
v 5.714286 -0.855000 0.080000
v 6.857143 -0.855000 0.030000
v 6.857143 -0.945000 0.030000
v 6.857143 -0.945000 0.080000
v 6.857143 -0.855000 0.080000
v 8.000000 -0.855000 0.030000
v 8.000000 -0.945000 0.030000
v 8.000000 -0.945000 0.080000
v 8.000000 -0.855000 0.080000
v 0.000000 0.939000 0.000000
v 0.000000 1.029000 0.000000
v 0.000000 1.029000 0.230000
v 0.000000 0.939000 0.230000
v 1.142857 0.939000 0.000000
v 1.142857 1.029000 0.000000
v 1.142857 1.029000 0.230000
v 1.142857 0.939000 0.230000
v 2.285714 0.939000 0.000000
v 2.285714 1.029000 0.000000
v 2.285714 1.029000 0.230000
v 2.285714 0.939000 0.230000
v 3.428571 0.939000 0.000000
v 3.428571 1.029000 0.000000
v 3.428571 1.029000 0.230000
v 3.428571 0.939000 0.230000
v 4.571429 0.939000 0.000000
v 4.571429 1.029000 0.000000
v 4.571429 1.029000 0.230000
v 4.571429 0.939000 0.230000
v 5.714286 0.939000 0.000000
v 5.714286 1.029000 0.000000
v 5.714286 1.029000 0.230000
v 5.714286 0.939000 0.230000
v 6.857143 0.939000 0.000000
v 6.857143 1.029000 0.000000
v 6.857143 1.029000 0.230000
v 6.857143 0.939000 0.230000
v 8.000000 0.939000 0.000000
v 8.000000 1.029000 0.000000
v 8.000000 1.029000 0.230000
v 8.000000 0.939000 0.230000
v 0.000000 0.850000 0.145000
v 0.000000 0.950000 0.145000
v 0.000000 0.950000 0.215000
v 0.000000 0.850000 0.215000
v 1.142857 0.850000 0.145000
v 1.142857 0.950000 0.145000
v 1.142857 0.950000 0.215000
v 1.142857 0.850000 0.215000
v 2.285714 0.850000 0.145000
v 2.285714 0.950000 0.145000
v 2.285714 0.950000 0.215000
v 2.285714 0.850000 0.215000
v 3.428571 0.850000 0.145000
v 3.428571 0.950000 0.145000
v 3.428571 0.950000 0.215000
v 3.428571 0.850000 0.215000
v 4.571429 0.850000 0.145000
v 4.571429 0.950000 0.145000
v 4.571429 0.950000 0.215000
v 4.571429 0.850000 0.215000
v 5.714286 0.850000 0.145000
v 5.714286 0.950000 0.145000
v 5.714286 0.950000 0.215000
v 5.714286 0.850000 0.215000
v 6.857143 0.850000 0.145000
v 6.857143 0.950000 0.145000
v 6.857143 0.950000 0.215000
v 6.857143 0.850000 0.215000
v 8.000000 0.850000 0.145000
v 8.000000 0.950000 0.145000
v 8.000000 0.950000 0.215000
v 8.000000 0.850000 0.215000
v 0.000000 0.855000 0.030000
v 0.000000 0.945000 0.030000
v 0.000000 0.945000 0.080000
v 0.000000 0.855000 0.080000
v 1.142857 0.855000 0.030000
v 1.142857 0.945000 0.030000
v 1.142857 0.945000 0.080000
v 1.142857 0.855000 0.080000
v 2.285714 0.855000 0.030000
v 2.285714 0.945000 0.030000
v 2.285714 0.945000 0.080000
v 2.285714 0.855000 0.080000
v 3.428571 0.855000 0.030000
v 3.428571 0.945000 0.030000
v 3.428571 0.945000 0.080000
v 3.428571 0.855000 0.080000
v 4.571429 0.855000 0.030000
v 4.571429 0.945000 0.030000
v 4.571429 0.945000 0.080000
v 4.571429 0.855000 0.080000
v 5.714286 0.855000 0.030000
v 5.714286 0.945000 0.030000
v 5.714286 0.945000 0.080000
v 5.714286 0.855000 0.080000
v 6.857143 0.855000 0.030000
v 6.857143 0.945000 0.030000
v 6.857143 0.945000 0.080000
v 6.857143 0.855000 0.080000
v 8.000000 0.855000 0.030000
v 8.000000 0.945000 0.030000
v 8.000000 0.945000 0.080000
v 8.000000 0.855000 0.080000
v -0.130000 -1.050000 -0.040000
v -0.130000 -0.790000 -0.040000
v -0.130000 -0.790000 0.920000
v -0.130000 -1.050000 0.920000
v 0.130000 -1.050000 -0.040000
v 0.130000 -0.790000 -0.040000
v 0.130000 -0.790000 0.920000
v 0.130000 -1.050000 0.920000
v -0.170000 -1.090000 0.895000
v -0.170000 -0.750000 0.895000
v -0.170000 -0.750000 1.005000
v -0.170000 -1.090000 1.005000
v 0.170000 -1.090000 0.895000
v 0.170000 -0.750000 0.895000
v 0.170000 -0.750000 1.005000
v 0.170000 -1.090000 1.005000
v -0.130000 0.790000 -0.040000
v -0.130000 1.050000 -0.040000
v -0.130000 1.050000 0.920000
v -0.130000 0.790000 0.920000
v 0.130000 0.790000 -0.040000
v 0.130000 1.050000 -0.040000
v 0.130000 1.050000 0.920000
v 0.130000 0.790000 0.920000
v -0.170000 0.750000 0.895000
v -0.170000 1.090000 0.895000
v -0.170000 1.090000 1.005000
v -0.170000 0.750000 1.005000
v 0.170000 0.750000 0.895000
v 0.170000 1.090000 0.895000
v 0.170000 1.090000 1.005000
v 0.170000 0.750000 1.005000
v 7.870000 -1.050000 -0.040000
v 7.870000 -0.790000 -0.040000
v 7.870000 -0.790000 0.920000
v 7.870000 -1.050000 0.920000
v 8.130000 -1.050000 -0.040000
v 8.130000 -0.790000 -0.040000
v 8.130000 -0.790000 0.920000
v 8.130000 -1.050000 0.920000
v 7.830000 -1.090000 0.895000
v 7.830000 -0.750000 0.895000
v 7.830000 -0.750000 1.005000
v 7.830000 -1.090000 1.005000
v 8.170000 -1.090000 0.895000
v 8.170000 -0.750000 0.895000
v 8.170000 -0.750000 1.005000
v 8.170000 -1.090000 1.005000
v 7.870000 0.790000 -0.040000
v 7.870000 1.050000 -0.040000
v 7.870000 1.050000 0.920000
v 7.870000 0.790000 0.920000
v 8.130000 0.790000 -0.040000
v 8.130000 1.050000 -0.040000
v 8.130000 1.050000 0.920000
v 8.130000 0.790000 0.920000
v 7.830000 0.750000 0.895000
v 7.830000 1.090000 0.895000
v 7.830000 1.090000 1.005000
v 7.830000 0.750000 1.005000
v 8.170000 0.750000 0.895000
v 8.170000 1.090000 0.895000
v 8.170000 1.090000 1.005000
v 8.170000 0.750000 1.005000
v -0.075000 -0.755000 -1.600000
v -0.075000 -0.605000 -1.600000
v -0.075000 -0.605000 -0.200000
v -0.075000 -0.755000 -0.200000
v 0.075000 -0.755000 -1.600000
v 0.075000 -0.605000 -1.600000
v 0.075000 -0.605000 -0.200000
v 0.075000 -0.755000 -0.200000
v -0.075000 0.605000 -1.600000
v -0.075000 0.755000 -1.600000
v -0.075000 0.755000 -0.200000
v -0.075000 0.605000 -0.200000
v 0.075000 0.605000 -1.600000
v 0.075000 0.755000 -1.600000
v 0.075000 0.755000 -0.200000
v 0.075000 0.605000 -0.200000
v 3.353571 -0.755000 -1.600000
v 3.353571 -0.605000 -1.600000
v 3.353571 -0.605000 -0.200000
v 3.353571 -0.755000 -0.200000
v 3.503571 -0.755000 -1.600000
v 3.503571 -0.605000 -1.600000
v 3.503571 -0.605000 -0.200000
v 3.503571 -0.755000 -0.200000
v 3.353571 0.605000 -1.600000
v 3.353571 0.755000 -1.600000
v 3.353571 0.755000 -0.200000
v 3.353571 0.605000 -0.200000
v 3.503571 0.605000 -1.600000
v 3.503571 0.755000 -1.600000
v 3.503571 0.755000 -0.200000
v 3.503571 0.605000 -0.200000
v 6.782143 -0.755000 -1.600000
v 6.782143 -0.605000 -1.600000
v 6.782143 -0.605000 -0.200000
v 6.782143 -0.755000 -0.200000
v 6.932143 -0.755000 -1.600000
v 6.932143 -0.605000 -1.600000
v 6.932143 -0.605000 -0.200000
v 6.932143 -0.755000 -0.200000
v 6.782143 0.605000 -1.600000
v 6.782143 0.755000 -1.600000
v 6.782143 0.755000 -0.200000
v 6.782143 0.605000 -0.200000
v 6.932143 0.605000 -1.600000
v 6.932143 0.755000 -1.600000
v 6.932143 0.755000 -0.200000
v 6.932143 0.605000 -0.200000
v 7.925000 -0.755000 -1.600000
v 7.925000 -0.605000 -1.600000
v 7.925000 -0.605000 -0.200000
v 7.925000 -0.755000 -0.200000
v 8.075000 -0.755000 -1.600000
v 8.075000 -0.605000 -1.600000
v 8.075000 -0.605000 -0.200000
v 8.075000 -0.755000 -0.200000
v 7.925000 0.605000 -1.600000
v 7.925000 0.755000 -1.600000
v 7.925000 0.755000 -0.200000
v 7.925000 0.605000 -0.200000
v 8.075000 0.605000 -1.600000
v 8.075000 0.755000 -1.600000
v 8.075000 0.755000 -0.200000
v 8.075000 0.605000 -0.200000
f 1 5 6 2
f 3 4 8 7
f 1 3 7 5
f 2 6 8 4
f 5 9 10 6
f 7 8 12 11
f 5 7 11 9
f 6 10 12 8
f 9 13 14 10
f 11 12 16 15
f 9 11 15 13
f 10 14 16 12
f 13 17 18 14
f 15 16 20 19
f 13 15 19 17
f 14 18 20 16
f 17 21 22 18
f 19 20 24 23
f 17 19 23 21
f 18 22 24 20
f 21 25 26 22
f 23 24 28 27
f 21 23 27 25
f 22 26 28 24
f 25 29 30 26
f 27 28 32 31
f 25 27 31 29
f 26 30 32 28
f 33 36 35 34
f 37 38 39 40
f 33 34 38 37
f 35 36 40 39
f 33 37 40 36
f 34 35 39 38
f 41 44 43 42
f 45 46 47 48
f 41 42 46 45
f 43 44 48 47
f 41 45 48 44
f 42 43 47 46
f 49 52 51 50
f 53 54 55 56
f 49 50 54 53
f 51 52 56 55
f 49 53 56 52
f 50 51 55 54
f 57 60 59 58
f 61 62 63 64
f 57 58 62 61
f 59 60 64 63
f 57 61 64 60
f 58 59 63 62
f 65 68 67 66
f 69 70 71 72
f 65 66 70 69
f 67 68 72 71
f 65 69 72 68
f 66 67 71 70
f 73 76 75 74
f 77 78 79 80
f 73 74 78 77
f 75 76 80 79
f 73 77 80 76
f 74 75 79 78
f 81 84 83 82
f 85 86 87 88
f 81 82 86 85
f 83 84 88 87
f 81 85 88 84
f 82 83 87 86
f 89 92 91 90
f 93 94 95 96
f 89 90 94 93
f 91 92 96 95
f 89 93 96 92
f 90 91 95 94
f 97 100 99 98
f 101 102 103 104
f 97 98 102 101
f 99 100 104 103
f 97 101 104 100
f 98 99 103 102
f 105 108 107 106
f 109 110 111 112
f 105 106 110 109
f 107 108 112 111
f 105 109 112 108
f 106 107 111 110
f 113 116 115 114
f 117 118 119 120
f 113 114 118 117
f 115 116 120 119
f 113 117 120 116
f 114 115 119 118
f 121 124 123 122
f 125 126 127 128
f 121 122 126 125
f 123 124 128 127
f 121 125 128 124
f 122 123 127 126
f 129 132 131 130
f 133 134 135 136
f 129 130 134 133
f 131 132 136 135
f 129 133 136 132
f 130 131 135 134
f 137 140 139 138
f 141 142 143 144
f 137 138 142 141
f 139 140 144 143
f 137 141 144 140
f 138 139 143 142
f 145 148 147 146
f 149 150 151 152
f 145 146 150 149
f 147 148 152 151
f 145 149 152 148
f 146 147 151 150
f 153 156 155 154
f 157 158 159 160
f 153 154 158 157
f 155 156 160 159
f 153 157 160 156
f 154 155 159 158
f 161 164 163 162
f 165 166 167 168
f 161 162 166 165
f 163 164 168 167
f 161 165 168 164
f 162 163 167 166
f 169 173 174 170
f 170 174 175 171
f 171 175 176 172
f 172 176 173 169
f 173 177 178 174
f 174 178 179 175
f 175 179 180 176
f 176 180 177 173
f 177 181 182 178
f 178 182 183 179
f 179 183 184 180
f 180 184 181 177
f 181 185 186 182
f 182 186 187 183
f 183 187 188 184
f 184 188 185 181
f 185 189 190 186
f 186 190 191 187
f 187 191 192 188
f 188 192 189 185
f 189 193 194 190
f 190 194 195 191
f 191 195 196 192
f 192 196 193 189
f 193 197 198 194
f 194 198 199 195
f 195 199 200 196
f 196 200 197 193
f 201 205 206 202
f 202 206 207 203
f 203 207 208 204
f 204 208 205 201
f 205 209 210 206
f 206 210 211 207
f 207 211 212 208
f 208 212 209 205
f 209 213 214 210
f 210 214 215 211
f 211 215 216 212
f 212 216 213 209
f 213 217 218 214
f 214 218 219 215
f 215 219 220 216
f 216 220 217 213
f 217 221 222 218
f 218 222 223 219
f 219 223 224 220
f 220 224 221 217
f 221 225 226 222
f 222 226 227 223
f 223 227 228 224
f 224 228 225 221
f 225 229 230 226
f 226 230 231 227
f 227 231 232 228
f 228 232 229 225
f 233 237 238 234
f 234 238 239 235
f 235 239 240 236
f 236 240 237 233
f 237 241 242 238
f 238 242 243 239
f 239 243 244 240
f 240 244 241 237
f 241 245 246 242
f 242 246 247 243
f 243 247 248 244
f 244 248 245 241
f 245 249 250 246
f 246 250 251 247
f 247 251 252 248
f 248 252 249 245
f 249 253 254 250
f 250 254 255 251
f 251 255 256 252
f 252 256 253 249
f 253 257 258 254
f 254 258 259 255
f 255 259 260 256
f 256 260 257 253
f 257 261 262 258
f 258 262 263 259
f 259 263 264 260
f 260 264 261 257
f 265 269 270 266
f 266 270 271 267
f 267 271 272 268
f 268 272 269 265
f 269 273 274 270
f 270 274 275 271
f 271 275 276 272
f 272 276 273 269
f 273 277 278 274
f 274 278 279 275
f 275 279 280 276
f 276 280 277 273
f 277 281 282 278
f 278 282 283 279
f 279 283 284 280
f 280 284 281 277
f 281 285 286 282
f 282 286 287 283
f 283 287 288 284
f 284 288 285 281
f 285 289 290 286
f 286 290 291 287
f 287 291 292 288
f 288 292 289 285
f 289 293 294 290
f 290 294 295 291
f 291 295 296 292
f 292 296 293 289
f 297 301 302 298
f 298 302 303 299
f 299 303 304 300
f 300 304 301 297
f 301 305 306 302
f 302 306 307 303
f 303 307 308 304
f 304 308 305 301
f 305 309 310 306
f 306 310 311 307
f 307 311 312 308
f 308 312 309 305
f 309 313 314 310
f 310 314 315 311
f 311 315 316 312
f 312 316 313 309
f 313 317 318 314
f 314 318 319 315
f 315 319 320 316
f 316 320 317 313
f 317 321 322 318
f 318 322 323 319
f 319 323 324 320
f 320 324 321 317
f 321 325 326 322
f 322 326 327 323
f 323 327 328 324
f 324 328 325 321
f 329 333 334 330
f 330 334 335 331
f 331 335 336 332
f 332 336 333 329
f 333 337 338 334
f 334 338 339 335
f 335 339 340 336
f 336 340 337 333
f 337 341 342 338
f 338 342 343 339
f 339 343 344 340
f 340 344 341 337
f 341 345 346 342
f 342 346 347 343
f 343 347 348 344
f 344 348 345 341
f 345 349 350 346
f 346 350 351 347
f 347 351 352 348
f 348 352 349 345
f 349 353 354 350
f 350 354 355 351
f 351 355 356 352
f 352 356 353 349
f 353 357 358 354
f 354 358 359 355
f 355 359 360 356
f 356 360 357 353
f 361 365 366 362
f 362 366 367 363
f 363 367 368 364
f 364 368 365 361
f 365 369 370 366
f 366 370 371 367
f 367 371 372 368
f 368 372 369 365
f 369 373 374 370
f 370 374 375 371
f 371 375 376 372
f 372 376 373 369
f 373 377 378 374
f 374 378 379 375
f 375 379 380 376
f 376 380 377 373
f 377 381 382 378
f 378 382 383 379
f 379 383 384 380
f 380 384 381 377
f 381 385 386 382
f 382 386 387 383
f 383 387 388 384
f 384 388 385 381
f 385 389 390 386
f 386 390 391 387
f 387 391 392 388
f 388 392 389 385
f 393 397 398 394
f 394 398 399 395
f 395 399 400 396
f 396 400 397 393
f 397 401 402 398
f 398 402 403 399
f 399 403 404 400
f 400 404 401 397
f 401 405 406 402
f 402 406 407 403
f 403 407 408 404
f 404 408 405 401
f 405 409 410 406
f 406 410 411 407
f 407 411 412 408
f 408 412 409 405
f 409 413 414 410
f 410 414 415 411
f 411 415 416 412
f 412 416 413 409
f 413 417 418 414
f 414 418 419 415
f 415 419 420 416
f 416 420 417 413
f 417 421 422 418
f 418 422 423 419
f 419 423 424 420
f 420 424 421 417
f 425 429 430 426
f 426 430 431 427
f 427 431 432 428
f 428 432 429 425
f 429 433 434 430
f 430 434 435 431
f 431 435 436 432
f 432 436 433 429
f 433 437 438 434
f 434 438 439 435
f 435 439 440 436
f 436 440 437 433
f 437 441 442 438
f 438 442 443 439
f 439 443 444 440
f 440 444 441 437
f 441 445 446 442
f 442 446 447 443
f 443 447 448 444
f 444 448 445 441
f 445 449 450 446
f 446 450 451 447
f 447 451 452 448
f 448 452 449 445
f 449 453 454 450
f 450 454 455 451
f 451 455 456 452
f 452 456 453 449
f 457 461 462 458
f 458 462 463 459
f 459 463 464 460
f 460 464 461 457
f 461 465 466 462
f 462 466 467 463
f 463 467 468 464
f 464 468 465 461
f 465 469 470 466
f 466 470 471 467
f 467 471 472 468
f 468 472 469 465
f 469 473 474 470
f 470 474 475 471
f 471 475 476 472
f 472 476 473 469
f 473 477 478 474
f 474 478 479 475
f 475 479 480 476
f 476 480 477 473
f 477 481 482 478
f 478 482 483 479
f 479 483 484 480
f 480 484 481 477
f 481 485 486 482
f 482 486 487 483
f 483 487 488 484
f 484 488 485 481
f 489 492 491 490
f 493 494 495 496
f 489 490 494 493
f 491 492 496 495
f 489 493 496 492
f 490 491 495 494
f 497 500 499 498
f 501 502 503 504
f 497 498 502 501
f 499 500 504 503
f 497 501 504 500
f 498 499 503 502
f 505 508 507 506
f 509 510 511 512
f 505 506 510 509
f 507 508 512 511
f 505 509 512 508
f 506 507 511 510
f 513 516 515 514
f 517 518 519 520
f 513 514 518 517
f 515 516 520 519
f 513 517 520 516
f 514 515 519 518
f 521 524 523 522
f 525 526 527 528
f 521 522 526 525
f 523 524 528 527
f 521 525 528 524
f 522 523 527 526
f 529 532 531 530
f 533 534 535 536
f 529 530 534 533
f 531 532 536 535
f 529 533 536 532
f 530 531 535 534
f 537 540 539 538
f 541 542 543 544
f 537 538 542 541
f 539 540 544 543
f 537 541 544 540
f 538 539 543 542
f 545 548 547 546
f 549 550 551 552
f 545 546 550 549
f 547 548 552 551
f 545 549 552 548
f 546 547 551 550
f 553 556 555 554
f 557 558 559 560
f 553 554 558 557
f 555 556 560 559
f 553 557 560 556
f 554 555 559 558
f 561 564 563 562
f 565 566 567 568
f 561 562 566 565
f 563 564 568 567
f 561 565 568 564
f 562 563 567 566
f 569 572 571 570
f 573 574 575 576
f 569 570 574 573
f 571 572 576 575
f 569 573 576 572
f 570 571 575 574
f 577 580 579 578
f 581 582 583 584
f 577 578 582 581
f 579 580 584 583
f 577 581 584 580
f 578 579 583 582
f 585 588 587 586
f 589 590 591 592
f 585 586 590 589
f 587 588 592 591
f 585 589 592 588
f 586 587 591 590
f 593 596 595 594
f 597 598 599 600
f 593 594 598 597
f 595 596 600 599
f 593 597 600 596
f 594 595 599 598
f 601 604 603 602
f 605 606 607 608
f 601 602 606 605
f 603 604 608 607
f 601 605 608 604
f 602 603 607 606
f 609 612 611 610
f 613 614 615 616
f 609 610 614 613
f 611 612 616 615
f 609 613 616 612
f 610 611 615 614
