v 0.000000 -1.200000 0.000000
v 0.000000 1.200000 0.000000
v 0.000000 -1.200000 -0.180000
v 0.000000 1.200000 -0.180000
v 1.100000 -1.200000 0.000000
v 1.100000 1.200000 0.000000
v 1.100000 -1.200000 -0.180000
v 1.100000 1.200000 -0.180000
v 2.200000 -1.200000 0.000000
v 2.200000 1.200000 0.000000
v 2.200000 -1.200000 -0.180000
v 2.200000 1.200000 -0.180000
v 3.300000 -1.200000 0.000000
v 3.300000 1.200000 0.000000
v 3.300000 -1.200000 -0.180000
v 3.300000 1.200000 -0.180000
v 4.400000 -1.200000 0.000000
v 4.400000 1.200000 0.000000
v 4.400000 -1.200000 -0.180000
v 4.400000 1.200000 -0.180000
v 5.500000 -1.200000 0.000000
v 5.500000 1.200000 0.000000
v 5.500000 -1.200000 -0.180000
v 5.500000 1.200000 -0.180000
v 6.600000 -1.200000 0.000000
v 6.600000 1.200000 0.000000
v 6.600000 -1.200000 -0.180000
v 6.600000 1.200000 -0.180000
v 7.700000 -1.200000 0.000000
v 7.700000 1.200000 0.000000
v 7.700000 -1.200000 -0.180000
v 7.700000 1.200000 -0.180000
v 8.800000 -1.200000 0.000000
v 8.800000 1.200000 0.000000
v 8.800000 -1.200000 -0.180000
v 8.800000 1.200000 -0.180000
v 9.900000 -1.200000 0.000000
v 9.900000 1.200000 0.000000
v 9.900000 -1.200000 -0.180000
v 9.900000 1.200000 -0.180000
v 11.000000 -1.200000 0.000000
v 11.000000 1.200000 0.000000
v 11.000000 -1.200000 -0.180000
v 11.000000 1.200000 -0.180000
v 12.100000 -1.200000 0.000000
v 12.100000 1.200000 0.000000
v 12.100000 -1.200000 -0.180000
v 12.100000 1.200000 -0.180000
v 13.200000 -1.200000 0.000000
v 13.200000 1.200000 0.000000
v 13.200000 -1.200000 -0.180000
v 13.200000 1.200000 -0.180000
v 14.300000 -1.200000 0.000000
v 14.300000 1.200000 0.000000
v 14.300000 -1.200000 -0.180000
v 14.300000 1.200000 -0.180000
v 15.400000 -1.200000 0.000000
v 15.400000 1.200000 0.000000
v 15.400000 -1.200000 -0.180000
v 15.400000 1.200000 -0.180000
v 16.500000 -1.200000 0.000000
v 16.500000 1.200000 0.000000
v 16.500000 -1.200000 -0.180000
v 16.500000 1.200000 -0.180000
v 17.600000 -1.200000 0.000000
v 17.600000 1.200000 0.000000
v 17.600000 -1.200000 -0.180000
v 17.600000 1.200000 -0.180000
v 18.700000 -1.200000 0.000000
v 18.700000 1.200000 0.000000
v 18.700000 -1.200000 -0.180000
v 18.700000 1.200000 -0.180000
v 19.800000 -1.200000 0.000000
v 19.800000 1.200000 0.000000
v 19.800000 -1.200000 -0.180000
v 19.800000 1.200000 -0.180000
v 20.900000 -1.200000 0.000000
v 20.900000 1.200000 0.000000
v 20.900000 -1.200000 -0.180000
v 20.900000 1.200000 -0.180000
v 22.000000 -1.200000 0.000000
v 22.000000 1.200000 0.000000
v 22.000000 -1.200000 -0.180000
v 22.000000 1.200000 -0.180000
v -0.180000 -1.392000 -0.240000
v -0.180000 1.392000 -0.240000
v -0.180000 1.392000 -0.080000
v -0.180000 -1.392000 -0.080000
v 0.180000 -1.392000 -0.240000
v 0.180000 1.392000 -0.240000
v 0.180000 1.392000 -0.080000
v 0.180000 -1.392000 -0.080000
v -0.520000 -1.152000 0.000000
v -0.520000 1.152000 0.000000
v -0.520000 1.152000 0.070000
v -0.520000 -1.152000 0.070000
v 0.520000 -1.152000 0.000000
v 0.520000 1.152000 0.000000
v 0.520000 1.152000 0.070000
v 0.520000 -1.152000 0.070000
v -0.055000 -1.159000 0.000000
v -0.055000 -1.049000 0.000000
v -0.055000 -1.049000 0.720000
v -0.055000 -1.159000 0.720000
v 0.055000 -1.159000 0.000000
v 0.055000 -1.049000 0.000000
v 0.055000 -1.049000 0.720000
v 0.055000 -1.159000 0.720000
v -0.055000 1.049000 0.000000
v -0.055000 1.159000 0.000000
v -0.055000 1.159000 0.720000
v -0.055000 1.049000 0.720000
v 0.055000 1.049000 0.000000
v 0.055000 1.159000 0.000000
v 0.055000 1.159000 0.720000
v 0.055000 1.049000 0.720000
v 1.680000 -1.152000 0.000000
v 1.680000 1.152000 0.000000
v 1.680000 1.152000 0.070000
v 1.680000 -1.152000 0.070000
v 2.720000 -1.152000 0.000000
v 2.720000 1.152000 0.000000
v 2.720000 1.152000 0.070000
v 2.720000 -1.152000 0.070000
v 2.145000 -1.159000 0.000000
v 2.145000 -1.049000 0.000000
v 2.145000 -1.049000 0.720000
v 2.145000 -1.159000 0.720000
v 2.255000 -1.159000 0.000000
v 2.255000 -1.049000 0.000000
v 2.255000 -1.049000 0.720000
v 2.255000 -1.159000 0.720000
v 2.145000 1.049000 0.000000
v 2.145000 1.159000 0.000000
v 2.145000 1.159000 0.720000
v 2.145000 1.049000 0.720000
v 2.255000 1.049000 0.000000
v 2.255000 1.159000 0.000000
v 2.255000 1.159000 0.720000
v 2.255000 1.049000 0.720000
v 3.880000 -1.152000 0.000000
v 3.880000 1.152000 0.000000
v 3.880000 1.152000 0.070000
v 3.880000 -1.152000 0.070000
v 4.920000 -1.152000 0.000000
v 4.920000 1.152000 0.000000
v 4.920000 1.152000 0.070000
v 4.920000 -1.152000 0.070000
v 4.345000 -1.159000 0.000000
v 4.345000 -1.049000 0.000000
v 4.345000 -1.049000 0.720000
v 4.345000 -1.159000 0.720000
v 4.455000 -1.159000 0.000000
v 4.455000 -1.049000 0.000000
v 4.455000 -1.049000 0.720000
v 4.455000 -1.159000 0.720000
v 4.345000 1.049000 0.000000
v 4.345000 1.159000 0.000000
v 4.345000 1.159000 0.720000
v 4.345000 1.049000 0.720000
v 4.455000 1.049000 0.000000
v 4.455000 1.159000 0.000000
v 4.455000 1.159000 0.720000
v 4.455000 1.049000 0.720000
v 6.080000 -1.152000 0.000000
v 6.080000 1.152000 0.000000
v 6.080000 1.152000 0.070000
v 6.080000 -1.152000 0.070000
v 7.120000 -1.152000 0.000000
v 7.120000 1.152000 0.000000
v 7.120000 1.152000 0.070000
v 7.120000 -1.152000 0.070000
v 6.545000 -1.159000 0.000000
v 6.545000 -1.049000 0.000000
v 6.545000 -1.049000 0.720000
v 6.545000 -1.159000 0.720000
v 6.655000 -1.159000 0.000000
v 6.655000 -1.049000 0.000000
v 6.655000 -1.049000 0.720000
v 6.655000 -1.159000 0.720000
v 6.545000 1.049000 0.000000
v 6.545000 1.159000 0.000000
v 6.545000 1.159000 0.720000
v 6.545000 1.049000 0.720000
v 6.655000 1.049000 0.000000
v 6.655000 1.159000 0.000000
v 6.655000 1.159000 0.720000
v 6.655000 1.049000 0.720000
v 8.280000 -1.152000 0.000000
v 8.280000 1.152000 0.000000
v 8.280000 1.152000 0.070000
v 8.280000 -1.152000 0.070000
v 9.320000 -1.152000 0.000000
v 9.320000 1.152000 0.000000
v 9.320000 1.152000 0.070000
v 9.320000 -1.152000 0.070000
v 8.745000 -1.159000 0.000000
v 8.745000 -1.049000 0.000000
v 8.745000 -1.049000 0.720000
v 8.745000 -1.159000 0.720000
v 8.855000 -1.159000 0.000000
v 8.855000 -1.049000 0.000000
v 8.855000 -1.049000 0.720000
v 8.855000 -1.159000 0.720000
v 8.745000 1.049000 0.000000
v 8.745000 1.159000 0.000000
v 8.745000 1.159000 0.720000
v 8.745000 1.049000 0.720000
v 8.855000 1.049000 0.000000
v 8.855000 1.159000 0.000000
v 8.855000 1.159000 0.720000
v 8.855000 1.049000 0.720000
v 10.480000 -1.152000 0.000000
v 10.480000 1.152000 0.000000
v 10.480000 1.152000 0.070000
v 10.480000 -1.152000 0.070000
v 11.520000 -1.152000 0.000000
v 11.520000 1.152000 0.000000
v 11.520000 1.152000 0.070000
v 11.520000 -1.152000 0.070000
v 10.945000 -1.159000 0.000000
v 10.945000 -1.049000 0.000000
v 10.945000 -1.049000 0.720000
v 10.945000 -1.159000 0.720000
v 11.055000 -1.159000 0.000000
v 11.055000 -1.049000 0.000000
v 11.055000 -1.049000 0.720000
v 11.055000 -1.159000 0.720000
v 10.945000 1.049000 0.000000
v 10.945000 1.159000 0.000000
v 10.945000 1.159000 0.720000
v 10.945000 1.049000 0.720000
v 11.055000 1.049000 0.000000
v 11.055000 1.159000 0.000000
v 11.055000 1.159000 0.720000
v 11.055000 1.049000 0.720000
v 12.680000 -1.152000 0.000000
v 12.680000 1.152000 0.000000
v 12.680000 1.152000 0.070000
v 12.680000 -1.152000 0.070000
v 13.720000 -1.152000 0.000000
v 13.720000 1.152000 0.000000
v 13.720000 1.152000 0.070000
v 13.720000 -1.152000 0.070000
v 13.145000 -1.159000 0.000000
v 13.145000 -1.049000 0.000000
v 13.145000 -1.049000 0.720000
v 13.145000 -1.159000 0.720000
v 13.255000 -1.159000 0.000000
v 13.255000 -1.049000 0.000000
v 13.255000 -1.049000 0.720000
v 13.255000 -1.159000 0.720000
v 13.145000 1.049000 0.000000
v 13.145000 1.159000 0.000000
v 13.145000 1.159000 0.720000
v 13.145000 1.049000 0.720000
v 13.255000 1.049000 0.000000
v 13.255000 1.159000 0.000000
v 13.255000 1.159000 0.720000
v 13.255000 1.049000 0.720000
v 14.880000 -1.152000 0.000000
v 14.880000 1.152000 0.000000
v 14.880000 1.152000 0.070000
v 14.880000 -1.152000 0.070000
v 15.920000 -1.152000 0.000000
v 15.920000 1.152000 0.000000
v 15.920000 1.152000 0.070000
v 15.920000 -1.152000 0.070000
v 15.345000 -1.159000 0.000000
v 15.345000 -1.049000 0.000000
v 15.345000 -1.049000 0.720000
v 15.345000 -1.159000 0.720000
v 15.455000 -1.159000 0.000000
v 15.455000 -1.049000 0.000000
v 15.455000 -1.049000 0.720000
v 15.455000 -1.159000 0.720000
v 15.345000 1.049000 0.000000
v 15.345000 1.159000 0.000000
v 15.345000 1.159000 0.720000
v 15.345000 1.049000 0.720000
v 15.455000 1.049000 0.000000
v 15.455000 1.159000 0.000000
v 15.455000 1.159000 0.720000
v 15.455000 1.049000 0.720000
v 17.080000 -1.152000 0.000000
v 17.080000 1.152000 0.000000
v 17.080000 1.152000 0.070000
v 17.080000 -1.152000 0.070000
v 18.120000 -1.152000 0.000000
v 18.120000 1.152000 0.000000
v 18.120000 1.152000 0.070000
v 18.120000 -1.152000 0.070000
v 17.545000 -1.159000 0.000000
v 17.545000 -1.049000 0.000000
v 17.545000 -1.049000 0.720000
v 17.545000 -1.159000 0.720000
v 17.655000 -1.159000 0.000000
v 17.655000 -1.049000 0.000000
v 17.655000 -1.049000 0.720000
v 17.655000 -1.159000 0.720000
v 17.545000 1.049000 0.000000
v 17.545000 1.159000 0.000000
v 17.545000 1.159000 0.720000
v 17.545000 1.049000 0.720000
v 17.655000 1.049000 0.000000
v 17.655000 1.159000 0.000000
v 17.655000 1.159000 0.720000
v 17.655000 1.049000 0.720000
v 19.280000 -1.152000 0.000000
v 19.280000 1.152000 0.000000
v 19.280000 1.152000 0.070000
v 19.280000 -1.152000 0.070000
v 20.320000 -1.152000 0.000000
v 20.320000 1.152000 0.000000
v 20.320000 1.152000 0.070000
v 20.320000 -1.152000 0.070000
v 19.745000 -1.159000 0.000000
v 19.745000 -1.049000 0.000000
v 19.745000 -1.049000 0.720000
v 19.745000 -1.159000 0.720000
v 19.855000 -1.159000 0.000000
v 19.855000 -1.049000 0.000000
v 19.855000 -1.049000 0.720000
v 19.855000 -1.159000 0.720000
v 19.745000 1.049000 0.000000
v 19.745000 1.159000 0.000000
v 19.745000 1.159000 0.720000
v 19.745000 1.049000 0.720000
v 19.855000 1.049000 0.000000
v 19.855000 1.159000 0.000000
v 19.855000 1.159000 0.720000
v 19.855000 1.049000 0.720000
v 21.820000 -1.392000 -0.240000
v 21.820000 1.392000 -0.240000
v 21.820000 1.392000 -0.080000
v 21.820000 -1.392000 -0.080000
v 22.180000 -1.392000 -0.240000
v 22.180000 1.392000 -0.240000
v 22.180000 1.392000 -0.080000
v 22.180000 -1.392000 -0.080000
v 21.480000 -1.152000 0.000000
v 21.480000 1.152000 0.000000
v 21.480000 1.152000 0.070000
v 21.480000 -1.152000 0.070000
v 22.520000 -1.152000 0.000000
v 22.520000 1.152000 0.000000
v 22.520000 1.152000 0.070000
v 22.520000 -1.152000 0.070000
v 21.945000 -1.159000 0.000000
v 21.945000 -1.049000 0.000000
v 21.945000 -1.049000 0.720000
v 21.945000 -1.159000 0.720000
v 22.055000 -1.159000 0.000000
v 22.055000 -1.049000 0.000000
v 22.055000 -1.049000 0.720000
v 22.055000 -1.159000 0.720000
v 21.945000 1.049000 0.000000
v 21.945000 1.159000 0.000000
v 21.945000 1.159000 0.720000
v 21.945000 1.049000 0.720000
v 22.055000 1.049000 0.000000
v 22.055000 1.159000 0.000000
v 22.055000 1.159000 0.720000
v 22.055000 1.049000 0.720000
v 0.000000 -1.049000 0.500000
v 0.000000 -1.159000 0.500000
v 0.000000 -1.159000 0.600000
v 0.000000 -1.049000 0.600000
v 1.100000 -1.049000 0.500000
v 1.100000 -1.159000 0.500000
v 1.100000 -1.159000 0.600000
v 1.100000 -1.049000 0.600000
v 2.200000 -1.049000 0.500000
v 2.200000 -1.159000 0.500000
v 2.200000 -1.159000 0.600000
v 2.200000 -1.049000 0.600000
v 3.300000 -1.049000 0.500000
v 3.300000 -1.159000 0.500000
v 3.300000 -1.159000 0.600000
v 3.300000 -1.049000 0.600000
v 4.400000 -1.049000 0.500000
v 4.400000 -1.159000 0.500000
v 4.400000 -1.159000 0.600000
v 4.400000 -1.049000 0.600000
v 5.500000 -1.049000 0.500000
v 5.500000 -1.159000 0.500000
v 5.500000 -1.159000 0.600000
v 5.500000 -1.049000 0.600000
v 6.600000 -1.049000 0.500000
v 6.600000 -1.159000 0.500000
v 6.600000 -1.159000 0.600000
v 6.600000 -1.049000 0.600000
v 7.700000 -1.049000 0.500000
v 7.700000 -1.159000 0.500000
v 7.700000 -1.159000 0.600000
v 7.700000 -1.049000 0.600000
v 8.800000 -1.049000 0.500000
v 8.800000 -1.159000 0.500000
v 8.800000 -1.159000 0.600000
v 8.800000 -1.049000 0.600000
v 9.900000 -1.049000 0.500000
v 9.900000 -1.159000 0.500000
v 9.900000 -1.159000 0.600000
v 9.900000 -1.049000 0.600000
v 11.000000 -1.049000 0.500000
v 11.000000 -1.159000 0.500000
v 11.000000 -1.159000 0.600000
v 11.000000 -1.049000 0.600000
v 12.100000 -1.049000 0.500000
v 12.100000 -1.159000 0.500000
v 12.100000 -1.159000 0.600000
v 12.100000 -1.049000 0.600000
v 13.200000 -1.049000 0.500000
v 13.200000 -1.159000 0.500000
v 13.200000 -1.159000 0.600000
v 13.200000 -1.049000 0.600000
v 14.300000 -1.049000 0.500000
v 14.300000 -1.159000 0.500000
v 14.300000 -1.159000 0.600000
v 14.300000 -1.049000 0.600000
v 15.400000 -1.049000 0.500000
v 15.400000 -1.159000 0.500000
v 15.400000 -1.159000 0.600000
v 15.400000 -1.049000 0.600000
v 16.500000 -1.049000 0.500000
v 16.500000 -1.159000 0.500000
v 16.500000 -1.159000 0.600000
v 16.500000 -1.049000 0.600000
v 17.600000 -1.049000 0.500000
v 17.600000 -1.159000 0.500000
v 17.600000 -1.159000 0.600000
v 17.600000 -1.049000 0.600000
v 18.700000 -1.049000 0.500000
v 18.700000 -1.159000 0.500000
v 18.700000 -1.159000 0.600000
v 18.700000 -1.049000 0.600000
v 19.800000 -1.049000 0.500000
v 19.800000 -1.159000 0.500000
v 19.800000 -1.159000 0.600000
v 19.800000 -1.049000 0.600000
v 20.900000 -1.049000 0.500000
v 20.900000 -1.159000 0.500000
v 20.900000 -1.159000 0.600000
v 20.900000 -1.049000 0.600000
v 22.000000 -1.049000 0.500000
v 22.000000 -1.159000 0.500000
v 22.000000 -1.159000 0.600000
v 22.000000 -1.049000 0.600000
v 0.000000 -1.039000 0.750000
v 0.000000 -1.169000 0.750000
v 0.000000 -1.169000 0.870000
v 0.000000 -1.039000 0.870000
v 1.100000 -1.039000 0.750000
v 1.100000 -1.169000 0.750000
v 1.100000 -1.169000 0.870000
v 1.100000 -1.039000 0.870000
v 2.200000 -1.039000 0.750000
v 2.200000 -1.169000 0.750000
v 2.200000 -1.169000 0.870000
v 2.200000 -1.039000 0.870000
v 3.300000 -1.039000 0.750000
v 3.300000 -1.169000 0.750000
v 3.300000 -1.169000 0.870000
v 3.300000 -1.039000 0.870000
v 4.400000 -1.039000 0.750000
v 4.400000 -1.169000 0.750000
v 4.400000 -1.169000 0.870000
v 4.400000 -1.039000 0.870000
v 5.500000 -1.039000 0.750000
v 5.500000 -1.169000 0.750000
v 5.500000 -1.169000 0.870000
v 5.500000 -1.039000 0.870000
v 6.600000 -1.039000 0.750000
v 6.600000 -1.169000 0.750000
v 6.600000 -1.169000 0.870000
v 6.600000 -1.039000 0.870000
v 7.700000 -1.039000 0.750000
v 7.700000 -1.169000 0.750000
v 7.700000 -1.169000 0.870000
v 7.700000 -1.039000 0.870000
v 8.800000 -1.039000 0.750000
v 8.800000 -1.169000 0.750000
v 8.800000 -1.169000 0.870000
v 8.800000 -1.039000 0.870000
v 9.900000 -1.039000 0.750000
v 9.900000 -1.169000 0.750000
v 9.900000 -1.169000 0.870000
v 9.900000 -1.039000 0.870000
v 11.000000 -1.039000 0.750000
v 11.000000 -1.169000 0.750000
v 11.000000 -1.169000 0.870000
v 11.000000 -1.039000 0.870000
v 12.100000 -1.039000 0.750000
v 12.100000 -1.169000 0.750000
v 12.100000 -1.169000 0.870000
v 12.100000 -1.039000 0.870000
v 13.200000 -1.039000 0.750000
v 13.200000 -1.169000 0.750000
v 13.200000 -1.169000 0.870000
v 13.200000 -1.039000 0.870000
v 14.300000 -1.039000 0.750000
v 14.300000 -1.169000 0.750000
v 14.300000 -1.169000 0.870000
v 14.300000 -1.039000 0.870000
v 15.400000 -1.039000 0.750000
v 15.400000 -1.169000 0.750000
v 15.400000 -1.169000 0.870000
v 15.400000 -1.039000 0.870000
v 16.500000 -1.039000 0.750000
v 16.500000 -1.169000 0.750000
v 16.500000 -1.169000 0.870000
v 16.500000 -1.039000 0.870000
v 17.600000 -1.039000 0.750000
v 17.600000 -1.169000 0.750000
v 17.600000 -1.169000 0.870000
v 17.600000 -1.039000 0.870000
v 18.700000 -1.039000 0.750000
v 18.700000 -1.169000 0.750000
v 18.700000 -1.169000 0.870000
v 18.700000 -1.039000 0.870000
v 19.800000 -1.039000 0.750000
v 19.800000 -1.169000 0.750000
v 19.800000 -1.169000 0.870000
v 19.800000 -1.039000 0.870000
v 20.900000 -1.039000 0.750000
v 20.900000 -1.169000 0.750000
v 20.900000 -1.169000 0.870000
v 20.900000 -1.039000 0.870000
v 22.000000 -1.039000 0.750000
v 22.000000 -1.169000 0.750000
v 22.000000 -1.169000 0.870000
v 22.000000 -1.039000 0.870000
v 0.000000 1.049000 0.500000
v 0.000000 1.159000 0.500000
v 0.000000 1.159000 0.600000
v 0.000000 1.049000 0.600000
v 1.100000 1.049000 0.500000
v 1.100000 1.159000 0.500000
v 1.100000 1.159000 0.600000
v 1.100000 1.049000 0.600000
v 2.200000 1.049000 0.500000
v 2.200000 1.159000 0.500000
v 2.200000 1.159000 0.600000
v 2.200000 1.049000 0.600000
v 3.300000 1.049000 0.500000
v 3.300000 1.159000 0.500000
v 3.300000 1.159000 0.600000
v 3.300000 1.049000 0.600000
v 4.400000 1.049000 0.500000
v 4.400000 1.159000 0.500000
v 4.400000 1.159000 0.600000
v 4.400000 1.049000 0.600000
v 5.500000 1.049000 0.500000
v 5.500000 1.159000 0.500000
v 5.500000 1.159000 0.600000
v 5.500000 1.049000 0.600000
v 6.600000 1.049000 0.500000
v 6.600000 1.159000 0.500000
v 6.600000 1.159000 0.600000
v 6.600000 1.049000 0.600000
v 7.700000 1.049000 0.500000
v 7.700000 1.159000 0.500000
v 7.700000 1.159000 0.600000
v 7.700000 1.049000 0.600000
v 8.800000 1.049000 0.500000
v 8.800000 1.159000 0.500000
v 8.800000 1.159000 0.600000
v 8.800000 1.049000 0.600000
v 9.900000 1.049000 0.500000
v 9.900000 1.159000 0.500000
v 9.900000 1.159000 0.600000
v 9.900000 1.049000 0.600000
v 11.000000 1.049000 0.500000
v 11.000000 1.159000 0.500000
v 11.000000 1.159000 0.600000
v 11.000000 1.049000 0.600000
v 12.100000 1.049000 0.500000
v 12.100000 1.159000 0.500000
v 12.100000 1.159000 0.600000
v 12.100000 1.049000 0.600000
v 13.200000 1.049000 0.500000
v 13.200000 1.159000 0.500000
v 13.200000 1.159000 0.600000
v 13.200000 1.049000 0.600000
v 14.300000 1.049000 0.500000
v 14.300000 1.159000 0.500000
v 14.300000 1.159000 0.600000
v 14.300000 1.049000 0.600000
v 15.400000 1.049000 0.500000
v 15.400000 1.159000 0.500000
v 15.400000 1.159000 0.600000
v 15.400000 1.049000 0.600000
v 16.500000 1.049000 0.500000
v 16.500000 1.159000 0.500000
v 16.500000 1.159000 0.600000
v 16.500000 1.049000 0.600000
v 17.600000 1.049000 0.500000
v 17.600000 1.159000 0.500000
v 17.600000 1.159000 0.600000
v 17.600000 1.049000 0.600000
v 18.700000 1.049000 0.500000
v 18.700000 1.159000 0.500000
v 18.700000 1.159000 0.600000
v 18.700000 1.049000 0.600000
v 19.800000 1.049000 0.500000
v 19.800000 1.159000 0.500000
v 19.800000 1.159000 0.600000
v 19.800000 1.049000 0.600000
v 20.900000 1.049000 0.500000
v 20.900000 1.159000 0.500000
v 20.900000 1.159000 0.600000
v 20.900000 1.049000 0.600000
v 22.000000 1.049000 0.500000
v 22.000000 1.159000 0.500000
v 22.000000 1.159000 0.600000
v 22.000000 1.049000 0.600000
v 0.000000 1.039000 0.750000
v 0.000000 1.169000 0.750000
v 0.000000 1.169000 0.870000
v 0.000000 1.039000 0.870000
v 1.100000 1.039000 0.750000
v 1.100000 1.169000 0.750000
v 1.100000 1.169000 0.870000
v 1.100000 1.039000 0.870000
v 2.200000 1.039000 0.750000
v 2.200000 1.169000 0.750000
v 2.200000 1.169000 0.870000
v 2.200000 1.039000 0.870000
v 3.300000 1.039000 0.750000
v 3.300000 1.169000 0.750000
v 3.300000 1.169000 0.870000
v 3.300000 1.039000 0.870000
v 4.400000 1.039000 0.750000
v 4.400000 1.169000 0.750000
v 4.400000 1.169000 0.870000
v 4.400000 1.039000 0.870000
v 5.500000 1.039000 0.750000
v 5.500000 1.169000 0.750000
v 5.500000 1.169000 0.870000
v 5.500000 1.039000 0.870000
v 6.600000 1.039000 0.750000
v 6.600000 1.169000 0.750000
v 6.600000 1.169000 0.870000
v 6.600000 1.039000 0.870000
v 7.700000 1.039000 0.750000
v 7.700000 1.169000 0.750000
v 7.700000 1.169000 0.870000
v 7.700000 1.039000 0.870000
v 8.800000 1.039000 0.750000
v 8.800000 1.169000 0.750000
v 8.800000 1.169000 0.870000
v 8.800000 1.039000 0.870000
v 9.900000 1.039000 0.750000
v 9.900000 1.169000 0.750000
v 9.900000 1.169000 0.870000
v 9.900000 1.039000 0.870000
v 11.000000 1.039000 0.750000
v 11.000000 1.169000 0.750000
v 11.000000 1.169000 0.870000
v 11.000000 1.039000 0.870000
v 12.100000 1.039000 0.750000
v 12.100000 1.169000 0.750000
v 12.100000 1.169000 0.870000
v 12.100000 1.039000 0.870000
v 13.200000 1.039000 0.750000
v 13.200000 1.169000 0.750000
v 13.200000 1.169000 0.870000
v 13.200000 1.039000 0.870000
v 14.300000 1.039000 0.750000
v 14.300000 1.169000 0.750000
v 14.300000 1.169000 0.870000
v 14.300000 1.039000 0.870000
v 15.400000 1.039000 0.750000
v 15.400000 1.169000 0.750000
v 15.400000 1.169000 0.870000
v 15.400000 1.039000 0.870000
v 16.500000 1.039000 0.750000
v 16.500000 1.169000 0.750000
v 16.500000 1.169000 0.870000
v 16.500000 1.039000 0.870000
v 17.600000 1.039000 0.750000
v 17.600000 1.169000 0.750000
v 17.600000 1.169000 0.870000
v 17.600000 1.039000 0.870000
v 18.700000 1.039000 0.750000
v 18.700000 1.169000 0.750000
v 18.700000 1.169000 0.870000
v 18.700000 1.039000 0.870000
v 19.800000 1.039000 0.750000
v 19.800000 1.169000 0.750000
v 19.800000 1.169000 0.870000
v 19.800000 1.039000 0.870000
v 20.900000 1.039000 0.750000
v 20.900000 1.169000 0.750000
v 20.900000 1.169000 0.870000
v 20.900000 1.039000 0.870000
v 22.000000 1.039000 0.750000
v 22.000000 1.169000 0.750000
v 22.000000 1.169000 0.870000
v 22.000000 1.039000 0.870000
v 0.000000 -1.135800 0.000000
v 0.000000 -1.225800 0.000000
v 0.000000 -1.225800 0.230000
v 0.000000 -1.135800 0.230000
v 1.100000 -1.135800 0.000000
v 1.100000 -1.225800 0.000000
v 1.100000 -1.225800 0.230000
v 1.100000 -1.135800 0.230000
v 2.200000 -1.135800 0.000000
v 2.200000 -1.225800 0.000000
v 2.200000 -1.225800 0.230000
v 2.200000 -1.135800 0.230000
v 3.300000 -1.135800 0.000000
v 3.300000 -1.225800 0.000000
v 3.300000 -1.225800 0.230000
v 3.300000 -1.135800 0.230000
v 4.400000 -1.135800 0.000000
v 4.400000 -1.225800 0.000000
v 4.400000 -1.225800 0.230000
v 4.400000 -1.135800 0.230000
v 5.500000 -1.135800 0.000000
v 5.500000 -1.225800 0.000000
v 5.500000 -1.225800 0.230000
v 5.500000 -1.135800 0.230000
v 6.600000 -1.135800 0.000000
v 6.600000 -1.225800 0.000000
v 6.600000 -1.225800 0.230000
v 6.600000 -1.135800 0.230000
v 7.700000 -1.135800 0.000000
v 7.700000 -1.225800 0.000000
v 7.700000 -1.225800 0.230000
v 7.700000 -1.135800 0.230000
v 8.800000 -1.135800 0.000000
v 8.800000 -1.225800 0.000000
v 8.800000 -1.225800 0.230000
v 8.800000 -1.135800 0.230000
v 9.900000 -1.135800 0.000000
v 9.900000 -1.225800 0.000000
v 9.900000 -1.225800 0.230000
v 9.900000 -1.135800 0.230000
v 11.000000 -1.135800 0.000000
v 11.000000 -1.225800 0.000000
v 11.000000 -1.225800 0.230000
v 11.000000 -1.135800 0.230000
v 12.100000 -1.135800 0.000000
v 12.100000 -1.225800 0.000000
v 12.100000 -1.225800 0.230000
v 12.100000 -1.135800 0.230000
v 13.200000 -1.135800 0.000000
v 13.200000 -1.225800 0.000000
v 13.200000 -1.225800 0.230000
v 13.200000 -1.135800 0.230000
v 14.300000 -1.135800 0.000000
v 14.300000 -1.225800 0.000000
v 14.300000 -1.225800 0.230000
v 14.300000 -1.135800 0.230000
v 15.400000 -1.135800 0.000000
v 15.400000 -1.225800 0.000000
v 15.400000 -1.225800 0.230000
v 15.400000 -1.135800 0.230000
v 16.500000 -1.135800 0.000000
v 16.500000 -1.225800 0.000000
v 16.500000 -1.225800 0.230000
v 16.500000 -1.135800 0.230000
v 17.600000 -1.135800 0.000000
v 17.600000 -1.225800 0.000000
v 17.600000 -1.225800 0.230000
v 17.600000 -1.135800 0.230000
v 18.700000 -1.135800 0.000000
v 18.700000 -1.225800 0.000000
v 18.700000 -1.225800 0.230000
v 18.700000 -1.135800 0.230000
v 19.800000 -1.135800 0.000000
v 19.800000 -1.225800 0.000000
v 19.800000 -1.225800 0.230000
v 19.800000 -1.135800 0.230000
v 20.900000 -1.135800 0.000000
v 20.900000 -1.225800 0.000000
v 20.900000 -1.225800 0.230000
v 20.900000 -1.135800 0.230000
v 22.000000 -1.135800 0.000000
v 22.000000 -1.225800 0.000000
v 22.000000 -1.225800 0.230000
v 22.000000 -1.135800 0.230000
v 0.000000 -1.030000 0.145000
v 0.000000 -1.130000 0.145000
v 0.000000 -1.130000 0.215000
v 0.000000 -1.030000 0.215000
v 1.100000 -1.030000 0.145000
v 1.100000 -1.130000 0.145000
v 1.100000 -1.130000 0.215000
v 1.100000 -1.030000 0.215000
v 2.200000 -1.030000 0.145000
v 2.200000 -1.130000 0.145000
v 2.200000 -1.130000 0.215000
v 2.200000 -1.030000 0.215000
v 3.300000 -1.030000 0.145000
v 3.300000 -1.130000 0.145000
v 3.300000 -1.130000 0.215000
v 3.300000 -1.030000 0.215000
v 4.400000 -1.030000 0.145000
v 4.400000 -1.130000 0.145000
v 4.400000 -1.130000 0.215000
v 4.400000 -1.030000 0.215000
v 5.500000 -1.030000 0.145000
v 5.500000 -1.130000 0.145000
v 5.500000 -1.130000 0.215000
v 5.500000 -1.030000 0.215000
v 6.600000 -1.030000 0.145000
v 6.600000 -1.130000 0.145000
v 6.600000 -1.130000 0.215000
v 6.600000 -1.030000 0.215000
v 7.700000 -1.030000 0.145000
v 7.700000 -1.130000 0.145000
v 7.700000 -1.130000 0.215000
v 7.700000 -1.030000 0.215000
v 8.800000 -1.030000 0.145000
v 8.800000 -1.130000 0.145000
v 8.800000 -1.130000 0.215000
v 8.800000 -1.030000 0.215000
v 9.900000 -1.030000 0.145000
v 9.900000 -1.130000 0.145000
v 9.900000 -1.130000 0.215000
v 9.900000 -1.030000 0.215000
v 11.000000 -1.030000 0.145000
v 11.000000 -1.130000 0.145000
v 11.000000 -1.130000 0.215000
v 11.000000 -1.030000 0.215000
v 12.100000 -1.030000 0.145000
v 12.100000 -1.130000 0.145000
v 12.100000 -1.130000 0.215000
v 12.100000 -1.030000 0.215000
v 13.200000 -1.030000 0.145000
v 13.200000 -1.130000 0.145000
v 13.200000 -1.130000 0.215000
v 13.200000 -1.030000 0.215000
v 14.300000 -1.030000 0.145000
v 14.300000 -1.130000 0.145000
v 14.300000 -1.130000 0.215000
v 14.300000 -1.030000 0.215000
v 15.400000 -1.030000 0.145000
v 15.400000 -1.130000 0.145000
v 15.400000 -1.130000 0.215000
v 15.400000 -1.030000 0.215000
v 16.500000 -1.030000 0.145000
v 16.500000 -1.130000 0.145000
v 16.500000 -1.130000 0.215000
v 16.500000 -1.030000 0.215000
v 17.600000 -1.030000 0.145000
v 17.600000 -1.130000 0.145000
v 17.600000 -1.130000 0.215000
v 17.600000 -1.030000 0.215000
v 18.700000 -1.030000 0.145000
v 18.700000 -1.130000 0.145000
v 18.700000 -1.130000 0.215000
v 18.700000 -1.030000 0.215000
v 19.800000 -1.030000 0.145000
v 19.800000 -1.130000 0.145000
v 19.800000 -1.130000 0.215000
v 19.800000 -1.030000 0.215000
v 20.900000 -1.030000 0.145000
v 20.900000 -1.130000 0.145000
v 20.900000 -1.130000 0.215000
v 20.900000 -1.030000 0.215000
v 22.000000 -1.030000 0.145000
v 22.000000 -1.130000 0.145000
v 22.000000 -1.130000 0.215000
v 22.000000 -1.030000 0.215000
v 0.000000 -1.035000 0.030000
v 0.000000 -1.125000 0.030000
v 0.000000 -1.125000 0.080000
v 0.000000 -1.035000 0.080000
v 1.100000 -1.035000 0.030000
v 1.100000 -1.125000 0.030000
v 1.100000 -1.125000 0.080000
v 1.100000 -1.035000 0.080000
v 2.200000 -1.035000 0.030000
v 2.200000 -1.125000 0.030000
v 2.200000 -1.125000 0.080000
v 2.200000 -1.035000 0.080000
v 3.300000 -1.035000 0.030000
v 3.300000 -1.125000 0.030000
v 3.300000 -1.125000 0.080000
v 3.300000 -1.035000 0.080000
v 4.400000 -1.035000 0.030000
v 4.400000 -1.125000 0.030000
v 4.400000 -1.125000 0.080000
v 4.400000 -1.035000 0.080000
v 5.500000 -1.035000 0.030000
v 5.500000 -1.125000 0.030000
v 5.500000 -1.125000 0.080000
v 5.500000 -1.035000 0.080000
v 6.600000 -1.035000 0.030000
v 6.600000 -1.125000 0.030000
v 6.600000 -1.125000 0.080000
v 6.600000 -1.035000 0.080000
v 7.700000 -1.035000 0.030000
v 7.700000 -1.125000 0.030000
v 7.700000 -1.125000 0.080000
v 7.700000 -1.035000 0.080000
v 8.800000 -1.035000 0.030000
v 8.800000 -1.125000 0.030000
v 8.800000 -1.125000 0.080000
v 8.800000 -1.035000 0.080000
v 9.900000 -1.035000 0.030000
v 9.900000 -1.125000 0.030000
v 9.900000 -1.125000 0.080000
v 9.900000 -1.035000 0.080000
v 11.000000 -1.035000 0.030000
v 11.000000 -1.125000 0.030000
v 11.000000 -1.125000 0.080000
v 11.000000 -1.035000 0.080000
v 12.100000 -1.035000 0.030000
v 12.100000 -1.125000 0.030000
v 12.100000 -1.125000 0.080000
v 12.100000 -1.035000 0.080000
v 13.200000 -1.035000 0.030000
v 13.200000 -1.125000 0.030000
v 13.200000 -1.125000 0.080000
v 13.200000 -1.035000 0.080000
v 14.300000 -1.035000 0.030000
v 14.300000 -1.125000 0.030000
v 14.300000 -1.125000 0.080000
v 14.300000 -1.035000 0.080000
v 15.400000 -1.035000 0.030000
v 15.400000 -1.125000 0.030000
v 15.400000 -1.125000 0.080000
v 15.400000 -1.035000 0.080000
v 16.500000 -1.035000 0.030000
v 16.500000 -1.125000 0.030000
v 16.500000 -1.125000 0.080000
v 16.500000 -1.035000 0.080000
v 17.600000 -1.035000 0.030000
v 17.600000 -1.125000 0.030000
v 17.600000 -1.125000 0.080000
v 17.600000 -1.035000 0.080000
v 18.700000 -1.035000 0.030000
v 18.700000 -1.125000 0.030000
v 18.700000 -1.125000 0.080000
v 18.700000 -1.035000 0.080000
v 19.800000 -1.035000 0.030000
v 19.800000 -1.125000 0.030000
v 19.800000 -1.125000 0.080000
v 19.800000 -1.035000 0.080000
v 20.900000 -1.035000 0.030000
v 20.900000 -1.125000 0.030000
v 20.900000 -1.125000 0.080000
v 20.900000 -1.035000 0.080000
v 22.000000 -1.035000 0.030000
v 22.000000 -1.125000 0.030000
v 22.000000 -1.125000 0.080000
v 22.000000 -1.035000 0.080000
v 0.000000 1.135800 0.000000
v 0.000000 1.225800 0.000000
v 0.000000 1.225800 0.230000
v 0.000000 1.135800 0.230000
v 1.100000 1.135800 0.000000
v 1.100000 1.225800 0.000000
v 1.100000 1.225800 0.230000
v 1.100000 1.135800 0.230000
v 2.200000 1.135800 0.000000
v 2.200000 1.225800 0.000000
v 2.200000 1.225800 0.230000
v 2.200000 1.135800 0.230000
v 3.300000 1.135800 0.000000
v 3.300000 1.225800 0.000000
v 3.300000 1.225800 0.230000
v 3.300000 1.135800 0.230000
v 4.400000 1.135800 0.000000
v 4.400000 1.225800 0.000000
v 4.400000 1.225800 0.230000
v 4.400000 1.135800 0.230000
v 5.500000 1.135800 0.000000
v 5.500000 1.225800 0.000000
v 5.500000 1.225800 0.230000
v 5.500000 1.135800 0.230000
v 6.600000 1.135800 0.000000
v 6.600000 1.225800 0.000000
v 6.600000 1.225800 0.230000
v 6.600000 1.135800 0.230000
v 7.700000 1.135800 0.000000
v 7.700000 1.225800 0.000000
v 7.700000 1.225800 0.230000
v 7.700000 1.135800 0.230000
v 8.800000 1.135800 0.000000
v 8.800000 1.225800 0.000000
v 8.800000 1.225800 0.230000
v 8.800000 1.135800 0.230000
v 9.900000 1.135800 0.000000
v 9.900000 1.225800 0.000000
v 9.900000 1.225800 0.230000
v 9.900000 1.135800 0.230000
v 11.000000 1.135800 0.000000
v 11.000000 1.225800 0.000000
v 11.000000 1.225800 0.230000
v 11.000000 1.135800 0.230000
v 12.100000 1.135800 0.000000
v 12.100000 1.225800 0.000000
v 12.100000 1.225800 0.230000
v 12.100000 1.135800 0.230000
v 13.200000 1.135800 0.000000
v 13.200000 1.225800 0.000000
v 13.200000 1.225800 0.230000
v 13.200000 1.135800 0.230000
v 14.300000 1.135800 0.000000
v 14.300000 1.225800 0.000000
v 14.300000 1.225800 0.230000
v 14.300000 1.135800 0.230000
v 15.400000 1.135800 0.000000
v 15.400000 1.225800 0.000000
v 15.400000 1.225800 0.230000
v 15.400000 1.135800 0.230000
v 16.500000 1.135800 0.000000
v 16.500000 1.225800 0.000000
v 16.500000 1.225800 0.230000
v 16.500000 1.135800 0.230000
v 17.600000 1.135800 0.000000
v 17.600000 1.225800 0.000000
v 17.600000 1.225800 0.230000
v 17.600000 1.135800 0.230000
v 18.700000 1.135800 0.000000
v 18.700000 1.225800 0.000000
v 18.700000 1.225800 0.230000
v 18.700000 1.135800 0.230000
v 19.800000 1.135800 0.000000
v 19.800000 1.225800 0.000000
v 19.800000 1.225800 0.230000
v 19.800000 1.135800 0.230000
v 20.900000 1.135800 0.000000
v 20.900000 1.225800 0.000000
v 20.900000 1.225800 0.230000
v 20.900000 1.135800 0.230000
v 22.000000 1.135800 0.000000
v 22.000000 1.225800 0.000000
v 22.000000 1.225800 0.230000
v 22.000000 1.135800 0.230000
v 0.000000 1.030000 0.145000
v 0.000000 1.130000 0.145000
v 0.000000 1.130000 0.215000
v 0.000000 1.030000 0.215000
v 1.100000 1.030000 0.145000
v 1.100000 1.130000 0.145000
v 1.100000 1.130000 0.215000
v 1.100000 1.030000 0.215000
v 2.200000 1.030000 0.145000
v 2.200000 1.130000 0.145000
v 2.200000 1.130000 0.215000
v 2.200000 1.030000 0.215000
v 3.300000 1.030000 0.145000
v 3.300000 1.130000 0.145000
v 3.300000 1.130000 0.215000
v 3.300000 1.030000 0.215000
v 4.400000 1.030000 0.145000
v 4.400000 1.130000 0.145000
v 4.400000 1.130000 0.215000
v 4.400000 1.030000 0.215000
v 5.500000 1.030000 0.145000
v 5.500000 1.130000 0.145000
v 5.500000 1.130000 0.215000
v 5.500000 1.030000 0.215000
v 6.600000 1.030000 0.145000
v 6.600000 1.130000 0.145000
v 6.600000 1.130000 0.215000
v 6.600000 1.030000 0.215000
v 7.700000 1.030000 0.145000
v 7.700000 1.130000 0.145000
v 7.700000 1.130000 0.215000
v 7.700000 1.030000 0.215000
v 8.800000 1.030000 0.145000
v 8.800000 1.130000 0.145000
v 8.800000 1.130000 0.215000
v 8.800000 1.030000 0.215000
v 9.900000 1.030000 0.145000
v 9.900000 1.130000 0.145000
v 9.900000 1.130000 0.215000
v 9.900000 1.030000 0.215000
v 11.000000 1.030000 0.145000
v 11.000000 1.130000 0.145000
v 11.000000 1.130000 0.215000
v 11.000000 1.030000 0.215000
v 12.100000 1.030000 0.145000
v 12.100000 1.130000 0.145000
v 12.100000 1.130000 0.215000
v 12.100000 1.030000 0.215000
v 13.200000 1.030000 0.145000
v 13.200000 1.130000 0.145000
v 13.200000 1.130000 0.215000
v 13.200000 1.030000 0.215000
v 14.300000 1.030000 0.145000
v 14.300000 1.130000 0.145000
v 14.300000 1.130000 0.215000
v 14.300000 1.030000 0.215000
v 15.400000 1.030000 0.145000
v 15.400000 1.130000 0.145000
v 15.400000 1.130000 0.215000
v 15.400000 1.030000 0.215000
v 16.500000 1.030000 0.145000
v 16.500000 1.130000 0.145000
v 16.500000 1.130000 0.215000
v 16.500000 1.030000 0.215000
v 17.600000 1.030000 0.145000
v 17.600000 1.130000 0.145000
v 17.600000 1.130000 0.215000
v 17.600000 1.030000 0.215000
v 18.700000 1.030000 0.145000
v 18.700000 1.130000 0.145000
v 18.700000 1.130000 0.215000
v 18.700000 1.030000 0.215000
v 19.800000 1.030000 0.145000
v 19.800000 1.130000 0.145000
v 19.800000 1.130000 0.215000
v 19.800000 1.030000 0.215000
v 20.900000 1.030000 0.145000
v 20.900000 1.130000 0.145000
v 20.900000 1.130000 0.215000
v 20.900000 1.030000 0.215000
v 22.000000 1.030000 0.145000
v 22.000000 1.130000 0.145000
v 22.000000 1.130000 0.215000
v 22.000000 1.030000 0.215000
v 0.000000 1.035000 0.030000
v 0.000000 1.125000 0.030000
v 0.000000 1.125000 0.080000
v 0.000000 1.035000 0.080000
v 1.100000 1.035000 0.030000
v 1.100000 1.125000 0.030000
v 1.100000 1.125000 0.080000
v 1.100000 1.035000 0.080000
v 2.200000 1.035000 0.030000
v 2.200000 1.125000 0.030000
v 2.200000 1.125000 0.080000
v 2.200000 1.035000 0.080000
v 3.300000 1.035000 0.030000
v 3.300000 1.125000 0.030000
v 3.300000 1.125000 0.080000
v 3.300000 1.035000 0.080000
v 4.400000 1.035000 0.030000
v 4.400000 1.125000 0.030000
v 4.400000 1.125000 0.080000
v 4.400000 1.035000 0.080000
v 5.500000 1.035000 0.030000
v 5.500000 1.125000 0.030000
v 5.500000 1.125000 0.080000
v 5.500000 1.035000 0.080000
v 6.600000 1.035000 0.030000
v 6.600000 1.125000 0.030000
v 6.600000 1.125000 0.080000
v 6.600000 1.035000 0.080000
v 7.700000 1.035000 0.030000
v 7.700000 1.125000 0.030000
v 7.700000 1.125000 0.080000
v 7.700000 1.035000 0.080000
v 8.800000 1.035000 0.030000
v 8.800000 1.125000 0.030000
v 8.800000 1.125000 0.080000
v 8.800000 1.035000 0.080000
v 9.900000 1.035000 0.030000
v 9.900000 1.125000 0.030000
v 9.900000 1.125000 0.080000
v 9.900000 1.035000 0.080000
v 11.000000 1.035000 0.030000
v 11.000000 1.125000 0.030000
v 11.000000 1.125000 0.080000
v 11.000000 1.035000 0.080000
v 12.100000 1.035000 0.030000
v 12.100000 1.125000 0.030000
v 12.100000 1.125000 0.080000
v 12.100000 1.035000 0.080000
v 13.200000 1.035000 0.030000
v 13.200000 1.125000 0.030000
v 13.200000 1.125000 0.080000
v 13.200000 1.035000 0.080000
v 14.300000 1.035000 0.030000
v 14.300000 1.125000 0.030000
v 14.300000 1.125000 0.080000
v 14.300000 1.035000 0.080000
v 15.400000 1.035000 0.030000
v 15.400000 1.125000 0.030000
v 15.400000 1.125000 0.080000
v 15.400000 1.035000 0.080000
v 16.500000 1.035000 0.030000
v 16.500000 1.125000 0.030000
v 16.500000 1.125000 0.080000
v 16.500000 1.035000 0.080000
v 17.600000 1.035000 0.030000
v 17.600000 1.125000 0.030000
v 17.600000 1.125000 0.080000
v 17.600000 1.035000 0.080000
v 18.700000 1.035000 0.030000
v 18.700000 1.125000 0.030000
v 18.700000 1.125000 0.080000
v 18.700000 1.035000 0.080000
v 19.800000 1.035000 0.030000
v 19.800000 1.125000 0.030000
v 19.800000 1.125000 0.080000
v 19.800000 1.035000 0.080000
v 20.900000 1.035000 0.030000
v 20.900000 1.125000 0.030000
v 20.900000 1.125000 0.080000
v 20.900000 1.035000 0.080000
v 22.000000 1.035000 0.030000
v 22.000000 1.125000 0.030000
v 22.000000 1.125000 0.080000
v 22.000000 1.035000 0.080000
v -0.130000 -1.234000 -0.040000
v -0.130000 -0.974000 -0.040000
v -0.130000 -0.974000 0.920000
v -0.130000 -1.234000 0.920000
v 0.130000 -1.234000 -0.040000
v 0.130000 -0.974000 -0.040000
v 0.130000 -0.974000 0.920000
v 0.130000 -1.234000 0.920000
v -0.170000 -1.274000 0.895000
v -0.170000 -0.934000 0.895000
v -0.170000 -0.934000 1.005000
v -0.170000 -1.274000 1.005000
v 0.170000 -1.274000 0.895000
v 0.170000 -0.934000 0.895000
v 0.170000 -0.934000 1.005000
v 0.170000 -1.274000 1.005000
v -0.130000 0.974000 -0.040000
v -0.130000 1.234000 -0.040000
v -0.130000 1.234000 0.920000
v -0.130000 0.974000 0.920000
v 0.130000 0.974000 -0.040000
v 0.130000 1.234000 -0.040000
v 0.130000 1.234000 0.920000
v 0.130000 0.974000 0.920000
v -0.170000 0.934000 0.895000
v -0.170000 1.274000 0.895000
v -0.170000 1.274000 1.005000
v -0.170000 0.934000 1.005000
v 0.170000 0.934000 0.895000
v 0.170000 1.274000 0.895000
v 0.170000 1.274000 1.005000
v 0.170000 0.934000 1.005000
v 21.870000 -1.234000 -0.040000
v 21.870000 -0.974000 -0.040000
v 21.870000 -0.974000 0.920000
v 21.870000 -1.234000 0.920000
v 22.130000 -1.234000 -0.040000
v 22.130000 -0.974000 -0.040000
v 22.130000 -0.974000 0.920000
v 22.130000 -1.234000 0.920000
v 21.830000 -1.274000 0.895000
v 21.830000 -0.934000 0.895000
v 21.830000 -0.934000 1.005000
v 21.830000 -1.274000 1.005000
v 22.170000 -1.274000 0.895000
v 22.170000 -0.934000 0.895000
v 22.170000 -0.934000 1.005000
v 22.170000 -1.274000 1.005000
v 21.870000 0.974000 -0.040000
v 21.870000 1.234000 -0.040000
v 21.870000 1.234000 0.920000
v 21.870000 0.974000 0.920000
v 22.130000 0.974000 -0.040000
v 22.130000 1.234000 -0.040000
v 22.130000 1.234000 0.920000
v 22.130000 0.974000 0.920000
v 21.830000 0.934000 0.895000
v 21.830000 1.274000 0.895000
v 21.830000 1.274000 1.005000
v 21.830000 0.934000 1.005000
v 22.170000 0.934000 0.895000
v 22.170000 1.274000 0.895000
v 22.170000 1.274000 1.005000
v 22.170000 0.934000 1.005000
v -0.075000 -0.891000 -1.800000
v -0.075000 -0.741000 -1.800000
v -0.075000 -0.741000 -0.200000
v -0.075000 -0.891000 -0.200000
v 0.075000 -0.891000 -1.800000
v 0.075000 -0.741000 -1.800000
v 0.075000 -0.741000 -0.200000
v 0.075000 -0.891000 -0.200000
v -0.075000 0.741000 -1.800000
v -0.075000 0.891000 -1.800000
v -0.075000 0.891000 -0.200000
v -0.075000 0.741000 -0.200000
v 0.075000 0.741000 -1.800000
v 0.075000 0.891000 -1.800000
v 0.075000 0.891000 -0.200000
v 0.075000 0.741000 -0.200000
v 3.225000 -0.891000 -1.800000
v 3.225000 -0.741000 -1.800000
v 3.225000 -0.741000 -0.200000
v 3.225000 -0.891000 -0.200000
v 3.375000 -0.891000 -1.800000
v 3.375000 -0.741000 -1.800000
v 3.375000 -0.741000 -0.200000
v 3.375000 -0.891000 -0.200000
v 3.225000 0.741000 -1.800000
v 3.225000 0.891000 -1.800000
v 3.225000 0.891000 -0.200000
v 3.225000 0.741000 -0.200000
v 3.375000 0.741000 -1.800000
v 3.375000 0.891000 -1.800000
v 3.375000 0.891000 -0.200000
v 3.375000 0.741000 -0.200000
v 6.525000 -0.891000 -1.800000
v 6.525000 -0.741000 -1.800000
v 6.525000 -0.741000 -0.200000
v 6.525000 -0.891000 -0.200000
v 6.675000 -0.891000 -1.800000
v 6.675000 -0.741000 -1.800000
v 6.675000 -0.741000 -0.200000
v 6.675000 -0.891000 -0.200000
v 6.525000 0.741000 -1.800000
v 6.525000 0.891000 -1.800000
v 6.525000 0.891000 -0.200000
v 6.525000 0.741000 -0.200000
v 6.675000 0.741000 -1.800000
v 6.675000 0.891000 -1.800000
v 6.675000 0.891000 -0.200000
v 6.675000 0.741000 -0.200000
v 9.825000 -0.891000 -1.800000
v 9.825000 -0.741000 -1.800000
v 9.825000 -0.741000 -0.200000
v 9.825000 -0.891000 -0.200000
v 9.975000 -0.891000 -1.800000
v 9.975000 -0.741000 -1.800000
v 9.975000 -0.741000 -0.200000
v 9.975000 -0.891000 -0.200000
v 9.825000 0.741000 -1.800000
v 9.825000 0.891000 -1.800000
v 9.825000 0.891000 -0.200000
v 9.825000 0.741000 -0.200000
v 9.975000 0.741000 -1.800000
v 9.975000 0.891000 -1.800000
v 9.975000 0.891000 -0.200000
v 9.975000 0.741000 -0.200000
v 13.125000 -0.891000 -1.800000
v 13.125000 -0.741000 -1.800000
v 13.125000 -0.741000 -0.200000
v 13.125000 -0.891000 -0.200000
v 13.275000 -0.891000 -1.800000
v 13.275000 -0.741000 -1.800000
v 13.275000 -0.741000 -0.200000
v 13.275000 -0.891000 -0.200000
v 13.125000 0.741000 -1.800000
v 13.125000 0.891000 -1.800000
v 13.125000 0.891000 -0.200000
v 13.125000 0.741000 -0.200000
v 13.275000 0.741000 -1.800000
v 13.275000 0.891000 -1.800000
v 13.275000 0.891000 -0.200000
v 13.275000 0.741000 -0.200000
v 16.425000 -0.891000 -1.800000
v 16.425000 -0.741000 -1.800000
v 16.425000 -0.741000 -0.200000
v 16.425000 -0.891000 -0.200000
v 16.575000 -0.891000 -1.800000
v 16.575000 -0.741000 -1.800000
v 16.575000 -0.741000 -0.200000
v 16.575000 -0.891000 -0.200000
v 16.425000 0.741000 -1.800000
v 16.425000 0.891000 -1.800000
v 16.425000 0.891000 -0.200000
v 16.425000 0.741000 -0.200000
v 16.575000 0.741000 -1.800000
v 16.575000 0.891000 -1.800000
v 16.575000 0.891000 -0.200000
v 16.575000 0.741000 -0.200000
v 19.725000 -0.891000 -1.800000
v 19.725000 -0.741000 -1.800000
v 19.725000 -0.741000 -0.200000
v 19.725000 -0.891000 -0.200000
v 19.875000 -0.891000 -1.800000
v 19.875000 -0.741000 -1.800000
v 19.875000 -0.741000 -0.200000
v 19.875000 -0.891000 -0.200000
v 19.725000 0.741000 -1.800000
v 19.725000 0.891000 -1.800000
v 19.725000 0.891000 -0.200000
v 19.725000 0.741000 -0.200000
v 19.875000 0.741000 -1.800000
v 19.875000 0.891000 -1.800000
v 19.875000 0.891000 -0.200000
v 19.875000 0.741000 -0.200000
v 21.925000 -0.891000 -1.800000
v 21.925000 -0.741000 -1.800000
v 21.925000 -0.741000 -0.200000
v 21.925000 -0.891000 -0.200000
v 22.075000 -0.891000 -1.800000
v 22.075000 -0.741000 -1.800000
v 22.075000 -0.741000 -0.200000
v 22.075000 -0.891000 -0.200000
v 21.925000 0.741000 -1.800000
v 21.925000 0.891000 -1.800000
v 21.925000 0.891000 -0.200000
v 21.925000 0.741000 -0.200000
v 22.075000 0.741000 -1.800000
v 22.075000 0.891000 -1.800000
v 22.075000 0.891000 -0.200000
v 22.075000 0.741000 -0.200000
f 1 5 6 2
f 3 4 8 7
f 1 3 7 5
f 2 6 8 4
f 5 9 10 6
f 7 8 12 11
f 5 7 11 9
f 6 10 12 8
f 9 13 14 10
f 11 12 16 15
f 9 11 15 13
f 10 14 16 12
f 13 17 18 14
f 15 16 20 19
f 13 15 19 17
f 14 18 20 16
f 17 21 22 18
f 19 20 24 23
f 17 19 23 21
f 18 22 24 20
f 21 25 26 22
f 23 24 28 27
f 21 23 27 25
f 22 26 28 24
f 25 29 30 26
f 27 28 32 31
f 25 27 31 29
f 26 30 32 28
f 29 33 34 30
f 31 32 36 35
f 29 31 35 33
f 30 34 36 32
f 33 37 38 34
f 35 36 40 39
f 33 35 39 37
f 34 38 40 36
f 37 41 42 38
f 39 40 44 43
f 37 39 43 41
f 38 42 44 40
f 41 45 46 42
f 43 44 48 47
f 41 43 47 45
f 42 46 48 44
f 45 49 50 46
f 47 48 52 51
f 45 47 51 49
f 46 50 52 48
f 49 53 54 50
f 51 52 56 55
f 49 51 55 53
f 50 54 56 52
f 53 57 58 54
f 55 56 60 59
f 53 55 59 57
f 54 58 60 56
f 57 61 62 58
f 59 60 64 63
f 57 59 63 61
f 58 62 64 60
f 61 65 66 62
f 63 64 68 67
f 61 63 67 65
f 62 66 68 64
f 65 69 70 66
f 67 68 72 71
f 65 67 71 69
f 66 70 72 68
f 69 73 74 70
f 71 72 76 75
f 69 71 75 73
f 70 74 76 72
f 73 77 78 74
f 75 76 80 79
f 73 75 79 77
f 74 78 80 76
f 77 81 82 78
f 79 80 84 83
f 77 79 83 81
f 78 82 84 80
f 85 88 87 86
f 89 90 91 92
f 85 86 90 89
f 87 88 92 91
f 85 89 92 88
f 86 87 91 90
f 93 96 95 94
f 97 98 99 100
f 93 94 98 97
f 95 96 100 99
f 93 97 100 96
f 94 95 99 98
f 101 104 103 102
f 105 106 107 108
f 101 102 106 105
f 103 104 108 107
f 101 105 108 104
f 102 103 107 106
f 109 112 111 110
f 113 114 115 116
f 109 110 114 113
f 111 112 116 115
f 109 113 116 112
f 110 111 115 114
f 117 120 119 118
f 121 122 123 124
f 117 118 122 121
f 119 120 124 123
f 117 121 124 120
f 118 119 123 122
f 125 128 127 126
f 129 130 131 132
f 125 126 130 129
f 127 128 132 131
f 125 129 132 128
f 126 127 131 130
f 133 136 135 134
f 137 138 139 140
f 133 134 138 137
f 135 136 140 139
f 133 137 140 136
f 134 135 139 138
f 141 144 143 142
f 145 146 147 148
f 141 142 146 145
f 143 144 148 147
f 141 145 148 144
f 142 143 147 146
f 149 152 151 150
f 153 154 155 156
f 149 150 154 153
f 151 152 156 155
f 149 153 156 152
f 150 151 155 154
f 157 160 159 158
f 161 162 163 164
f 157 158 162 161
f 159 160 164 163
f 157 161 164 160
f 158 159 163 162
f 165 168 167 166
f 169 170 171 172
f 165 166 170 169
f 167 168 172 171
f 165 169 172 168
f 166 167 171 170
f 173 176 175 174
f 177 178 179 180
f 173 174 178 177
f 175 176 180 179
f 173 177 180 176
f 174 175 179 178
f 181 184 183 182
f 185 186 187 188
f 181 182 186 185
f 183 184 188 187
f 181 185 188 184
f 182 183 187 186
f 189 192 191 190
f 193 194 195 196
f 189 190 194 193
f 191 192 196 195
f 189 193 196 192
f 190 191 195 194
f 197 200 199 198
f 201 202 203 204
f 197 198 202 201
f 199 200 204 203
f 197 201 204 200
f 198 199 203 202
f 205 208 207 206
f 209 210 211 212
f 205 206 210 209
f 207 208 212 211
f 205 209 212 208
f 206 207 211 210
f 213 216 215 214
f 217 218 219 220
f 213 214 218 217
f 215 216 220 219
f 213 217 220 216
f 214 215 219 218
f 221 224 223 222
f 225 226 227 228
f 221 222 226 225
f 223 224 228 227
f 221 225 228 224
f 222 223 227 226
f 229 232 231 230
f 233 234 235 236
f 229 230 234 233
f 231 232 236 235
f 229 233 236 232
f 230 231 235 234
f 237 240 239 238
f 241 242 243 244
f 237 238 242 241
f 239 240 244 243
f 237 241 244 240
f 238 239 243 242
f 245 248 247 246
f 249 250 251 252
f 245 246 250 249
f 247 248 252 251
f 245 249 252 248
f 246 247 251 250
f 253 256 255 254
f 257 258 259 260
f 253 254 258 257
f 255 256 260 259
f 253 257 260 256
f 254 255 259 258
f 261 264 263 262
f 265 266 267 268
f 261 262 266 265
f 263 264 268 267
f 261 265 268 264
f 262 263 267 266
f 269 272 271 270
f 273 274 275 276
f 269 270 274 273
f 271 272 276 275
f 269 273 276 272
f 270 271 275 274
f 277 280 279 278
f 281 282 283 284
f 277 278 282 281
f 279 280 284 283
f 277 281 284 280
f 278 279 283 282
f 285 288 287 286
f 289 290 291 292
f 285 286 290 289
f 287 288 292 291
f 285 289 292 288
f 286 287 291 290
f 293 296 295 294
f 297 298 299 300
f 293 294 298 297
f 295 296 300 299
f 293 297 300 296
f 294 295 299 298
f 301 304 303 302
f 305 306 307 308
f 301 302 306 305
f 303 304 308 307
f 301 305 308 304
f 302 303 307 306
f 309 312 311 310
f 313 314 315 316
f 309 310 314 313
f 311 312 316 315
f 309 313 316 312
f 310 311 315 314
f 317 320 319 318
f 321 322 323 324
f 317 318 322 321
f 319 320 324 323
f 317 321 324 320
f 318 319 323 322
f 325 328 327 326
f 329 330 331 332
f 325 326 330 329
f 327 328 332 331
f 325 329 332 328
f 326 327 331 330
f 333 336 335 334
f 337 338 339 340
f 333 334 338 337
f 335 336 340 339
f 333 337 340 336
f 334 335 339 338
f 341 344 343 342
f 345 346 347 348
f 341 342 346 345
f 343 344 348 347
f 341 345 348 344
f 342 343 347 346
f 349 352 351 350
f 353 354 355 356
f 349 350 354 353
f 351 352 356 355
f 349 353 356 352
f 350 351 355 354
f 357 360 359 358
f 361 362 363 364
f 357 358 362 361
f 359 360 364 363
f 357 361 364 360
f 358 359 363 362
f 365 369 370 366
f 366 370 371 367
f 367 371 372 368
f 368 372 369 365
f 369 373 374 370
f 370 374 375 371
f 371 375 376 372
f 372 376 373 369
f 373 377 378 374
f 374 378 379 375
f 375 379 380 376
f 376 380 377 373
f 377 381 382 378
f 378 382 383 379
f 379 383 384 380
f 380 384 381 377
f 381 385 386 382
f 382 386 387 383
f 383 387 388 384
f 384 388 385 381
f 385 389 390 386
f 386 390 391 387
f 387 391 392 388
f 388 392 389 385
f 389 393 394 390
f 390 394 395 391
f 391 395 396 392
f 392 396 393 389
f 393 397 398 394
f 394 398 399 395
f 395 399 400 396
f 396 400 397 393
f 397 401 402 398
f 398 402 403 399
f 399 403 404 400
f 400 404 401 397
f 401 405 406 402
f 402 406 407 403
f 403 407 408 404
f 404 408 405 401
f 405 409 410 406
f 406 410 411 407
f 407 411 412 408
f 408 412 409 405
f 409 413 414 410
f 410 414 415 411
f 411 415 416 412
f 412 416 413 409
f 413 417 418 414
f 414 418 419 415
f 415 419 420 416
f 416 420 417 413
f 417 421 422 418
f 418 422 423 419
f 419 423 424 420
f 420 424 421 417
f 421 425 426 422
f 422 426 427 423
f 423 427 428 424
f 424 428 425 421
f 425 429 430 426
f 426 430 431 427
f 427 431 432 428
f 428 432 429 425
f 429 433 434 430
f 430 434 435 431
f 431 435 436 432
f 432 436 433 429
f 433 437 438 434
f 434 438 439 435
f 435 439 440 436
f 436 440 437 433
f 437 441 442 438
f 438 442 443 439
f 439 443 444 440
f 440 444 441 437
f 441 445 446 442
f 442 446 447 443
f 443 447 448 444
f 444 448 445 441
f 449 453 454 450
f 450 454 455 451
f 451 455 456 452
f 452 456 453 449
f 453 457 458 454
f 454 458 459 455
f 455 459 460 456
f 456 460 457 453
f 457 461 462 458
f 458 462 463 459
f 459 463 464 460
f 460 464 461 457
f 461 465 466 462
f 462 466 467 463
f 463 467 468 464
f 464 468 465 461
f 465 469 470 466
f 466 470 471 467
f 467 471 472 468
f 468 472 469 465
f 469 473 474 470
f 470 474 475 471
f 471 475 476 472
f 472 476 473 469
f 473 477 478 474
f 474 478 479 475
f 475 479 480 476
f 476 480 477 473
f 477 481 482 478
f 478 482 483 479
f 479 483 484 480
f 480 484 481 477
f 481 485 486 482
f 482 486 487 483
f 483 487 488 484
f 484 488 485 481
f 485 489 490 486
f 486 490 491 487
f 487 491 492 488
f 488 492 489 485
f 489 493 494 490
f 490 494 495 491
f 491 495 496 492
f 492 496 493 489
f 493 497 498 494
f 494 498 499 495
f 495 499 500 496
f 496 500 497 493
f 497 501 502 498
f 498 502 503 499
f 499 503 504 500
f 500 504 501 497
f 501 505 506 502
f 502 506 507 503
f 503 507 508 504
f 504 508 505 501
f 505 509 510 506
f 506 510 511 507
f 507 511 512 508
f 508 512 509 505
f 509 513 514 510
f 510 514 515 511
f 511 515 516 512
f 512 516 513 509
f 513 517 518 514
f 514 518 519 515
f 515 519 520 516
f 516 520 517 513
f 517 521 522 518
f 518 522 523 519
f 519 523 524 520
f 520 524 521 517
f 521 525 526 522
f 522 526 527 523
f 523 527 528 524
f 524 528 525 521
f 525 529 530 526
f 526 530 531 527
f 527 531 532 528
f 528 532 529 525
f 533 537 538 534
f 534 538 539 535
f 535 539 540 536
f 536 540 537 533
f 537 541 542 538
f 538 542 543 539
f 539 543 544 540
f 540 544 541 537
f 541 545 546 542
f 542 546 547 543
f 543 547 548 544
f 544 548 545 541
f 545 549 550 546
f 546 550 551 547
f 547 551 552 548
f 548 552 549 545
f 549 553 554 550
f 550 554 555 551
f 551 555 556 552
f 552 556 553 549
f 553 557 558 554
f 554 558 559 555
f 555 559 560 556
f 556 560 557 553
f 557 561 562 558
f 558 562 563 559
f 559 563 564 560
f 560 564 561 557
f 561 565 566 562
f 562 566 567 563
f 563 567 568 564
f 564 568 565 561
f 565 569 570 566
f 566 570 571 567
f 567 571 572 568
f 568 572 569 565
f 569 573 574 570
f 570 574 575 571
f 571 575 576 572
f 572 576 573 569
f 573 577 578 574
f 574 578 579 575
f 575 579 580 576
f 576 580 577 573
f 577 581 582 578
f 578 582 583 579
f 579 583 584 580
f 580 584 581 577
f 581 585 586 582
f 582 586 587 583
f 583 587 588 584
f 584 588 585 581
f 585 589 590 586
f 586 590 591 587
f 587 591 592 588
f 588 592 589 585
f 589 593 594 590
f 590 594 595 591
f 591 595 596 592
f 592 596 593 589
f 593 597 598 594
f 594 598 599 595
f 595 599 600 596
f 596 600 597 593
f 597 601 602 598
f 598 602 603 599
f 599 603 604 600
f 600 604 601 597
f 601 605 606 602
f 602 606 607 603
f 603 607 608 604
f 604 608 605 601
f 605 609 610 606
f 606 610 611 607
f 607 611 612 608
f 608 612 609 605
f 609 613 614 610
f 610 614 615 611
f 611 615 616 612
f 612 616 613 609
f 617 621 622 618
f 618 622 623 619
f 619 623 624 620
f 620 624 621 617
f 621 625 626 622
f 622 626 627 623
f 623 627 628 624
f 624 628 625 621
f 625 629 630 626
f 626 630 631 627
f 627 631 632 628
f 628 632 629 625
f 629 633 634 630
f 630 634 635 631
f 631 635 636 632
f 632 636 633 629
f 633 637 638 634
f 634 638 639 635
f 635 639 640 636
f 636 640 637 633
f 637 641 642 638
f 638 642 643 639
f 639 643 644 640
f 640 644 641 637
f 641 645 646 642
f 642 646 647 643
f 643 647 648 644
f 644 648 645 641
f 645 649 650 646
f 646 650 651 647
f 647 651 652 648
f 648 652 649 645
f 649 653 654 650
f 650 654 655 651
f 651 655 656 652
f 652 656 653 649
f 653 657 658 654
f 654 658 659 655
f 655 659 660 656
f 656 660 657 653
f 657 661 662 658
f 658 662 663 659
f 659 663 664 660
f 660 664 661 657
f 661 665 666 662
f 662 666 667 663
f 663 667 668 664
f 664 668 665 661
f 665 669 670 666
f 666 670 671 667
f 667 671 672 668
f 668 672 669 665
f 669 673 674 670
f 670 674 675 671
f 671 675 676 672
f 672 676 673 669
f 673 677 678 674
f 674 678 679 675
f 675 679 680 676
f 676 680 677 673
f 677 681 682 678
f 678 682 683 679
f 679 683 684 680
f 680 684 681 677
f 681 685 686 682
f 682 686 687 683
f 683 687 688 684
f 684 688 685 681
f 685 689 690 686
f 686 690 691 687
f 687 691 692 688
f 688 692 689 685
f 689 693 694 690
f 690 694 695 691
f 691 695 696 692
f 692 696 693 689
f 693 697 698 694
f 694 698 699 695
f 695 699 700 696
f 696 700 697 693
f 701 705 706 702
f 702 706 707 703
f 703 707 708 704
f 704 708 705 701
f 705 709 710 706
f 706 710 711 707
f 707 711 712 708
f 708 712 709 705
f 709 713 714 710
f 710 714 715 711
f 711 715 716 712
f 712 716 713 709
f 713 717 718 714
f 714 718 719 715
f 715 719 720 716
f 716 720 717 713
f 717 721 722 718
f 718 722 723 719
f 719 723 724 720
f 720 724 721 717
f 721 725 726 722
f 722 726 727 723
f 723 727 728 724
f 724 728 725 721
f 725 729 730 726
f 726 730 731 727
f 727 731 732 728
f 728 732 729 725
f 729 733 734 730
f 730 734 735 731
f 731 735 736 732
f 732 736 733 729
f 733 737 738 734
f 734 738 739 735
f 735 739 740 736
f 736 740 737 733
f 737 741 742 738
f 738 742 743 739
f 739 743 744 740
f 740 744 741 737
f 741 745 746 742
f 742 746 747 743
f 743 747 748 744
f 744 748 745 741
f 745 749 750 746
f 746 750 751 747
f 747 751 752 748
f 748 752 749 745
f 749 753 754 750
f 750 754 755 751
f 751 755 756 752
f 752 756 753 749
f 753 757 758 754
f 754 758 759 755
f 755 759 760 756
f 756 760 757 753
f 757 761 762 758
f 758 762 763 759
f 759 763 764 760
f 760 764 761 757
f 761 765 766 762
f 762 766 767 763
f 763 767 768 764
f 764 768 765 761
f 765 769 770 766
f 766 770 771 767
f 767 771 772 768
f 768 772 769 765
f 769 773 774 770
f 770 774 775 771
f 771 775 776 772
f 772 776 773 769
f 773 777 778 774
f 774 778 779 775
f 775 779 780 776
f 776 780 777 773
f 777 781 782 778
f 778 782 783 779
f 779 783 784 780
f 780 784 781 777
f 785 789 790 786
f 786 790 791 787
f 787 791 792 788
f 788 792 789 785
f 789 793 794 790
f 790 794 795 791
f 791 795 796 792
f 792 796 793 789
f 793 797 798 794
f 794 798 799 795
f 795 799 800 796
f 796 800 797 793
f 797 801 802 798
f 798 802 803 799
f 799 803 804 800
f 800 804 801 797
f 801 805 806 802
f 802 806 807 803
f 803 807 808 804
f 804 808 805 801
f 805 809 810 806
f 806 810 811 807
f 807 811 812 808
f 808 812 809 805
f 809 813 814 810
f 810 814 815 811
f 811 815 816 812
f 812 816 813 809
f 813 817 818 814
f 814 818 819 815
f 815 819 820 816
f 816 820 817 813
f 817 821 822 818
f 818 822 823 819
f 819 823 824 820
f 820 824 821 817
f 821 825 826 822
f 822 826 827 823
f 823 827 828 824
f 824 828 825 821
f 825 829 830 826
f 826 830 831 827
f 827 831 832 828
f 828 832 829 825
f 829 833 834 830
f 830 834 835 831
f 831 835 836 832
f 832 836 833 829
f 833 837 838 834
f 834 838 839 835
f 835 839 840 836
f 836 840 837 833
f 837 841 842 838
f 838 842 843 839
f 839 843 844 840
f 840 844 841 837
f 841 845 846 842
f 842 846 847 843
f 843 847 848 844
f 844 848 845 841
f 845 849 850 846
f 846 850 851 847
f 847 851 852 848
f 848 852 849 845
f 849 853 854 850
f 850 854 855 851
f 851 855 856 852
f 852 856 853 849
f 853 857 858 854
f 854 858 859 855
f 855 859 860 856
f 856 860 857 853
f 857 861 862 858
f 858 862 863 859
f 859 863 864 860
f 860 864 861 857
f 861 865 866 862
f 862 866 867 863
f 863 867 868 864
f 864 868 865 861
f 869 873 874 870
f 870 874 875 871
f 871 875 876 872
f 872 876 873 869
f 873 877 878 874
f 874 878 879 875
f 875 879 880 876
f 876 880 877 873
f 877 881 882 878
f 878 882 883 879
f 879 883 884 880
f 880 884 881 877
f 881 885 886 882
f 882 886 887 883
f 883 887 888 884
f 884 888 885 881
f 885 889 890 886
f 886 890 891 887
f 887 891 892 888
f 888 892 889 885
f 889 893 894 890
f 890 894 895 891
f 891 895 896 892
f 892 896 893 889
f 893 897 898 894
f 894 898 899 895
f 895 899 900 896
f 896 900 897 893
f 897 901 902 898
f 898 902 903 899
f 899 903 904 900
f 900 904 901 897
f 901 905 906 902
f 902 906 907 903
f 903 907 908 904
f 904 908 905 901
f 905 909 910 906
f 906 910 911 907
f 907 911 912 908
f 908 912 909 905
f 909 913 914 910
f 910 914 915 911
f 911 915 916 912
f 912 916 913 909
f 913 917 918 914
f 914 918 919 915
f 915 919 920 916
f 916 920 917 913
f 917 921 922 918
f 918 922 923 919
f 919 923 924 920
f 920 924 921 917
f 921 925 926 922
f 922 926 927 923
f 923 927 928 924
f 924 928 925 921
f 925 929 930 926
f 926 930 931 927
f 927 931 932 928
f 928 932 929 925
f 929 933 934 930
f 930 934 935 931
f 931 935 936 932
f 932 936 933 929
f 933 937 938 934
f 934 938 939 935
f 935 939 940 936
f 936 940 937 933
f 937 941 942 938
f 938 942 943 939
f 939 943 944 940
f 940 944 941 937
f 941 945 946 942
f 942 946 947 943
f 943 947 948 944
f 944 948 945 941
f 945 949 950 946
f 946 950 951 947
f 947 951 952 948
f 948 952 949 945
f 953 957 958 954
f 954 958 959 955
f 955 959 960 956
f 956 960 957 953
f 957 961 962 958
f 958 962 963 959
f 959 963 964 960
f 960 964 961 957
f 961 965 966 962
f 962 966 967 963
f 963 967 968 964
f 964 968 965 961
f 965 969 970 966
f 966 970 971 967
f 967 971 972 968
f 968 972 969 965
f 969 973 974 970
f 970 974 975 971
f 971 975 976 972
f 972 976 973 969
f 973 977 978 974
f 974 978 979 975
f 975 979 980 976
f 976 980 977 973
f 977 981 982 978
f 978 982 983 979
f 979 983 984 980
f 980 984 981 977
f 981 985 986 982
f 982 986 987 983
f 983 987 988 984
f 984 988 985 981
f 985 989 990 986
f 986 990 991 987
f 987 991 992 988
f 988 992 989 985
f 989 993 994 990
f 990 994 995 991
f 991 995 996 992
f 992 996 993 989
f 993 997 998 994
f 994 998 999 995
f 995 999 1000 996
f 996 1000 997 993
f 997 1001 1002 998
f 998 1002 1003 999
f 999 1003 1004 1000
f 1000 1004 1001 997
f 1001 1005 1006 1002
f 1002 1006 1007 1003
f 1003 1007 1008 1004
f 1004 1008 1005 1001
f 1005 1009 1010 1006
f 1006 1010 1011 1007
f 1007 1011 1012 1008
f 1008 1012 1009 1005
f 1009 1013 1014 1010
f 1010 1014 1015 1011
f 1011 1015 1016 1012
f 1012 1016 1013 1009
f 1013 1017 1018 1014
f 1014 1018 1019 1015
f 1015 1019 1020 1016
f 1016 1020 1017 1013
f 1017 1021 1022 1018
f 1018 1022 1023 1019
f 1019 1023 1024 1020
f 1020 1024 1021 1017
f 1021 1025 1026 1022
f 1022 1026 1027 1023
f 1023 1027 1028 1024
f 1024 1028 1025 1021
f 1025 1029 1030 1026
f 1026 1030 1031 1027
f 1027 1031 1032 1028
f 1028 1032 1029 1025
f 1029 1033 1034 1030
f 1030 1034 1035 1031
f 1031 1035 1036 1032
f 1032 1036 1033 1029
f 1037 1041 1042 1038
f 1038 1042 1043 1039
f 1039 1043 1044 1040
f 1040 1044 1041 1037
f 1041 1045 1046 1042
f 1042 1046 1047 1043
f 1043 1047 1048 1044
f 1044 1048 1045 1041
f 1045 1049 1050 1046
f 1046 1050 1051 1047
f 1047 1051 1052 1048
f 1048 1052 1049 1045
f 1049 1053 1054 1050
f 1050 1054 1055 1051
f 1051 1055 1056 1052
f 1052 1056 1053 1049
f 1053 1057 1058 1054
f 1054 1058 1059 1055
f 1055 1059 1060 1056
f 1056 1060 1057 1053
f 1057 1061 1062 1058
f 1058 1062 1063 1059
f 1059 1063 1064 1060
f 1060 1064 1061 1057
f 1061 1065 1066 1062
f 1062 1066 1067 1063
f 1063 1067 1068 1064
f 1064 1068 1065 1061
f 1065 1069 1070 1066
f 1066 1070 1071 1067
f 1067 1071 1072 1068
f 1068 1072 1069 1065
f 1069 1073 1074 1070
f 1070 1074 1075 1071
f 1071 1075 1076 1072
f 1072 1076 1073 1069
f 1073 1077 1078 1074
f 1074 1078 1079 1075
f 1075 1079 1080 1076
f 1076 1080 1077 1073
f 1077 1081 1082 1078
f 1078 1082 1083 1079
f 1079 1083 1084 1080
f 1080 1084 1081 1077
f 1081 1085 1086 1082
f 1082 1086 1087 1083
f 1083 1087 1088 1084
f 1084 1088 1085 1081
f 1085 1089 1090 1086
f 1086 1090 1091 1087
f 1087 1091 1092 1088
f 1088 1092 1089 1085
f 1089 1093 1094 1090
f 1090 1094 1095 1091
f 1091 1095 1096 1092
f 1092 1096 1093 1089
f 1093 1097 1098 1094
f 1094 1098 1099 1095
f 1095 1099 1100 1096
f 1096 1100 1097 1093
f 1097 1101 1102 1098
f 1098 1102 1103 1099
f 1099 1103 1104 1100
f 1100 1104 1101 1097
f 1101 1105 1106 1102
f 1102 1106 1107 1103
f 1103 1107 1108 1104
f 1104 1108 1105 1101
f 1105 1109 1110 1106
f 1106 1110 1111 1107
f 1107 1111 1112 1108
f 1108 1112 1109 1105
f 1109 1113 1114 1110
f 1110 1114 1115 1111
f 1111 1115 1116 1112
f 1112 1116 1113 1109
f 1113 1117 1118 1114
f 1114 1118 1119 1115
f 1115 1119 1120 1116
f 1116 1120 1117 1113
f 1121 1125 1126 1122
f 1122 1126 1127 1123
f 1123 1127 1128 1124
f 1124 1128 1125 1121
f 1125 1129 1130 1126
f 1126 1130 1131 1127
f 1127 1131 1132 1128
f 1128 1132 1129 1125
f 1129 1133 1134 1130
f 1130 1134 1135 1131
f 1131 1135 1136 1132
f 1132 1136 1133 1129
f 1133 1137 1138 1134
f 1134 1138 1139 1135
f 1135 1139 1140 1136
f 1136 1140 1137 1133
f 1137 1141 1142 1138
f 1138 1142 1143 1139
f 1139 1143 1144 1140
f 1140 1144 1141 1137
f 1141 1145 1146 1142
f 1142 1146 1147 1143
f 1143 1147 1148 1144
f 1144 1148 1145 1141
f 1145 1149 1150 1146
f 1146 1150 1151 1147
f 1147 1151 1152 1148
f 1148 1152 1149 1145
f 1149 1153 1154 1150
f 1150 1154 1155 1151
f 1151 1155 1156 1152
f 1152 1156 1153 1149
f 1153 1157 1158 1154
f 1154 1158 1159 1155
f 1155 1159 1160 1156
f 1156 1160 1157 1153
f 1157 1161 1162 1158
f 1158 1162 1163 1159
f 1159 1163 1164 1160
f 1160 1164 1161 1157
f 1161 1165 1166 1162
f 1162 1166 1167 1163
f 1163 1167 1168 1164
f 1164 1168 1165 1161
f 1165 1169 1170 1166
f 1166 1170 1171 1167
f 1167 1171 1172 1168
f 1168 1172 1169 1165
f 1169 1173 1174 1170
f 1170 1174 1175 1171
f 1171 1175 1176 1172
f 1172 1176 1173 1169
f 1173 1177 1178 1174
f 1174 1178 1179 1175
f 1175 1179 1180 1176
f 1176 1180 1177 1173
f 1177 1181 1182 1178
f 1178 1182 1183 1179
f 1179 1183 1184 1180
f 1180 1184 1181 1177
f 1181 1185 1186 1182
f 1182 1186 1187 1183
f 1183 1187 1188 1184
f 1184 1188 1185 1181
f 1185 1189 1190 1186
f 1186 1190 1191 1187
f 1187 1191 1192 1188
f 1188 1192 1189 1185
f 1189 1193 1194 1190
f 1190 1194 1195 1191
f 1191 1195 1196 1192
f 1192 1196 1193 1189
f 1193 1197 1198 1194
f 1194 1198 1199 1195
f 1195 1199 1200 1196
f 1196 1200 1197 1193
f 1197 1201 1202 1198
f 1198 1202 1203 1199
f 1199 1203 1204 1200
f 1200 1204 1201 1197
f 1205 1208 1207 1206
f 1209 1210 1211 1212
f 1205 1206 1210 1209
f 1207 1208 1212 1211
f 1205 1209 1212 1208
f 1206 1207 1211 1210
f 1213 1216 1215 1214
f 1217 1218 1219 1220
f 1213 1214 1218 1217
f 1215 1216 1220 1219
f 1213 1217 1220 1216
f 1214 1215 1219 1218
f 1221 1224 1223 1222
f 1225 1226 1227 1228
f 1221 1222 1226 1225
f 1223 1224 1228 1227
f 1221 1225 1228 1224
f 1222 1223 1227 1226
f 1229 1232 1231 1230
f 1233 1234 1235 1236
f 1229 1230 1234 1233
f 1231 1232 1236 1235
f 1229 1233 1236 1232
f 1230 1231 1235 1234
f 1237 1240 1239 1238
f 1241 1242 1243 1244
f 1237 1238 1242 1241
f 1239 1240 1244 1243
f 1237 1241 1244 1240
f 1238 1239 1243 1242
f 1245 1248 1247 1246
f 1249 1250 1251 1252
f 1245 1246 1250 1249
f 1247 1248 1252 1251
f 1245 1249 1252 1248
f 1246 1247 1251 1250
f 1253 1256 1255 1254
f 1257 1258 1259 1260
f 1253 1254 1258 1257
f 1255 1256 1260 1259
f 1253 1257 1260 1256
f 1254 1255 1259 1258
f 1261 1264 1263 1262
f 1265 1266 1267 1268
f 1261 1262 1266 1265
f 1263 1264 1268 1267
f 1261 1265 1268 1264
f 1262 1263 1267 1266
f 1269 1272 1271 1270
f 1273 1274 1275 1276
f 1269 1270 1274 1273
f 1271 1272 1276 1275
f 1269 1273 1276 1272
f 1270 1271 1275 1274
f 1277 1280 1279 1278
f 1281 1282 1283 1284
f 1277 1278 1282 1281
f 1279 1280 1284 1283
f 1277 1281 1284 1280
f 1278 1279 1283 1282
f 1285 1288 1287 1286
f 1289 1290 1291 1292
f 1285 1286 1290 1289
f 1287 1288 1292 1291
f 1285 1289 1292 1288
f 1286 1287 1291 1290
f 1293 1296 1295 1294
f 1297 1298 1299 1300
f 1293 1294 1298 1297
f 1295 1296 1300 1299
f 1293 1297 1300 1296
f 1294 1295 1299 1298
f 1301 1304 1303 1302
f 1305 1306 1307 1308
f 1301 1302 1306 1305
f 1303 1304 1308 1307
f 1301 1305 1308 1304
f 1302 1303 1307 1306
f 1309 1312 1311 1310
f 1313 1314 1315 1316
f 1309 1310 1314 1313
f 1311 1312 1316 1315
f 1309 1313 1316 1312
f 1310 1311 1315 1314
f 1317 1320 1319 1318
f 1321 1322 1323 1324
f 1317 1318 1322 1321
f 1319 1320 1324 1323
f 1317 1321 1324 1320
f 1318 1319 1323 1322
f 1325 1328 1327 1326
f 1329 1330 1331 1332
f 1325 1326 1330 1329
f 1327 1328 1332 1331
f 1325 1329 1332 1328
f 1326 1327 1331 1330
f 1333 1336 1335 1334
f 1337 1338 1339 1340
f 1333 1334 1338 1337
f 1335 1336 1340 1339
f 1333 1337 1340 1336
f 1334 1335 1339 1338
f 1341 1344 1343 1342
f 1345 1346 1347 1348
f 1341 1342 1346 1345
f 1343 1344 1348 1347
f 1341 1345 1348 1344
f 1342 1343 1347 1346
f 1349 1352 1351 1350
f 1353 1354 1355 1356
f 1349 1350 1354 1353
f 1351 1352 1356 1355
f 1349 1353 1356 1352
f 1350 1351 1355 1354
f 1357 1360 1359 1358
f 1361 1362 1363 1364
f 1357 1358 1362 1361
f 1359 1360 1364 1363
f 1357 1361 1364 1360
f 1358 1359 1363 1362
f 1365 1368 1367 1366
f 1369 1370 1371 1372
f 1365 1366 1370 1369
f 1367 1368 1372 1371
f 1365 1369 1372 1368
f 1366 1367 1371 1370
f 1373 1376 1375 1374
f 1377 1378 1379 1380
f 1373 1374 1378 1377
f 1375 1376 1380 1379
f 1373 1377 1380 1376
f 1374 1375 1379 1378
f 1381 1384 1383 1382
f 1385 1386 1387 1388
f 1381 1382 1386 1385
f 1383 1384 1388 1387
f 1381 1385 1388 1384
f 1382 1383 1387 1386
f 1389 1392 1391 1390
f 1393 1394 1395 1396
f 1389 1390 1394 1393
f 1391 1392 1396 1395
f 1389 1393 1396 1392
f 1390 1391 1395 1394
