v -0.659335 -1.978005 0.130000
v -0.664078 -1.992235 0.145000
v -0.649848 -1.996978 0.130000
v 0.659335 1.978005 0.130000
v 0.664078 1.992235 0.145000
v 0.678309 1.987492 0.130000
v 0.659335 1.978005 0.250000
v 0.664078 1.992235 0.235000
v 0.678309 1.987492 0.250000
v -0.659335 -1.978005 0.250000
v -0.664078 -1.992235 0.235000
v -0.649848 -1.996978 0.250000
v 11.340665 -5.978005 0.130000
v 11.335922 -5.992235 0.145000
v 11.321691 -5.987492 0.130000
v 12.659335 -2.021995 0.130000
v 12.664078 -2.007765 0.145000
v 12.649848 -2.003022 0.130000
v 12.659335 -2.021995 0.250000
v 12.664078 -2.007765 0.235000
v 12.649848 -2.003022 0.250000
v 11.340665 -5.978005 0.250000
v 11.335922 -5.992235 0.235000
v 11.321691 -5.987492 0.250000
v -0.579645 -1.802182 0.250000
v -0.577748 -1.796490 0.250000
v -0.577748 -1.796490 0.260000
v -0.579645 -1.802182 0.260000
v 11.382407 -5.789533 0.250000
v 11.384305 -5.783841 0.250000
v 11.384305 -5.783841 0.260000
v 11.382407 -5.789533 0.260000
v -0.446830 -1.403735 0.250000
v -0.444932 -1.398043 0.250000
v -0.444932 -1.398043 0.260000
v -0.446830 -1.403735 0.260000
v 11.515223 -5.391086 0.250000
v 11.517120 -5.385394 0.250000
v 11.517120 -5.385394 0.260000
v 11.515223 -5.391086 0.260000
v -0.314014 -1.005288 0.250000
v -0.312117 -0.999596 0.250000
v -0.312117 -0.999596 0.260000
v -0.314014 -1.005288 0.260000
v 11.648038 -4.992639 0.250000
v 11.649936 -4.986947 0.250000
v 11.649936 -4.986947 0.260000
v 11.648038 -4.992639 0.260000
v -0.181199 -0.606841 0.250000
v -0.179301 -0.601149 0.250000
v -0.179301 -0.601149 0.260000
v -0.181199 -0.606841 0.260000
v 11.780854 -4.594192 0.250000
v 11.782752 -4.588500 0.250000
v 11.782752 -4.588500 0.260000
v 11.780854 -4.594192 0.260000
v -0.048383 -0.208394 0.250000
v -0.046485 -0.202702 0.250000
v -0.046485 -0.202702 0.260000
v -0.048383 -0.208394 0.260000
v 11.913670 -4.195745 0.250000
v 11.915567 -4.190053 0.250000
v 11.915567 -4.190053 0.260000
v 11.913670 -4.195745 0.260000
v 0.084433 0.190053 0.250000
v 0.086330 0.195745 0.250000
v 0.086330 0.195745 0.260000
v 0.084433 0.190053 0.260000
v 12.046485 -3.797298 0.250000
v 12.048383 -3.791606 0.250000
v 12.048383 -3.791606 0.260000
v 12.046485 -3.797298 0.260000
v 0.217248 0.588500 0.250000
v 0.219146 0.594192 0.250000
v 0.219146 0.594192 0.260000
v 0.217248 0.588500 0.260000
v 12.179301 -3.398851 0.250000
v 12.181199 -3.393159 0.250000
v 12.181199 -3.393159 0.260000
v 12.179301 -3.398851 0.260000
v 0.350064 0.986947 0.250000
v 0.351962 0.992639 0.250000
v 0.351962 0.992639 0.260000
v 0.350064 0.986947 0.260000
v 12.312117 -3.000404 0.250000
v 12.314014 -2.994712 0.250000
v 12.314014 -2.994712 0.260000
v 12.312117 -3.000404 0.260000
v 0.482880 1.385394 0.250000
v 0.484777 1.391086 0.250000
v 0.484777 1.391086 0.260000
v 0.482880 1.385394 0.260000
v 12.444932 -2.601957 0.250000
v 12.446830 -2.596265 0.250000
v 12.446830 -2.596265 0.260000
v 12.444932 -2.601957 0.260000
v 0.615695 1.783841 0.250000
v 0.617593 1.789533 0.250000
v 0.617593 1.789533 0.260000
v 0.615695 1.783841 0.260000
v 12.577748 -2.203510 0.250000
v 12.579645 -2.197818 0.250000
v 12.579645 -2.197818 0.260000
v 12.577748 -2.203510 0.260000
v 11.433320 -5.541927 0.300000
v 11.429525 -5.553311 0.306928
v 11.429525 -5.553311 0.293072
v 11.458532 -5.570358 0.300000
v 11.446775 -5.572764 0.306928
v 11.446775 -5.572764 0.293072
v 11.446515 -5.606408 0.300000
v 11.438553 -5.597430 0.306928
v 11.438553 -5.597430 0.293072
v 11.409287 -5.614027 0.300000
v 11.413081 -5.602642 0.306928
v 11.413081 -5.602642 0.293072
v 11.384075 -5.585595 0.300000
v 11.395831 -5.583189 0.306928
v 11.395831 -5.583189 0.293072
v 11.396091 -5.549545 0.300000
v 11.404053 -5.558523 0.306928
v 11.404053 -5.558523 0.293072
v 12.495845 -2.354351 0.300000
v 12.492050 -2.365735 0.306928
v 12.492050 -2.365735 0.293072
v 12.521057 -2.382782 0.300000
v 12.509301 -2.385188 0.306928
v 12.509301 -2.385188 0.293072
v 12.509040 -2.418832 0.300000
v 12.501079 -2.409854 0.306928
v 12.501079 -2.409854 0.293072
v 12.471812 -2.426451 0.300000
v 12.475607 -2.415066 0.306928
v 12.475607 -2.415066 0.293072
v 12.446600 -2.398019 0.300000
v 12.458356 -2.395613 0.306928
v 12.458356 -2.395613 0.293072
v 12.458617 -2.361969 0.300000
v 12.466578 -2.370947 0.306928
v 12.466578 -2.370947 0.293072
v -0.524938 -1.574814 0.250000
v -0.511669 -1.589778 0.250000
v -0.517993 -1.608752 0.250000
v -0.537587 -1.612762 0.250000
v -0.550857 -1.597798 0.250000
v -0.544532 -1.578824 0.250000
v -0.524938 -1.574814 0.290000
v -0.511669 -1.589778 0.290000
v -0.517993 -1.608752 0.290000
v -0.537587 -1.612762 0.290000
v -0.550857 -1.597798 0.290000
v -0.544532 -1.578824 0.290000
v 0.537587 1.612762 0.250000
v 0.550857 1.597798 0.250000
v 0.544532 1.578824 0.250000
v 0.524938 1.574814 0.250000
v 0.511669 1.589778 0.250000
v 0.517993 1.608752 0.250000
v 0.537587 1.612762 0.290000
v 0.550857 1.597798 0.290000
v 0.544532 1.578824 0.290000
v 0.524938 1.574814 0.290000
v 0.511669 1.589778 0.290000
v 0.517993 1.608752 0.290000
f 2 11 8 5
f 14 17 20 23
f 3 6 9 12
f 15 24 21 18
f 1 13 22 10
f 4 7 19 16
f 3 2 5 6
f 4 5 8 7
f 9 8 11 12
f 10 11 2 1
f 14 15 18 17
f 17 16 19 20
f 20 21 24 23
f 23 22 13 14
f 1 3 15 13
f 6 4 16 18
f 7 9 21 19
f 12 10 22 24
f 25 28 27 26
f 29 30 31 32
f 25 26 30 29
f 27 28 32 31
f 25 29 32 28
f 26 27 31 30
f 33 36 35 34
f 37 38 39 40
f 33 34 38 37
f 35 36 40 39
f 33 37 40 36
f 34 35 39 38
f 41 44 43 42
f 45 46 47 48
f 41 42 46 45
f 43 44 48 47
f 41 45 48 44
f 42 43 47 46
f 49 52 51 50
f 53 54 55 56
f 49 50 54 53
f 51 52 56 55
f 49 53 56 52
f 50 51 55 54
f 57 60 59 58
f 61 62 63 64
f 57 58 62 61
f 59 60 64 63
f 57 61 64 60
f 58 59 63 62
f 65 68 67 66
f 69 70 71 72
f 65 66 70 69
f 67 68 72 71
f 65 69 72 68
f 66 67 71 70
f 73 76 75 74
f 77 78 79 80
f 73 74 78 77
f 75 76 80 79
f 73 77 80 76
f 74 75 79 78
f 81 84 83 82
f 85 86 87 88
f 81 82 86 85
f 83 84 88 87
f 81 85 88 84
f 82 83 87 86
f 89 92 91 90
f 93 94 95 96
f 89 90 94 93
f 91 92 96 95
f 89 93 96 92
f 90 91 95 94
f 97 100 99 98
f 101 102 103 104
f 97 98 102 101
f 99 100 104 103
f 97 101 104 100
f 98 99 103 102
f 105 106 109 108
f 106 107 110 109
f 107 105 108 110
f 108 109 112 111
f 109 110 113 112
f 110 108 111 113
f 111 112 115 114
f 112 113 116 115
f 113 111 114 116
f 114 115 118 117
f 115 116 119 118
f 116 114 117 119
f 117 118 121 120
f 118 119 122 121
f 119 117 120 122
f 120 121 106 105
f 121 122 107 106
f 122 120 105 107
f 123 124 127 126
f 124 125 128 127
f 125 123 126 128
f 126 127 130 129
f 127 128 131 130
f 128 126 129 131
f 129 130 133 132
f 130 131 134 133
f 131 129 132 134
f 132 133 136 135
f 133 134 137 136
f 134 132 135 137
f 135 136 139 138
f 136 137 140 139
f 137 135 138 140
f 138 139 124 123
f 139 140 125 124
f 140 138 123 125
f 141 142 148 147
f 142 143 149 148
f 143 144 150 149
f 144 145 151 150
f 145 146 152 151
f 146 141 147 152
f 146 145 144 143 142 141
f 147 148 149 150 151 152
f 153 154 160 159
f 154 155 161 160
f 155 156 162 161
f 156 157 163 162
f 157 158 164 163
f 158 153 159 164
f 158 157 156 155 154 153
f 159 160 161 162 163 164
