v 0.000000 -0.850000 3.000000
v 0.000000 0.850000 3.000000
v 0.000000 -0.850000 2.900000
v 0.000000 0.850000 2.900000
v 1.142857 -0.850000 3.028571
v 1.142857 0.850000 3.028571
v 1.142857 -0.850000 2.928571
v 1.142857 0.850000 2.928571
v 2.285714 -0.850000 3.057143
v 2.285714 0.850000 3.057143
v 2.285714 -0.850000 2.957143
v 2.285714 0.850000 2.957143
v 3.428571 -0.850000 3.085714
v 3.428571 0.850000 3.085714
v 3.428571 -0.850000 2.985714
v 3.428571 0.850000 2.985714
v 4.571429 -0.850000 3.114286
v 4.571429 0.850000 3.114286
v 4.571429 -0.850000 3.014286
v 4.571429 0.850000 3.014286
v 5.714286 -0.850000 3.142857
v 5.714286 0.850000 3.142857
v 5.714286 -0.850000 3.042857
v 5.714286 0.850000 3.042857
v 6.857143 -0.850000 3.171429
v 6.857143 0.850000 3.171429
v 6.857143 -0.850000 3.071429
v 6.857143 0.850000 3.071429
v 8.000000 -0.850000 3.200000
v 8.000000 0.850000 3.200000
v 8.000000 -0.850000 3.100000
v 8.000000 0.850000 3.100000
v 9.142857 -0.850000 3.228571
v 9.142857 0.850000 3.228571
v 9.142857 -0.850000 3.128571
v 9.142857 0.850000 3.128571
v 10.285714 -0.850000 3.257143
v 10.285714 0.850000 3.257143
v 10.285714 -0.850000 3.157143
v 10.285714 0.850000 3.157143
v 11.428571 -0.850000 3.285714
v 11.428571 0.850000 3.285714
v 11.428571 -0.850000 3.185714
v 11.428571 0.850000 3.185714
v 12.571429 -0.850000 3.314286
v 12.571429 0.850000 3.314286
v 12.571429 -0.850000 3.214286
v 12.571429 0.850000 3.214286
v 13.714286 -0.850000 3.342857
v 13.714286 0.850000 3.342857
v 13.714286 -0.850000 3.242857
v 13.714286 0.850000 3.242857
v 14.857143 -0.850000 3.371429
v 14.857143 0.850000 3.371429
v 14.857143 -0.850000 3.271429
v 14.857143 0.850000 3.271429
v 16.000000 -0.850000 3.400000
v 16.000000 0.850000 3.400000
v 16.000000 -0.850000 3.300000
v 16.000000 0.850000 3.300000
v -0.230000 -0.731000 2.985000
v -0.230000 0.731000 2.985000
v -0.230000 0.731000 3.055000
v -0.230000 -0.731000 3.055000
v 0.230000 -0.731000 2.985000
v 0.230000 0.731000 2.985000
v 0.230000 0.731000 3.055000
v 0.230000 -0.731000 3.055000
v 0.912857 -0.731000 2.952690
v 0.912857 0.731000 2.952690
v 0.912857 0.731000 3.022690
v 0.912857 -0.731000 3.022690
v 1.372857 -0.731000 2.952690
v 1.372857 0.731000 2.952690
v 1.372857 0.731000 3.022690
v 1.372857 -0.731000 3.022690
v 2.055714 -0.731000 2.923432
v 2.055714 0.731000 2.923432
v 2.055714 0.731000 2.993432
v 2.055714 -0.731000 2.993432
v 2.515714 -0.731000 2.923432
v 2.515714 0.731000 2.923432
v 2.515714 0.731000 2.993432
v 2.515714 -0.731000 2.993432
v 3.198571 -0.731000 2.900127
v 3.198571 0.731000 2.900127
v 3.198571 0.731000 2.970127
v 3.198571 -0.731000 2.970127
v 3.658571 -0.731000 2.900127
v 3.658571 0.731000 2.900127
v 3.658571 0.731000 2.970127
v 3.658571 -0.731000 2.970127
v 4.341429 -0.731000 2.885377
v 4.341429 0.731000 2.885377
v 4.341429 0.731000 2.955377
v 4.341429 -0.731000 2.955377
v 4.801429 -0.731000 2.885377
v 4.801429 0.731000 2.885377
v 4.801429 0.731000 2.955377
v 4.801429 -0.731000 2.955377
v 5.484286 -0.731000 2.881352
v 5.484286 0.731000 2.881352
v 5.484286 0.731000 2.951352
v 5.484286 -0.731000 2.951352
v 5.944286 -0.731000 2.881352
v 5.944286 0.731000 2.881352
v 5.944286 0.731000 2.951352
v 5.944286 -0.731000 2.951352
v 6.627143 -0.731000 2.889688
v 6.627143 0.731000 2.889688
v 6.627143 0.731000 2.959688
v 6.627143 -0.731000 2.959688
v 7.087143 -0.731000 2.889688
v 7.087143 0.731000 2.889688
v 7.087143 0.731000 2.959688
v 7.087143 -0.731000 2.959688
v 7.770000 -0.731000 2.911400
v 7.770000 0.731000 2.911400
v 7.770000 0.731000 2.981400
v 7.770000 -0.731000 2.981400
v 8.230000 -0.731000 2.911400
v 8.230000 0.731000 2.911400
v 8.230000 0.731000 2.981400
v 8.230000 -0.731000 2.981400
v 8.912857 -0.731000 2.946831
v 8.912857 0.731000 2.946831
v 8.912857 0.731000 3.016831
v 8.912857 -0.731000 3.016831
v 9.372857 -0.731000 2.946831
v 9.372857 0.731000 2.946831
v 9.372857 0.731000 3.016831
v 9.372857 -0.731000 3.016831
v 10.055714 -0.731000 2.995638
v 10.055714 0.731000 2.995638
v 10.055714 0.731000 3.065638
v 10.055714 -0.731000 3.065638
v 10.515714 -0.731000 2.995638
v 10.515714 0.731000 2.995638
v 10.515714 0.731000 3.065638
v 10.515714 -0.731000 3.065638
v 11.198571 -0.731000 3.056805
v 11.198571 0.731000 3.056805
v 11.198571 0.731000 3.126805
v 11.198571 -0.731000 3.126805
v 11.658571 -0.731000 3.056805
v 11.658571 0.731000 3.056805
v 11.658571 0.731000 3.126805
v 11.658571 -0.731000 3.126805
v 12.341429 -0.731000 3.128699
v 12.341429 0.731000 3.128699
v 12.341429 0.731000 3.198699
v 12.341429 -0.731000 3.198699
v 12.801429 -0.731000 3.128699
v 12.801429 0.731000 3.128699
v 12.801429 0.731000 3.198699
v 12.801429 -0.731000 3.198699
v 13.484286 -0.731000 3.209147
v 13.484286 0.731000 3.209147
v 13.484286 0.731000 3.279147
v 13.484286 -0.731000 3.279147
v 13.944286 -0.731000 3.209147
v 13.944286 0.731000 3.209147
v 13.944286 0.731000 3.279147
v 13.944286 -0.731000 3.279147
v 14.627143 -0.731000 3.295547
v 14.627143 0.731000 3.295547
v 14.627143 0.731000 3.365547
v 14.627143 -0.731000 3.365547
v 15.087143 -0.731000 3.295547
v 15.087143 0.731000 3.295547
v 15.087143 0.731000 3.365547
v 15.087143 -0.731000 3.365547
v 15.770000 -0.731000 3.385000
v 15.770000 0.731000 3.385000
v 15.770000 0.731000 3.455000
v 15.770000 -0.731000 3.455000
v 16.230000 -0.731000 3.385000
v 16.230000 0.731000 3.385000
v 16.230000 0.731000 3.455000
v 16.230000 -0.731000 3.455000
v 0.000000 -0.931000 4.020000
v 0.000000 -0.941504 4.052328
v 0.000000 -0.969004 4.072308
v 0.000000 -1.002996 4.072308
v 0.000000 -1.030496 4.052328
v 0.000000 -1.041000 4.020000
v 0.000000 -1.030496 3.987672
v 0.000000 -1.002996 3.967692
v 0.000000 -0.969004 3.967692
v 0.000000 -0.941504 3.987672
v 1.142857 -0.931000 3.888356
v 1.142857 -0.941504 3.920685
v 1.142857 -0.969004 3.940664
v 1.142857 -1.002996 3.940664
v 1.142857 -1.030496 3.920685
v 1.142857 -1.041000 3.888356
v 1.142857 -1.030496 3.856028
v 1.142857 -1.002996 3.836048
v 1.142857 -0.969004 3.836048
v 1.142857 -0.941504 3.856028
v 2.285714 -0.931000 3.764747
v 2.285714 -0.941504 3.797075
v 2.285714 -0.969004 3.817055
v 2.285714 -1.002996 3.817055
v 2.285714 -1.030496 3.797075
v 2.285714 -1.041000 3.764747
v 2.285714 -1.030496 3.732418
v 2.285714 -1.002996 3.712438
v 2.285714 -0.969004 3.712438
v 2.285714 -0.941504 3.732418
v 3.428571 -0.931000 3.656802
v 3.428571 -0.941504 3.689130
v 3.428571 -0.969004 3.709110
v 3.428571 -1.002996 3.709110
v 3.428571 -1.030496 3.689130
v 3.428571 -1.041000 3.656802
v 3.428571 -1.030496 3.624473
v 3.428571 -1.002996 3.604494
v 3.428571 -0.969004 3.604494
v 3.428571 -0.941504 3.624473
v 4.571429 -0.931000 3.571367
v 4.571429 -0.941504 3.603695
v 4.571429 -0.969004 3.623675
v 4.571429 -1.002996 3.623675
v 4.571429 -1.030496 3.603695
v 4.571429 -1.041000 3.571367
v 4.571429 -1.030496 3.539039
v 4.571429 -1.002996 3.519059
v 4.571429 -0.969004 3.519059
v 4.571429 -0.941504 3.539039
v 5.714286 -0.931000 3.514160
v 5.714286 -0.941504 3.546488
v 5.714286 -0.969004 3.566468
v 5.714286 -1.002996 3.566468
v 5.714286 -1.030496 3.546488
v 5.714286 -1.041000 3.514160
v 5.714286 -1.030496 3.481831
v 5.714286 -1.002996 3.461851
v 5.714286 -0.969004 3.461851
v 5.714286 -0.941504 3.481831
v 6.857143 -0.931000 3.489480
v 6.857143 -0.941504 3.521809
v 6.857143 -0.969004 3.541789
v 6.857143 -1.002996 3.541789
v 6.857143 -1.030496 3.521809
v 6.857143 -1.041000 3.489480
v 6.857143 -1.030496 3.457152
v 6.857143 -1.002996 3.437172
v 6.857143 -0.969004 3.437172
v 6.857143 -0.941504 3.457152
v 8.000000 -0.931000 3.500000
v 8.000000 -0.941504 3.532328
v 8.000000 -0.969004 3.552308
v 8.000000 -1.002996 3.552308
v 8.000000 -1.030496 3.532328
v 8.000000 -1.041000 3.500000
v 8.000000 -1.030496 3.467672
v 8.000000 -1.002996 3.447692
v 8.000000 -0.969004 3.447692
v 8.000000 -0.941504 3.467672
v 9.142857 -0.931000 3.546623
v 9.142857 -0.941504 3.578952
v 9.142857 -0.969004 3.598931
v 9.142857 -1.002996 3.598931
v 9.142857 -1.030496 3.578952
v 9.142857 -1.041000 3.546623
v 9.142857 -1.030496 3.514295
v 9.142857 -1.002996 3.494315
v 9.142857 -0.969004 3.494315
v 9.142857 -0.941504 3.514295
v 10.285714 -0.931000 3.628445
v 10.285714 -0.941504 3.660773
v 10.285714 -0.969004 3.680753
v 10.285714 -1.002996 3.680753
v 10.285714 -1.030496 3.660773
v 10.285714 -1.041000 3.628445
v 10.285714 -1.030496 3.596117
v 10.285714 -1.002996 3.576137
v 10.285714 -0.969004 3.576137
v 10.285714 -0.941504 3.596117
v 11.428571 -0.931000 3.742796
v 11.428571 -0.941504 3.775124
v 11.428571 -0.969004 3.795104
v 11.428571 -1.002996 3.795104
v 11.428571 -1.030496 3.775124
v 11.428571 -1.041000 3.742796
v 11.428571 -1.030496 3.710467
v 11.428571 -1.002996 3.690488
v 11.428571 -0.969004 3.690488
v 11.428571 -0.941504 3.710467
v 12.571429 -0.931000 3.885373
v 12.571429 -0.941504 3.917701
v 12.571429 -0.969004 3.937681
v 12.571429 -1.002996 3.937681
v 12.571429 -1.030496 3.917701
v 12.571429 -1.041000 3.885373
v 12.571429 -1.030496 3.853045
v 12.571429 -1.002996 3.833065
v 12.571429 -0.969004 3.833065
v 12.571429 -0.941504 3.853045
v 13.714286 -0.931000 4.050461
v 13.714286 -0.941504 4.082789
v 13.714286 -0.969004 4.102769
v 13.714286 -1.002996 4.102769
v 13.714286 -1.030496 4.082789
v 13.714286 -1.041000 4.050461
v 13.714286 -1.030496 4.018133
v 13.714286 -1.002996 3.998153
v 13.714286 -0.969004 3.998153
v 13.714286 -0.941504 4.018133
v 14.857143 -0.931000 4.231213
v 14.857143 -0.941504 4.263542
v 14.857143 -0.969004 4.283522
v 14.857143 -1.002996 4.283522
v 14.857143 -1.030496 4.263542
v 14.857143 -1.041000 4.231213
v 14.857143 -1.030496 4.198885
v 14.857143 -1.002996 4.178905
v 14.857143 -0.969004 4.178905
v 14.857143 -0.941504 4.198885
v 16.000000 -0.931000 4.420000
v 16.000000 -0.941504 4.452328
v 16.000000 -0.969004 4.472308
v 16.000000 -1.002996 4.472308
v 16.000000 -1.030496 4.452328
v 16.000000 -1.041000 4.420000
v 16.000000 -1.030496 4.387672
v 16.000000 -1.002996 4.367692
v 16.000000 -0.969004 4.367692
v 16.000000 -0.941504 4.387672
v 0.000000 -0.951000 3.660000
v 0.000000 -0.961251 3.684749
v 0.000000 -0.986000 3.695000
v 0.000000 -1.010749 3.684749
v 0.000000 -1.021000 3.660000
v 0.000000 -1.010749 3.635251
v 0.000000 -0.986000 3.625000
v 0.000000 -0.961251 3.635251
v 1.142857 -0.951000 3.589238
v 1.142857 -0.961251 3.613987
v 1.142857 -0.986000 3.624238
v 1.142857 -1.010749 3.613987
v 1.142857 -1.021000 3.589238
v 1.142857 -1.010749 3.564489
v 1.142857 -0.986000 3.554238
v 1.142857 -0.961251 3.564489
v 2.285714 -0.951000 3.523457
v 2.285714 -0.961251 3.548206
v 2.285714 -0.986000 3.558457
v 2.285714 -1.010749 3.548206
v 2.285714 -1.021000 3.523457
v 2.285714 -1.010749 3.498708
v 2.285714 -0.986000 3.488457
v 2.285714 -0.961251 3.498708
v 3.428571 -0.951000 3.467388
v 3.428571 -0.961251 3.492137
v 3.428571 -0.986000 3.502388
v 3.428571 -1.010749 3.492137
v 3.428571 -1.021000 3.467388
v 3.428571 -1.010749 3.442640
v 3.428571 -0.986000 3.432388
v 3.428571 -0.961251 3.442640
v 4.571429 -0.951000 3.425276
v 4.571429 -0.961251 3.450025
v 4.571429 -0.986000 3.460276
v 4.571429 -1.010749 3.450025
v 4.571429 -1.021000 3.425276
v 4.571429 -1.010749 3.400527
v 4.571429 -0.986000 3.390276
v 4.571429 -0.961251 3.400527
v 5.714286 -0.951000 3.400665
v 5.714286 -0.961251 3.425413
v 5.714286 -0.986000 3.435665
v 5.714286 -1.010749 3.425413
v 5.714286 -1.021000 3.400665
v 5.714286 -1.010749 3.375916
v 5.714286 -0.986000 3.365665
v 5.714286 -0.961251 3.375916
v 6.857143 -0.951000 3.396221
v 6.857143 -0.961251 3.420969
v 6.857143 -0.986000 3.431221
v 6.857143 -1.010749 3.420969
v 6.857143 -1.021000 3.396221
v 6.857143 -1.010749 3.371472
v 6.857143 -0.986000 3.361221
v 6.857143 -0.961251 3.371472
v 8.000000 -0.951000 3.413600
v 8.000000 -0.961251 3.438349
v 8.000000 -0.986000 3.448600
v 8.000000 -1.010749 3.438349
v 8.000000 -1.021000 3.413600
v 8.000000 -1.010749 3.388851
v 8.000000 -0.986000 3.378600
v 8.000000 -0.961251 3.388851
v 9.142857 -0.951000 3.453364
v 9.142857 -0.961251 3.478112
v 9.142857 -0.986000 3.488364
v 9.142857 -1.010749 3.478112
v 9.142857 -1.021000 3.453364
v 9.142857 -1.010749 3.428615
v 9.142857 -0.986000 3.418364
v 9.142857 -0.961251 3.428615
v 10.285714 -0.951000 3.514950
v 10.285714 -0.961251 3.539699
v 10.285714 -0.986000 3.549950
v 10.285714 -1.010749 3.539699
v 10.285714 -1.021000 3.514950
v 10.285714 -1.010749 3.490202
v 10.285714 -0.986000 3.479950
v 10.285714 -0.961251 3.490202
v 11.428571 -0.951000 3.596705
v 11.428571 -0.961251 3.621453
v 11.428571 -0.986000 3.631705
v 11.428571 -1.010749 3.621453
v 11.428571 -1.021000 3.596705
v 11.428571 -1.010749 3.571956
v 11.428571 -0.986000 3.561705
v 11.428571 -0.961251 3.571956
v 12.571429 -0.951000 3.695960
v 12.571429 -0.961251 3.720709
v 12.571429 -0.986000 3.730960
v 12.571429 -1.010749 3.720709
v 12.571429 -1.021000 3.695960
v 12.571429 -1.010749 3.671211
v 12.571429 -0.986000 3.660960
v 12.571429 -0.961251 3.671211
v 13.714286 -0.951000 3.809171
v 13.714286 -0.961251 3.833920
v 13.714286 -0.986000 3.844171
v 13.714286 -1.010749 3.833920
v 13.714286 -1.021000 3.809171
v 13.714286 -1.010749 3.784423
v 13.714286 -0.986000 3.774171
v 13.714286 -0.961251 3.784423
v 14.857143 -0.951000 3.932095
v 14.857143 -0.961251 3.956844
v 14.857143 -0.986000 3.967095
v 14.857143 -1.010749 3.956844
v 14.857143 -1.021000 3.932095
v 14.857143 -1.010749 3.907346
v 14.857143 -0.986000 3.897095
v 14.857143 -0.961251 3.907346
v 16.000000 -0.951000 4.060000
v 16.000000 -0.961251 4.084749
v 16.000000 -0.986000 4.095000
v 16.000000 -1.010749 4.084749
v 16.000000 -1.021000 4.060000
v 16.000000 -1.010749 4.035251
v 16.000000 -0.986000 4.025000
v 16.000000 -0.961251 4.035251
v 0.000000 -0.752000 3.220000
v 0.000000 -0.760787 3.241213
v 0.000000 -0.782000 3.250000
v 0.000000 -0.803213 3.241213
v 0.000000 -0.812000 3.220000
v 0.000000 -0.803213 3.198787
v 0.000000 -0.782000 3.190000
v 0.000000 -0.760787 3.198787
v 1.142857 -0.752000 3.187690
v 1.142857 -0.760787 3.208903
v 1.142857 -0.782000 3.217690
v 1.142857 -0.803213 3.208903
v 1.142857 -0.812000 3.187690
v 1.142857 -0.803213 3.166476
v 1.142857 -0.782000 3.157690
v 1.142857 -0.760787 3.166476
v 2.285714 -0.752000 3.158432
v 2.285714 -0.760787 3.179645
v 2.285714 -0.782000 3.188432
v 2.285714 -0.803213 3.179645
v 2.285714 -0.812000 3.158432
v 2.285714 -0.803213 3.137219
v 2.285714 -0.782000 3.128432
v 2.285714 -0.760787 3.137219
v 3.428571 -0.752000 3.135127
v 3.428571 -0.760787 3.156341
v 3.428571 -0.782000 3.165127
v 3.428571 -0.803213 3.156341
v 3.428571 -0.812000 3.135127
v 3.428571 -0.803213 3.113914
v 3.428571 -0.782000 3.105127
v 3.428571 -0.760787 3.113914
v 4.571429 -0.752000 3.120377
v 4.571429 -0.760787 3.141590
v 4.571429 -0.782000 3.150377
v 4.571429 -0.803213 3.141590
v 4.571429 -0.812000 3.120377
v 4.571429 -0.803213 3.099163
v 4.571429 -0.782000 3.090377
v 4.571429 -0.760787 3.099163
v 5.714286 -0.752000 3.116352
v 5.714286 -0.760787 3.137565
v 5.714286 -0.782000 3.146352
v 5.714286 -0.803213 3.137565
v 5.714286 -0.812000 3.116352
v 5.714286 -0.803213 3.095139
v 5.714286 -0.782000 3.086352
v 5.714286 -0.760787 3.095139
v 6.857143 -0.752000 3.124688
v 6.857143 -0.760787 3.145901
v 6.857143 -0.782000 3.154688
v 6.857143 -0.803213 3.145901
v 6.857143 -0.812000 3.124688
v 6.857143 -0.803213 3.103475
v 6.857143 -0.782000 3.094688
v 6.857143 -0.760787 3.103475
v 8.000000 -0.752000 3.146400
v 8.000000 -0.760787 3.167613
v 8.000000 -0.782000 3.176400
v 8.000000 -0.803213 3.167613
v 8.000000 -0.812000 3.146400
v 8.000000 -0.803213 3.125187
v 8.000000 -0.782000 3.116400
v 8.000000 -0.760787 3.125187
v 9.142857 -0.752000 3.181831
v 9.142857 -0.760787 3.203044
v 9.142857 -0.782000 3.211831
v 9.142857 -0.803213 3.203044
v 9.142857 -0.812000 3.181831
v 9.142857 -0.803213 3.160618
v 9.142857 -0.782000 3.151831
v 9.142857 -0.760787 3.160618
v 10.285714 -0.752000 3.230638
v 10.285714 -0.760787 3.251851
v 10.285714 -0.782000 3.260638
v 10.285714 -0.803213 3.251851
v 10.285714 -0.812000 3.230638
v 10.285714 -0.803213 3.209425
v 10.285714 -0.782000 3.200638
v 10.285714 -0.760787 3.209425
v 11.428571 -0.752000 3.291805
v 11.428571 -0.760787 3.313018
v 11.428571 -0.782000 3.321805
v 11.428571 -0.803213 3.313018
v 11.428571 -0.812000 3.291805
v 11.428571 -0.803213 3.270592
v 11.428571 -0.782000 3.261805
v 11.428571 -0.760787 3.270592
v 12.571429 -0.752000 3.363699
v 12.571429 -0.760787 3.384912
v 12.571429 -0.782000 3.393699
v 12.571429 -0.803213 3.384912
v 12.571429 -0.812000 3.363699
v 12.571429 -0.803213 3.342486
v 12.571429 -0.782000 3.333699
v 12.571429 -0.760787 3.342486
v 13.714286 -0.752000 3.444147
v 13.714286 -0.760787 3.465360
v 13.714286 -0.782000 3.474147
v 13.714286 -0.803213 3.465360
v 13.714286 -0.812000 3.444147
v 13.714286 -0.803213 3.422933
v 13.714286 -0.782000 3.414147
v 13.714286 -0.760787 3.422933
v 14.857143 -0.752000 3.530547
v 14.857143 -0.760787 3.551760
v 14.857143 -0.782000 3.560547
v 14.857143 -0.803213 3.551760
v 14.857143 -0.812000 3.530547
v 14.857143 -0.803213 3.509334
v 14.857143 -0.782000 3.500547
v 14.857143 -0.760787 3.509334
v 16.000000 -0.752000 3.620000
v 16.000000 -0.760787 3.641213
v 16.000000 -0.782000 3.650000
v 16.000000 -0.803213 3.641213
v 16.000000 -0.812000 3.620000
v 16.000000 -0.803213 3.598787
v 16.000000 -0.782000 3.590000
v 16.000000 -0.760787 3.598787
v -0.025000 -1.011000 3.120000
v -0.025000 -0.961000 3.120000
v -0.025000 -0.961000 4.020000
v -0.025000 -1.011000 4.020000
v 0.025000 -1.011000 3.120000
v 0.025000 -0.961000 3.120000
v 0.025000 -0.961000 4.020000
v 0.025000 -1.011000 4.020000
v 2.260714 -1.011000 3.058432
v 2.260714 -0.961000 3.058432
v 2.260714 -0.961000 3.764747
v 2.260714 -1.011000 3.764747
v 2.310714 -1.011000 3.058432
v 2.310714 -0.961000 3.058432
v 2.310714 -0.961000 3.764747
v 2.310714 -1.011000 3.764747
v 4.546429 -1.011000 3.020377
v 4.546429 -0.961000 3.020377
v 4.546429 -0.961000 3.571367
v 4.546429 -1.011000 3.571367
v 4.596429 -1.011000 3.020377
v 4.596429 -0.961000 3.020377
v 4.596429 -0.961000 3.571367
v 4.596429 -1.011000 3.571367
v 6.832143 -1.011000 3.024688
v 6.832143 -0.961000 3.024688
v 6.832143 -0.961000 3.489480
v 6.832143 -1.011000 3.489480
v 6.882143 -1.011000 3.024688
v 6.882143 -0.961000 3.024688
v 6.882143 -0.961000 3.489480
v 6.882143 -1.011000 3.489480
v 9.117857 -1.011000 3.081831
v 9.117857 -0.961000 3.081831
v 9.117857 -0.961000 3.546623
v 9.117857 -1.011000 3.546623
v 9.167857 -1.011000 3.081831
v 9.167857 -0.961000 3.081831
v 9.167857 -0.961000 3.546623
v 9.167857 -1.011000 3.546623
v 11.403571 -1.011000 3.191805
v 11.403571 -0.961000 3.191805
v 11.403571 -0.961000 3.742796
v 11.403571 -1.011000 3.742796
v 11.453571 -1.011000 3.191805
v 11.453571 -0.961000 3.191805
v 11.453571 -0.961000 3.742796
v 11.453571 -1.011000 3.742796
v 13.689286 -1.011000 3.344147
v 13.689286 -0.961000 3.344147
v 13.689286 -0.961000 4.050461
v 13.689286 -1.011000 4.050461
v 13.739286 -1.011000 3.344147
v 13.739286 -0.961000 3.344147
v 13.739286 -0.961000 4.050461
v 13.739286 -1.011000 4.050461
v 15.975000 -1.011000 3.520000
v 15.975000 -0.961000 3.520000
v 15.975000 -0.961000 4.420000
v 15.975000 -1.011000 4.420000
v 16.025000 -1.011000 3.520000
v 16.025000 -0.961000 3.520000
v 16.025000 -0.961000 4.420000
v 16.025000 -1.011000 4.420000
v 0.000000 1.041000 4.020000
v 0.000000 1.030496 4.052328
v 0.000000 1.002996 4.072308
v 0.000000 0.969004 4.072308
v 0.000000 0.941504 4.052328
v 0.000000 0.931000 4.020000
v 0.000000 0.941504 3.987672
v 0.000000 0.969004 3.967692
v 0.000000 1.002996 3.967692
v 0.000000 1.030496 3.987672
v 1.142857 1.041000 3.888356
v 1.142857 1.030496 3.920685
v 1.142857 1.002996 3.940664
v 1.142857 0.969004 3.940664
v 1.142857 0.941504 3.920685
v 1.142857 0.931000 3.888356
v 1.142857 0.941504 3.856028
v 1.142857 0.969004 3.836048
v 1.142857 1.002996 3.836048
v 1.142857 1.030496 3.856028
v 2.285714 1.041000 3.764747
v 2.285714 1.030496 3.797075
v 2.285714 1.002996 3.817055
v 2.285714 0.969004 3.817055
v 2.285714 0.941504 3.797075
v 2.285714 0.931000 3.764747
v 2.285714 0.941504 3.732418
v 2.285714 0.969004 3.712438
v 2.285714 1.002996 3.712438
v 2.285714 1.030496 3.732418
v 3.428571 1.041000 3.656802
v 3.428571 1.030496 3.689130
v 3.428571 1.002996 3.709110
v 3.428571 0.969004 3.709110
v 3.428571 0.941504 3.689130
v 3.428571 0.931000 3.656802
v 3.428571 0.941504 3.624473
v 3.428571 0.969004 3.604494
v 3.428571 1.002996 3.604494
v 3.428571 1.030496 3.624473
v 4.571429 1.041000 3.571367
v 4.571429 1.030496 3.603695
v 4.571429 1.002996 3.623675
v 4.571429 0.969004 3.623675
v 4.571429 0.941504 3.603695
v 4.571429 0.931000 3.571367
v 4.571429 0.941504 3.539039
v 4.571429 0.969004 3.519059
v 4.571429 1.002996 3.519059
v 4.571429 1.030496 3.539039
v 5.714286 1.041000 3.514160
v 5.714286 1.030496 3.546488
v 5.714286 1.002996 3.566468
v 5.714286 0.969004 3.566468
v 5.714286 0.941504 3.546488
v 5.714286 0.931000 3.514160
v 5.714286 0.941504 3.481831
v 5.714286 0.969004 3.461851
v 5.714286 1.002996 3.461851
v 5.714286 1.030496 3.481831
v 6.857143 1.041000 3.489480
v 6.857143 1.030496 3.521809
v 6.857143 1.002996 3.541789
v 6.857143 0.969004 3.541789
v 6.857143 0.941504 3.521809
v 6.857143 0.931000 3.489480
v 6.857143 0.941504 3.457152
v 6.857143 0.969004 3.437172
v 6.857143 1.002996 3.437172
v 6.857143 1.030496 3.457152
v 8.000000 1.041000 3.500000
v 8.000000 1.030496 3.532328
v 8.000000 1.002996 3.552308
v 8.000000 0.969004 3.552308
v 8.000000 0.941504 3.532328
v 8.000000 0.931000 3.500000
v 8.000000 0.941504 3.467672
v 8.000000 0.969004 3.447692
v 8.000000 1.002996 3.447692
v 8.000000 1.030496 3.467672
v 9.142857 1.041000 3.546623
v 9.142857 1.030496 3.578952
v 9.142857 1.002996 3.598931
v 9.142857 0.969004 3.598931
v 9.142857 0.941504 3.578952
v 9.142857 0.931000 3.546623
v 9.142857 0.941504 3.514295
v 9.142857 0.969004 3.494315
v 9.142857 1.002996 3.494315
v 9.142857 1.030496 3.514295
v 10.285714 1.041000 3.628445
v 10.285714 1.030496 3.660773
v 10.285714 1.002996 3.680753
v 10.285714 0.969004 3.680753
v 10.285714 0.941504 3.660773
v 10.285714 0.931000 3.628445
v 10.285714 0.941504 3.596117
v 10.285714 0.969004 3.576137
v 10.285714 1.002996 3.576137
v 10.285714 1.030496 3.596117
v 11.428571 1.041000 3.742796
v 11.428571 1.030496 3.775124
v 11.428571 1.002996 3.795104
v 11.428571 0.969004 3.795104
v 11.428571 0.941504 3.775124
v 11.428571 0.931000 3.742796
v 11.428571 0.941504 3.710467
v 11.428571 0.969004 3.690488
v 11.428571 1.002996 3.690488
v 11.428571 1.030496 3.710467
v 12.571429 1.041000 3.885373
v 12.571429 1.030496 3.917701
v 12.571429 1.002996 3.937681
v 12.571429 0.969004 3.937681
v 12.571429 0.941504 3.917701
v 12.571429 0.931000 3.885373
v 12.571429 0.941504 3.853045
v 12.571429 0.969004 3.833065
v 12.571429 1.002996 3.833065
v 12.571429 1.030496 3.853045
v 13.714286 1.041000 4.050461
v 13.714286 1.030496 4.082789
v 13.714286 1.002996 4.102769
v 13.714286 0.969004 4.102769
v 13.714286 0.941504 4.082789
v 13.714286 0.931000 4.050461
v 13.714286 0.941504 4.018133
v 13.714286 0.969004 3.998153
v 13.714286 1.002996 3.998153
v 13.714286 1.030496 4.018133
v 14.857143 1.041000 4.231213
v 14.857143 1.030496 4.263542
v 14.857143 1.002996 4.283522
v 14.857143 0.969004 4.283522
v 14.857143 0.941504 4.263542
v 14.857143 0.931000 4.231213
v 14.857143 0.941504 4.198885
v 14.857143 0.969004 4.178905
v 14.857143 1.002996 4.178905
v 14.857143 1.030496 4.198885
v 16.000000 1.041000 4.420000
v 16.000000 1.030496 4.452328
v 16.000000 1.002996 4.472308
v 16.000000 0.969004 4.472308
v 16.000000 0.941504 4.452328
v 16.000000 0.931000 4.420000
v 16.000000 0.941504 4.387672
v 16.000000 0.969004 4.367692
v 16.000000 1.002996 4.367692
v 16.000000 1.030496 4.387672
v 0.000000 1.021000 3.660000
v 0.000000 1.010749 3.684749
v 0.000000 0.986000 3.695000
v 0.000000 0.961251 3.684749
v 0.000000 0.951000 3.660000
v 0.000000 0.961251 3.635251
v 0.000000 0.986000 3.625000
v 0.000000 1.010749 3.635251
v 1.142857 1.021000 3.589238
v 1.142857 1.010749 3.613987
v 1.142857 0.986000 3.624238
v 1.142857 0.961251 3.613987
v 1.142857 0.951000 3.589238
v 1.142857 0.961251 3.564489
v 1.142857 0.986000 3.554238
v 1.142857 1.010749 3.564489
v 2.285714 1.021000 3.523457
v 2.285714 1.010749 3.548206
v 2.285714 0.986000 3.558457
v 2.285714 0.961251 3.548206
v 2.285714 0.951000 3.523457
v 2.285714 0.961251 3.498708
v 2.285714 0.986000 3.488457
v 2.285714 1.010749 3.498708
v 3.428571 1.021000 3.467388
v 3.428571 1.010749 3.492137
v 3.428571 0.986000 3.502388
v 3.428571 0.961251 3.492137
v 3.428571 0.951000 3.467388
v 3.428571 0.961251 3.442640
v 3.428571 0.986000 3.432388
v 3.428571 1.010749 3.442640
v 4.571429 1.021000 3.425276
v 4.571429 1.010749 3.450025
v 4.571429 0.986000 3.460276
v 4.571429 0.961251 3.450025
v 4.571429 0.951000 3.425276
v 4.571429 0.961251 3.400527
v 4.571429 0.986000 3.390276
v 4.571429 1.010749 3.400527
v 5.714286 1.021000 3.400665
v 5.714286 1.010749 3.425413
v 5.714286 0.986000 3.435665
v 5.714286 0.961251 3.425413
v 5.714286 0.951000 3.400665
v 5.714286 0.961251 3.375916
v 5.714286 0.986000 3.365665
v 5.714286 1.010749 3.375916
v 6.857143 1.021000 3.396221
v 6.857143 1.010749 3.420969
v 6.857143 0.986000 3.431221
v 6.857143 0.961251 3.420969
v 6.857143 0.951000 3.396221
v 6.857143 0.961251 3.371472
v 6.857143 0.986000 3.361221
v 6.857143 1.010749 3.371472
v 8.000000 1.021000 3.413600
v 8.000000 1.010749 3.438349
v 8.000000 0.986000 3.448600
v 8.000000 0.961251 3.438349
v 8.000000 0.951000 3.413600
v 8.000000 0.961251 3.388851
v 8.000000 0.986000 3.378600
v 8.000000 1.010749 3.388851
v 9.142857 1.021000 3.453364
v 9.142857 1.010749 3.478112
v 9.142857 0.986000 3.488364
v 9.142857 0.961251 3.478112
v 9.142857 0.951000 3.453364
v 9.142857 0.961251 3.428615
v 9.142857 0.986000 3.418364
v 9.142857 1.010749 3.428615
v 10.285714 1.021000 3.514950
v 10.285714 1.010749 3.539699
v 10.285714 0.986000 3.549950
v 10.285714 0.961251 3.539699
v 10.285714 0.951000 3.514950
v 10.285714 0.961251 3.490202
v 10.285714 0.986000 3.479950
v 10.285714 1.010749 3.490202
v 11.428571 1.021000 3.596705
v 11.428571 1.010749 3.621453
v 11.428571 0.986000 3.631705
v 11.428571 0.961251 3.621453
v 11.428571 0.951000 3.596705
v 11.428571 0.961251 3.571956
v 11.428571 0.986000 3.561705
v 11.428571 1.010749 3.571956
v 12.571429 1.021000 3.695960
v 12.571429 1.010749 3.720709
v 12.571429 0.986000 3.730960
v 12.571429 0.961251 3.720709
v 12.571429 0.951000 3.695960
v 12.571429 0.961251 3.671211
v 12.571429 0.986000 3.660960
v 12.571429 1.010749 3.671211
v 13.714286 1.021000 3.809171
v 13.714286 1.010749 3.833920
v 13.714286 0.986000 3.844171
v 13.714286 0.961251 3.833920
v 13.714286 0.951000 3.809171
v 13.714286 0.961251 3.784423
v 13.714286 0.986000 3.774171
v 13.714286 1.010749 3.784423
v 14.857143 1.021000 3.932095
v 14.857143 1.010749 3.956844
v 14.857143 0.986000 3.967095
v 14.857143 0.961251 3.956844
v 14.857143 0.951000 3.932095
v 14.857143 0.961251 3.907346
v 14.857143 0.986000 3.897095
v 14.857143 1.010749 3.907346
v 16.000000 1.021000 4.060000
v 16.000000 1.010749 4.084749
v 16.000000 0.986000 4.095000
v 16.000000 0.961251 4.084749
v 16.000000 0.951000 4.060000
v 16.000000 0.961251 4.035251
v 16.000000 0.986000 4.025000
v 16.000000 1.010749 4.035251
v 0.000000 0.812000 3.220000
v 0.000000 0.803213 3.241213
v 0.000000 0.782000 3.250000
v 0.000000 0.760787 3.241213
v 0.000000 0.752000 3.220000
v 0.000000 0.760787 3.198787
v 0.000000 0.782000 3.190000
v 0.000000 0.803213 3.198787
v 1.142857 0.812000 3.187690
v 1.142857 0.803213 3.208903
v 1.142857 0.782000 3.217690
v 1.142857 0.760787 3.208903
v 1.142857 0.752000 3.187690
v 1.142857 0.760787 3.166476
v 1.142857 0.782000 3.157690
v 1.142857 0.803213 3.166476
v 2.285714 0.812000 3.158432
v 2.285714 0.803213 3.179645
v 2.285714 0.782000 3.188432
v 2.285714 0.760787 3.179645
v 2.285714 0.752000 3.158432
v 2.285714 0.760787 3.137219
v 2.285714 0.782000 3.128432
v 2.285714 0.803213 3.137219
v 3.428571 0.812000 3.135127
v 3.428571 0.803213 3.156341
v 3.428571 0.782000 3.165127
v 3.428571 0.760787 3.156341
v 3.428571 0.752000 3.135127
v 3.428571 0.760787 3.113914
v 3.428571 0.782000 3.105127
v 3.428571 0.803213 3.113914
v 4.571429 0.812000 3.120377
v 4.571429 0.803213 3.141590
v 4.571429 0.782000 3.150377
v 4.571429 0.760787 3.141590
v 4.571429 0.752000 3.120377
v 4.571429 0.760787 3.099163
v 4.571429 0.782000 3.090377
v 4.571429 0.803213 3.099163
v 5.714286 0.812000 3.116352
v 5.714286 0.803213 3.137565
v 5.714286 0.782000 3.146352
v 5.714286 0.760787 3.137565
v 5.714286 0.752000 3.116352
v 5.714286 0.760787 3.095139
v 5.714286 0.782000 3.086352
v 5.714286 0.803213 3.095139
v 6.857143 0.812000 3.124688
v 6.857143 0.803213 3.145901
v 6.857143 0.782000 3.154688
v 6.857143 0.760787 3.145901
v 6.857143 0.752000 3.124688
v 6.857143 0.760787 3.103475
v 6.857143 0.782000 3.094688
v 6.857143 0.803213 3.103475
v 8.000000 0.812000 3.146400
v 8.000000 0.803213 3.167613
v 8.000000 0.782000 3.176400
v 8.000000 0.760787 3.167613
v 8.000000 0.752000 3.146400
v 8.000000 0.760787 3.125187
v 8.000000 0.782000 3.116400
v 8.000000 0.803213 3.125187
v 9.142857 0.812000 3.181831
v 9.142857 0.803213 3.203044
v 9.142857 0.782000 3.211831
v 9.142857 0.760787 3.203044
v 9.142857 0.752000 3.181831
v 9.142857 0.760787 3.160618
v 9.142857 0.782000 3.151831
v 9.142857 0.803213 3.160618
v 10.285714 0.812000 3.230638
v 10.285714 0.803213 3.251851
v 10.285714 0.782000 3.260638
v 10.285714 0.760787 3.251851
v 10.285714 0.752000 3.230638
v 10.285714 0.760787 3.209425
v 10.285714 0.782000 3.200638
v 10.285714 0.803213 3.209425
v 11.428571 0.812000 3.291805
v 11.428571 0.803213 3.313018
v 11.428571 0.782000 3.321805
v 11.428571 0.760787 3.313018
v 11.428571 0.752000 3.291805
v 11.428571 0.760787 3.270592
v 11.428571 0.782000 3.261805
v 11.428571 0.803213 3.270592
v 12.571429 0.812000 3.363699
v 12.571429 0.803213 3.384912
v 12.571429 0.782000 3.393699
v 12.571429 0.760787 3.384912
v 12.571429 0.752000 3.363699
v 12.571429 0.760787 3.342486
v 12.571429 0.782000 3.333699
v 12.571429 0.803213 3.342486
v 13.714286 0.812000 3.444147
v 13.714286 0.803213 3.465360
v 13.714286 0.782000 3.474147
v 13.714286 0.760787 3.465360
v 13.714286 0.752000 3.444147
v 13.714286 0.760787 3.422933
v 13.714286 0.782000 3.414147
v 13.714286 0.803213 3.422933
v 14.857143 0.812000 3.530547
v 14.857143 0.803213 3.551760
v 14.857143 0.782000 3.560547
v 14.857143 0.760787 3.551760
v 14.857143 0.752000 3.530547
v 14.857143 0.760787 3.509334
v 14.857143 0.782000 3.500547
v 14.857143 0.803213 3.509334
v 16.000000 0.812000 3.620000
v 16.000000 0.803213 3.641213
v 16.000000 0.782000 3.650000
v 16.000000 0.760787 3.641213
v 16.000000 0.752000 3.620000
v 16.000000 0.760787 3.598787
v 16.000000 0.782000 3.590000
v 16.000000 0.803213 3.598787
v -0.025000 0.961000 3.120000
v -0.025000 1.011000 3.120000
v -0.025000 1.011000 4.020000
v -0.025000 0.961000 4.020000
v 0.025000 0.961000 3.120000
v 0.025000 1.011000 3.120000
v 0.025000 1.011000 4.020000
v 0.025000 0.961000 4.020000
v 2.260714 0.961000 3.058432
v 2.260714 1.011000 3.058432
v 2.260714 1.011000 3.764747
v 2.260714 0.961000 3.764747
v 2.310714 0.961000 3.058432
v 2.310714 1.011000 3.058432
v 2.310714 1.011000 3.764747
v 2.310714 0.961000 3.764747
v 4.546429 0.961000 3.020377
v 4.546429 1.011000 3.020377
v 4.546429 1.011000 3.571367
v 4.546429 0.961000 3.571367
v 4.596429 0.961000 3.020377
v 4.596429 1.011000 3.020377
v 4.596429 1.011000 3.571367
v 4.596429 0.961000 3.571367
v 6.832143 0.961000 3.024688
v 6.832143 1.011000 3.024688
v 6.832143 1.011000 3.489480
v 6.832143 0.961000 3.489480
v 6.882143 0.961000 3.024688
v 6.882143 1.011000 3.024688
v 6.882143 1.011000 3.489480
v 6.882143 0.961000 3.489480
v 9.117857 0.961000 3.081831
v 9.117857 1.011000 3.081831
v 9.117857 1.011000 3.546623
v 9.117857 0.961000 3.546623
v 9.167857 0.961000 3.081831
v 9.167857 1.011000 3.081831
v 9.167857 1.011000 3.546623
v 9.167857 0.961000 3.546623
v 11.403571 0.961000 3.191805
v 11.403571 1.011000 3.191805
v 11.403571 1.011000 3.742796
v 11.403571 0.961000 3.742796
v 11.453571 0.961000 3.191805
v 11.453571 1.011000 3.191805
v 11.453571 1.011000 3.742796
v 11.453571 0.961000 3.742796
v 13.689286 0.961000 3.344147
v 13.689286 1.011000 3.344147
v 13.689286 1.011000 4.050461
v 13.689286 0.961000 4.050461
v 13.739286 0.961000 3.344147
v 13.739286 1.011000 3.344147
v 13.739286 1.011000 4.050461
v 13.739286 0.961000 4.050461
v 15.975000 0.961000 3.520000
v 15.975000 1.011000 3.520000
v 15.975000 1.011000 4.420000
v 15.975000 0.961000 4.420000
v 16.025000 0.961000 3.520000
v 16.025000 1.011000 3.520000
v 16.025000 1.011000 4.420000
v 16.025000 0.961000 4.420000
v -0.120000 -1.106000 2.940000
v -0.120000 -0.866000 2.940000
v -0.120000 -0.866000 4.300000
v -0.120000 -1.106000 4.300000
v 0.120000 -1.106000 2.940000
v 0.120000 -0.866000 2.940000
v 0.120000 -0.866000 4.300000
v 0.120000 -1.106000 4.300000
v -0.180000 -1.166000 4.285000
v -0.180000 -0.806000 4.285000
v -0.180000 -0.806000 4.395000
v -0.180000 -1.166000 4.395000
v 0.180000 -1.166000 4.285000
v 0.180000 -0.806000 4.285000
v 0.180000 -0.806000 4.395000
v 0.180000 -1.166000 4.395000
v -0.120000 0.866000 2.940000
v -0.120000 1.106000 2.940000
v -0.120000 1.106000 4.300000
v -0.120000 0.866000 4.300000
v 0.120000 0.866000 2.940000
v 0.120000 1.106000 2.940000
v 0.120000 1.106000 4.300000
v 0.120000 0.866000 4.300000
v -0.180000 0.806000 4.285000
v -0.180000 1.166000 4.285000
v -0.180000 1.166000 4.395000
v -0.180000 0.806000 4.395000
v 0.180000 0.806000 4.285000
v 0.180000 1.166000 4.285000
v 0.180000 1.166000 4.395000
v 0.180000 0.806000 4.395000
v 15.880000 -1.106000 3.340000
v 15.880000 -0.866000 3.340000
v 15.880000 -0.866000 4.700000
v 15.880000 -1.106000 4.700000
v 16.120000 -1.106000 3.340000
v 16.120000 -0.866000 3.340000
v 16.120000 -0.866000 4.700000
v 16.120000 -1.106000 4.700000
v 15.820000 -1.166000 4.685000
v 15.820000 -0.806000 4.685000
v 15.820000 -0.806000 4.795000
v 15.820000 -1.166000 4.795000
v 16.180000 -1.166000 4.685000
v 16.180000 -0.806000 4.685000
v 16.180000 -0.806000 4.795000
v 16.180000 -1.166000 4.795000
v 15.880000 0.866000 3.340000
v 15.880000 1.106000 3.340000
v 15.880000 1.106000 4.700000
v 15.880000 0.866000 4.700000
v 16.120000 0.866000 3.340000
v 16.120000 1.106000 3.340000
v 16.120000 1.106000 4.700000
v 16.120000 0.866000 4.700000
v 15.820000 0.806000 4.685000
v 15.820000 1.166000 4.685000
v 15.820000 1.166000 4.795000
v 15.820000 0.806000 4.795000
v 16.180000 0.806000 4.685000
v 16.180000 1.166000 4.685000
v 16.180000 1.166000 4.795000
v 16.180000 0.806000 4.795000
f 1 5 6 2
f 3 4 8 7
f 1 3 7 5
f 2 6 8 4
f 5 9 10 6
f 7 8 12 11
f 5 7 11 9
f 6 10 12 8
f 9 13 14 10
f 11 12 16 15
f 9 11 15 13
f 10 14 16 12
f 13 17 18 14
f 15 16 20 19
f 13 15 19 17
f 14 18 20 16
f 17 21 22 18
f 19 20 24 23
f 17 19 23 21
f 18 22 24 20
f 21 25 26 22
f 23 24 28 27
f 21 23 27 25
f 22 26 28 24
f 25 29 30 26
f 27 28 32 31
f 25 27 31 29
f 26 30 32 28
f 29 33 34 30
f 31 32 36 35
f 29 31 35 33
f 30 34 36 32
f 33 37 38 34
f 35 36 40 39
f 33 35 39 37
f 34 38 40 36
f 37 41 42 38
f 39 40 44 43
f 37 39 43 41
f 38 42 44 40
f 41 45 46 42
f 43 44 48 47
f 41 43 47 45
f 42 46 48 44
f 45 49 50 46
f 47 48 52 51
f 45 47 51 49
f 46 50 52 48
f 49 53 54 50
f 51 52 56 55
f 49 51 55 53
f 50 54 56 52
f 53 57 58 54
f 55 56 60 59
f 53 55 59 57
f 54 58 60 56
f 61 64 63 62
f 65 66 67 68
f 61 62 66 65
f 63 64 68 67
f 61 65 68 64
f 62 63 67 66
f 69 72 71 70
f 73 74 75 76
f 69 70 74 73
f 71 72 76 75
f 69 73 76 72
f 70 71 75 74
f 77 80 79 78
f 81 82 83 84
f 77 78 82 81
f 79 80 84 83
f 77 81 84 80
f 78 79 83 82
f 85 88 87 86
f 89 90 91 92
f 85 86 90 89
f 87 88 92 91
f 85 89 92 88
f 86 87 91 90
f 93 96 95 94
f 97 98 99 100
f 93 94 98 97
f 95 96 100 99
f 93 97 100 96
f 94 95 99 98
f 101 104 103 102
f 105 106 107 108
f 101 102 106 105
f 103 104 108 107
f 101 105 108 104
f 102 103 107 106
f 109 112 111 110
f 113 114 115 116
f 109 110 114 113
f 111 112 116 115
f 109 113 116 112
f 110 111 115 114
f 117 120 119 118
f 121 122 123 124
f 117 118 122 121
f 119 120 124 123
f 117 121 124 120
f 118 119 123 122
f 125 128 127 126
f 129 130 131 132
f 125 126 130 129
f 127 128 132 131
f 125 129 132 128
f 126 127 131 130
f 133 136 135 134
f 137 138 139 140
f 133 134 138 137
f 135 136 140 139
f 133 137 140 136
f 134 135 139 138
f 141 144 143 142
f 145 146 147 148
f 141 142 146 145
f 143 144 148 147
f 141 145 148 144
f 142 143 147 146
f 149 152 151 150
f 153 154 155 156
f 149 150 154 153
f 151 152 156 155
f 149 153 156 152
f 150 151 155 154
f 157 160 159 158
f 161 162 163 164
f 157 158 162 161
f 159 160 164 163
f 157 161 164 160
f 158 159 163 162
f 165 168 167 166
f 169 170 171 172
f 165 166 170 169
f 167 168 172 171
f 165 169 172 168
f 166 167 171 170
f 173 176 175 174
f 177 178 179 180
f 173 174 178 177
f 175 176 180 179
f 173 177 180 176
f 174 175 179 178
f 181 191 192 182
f 182 192 193 183
f 183 193 194 184
f 184 194 195 185
f 185 195 196 186
f 186 196 197 187
f 187 197 198 188
f 188 198 199 189
f 189 199 200 190
f 190 200 191 181
f 191 201 202 192
f 192 202 203 193
f 193 203 204 194
f 194 204 205 195
f 195 205 206 196
f 196 206 207 197
f 197 207 208 198
f 198 208 209 199
f 199 209 210 200
f 200 210 201 191
f 201 211 212 202
f 202 212 213 203
f 203 213 214 204
f 204 214 215 205
f 205 215 216 206
f 206 216 217 207
f 207 217 218 208
f 208 218 219 209
f 209 219 220 210
f 210 220 211 201
f 211 221 222 212
f 212 222 223 213
f 213 223 224 214
f 214 224 225 215
f 215 225 226 216
f 216 226 227 217
f 217 227 228 218
f 218 228 229 219
f 219 229 230 220
f 220 230 221 211
f 221 231 232 222
f 222 232 233 223
f 223 233 234 224
f 224 234 235 225
f 225 235 236 226
f 226 236 237 227
f 227 237 238 228
f 228 238 239 229
f 229 239 240 230
f 230 240 231 221
f 231 241 242 232
f 232 242 243 233
f 233 243 244 234
f 234 244 245 235
f 235 245 246 236
f 236 246 247 237
f 237 247 248 238
f 238 248 249 239
f 239 249 250 240
f 240 250 241 231
f 241 251 252 242
f 242 252 253 243
f 243 253 254 244
f 244 254 255 245
f 245 255 256 246
f 246 256 257 247
f 247 257 258 248
f 248 258 259 249
f 249 259 260 250
f 250 260 251 241
f 251 261 262 252
f 252 262 263 253
f 253 263 264 254
f 254 264 265 255
f 255 265 266 256
f 256 266 267 257
f 257 267 268 258
f 258 268 269 259
f 259 269 270 260
f 260 270 261 251
f 261 271 272 262
f 262 272 273 263
f 263 273 274 264
f 264 274 275 265
f 265 275 276 266
f 266 276 277 267
f 267 277 278 268
f 268 278 279 269
f 269 279 280 270
f 270 280 271 261
f 271 281 282 272
f 272 282 283 273
f 273 283 284 274
f 274 284 285 275
f 275 285 286 276
f 276 286 287 277
f 277 287 288 278
f 278 288 289 279
f 279 289 290 280
f 280 290 281 271
f 281 291 292 282
f 282 292 293 283
f 283 293 294 284
f 284 294 295 285
f 285 295 296 286
f 286 296 297 287
f 287 297 298 288
f 288 298 299 289
f 289 299 300 290
f 290 300 291 281
f 291 301 302 292
f 292 302 303 293
f 293 303 304 294
f 294 304 305 295
f 295 305 306 296
f 296 306 307 297
f 297 307 308 298
f 298 308 309 299
f 299 309 310 300
f 300 310 301 291
f 301 311 312 302
f 302 312 313 303
f 303 313 314 304
f 304 314 315 305
f 305 315 316 306
f 306 316 317 307
f 307 317 318 308
f 308 318 319 309
f 309 319 320 310
f 310 320 311 301
f 311 321 322 312
f 312 322 323 313
f 313 323 324 314
f 314 324 325 315
f 315 325 326 316
f 316 326 327 317
f 317 327 328 318
f 318 328 329 319
f 319 329 330 320
f 320 330 321 311
f 331 339 340 332
f 332 340 341 333
f 333 341 342 334
f 334 342 343 335
f 335 343 344 336
f 336 344 345 337
f 337 345 346 338
f 338 346 339 331
f 339 347 348 340
f 340 348 349 341
f 341 349 350 342
f 342 350 351 343
f 343 351 352 344
f 344 352 353 345
f 345 353 354 346
f 346 354 347 339
f 347 355 356 348
f 348 356 357 349
f 349 357 358 350
f 350 358 359 351
f 351 359 360 352
f 352 360 361 353
f 353 361 362 354
f 354 362 355 347
f 355 363 364 356
f 356 364 365 357
f 357 365 366 358
f 358 366 367 359
f 359 367 368 360
f 360 368 369 361
f 361 369 370 362
f 362 370 363 355
f 363 371 372 364
f 364 372 373 365
f 365 373 374 366
f 366 374 375 367
f 367 375 376 368
f 368 376 377 369
f 369 377 378 370
f 370 378 371 363
f 371 379 380 372
f 372 380 381 373
f 373 381 382 374
f 374 382 383 375
f 375 383 384 376
f 376 384 385 377
f 377 385 386 378
f 378 386 379 371
f 379 387 388 380
f 380 388 389 381
f 381 389 390 382
f 382 390 391 383
f 383 391 392 384
f 384 392 393 385
f 385 393 394 386
f 386 394 387 379
f 387 395 396 388
f 388 396 397 389
f 389 397 398 390
f 390 398 399 391
f 391 399 400 392
f 392 400 401 393
f 393 401 402 394
f 394 402 395 387
f 395 403 404 396
f 396 404 405 397
f 397 405 406 398
f 398 406 407 399
f 399 407 408 400
f 400 408 409 401
f 401 409 410 402
f 402 410 403 395
f 403 411 412 404
f 404 412 413 405
f 405 413 414 406
f 406 414 415 407
f 407 415 416 408
f 408 416 417 409
f 409 417 418 410
f 410 418 411 403
f 411 419 420 412
f 412 420 421 413
f 413 421 422 414
f 414 422 423 415
f 415 423 424 416
f 416 424 425 417
f 417 425 426 418
f 418 426 419 411
f 419 427 428 420
f 420 428 429 421
f 421 429 430 422
f 422 430 431 423
f 423 431 432 424
f 424 432 433 425
f 425 433 434 426
f 426 434 427 419
f 427 435 436 428
f 428 436 437 429
f 429 437 438 430
f 430 438 439 431
f 431 439 440 432
f 432 440 441 433
f 433 441 442 434
f 434 442 435 427
f 435 443 444 436
f 436 444 445 437
f 437 445 446 438
f 438 446 447 439
f 439 447 448 440
f 440 448 449 441
f 441 449 450 442
f 442 450 443 435
f 451 459 460 452
f 452 460 461 453
f 453 461 462 454
f 454 462 463 455
f 455 463 464 456
f 456 464 465 457
f 457 465 466 458
f 458 466 459 451
f 459 467 468 460
f 460 468 469 461
f 461 469 470 462
f 462 470 471 463
f 463 471 472 464
f 464 472 473 465
f 465 473 474 466
f 466 474 467 459
f 467 475 476 468
f 468 476 477 469
f 469 477 478 470
f 470 478 479 471
f 471 479 480 472
f 472 480 481 473
f 473 481 482 474
f 474 482 475 467
f 475 483 484 476
f 476 484 485 477
f 477 485 486 478
f 478 486 487 479
f 479 487 488 480
f 480 488 489 481
f 481 489 490 482
f 482 490 483 475
f 483 491 492 484
f 484 492 493 485
f 485 493 494 486
f 486 494 495 487
f 487 495 496 488
f 488 496 497 489
f 489 497 498 490
f 490 498 491 483
f 491 499 500 492
f 492 500 501 493
f 493 501 502 494
f 494 502 503 495
f 495 503 504 496
f 496 504 505 497
f 497 505 506 498
f 498 506 499 491
f 499 507 508 500
f 500 508 509 501
f 501 509 510 502
f 502 510 511 503
f 503 511 512 504
f 504 512 513 505
f 505 513 514 506
f 506 514 507 499
f 507 515 516 508
f 508 516 517 509
f 509 517 518 510
f 510 518 519 511
f 511 519 520 512
f 512 520 521 513
f 513 521 522 514
f 514 522 515 507
f 515 523 524 516
f 516 524 525 517
f 517 525 526 518
f 518 526 527 519
f 519 527 528 520
f 520 528 529 521
f 521 529 530 522
f 522 530 523 515
f 523 531 532 524
f 524 532 533 525
f 525 533 534 526
f 526 534 535 527
f 527 535 536 528
f 528 536 537 529
f 529 537 538 530
f 530 538 531 523
f 531 539 540 532
f 532 540 541 533
f 533 541 542 534
f 534 542 543 535
f 535 543 544 536
f 536 544 545 537
f 537 545 546 538
f 538 546 539 531
f 539 547 548 540
f 540 548 549 541
f 541 549 550 542
f 542 550 551 543
f 543 551 552 544
f 544 552 553 545
f 545 553 554 546
f 546 554 547 539
f 547 555 556 548
f 548 556 557 549
f 549 557 558 550
f 550 558 559 551
f 551 559 560 552
f 552 560 561 553
f 553 561 562 554
f 554 562 555 547
f 555 563 564 556
f 556 564 565 557
f 557 565 566 558
f 558 566 567 559
f 559 567 568 560
f 560 568 569 561
f 561 569 570 562
f 562 570 563 555
f 571 574 573 572
f 575 576 577 578
f 571 572 576 575
f 573 574 578 577
f 571 575 578 574
f 572 573 577 576
f 579 582 581 580
f 583 584 585 586
f 579 580 584 583
f 581 582 586 585
f 579 583 586 582
f 580 581 585 584
f 587 590 589 588
f 591 592 593 594
f 587 588 592 591
f 589 590 594 593
f 587 591 594 590
f 588 589 593 592
f 595 598 597 596
f 599 600 601 602
f 595 596 600 599
f 597 598 602 601
f 595 599 602 598
f 596 597 601 600
f 603 606 605 604
f 607 608 609 610
f 603 604 608 607
f 605 606 610 609
f 603 607 610 606
f 604 605 609 608
f 611 614 613 612
f 615 616 617 618
f 611 612 616 615
f 613 614 618 617
f 611 615 618 614
f 612 613 617 616
f 619 622 621 620
f 623 624 625 626
f 619 620 624 623
f 621 622 626 625
f 619 623 626 622
f 620 621 625 624
f 627 630 629 628
f 631 632 633 634
f 627 628 632 631
f 629 630 634 633
f 627 631 634 630
f 628 629 633 632
f 635 645 646 636
f 636 646 647 637
f 637 647 648 638
f 638 648 649 639
f 639 649 650 640
f 640 650 651 641
f 641 651 652 642
f 642 652 653 643
f 643 653 654 644
f 644 654 645 635
f 645 655 656 646
f 646 656 657 647
f 647 657 658 648
f 648 658 659 649
f 649 659 660 650
f 650 660 661 651
f 651 661 662 652
f 652 662 663 653
f 653 663 664 654
f 654 664 655 645
f 655 665 666 656
f 656 666 667 657
f 657 667 668 658
f 658 668 669 659
f 659 669 670 660
f 660 670 671 661
f 661 671 672 662
f 662 672 673 663
f 663 673 674 664
f 664 674 665 655
f 665 675 676 666
f 666 676 677 667
f 667 677 678 668
f 668 678 679 669
f 669 679 680 670
f 670 680 681 671
f 671 681 682 672
f 672 682 683 673
f 673 683 684 674
f 674 684 675 665
f 675 685 686 676
f 676 686 687 677
f 677 687 688 678
f 678 688 689 679
f 679 689 690 680
f 680 690 691 681
f 681 691 692 682
f 682 692 693 683
f 683 693 694 684
f 684 694 685 675
f 685 695 696 686
f 686 696 697 687
f 687 697 698 688
f 688 698 699 689
f 689 699 700 690
f 690 700 701 691
f 691 701 702 692
f 692 702 703 693
f 693 703 704 694
f 694 704 695 685
f 695 705 706 696
f 696 706 707 697
f 697 707 708 698
f 698 708 709 699
f 699 709 710 700
f 700 710 711 701
f 701 711 712 702
f 702 712 713 703
f 703 713 714 704
f 704 714 705 695
f 705 715 716 706
f 706 716 717 707
f 707 717 718 708
f 708 718 719 709
f 709 719 720 710
f 710 720 721 711
f 711 721 722 712
f 712 722 723 713
f 713 723 724 714
f 714 724 715 705
f 715 725 726 716
f 716 726 727 717
f 717 727 728 718
f 718 728 729 719
f 719 729 730 720
f 720 730 731 721
f 721 731 732 722
f 722 732 733 723
f 723 733 734 724
f 724 734 725 715
f 725 735 736 726
f 726 736 737 727
f 727 737 738 728
f 728 738 739 729
f 729 739 740 730
f 730 740 741 731
f 731 741 742 732
f 732 742 743 733
f 733 743 744 734
f 734 744 735 725
f 735 745 746 736
f 736 746 747 737
f 737 747 748 738
f 738 748 749 739
f 739 749 750 740
f 740 750 751 741
f 741 751 752 742
f 742 752 753 743
f 743 753 754 744
f 744 754 745 735
f 745 755 756 746
f 746 756 757 747
f 747 757 758 748
f 748 758 759 749
f 749 759 760 750
f 750 760 761 751
f 751 761 762 752
f 752 762 763 753
f 753 763 764 754
f 754 764 755 745
f 755 765 766 756
f 756 766 767 757
f 757 767 768 758
f 758 768 769 759
f 759 769 770 760
f 760 770 771 761
f 761 771 772 762
f 762 772 773 763
f 763 773 774 764
f 764 774 765 755
f 765 775 776 766
f 766 776 777 767
f 767 777 778 768
f 768 778 779 769
f 769 779 780 770
f 770 780 781 771
f 771 781 782 772
f 772 782 783 773
f 773 783 784 774
f 774 784 775 765
f 785 793 794 786
f 786 794 795 787
f 787 795 796 788
f 788 796 797 789
f 789 797 798 790
f 790 798 799 791
f 791 799 800 792
f 792 800 793 785
f 793 801 802 794
f 794 802 803 795
f 795 803 804 796
f 796 804 805 797
f 797 805 806 798
f 798 806 807 799
f 799 807 808 800
f 800 808 801 793
f 801 809 810 802
f 802 810 811 803
f 803 811 812 804
f 804 812 813 805
f 805 813 814 806
f 806 814 815 807
f 807 815 816 808
f 808 816 809 801
f 809 817 818 810
f 810 818 819 811
f 811 819 820 812
f 812 820 821 813
f 813 821 822 814
f 814 822 823 815
f 815 823 824 816
f 816 824 817 809
f 817 825 826 818
f 818 826 827 819
f 819 827 828 820
f 820 828 829 821
f 821 829 830 822
f 822 830 831 823
f 823 831 832 824
f 824 832 825 817
f 825 833 834 826
f 826 834 835 827
f 827 835 836 828
f 828 836 837 829
f 829 837 838 830
f 830 838 839 831
f 831 839 840 832
f 832 840 833 825
f 833 841 842 834
f 834 842 843 835
f 835 843 844 836
f 836 844 845 837
f 837 845 846 838
f 838 846 847 839
f 839 847 848 840
f 840 848 841 833
f 841 849 850 842
f 842 850 851 843
f 843 851 852 844
f 844 852 853 845
f 845 853 854 846
f 846 854 855 847
f 847 855 856 848
f 848 856 849 841
f 849 857 858 850
f 850 858 859 851
f 851 859 860 852
f 852 860 861 853
f 853 861 862 854
f 854 862 863 855
f 855 863 864 856
f 856 864 857 849
f 857 865 866 858
f 858 866 867 859
f 859 867 868 860
f 860 868 869 861
f 861 869 870 862
f 862 870 871 863
f 863 871 872 864
f 864 872 865 857
f 865 873 874 866
f 866 874 875 867
f 867 875 876 868
f 868 876 877 869
f 869 877 878 870
f 870 878 879 871
f 871 879 880 872
f 872 880 873 865
f 873 881 882 874
f 874 882 883 875
f 875 883 884 876
f 876 884 885 877
f 877 885 886 878
f 878 886 887 879
f 879 887 888 880
f 880 888 881 873
f 881 889 890 882
f 882 890 891 883
f 883 891 892 884
f 884 892 893 885
f 885 893 894 886
f 886 894 895 887
f 887 895 896 888
f 888 896 889 881
f 889 897 898 890
f 890 898 899 891
f 891 899 900 892
f 892 900 901 893
f 893 901 902 894
f 894 902 903 895
f 895 903 904 896
f 896 904 897 889
f 905 913 914 906
f 906 914 915 907
f 907 915 916 908
f 908 916 917 909
f 909 917 918 910
f 910 918 919 911
f 911 919 920 912
f 912 920 913 905
f 913 921 922 914
f 914 922 923 915
f 915 923 924 916
f 916 924 925 917
f 917 925 926 918
f 918 926 927 919
f 919 927 928 920
f 920 928 921 913
f 921 929 930 922
f 922 930 931 923
f 923 931 932 924
f 924 932 933 925
f 925 933 934 926
f 926 934 935 927
f 927 935 936 928
f 928 936 929 921
f 929 937 938 930
f 930 938 939 931
f 931 939 940 932
f 932 940 941 933
f 933 941 942 934
f 934 942 943 935
f 935 943 944 936
f 936 944 937 929
f 937 945 946 938
f 938 946 947 939
f 939 947 948 940
f 940 948 949 941
f 941 949 950 942
f 942 950 951 943
f 943 951 952 944
f 944 952 945 937
f 945 953 954 946
f 946 954 955 947
f 947 955 956 948
f 948 956 957 949
f 949 957 958 950
f 950 958 959 951
f 951 959 960 952
f 952 960 953 945
f 953 961 962 954
f 954 962 963 955
f 955 963 964 956
f 956 964 965 957
f 957 965 966 958
f 958 966 967 959
f 959 967 968 960
f 960 968 961 953
f 961 969 970 962
f 962 970 971 963
f 963 971 972 964
f 964 972 973 965
f 965 973 974 966
f 966 974 975 967
f 967 975 976 968
f 968 976 969 961
f 969 977 978 970
f 970 978 979 971
f 971 979 980 972
f 972 980 981 973
f 973 981 982 974
f 974 982 983 975
f 975 983 984 976
f 976 984 977 969
f 977 985 986 978
f 978 986 987 979
f 979 987 988 980
f 980 988 989 981
f 981 989 990 982
f 982 990 991 983
f 983 991 992 984
f 984 992 985 977
f 985 993 994 986
f 986 994 995 987
f 987 995 996 988
f 988 996 997 989
f 989 997 998 990
f 990 998 999 991
f 991 999 1000 992
f 992 1000 993 985
f 993 1001 1002 994
f 994 1002 1003 995
f 995 1003 1004 996
f 996 1004 1005 997
f 997 1005 1006 998
f 998 1006 1007 999
f 999 1007 1008 1000
f 1000 1008 1001 993
f 1001 1009 1010 1002
f 1002 1010 1011 1003
f 1003 1011 1012 1004
f 1004 1012 1013 1005
f 1005 1013 1014 1006
f 1006 1014 1015 1007
f 1007 1015 1016 1008
f 1008 1016 1009 1001
f 1009 1017 1018 1010
f 1010 1018 1019 1011
f 1011 1019 1020 1012
f 1012 1020 1021 1013
f 1013 1021 1022 1014
f 1014 1022 1023 1015
f 1015 1023 1024 1016
f 1016 1024 1017 1009
f 1025 1028 1027 1026
f 1029 1030 1031 1032
f 1025 1026 1030 1029
f 1027 1028 1032 1031
f 1025 1029 1032 1028
f 1026 1027 1031 1030
f 1033 1036 1035 1034
f 1037 1038 1039 1040
f 1033 1034 1038 1037
f 1035 1036 1040 1039
f 1033 1037 1040 1036
f 1034 1035 1039 1038
f 1041 1044 1043 1042
f 1045 1046 1047 1048
f 1041 1042 1046 1045
f 1043 1044 1048 1047
f 1041 1045 1048 1044
f 1042 1043 1047 1046
f 1049 1052 1051 1050
f 1053 1054 1055 1056
f 1049 1050 1054 1053
f 1051 1052 1056 1055
f 1049 1053 1056 1052
f 1050 1051 1055 1054
f 1057 1060 1059 1058
f 1061 1062 1063 1064
f 1057 1058 1062 1061
f 1059 1060 1064 1063
f 1057 1061 1064 1060
f 1058 1059 1063 1062
f 1065 1068 1067 1066
f 1069 1070 1071 1072
f 1065 1066 1070 1069
f 1067 1068 1072 1071
f 1065 1069 1072 1068
f 1066 1067 1071 1070
f 1073 1076 1075 1074
f 1077 1078 1079 1080
f 1073 1074 1078 1077
f 1075 1076 1080 1079
f 1073 1077 1080 1076
f 1074 1075 1079 1078
f 1081 1084 1083 1082
f 1085 1086 1087 1088
f 1081 1082 1086 1085
f 1083 1084 1088 1087
f 1081 1085 1088 1084
f 1082 1083 1087 1086
f 1089 1092 1091 1090
f 1093 1094 1095 1096
f 1089 1090 1094 1093
f 1091 1092 1096 1095
f 1089 1093 1096 1092
f 1090 1091 1095 1094
f 1097 1100 1099 1098
f 1101 1102 1103 1104
f 1097 1098 1102 1101
f 1099 1100 1104 1103
f 1097 1101 1104 1100
f 1098 1099 1103 1102
f 1105 1108 1107 1106
f 1109 1110 1111 1112
f 1105 1106 1110 1109
f 1107 1108 1112 1111
f 1105 1109 1112 1108
f 1106 1107 1111 1110
f 1113 1116 1115 1114
f 1117 1118 1119 1120
f 1113 1114 1118 1117
f 1115 1116 1120 1119
f 1113 1117 1120 1116
f 1114 1115 1119 1118
f 1121 1124 1123 1122
f 1125 1126 1127 1128
f 1121 1122 1126 1125
f 1123 1124 1128 1127
f 1121 1125 1128 1124
f 1122 1123 1127 1126
f 1129 1132 1131 1130
f 1133 1134 1135 1136
f 1129 1130 1134 1133
f 1131 1132 1136 1135
f 1129 1133 1136 1132
f 1130 1131 1135 1134
f 1137 1140 1139 1138
f 1141 1142 1143 1144
f 1137 1138 1142 1141
f 1139 1140 1144 1143
f 1137 1141 1144 1140
f 1138 1139 1143 1142
f 1145 1148 1147 1146
f 1149 1150 1151 1152
f 1145 1146 1150 1149
f 1147 1148 1152 1151
f 1145 1149 1152 1148
f 1146 1147 1151 1150
