v 0.253534 -0.811308 3.000000
v -0.253534 0.811308 3.000000
v 0.253534 -0.811308 2.900000
v -0.253534 0.811308 2.900000
v 1.253534 -0.498808 2.900000
v 0.746466 1.123808 2.900000
v 1.253534 -0.498808 2.800000
v 0.746466 1.123808 2.800000
v 2.253534 -0.186308 2.800000
v 1.746466 1.436308 2.800000
v 2.253534 -0.186308 2.700000
v 1.746466 1.436308 2.700000
v 3.253534 0.126192 2.700000
v 2.746466 1.748808 2.700000
v 3.253534 0.126192 2.600000
v 2.746466 1.748808 2.600000
v 4.253534 0.438692 2.600000
v 3.746466 2.061308 2.600000
v 4.253534 0.438692 2.500000
v 3.746466 2.061308 2.500000
v 5.253534 0.751192 2.500000
v 4.746466 2.373808 2.500000
v 5.253534 0.751192 2.400000
v 4.746466 2.373808 2.400000
v 6.253534 1.063692 2.400000
v 5.746466 2.686308 2.400000
v 6.253534 1.063692 2.300000
v 5.746466 2.686308 2.300000
v 7.253534 1.376192 2.300000
v 6.746466 2.998808 2.300000
v 7.253534 1.376192 2.200000
v 6.746466 2.998808 2.200000
v 8.000000 1.650000 2.200000
v 8.000000 3.350000 2.200000
v 8.000000 1.650000 2.100000
v 8.000000 3.350000 2.100000
v 8.746466 1.376192 2.350000
v 9.253534 2.998808 2.350000
v 8.746466 1.376192 2.250000
v 9.253534 2.998808 2.250000
v 9.746466 1.063692 2.500000
v 10.253534 2.686308 2.500000
v 9.746466 1.063692 2.400000
v 10.253534 2.686308 2.400000
v 10.746466 0.751192 2.650000
v 11.253534 2.373808 2.650000
v 10.746466 0.751192 2.550000
v 11.253534 2.373808 2.550000
v 11.746466 0.438692 2.800000
v 12.253534 2.061308 2.800000
v 11.746466 0.438692 2.700000
v 12.253534 2.061308 2.700000
v 12.746466 0.126192 2.950000
v 13.253534 1.748808 2.950000
v 12.746466 0.126192 2.850000
v 13.253534 1.748808 2.850000
v 13.746466 -0.186308 3.100000
v 14.253534 1.436308 3.100000
v 13.746466 -0.186308 3.000000
v 14.253534 1.436308 3.000000
v 14.746466 -0.498808 3.250000
v 15.253534 1.123808 3.250000
v 14.746466 -0.498808 3.150000
v 15.253534 1.123808 3.150000
v 15.746466 -0.811308 3.400000
v 16.253534 0.811308 3.400000
v 15.746466 -0.811308 3.300000
v 16.253534 0.811308 3.300000
v -0.001491 -0.766328 2.985000
v -0.437569 0.629122 2.985000
v -0.437569 0.629122 3.055000
v -0.001491 -0.766328 3.055000
v 0.437569 -0.629122 2.985000
v 0.001491 0.766328 2.985000
v 0.001491 0.766328 3.055000
v 0.437569 -0.629122 3.055000
v 0.998509 -0.453828 2.828814
v 0.562431 0.941622 2.828814
v 0.562431 0.941622 2.898814
v 0.998509 -0.453828 2.898814
v 1.437569 -0.316622 2.828814
v 1.001491 1.078828 2.828814
v 1.001491 1.078828 2.898814
v 1.437569 -0.316622 2.898814
v 1.998509 -0.141328 2.674775
v 1.562431 1.254122 2.674775
v 1.562431 1.254122 2.744775
v 1.998509 -0.141328 2.744775
v 2.437569 -0.004122 2.674775
v 2.001491 1.391328 2.674775
v 2.001491 1.391328 2.744775
v 2.437569 -0.004122 2.744775
v 2.998509 0.171172 2.524948
v 2.562431 1.566622 2.524948
v 2.562431 1.566622 2.594948
v 2.998509 0.171172 2.594948
v 3.437569 0.308378 2.524948
v 3.001491 1.703828 2.524948
v 3.001491 1.703828 2.594948
v 3.437569 0.308378 2.594948
v 3.998509 0.483672 2.381238
v 3.562431 1.879122 2.381238
v 3.562431 1.879122 2.451238
v 3.998509 0.483672 2.451238
v 4.437569 0.620878 2.381238
v 4.001491 2.016328 2.381238
v 4.001491 2.016328 2.451238
v 4.437569 0.620878 2.451238
v 4.998509 0.796172 2.245314
v 4.562431 2.191622 2.245314
v 4.562431 2.191622 2.315314
v 4.998509 0.796172 2.315314
v 5.437569 0.933378 2.245314
v 5.001491 2.328828 2.245314
v 5.001491 2.328828 2.315314
v 5.437569 0.933378 2.315314
v 5.998509 1.108672 2.118550
v 5.562431 2.504122 2.118550
v 5.562431 2.504122 2.188550
v 5.998509 1.108672 2.188550
v 6.437569 1.245878 2.118550
v 6.001491 2.641328 2.118550
v 6.001491 2.641328 2.188550
v 6.437569 1.245878 2.188550
v 6.998509 1.421172 2.001969
v 6.562431 2.816622 2.001969
v 6.562431 2.816622 2.071969
v 6.998509 1.421172 2.071969
v 7.437569 1.558378 2.001969
v 7.001491 2.953828 2.001969
v 7.001491 2.953828 2.071969
v 7.437569 1.558378 2.071969
v 7.770000 1.769000 1.896203
v 7.770000 3.231000 1.896203
v 7.770000 3.231000 1.966203
v 7.770000 1.769000 1.966203
v 8.230000 1.769000 1.896203
v 8.230000 3.231000 1.896203
v 8.230000 3.231000 1.966203
v 8.230000 1.769000 1.966203
v 8.562431 1.558378 2.051534
v 8.998509 2.953828 2.051534
v 8.998509 2.953828 2.121534
v 8.562431 1.558378 2.121534
v 9.001491 1.421172 2.051534
v 9.437569 2.816622 2.051534
v 9.437569 2.816622 2.121534
v 9.001491 1.421172 2.121534
v 9.562431 1.245878 2.217820
v 9.998509 2.641328 2.217820
v 9.998509 2.641328 2.287820
v 9.562431 1.245878 2.287820
v 10.001491 1.108672 2.217820
v 10.437569 2.504122 2.217820
v 10.437569 2.504122 2.287820
v 10.001491 1.108672 2.287820
v 10.562431 0.933378 2.394431
v 10.998509 2.328828 2.394431
v 10.998509 2.328828 2.464431
v 10.562431 0.933378 2.464431
v 11.001491 0.796172 2.394431
v 11.437569 2.191622 2.394431
v 11.437569 2.191622 2.464431
v 11.001491 0.796172 2.464431
v 11.562431 0.620878 2.580338
v 11.998509 2.016328 2.580338
v 11.998509 2.016328 2.650338
v 11.562431 0.620878 2.650338
v 12.001491 0.483672 2.580338
v 12.437569 1.879122 2.580338
v 12.437569 1.879122 2.650338
v 12.001491 0.483672 2.650338
v 12.562431 0.308378 2.774155
v 12.998509 1.703828 2.774155
v 12.998509 1.703828 2.844155
v 12.562431 0.308378 2.844155
v 13.001491 0.171172 2.774155
v 13.437569 1.566622 2.774155
v 13.437569 1.566622 2.844155
v 13.001491 0.171172 2.844155
v 13.562431 -0.004122 2.974187
v 13.998509 1.391328 2.974187
v 13.998509 1.391328 3.044187
v 13.562431 -0.004122 3.044187
v 14.001491 -0.141328 2.974187
v 14.437569 1.254122 2.974187
v 14.437569 1.254122 3.044187
v 14.001491 -0.141328 3.044187
v 14.562431 -0.316622 3.178502
v 14.998509 1.078828 3.178502
v 14.998509 1.078828 3.248502
v 14.562431 -0.316622 3.248502
v 15.001491 -0.453828 3.178502
v 15.437569 0.941622 3.178502
v 15.437569 0.941622 3.248502
v 15.001491 -0.453828 3.248502
v 15.562431 -0.629122 3.385000
v 15.998509 0.766328 3.385000
v 15.998509 0.766328 3.455000
v 15.562431 -0.629122 3.455000
v 16.001491 -0.766328 3.385000
v 16.437569 0.629122 3.385000
v 16.437569 0.629122 3.455000
v 16.001491 -0.766328 3.455000
v 0.277694 -0.888621 4.020000
v 0.280827 -0.898647 4.052328
v 0.289030 -0.924895 4.072308
v 0.299169 -0.957340 4.072308
v 0.307371 -0.983588 4.052328
v 0.310504 -0.993614 4.020000
v 0.307371 -0.983588 3.987672
v 0.299169 -0.957340 3.967692
v 0.289030 -0.924895 3.967692
v 0.280827 -0.898647 3.987672
v 1.277694 -0.576121 3.772142
v 1.280827 -0.586147 3.804470
v 1.289030 -0.612395 3.824450
v 1.299169 -0.644840 3.824450
v 1.307371 -0.671088 3.804470
v 1.310504 -0.681114 3.772142
v 1.307371 -0.671088 3.739814
v 1.299169 -0.644840 3.719834
v 1.289030 -0.612395 3.719834
v 1.280827 -0.586147 3.739814
v 2.277694 -0.263621 3.529934
v 2.280827 -0.273647 3.562263
v 2.289030 -0.299895 3.582242
v 2.299169 -0.332340 3.582242
v 2.307371 -0.358588 3.562263
v 2.310504 -0.368614 3.529934
v 2.307371 -0.358588 3.497606
v 2.299169 -0.332340 3.477626
v 2.289030 -0.299895 3.477626
v 2.280827 -0.273647 3.497606
v 3.277694 0.048879 3.298811
v 3.280827 0.038853 3.331140
v 3.289030 0.012605 3.351120
v 3.299169 -0.019840 3.351120
v 3.307371 -0.046088 3.331140
v 3.310504 -0.056114 3.298811
v 3.307371 -0.046088 3.266483
v 3.299169 -0.019840 3.246503
v 3.289030 0.012605 3.246503
v 3.280827 0.038853 3.266483
v 4.277694 0.361379 3.083784
v 4.280827 0.351353 3.116112
v 4.289030 0.325105 3.136092
v 4.299169 0.292660 3.136092
v 4.307371 0.266412 3.116112
v 4.310504 0.256386 3.083784
v 4.307371 0.266412 3.051456
v 4.299169 0.292660 3.031476
v 4.289030 0.325105 3.031476
v 4.280827 0.351353 3.051456
v 5.277694 0.673879 2.889248
v 5.280827 0.663853 2.921577
v 5.289030 0.637605 2.941557
v 5.299169 0.605160 2.941557
v 5.307371 0.578912 2.921577
v 5.310504 0.568886 2.889248
v 5.307371 0.578912 2.856920
v 5.299169 0.605160 2.836940
v 5.289030 0.637605 2.836940
v 5.280827 0.663853 2.856920
v 6.277694 0.986379 2.718817
v 6.280827 0.976353 2.751145
v 6.289030 0.950105 2.771125
v 6.299169 0.917660 2.771125
v 6.307371 0.891412 2.751145
v 6.310504 0.881386 2.718817
v 6.307371 0.891412 2.686488
v 6.299169 0.917660 2.666509
v 6.289030 0.950105 2.666509
v 6.280827 0.976353 2.686488
v 7.276391 1.298454 2.575180
v 7.279773 1.288509 2.607509
v 7.288627 1.262474 2.627489
v 7.299571 1.230292 2.627489
v 7.308425 1.204256 2.607509
v 7.311807 1.194311 2.575180
v 7.308425 1.204256 2.542852
v 7.299571 1.230292 2.522872
v 7.288627 1.262474 2.522872
v 7.279773 1.288509 2.542852
v 8.000000 1.569000 2.460007
v 8.000000 1.558496 2.492336
v 8.000000 1.530996 2.512315
v 8.000000 1.497004 2.512315
v 8.000000 1.469504 2.492336
v 8.000000 1.459000 2.460007
v 8.000000 1.469504 2.427679
v 8.000000 1.497004 2.407699
v 8.000000 1.530996 2.407699
v 8.000000 1.558496 2.427679
v 8.723609 1.298454 2.624037
v 8.720227 1.288509 2.656365
v 8.711373 1.262474 2.676345
v 8.700429 1.230292 2.676345
v 8.691575 1.204256 2.656365
v 8.688193 1.194311 2.624037
v 8.691575 1.204256 2.591709
v 8.700429 1.230292 2.571729
v 8.711373 1.262474 2.571729
v 8.720227 1.288509 2.591709
v 9.722306 0.986379 2.816894
v 9.719173 0.976353 2.849222
v 9.710970 0.950105 2.869202
v 9.700831 0.917660 2.869202
v 9.692629 0.891412 2.849222
v 9.689496 0.881386 2.816894
v 9.692629 0.891412 2.784566
v 9.700831 0.917660 2.764586
v 9.710970 0.950105 2.764586
v 9.719173 0.976353 2.784566
v 10.722306 0.673879 3.036923
v 10.719173 0.663853 3.069251
v 10.710970 0.637605 3.089231
v 10.700831 0.605160 3.089231
v 10.692629 0.578912 3.069251
v 10.689496 0.568886 3.036923
v 10.692629 0.578912 3.004594
v 10.700831 0.605160 2.984614
v 10.710970 0.637605 2.984614
v 10.719173 0.663853 3.004594
v 11.722306 0.361379 3.281416
v 11.719173 0.351353 3.313744
v 11.710970 0.325105 3.333724
v 11.700831 0.292660 3.333724
v 11.692629 0.266412 3.313744
v 11.689496 0.256386 3.281416
v 11.692629 0.266412 3.249088
v 11.700831 0.292660 3.229108
v 11.710970 0.325105 3.229108
v 11.719173 0.351353 3.249088
v 12.722306 0.048879 3.546723
v 12.719173 0.038853 3.579051
v 12.710970 0.012605 3.599031
v 12.700831 -0.019840 3.599031
v 12.692629 -0.046088 3.579051
v 12.689496 -0.056114 3.546723
v 12.692629 -0.046088 3.514395
v 12.700831 -0.019840 3.494415
v 12.710970 0.012605 3.494415
v 12.719173 0.038853 3.514395
v 13.722306 -0.263621 3.828387
v 13.719173 -0.273647 3.860715
v 13.710970 -0.299895 3.880695
v 13.700831 -0.332340 3.880695
v 13.692629 -0.358588 3.860715
v 13.689496 -0.368614 3.828387
v 13.692629 -0.358588 3.796059
v 13.700831 -0.332340 3.776079
v 13.710970 -0.299895 3.776079
v 13.719173 -0.273647 3.796059
v 14.722306 -0.576121 4.121321
v 14.719173 -0.586147 4.153649
v 14.710970 -0.612395 4.173629
v 14.700831 -0.644840 4.173629
v 14.692629 -0.671088 4.153649
v 14.689496 -0.681114 4.121321
v 14.692629 -0.671088 4.088993
v 14.700831 -0.644840 4.069013
v 14.710970 -0.612395 4.069013
v 14.719173 -0.586147 4.088993
v 15.722306 -0.888621 4.420000
v 15.719173 -0.898647 4.452328
v 15.710970 -0.924895 4.472308
v 15.700831 -0.957340 4.472308
v 15.692629 -0.983588 4.452328
v 15.689496 -0.993614 4.420000
v 15.692629 -0.983588 4.387672
v 15.700831 -0.957340 4.367692
v 15.710970 -0.924895 4.367692
v 15.719173 -0.898647 4.387672
v 0.283660 -0.907710 3.660000
v 0.286717 -0.917495 3.684749
v 0.294099 -0.941117 3.695000
v 0.301481 -0.964739 3.684749
v 0.304539 -0.974524 3.660000
v 0.301481 -0.964739 3.635251
v 0.294099 -0.941117 3.625000
v 0.286717 -0.917495 3.635251
v 1.283660 -0.595210 3.468328
v 1.286717 -0.604995 3.493077
v 1.294099 -0.628617 3.503328
v 1.301481 -0.652239 3.493077
v 1.304539 -0.662024 3.468328
v 1.301481 -0.652239 3.443579
v 1.294099 -0.628617 3.433328
v 1.286717 -0.604995 3.443579
v 2.283660 -0.282710 3.280159
v 2.286717 -0.292495 3.304908
v 2.294099 -0.316117 3.315159
v 2.301481 -0.339739 3.304908
v 2.304539 -0.349524 3.280159
v 2.301481 -0.339739 3.255411
v 2.294099 -0.316117 3.245159
v 2.286717 -0.292495 3.255411
v 3.283660 0.029790 3.098863
v 3.286717 0.020005 3.123612
v 3.294099 -0.003617 3.133863
v 3.301481 -0.027239 3.123612
v 3.304539 -0.037024 3.098863
v 3.301481 -0.027239 3.074114
v 3.294099 -0.003617 3.063863
v 3.286717 0.020005 3.074114
v 4.283660 0.342290 2.927546
v 4.286717 0.332505 2.952295
v 4.294099 0.308883 2.962546
v 4.301481 0.285261 2.952295
v 4.304539 0.275476 2.927546
v 4.301481 0.285261 2.902798
v 4.294099 0.308883 2.892546
v 4.286717 0.332505 2.902798
v 5.283660 0.654790 2.768934
v 5.286717 0.645005 2.793683
v 5.294099 0.621383 2.803934
v 5.301481 0.597761 2.793683
v 5.304539 0.587976 2.768934
v 5.301481 0.597761 2.744185
v 5.294099 0.621383 2.733934
v 5.286717 0.645005 2.744185
v 6.283660 0.967290 2.625266
v 6.286717 0.957505 2.650015
v 6.294099 0.933883 2.660266
v 6.301481 0.910261 2.650015
v 6.304539 0.900476 2.625266
v 6.301481 0.910261 2.600518
v 6.294099 0.933883 2.590266
v 6.286717 0.957505 2.600518
v 7.282831 1.279519 2.498212
v 7.286131 1.269814 2.522961
v 7.294099 1.246383 2.533212
v 7.302067 1.222952 2.522961
v 7.305368 1.213246 2.498212
v 7.302067 1.222952 2.473463
v 7.294099 1.246383 2.463212
v 7.286131 1.269814 2.473463
v 8.000000 1.549000 2.388805
v 8.000000 1.538749 2.413553
v 8.000000 1.514000 2.423805
v 8.000000 1.489251 2.413553
v 8.000000 1.479000 2.388805
v 8.000000 1.489251 2.364056
v 8.000000 1.514000 2.353805
v 8.000000 1.538749 2.364056
v 8.717169 1.279519 2.547503
v 8.713869 1.269814 2.572252
v 8.705901 1.246383 2.582503
v 8.697933 1.222952 2.572252
v 8.694632 1.213246 2.547503
v 8.697933 1.222952 2.522754
v 8.705901 1.246383 2.512503
v 8.713869 1.269814 2.522754
v 9.716340 0.967290 2.724074
v 9.713283 0.957505 2.748823
v 9.705901 0.933883 2.759074
v 9.698519 0.910261 2.748823
v 9.695461 0.900476 2.724074
v 9.698519 0.910261 2.699326
v 9.705901 0.933883 2.689074
v 9.713283 0.957505 2.699326
v 10.716340 0.654790 2.917492
v 10.713283 0.645005 2.942241
v 10.705901 0.621383 2.952492
v 10.698519 0.597761 2.942241
v 10.695461 0.587976 2.917492
v 10.698519 0.597761 2.892743
v 10.705901 0.621383 2.882492
v 10.713283 0.645005 2.892743
v 11.716340 0.342290 3.126078
v 11.713283 0.332505 3.150827
v 11.705901 0.308883 3.161078
v 11.698519 0.285261 3.150827
v 11.695461 0.275476 3.126078
v 11.698519 0.285261 3.101329
v 11.705901 0.308883 3.091078
v 11.713283 0.332505 3.101329
v 12.716340 0.029790 3.347568
v 12.713283 0.020005 3.372317
v 12.705901 -0.003617 3.382568
v 12.698519 -0.027239 3.372317
v 12.695461 -0.037024 3.347568
v 12.698519 -0.027239 3.322819
v 12.705901 -0.003617 3.312568
v 12.713283 0.020005 3.322819
v 13.716340 -0.282710 3.579200
v 13.713283 -0.292495 3.603949
v 13.705901 -0.316117 3.614200
v 13.698519 -0.339739 3.603949
v 13.695461 -0.349524 3.579200
v 13.698519 -0.339739 3.554451
v 13.705901 -0.316117 3.544200
v 13.713283 -0.292495 3.554451
v 14.716340 -0.595210 3.817819
v 14.713283 -0.604995 3.842568
v 14.705901 -0.628617 3.852819
v 14.698519 -0.652239 3.842568
v 14.695461 -0.662024 3.817819
v 14.698519 -0.652239 3.793070
v 14.705901 -0.628617 3.782819
v 14.713283 -0.604995 3.793070
v 15.716340 -0.907710 4.060000
v 15.713283 -0.917495 4.084749
v 15.705901 -0.941117 4.095000
v 15.698519 -0.964739 4.084749
v 15.695461 -0.974524 4.060000
v 15.698519 -0.964739 4.035251
v 15.705901 -0.941117 4.025000
v 15.713283 -0.917495 4.035251
v 0.224303 -0.717769 3.220000
v 0.226924 -0.726156 3.241213
v 0.233251 -0.746403 3.250000
v 0.239578 -0.766651 3.241213
v 0.242199 -0.775038 3.220000
v 0.239578 -0.766651 3.198787
v 0.233251 -0.746403 3.190000
v 0.226924 -0.726156 3.198787
v 1.224303 -0.405269 3.063814
v 1.226924 -0.413656 3.085027
v 1.233251 -0.433903 3.093814
v 1.239578 -0.454151 3.085027
v 1.242199 -0.462538 3.063814
v 1.239578 -0.454151 3.042601
v 1.233251 -0.433903 3.033814
v 1.226924 -0.413656 3.042601
v 2.224303 -0.092769 2.909775
v 2.226924 -0.101156 2.930988
v 2.233251 -0.121403 2.939775
v 2.239578 -0.141651 2.930988
v 2.242199 -0.150038 2.909775
v 2.239578 -0.141651 2.888562
v 2.233251 -0.121403 2.879775
v 2.226924 -0.101156 2.888562
v 3.224303 0.219731 2.759948
v 3.226924 0.211344 2.781162
v 3.233251 0.191097 2.789948
v 3.239578 0.170849 2.781162
v 3.242199 0.162462 2.759948
v 3.239578 0.170849 2.738735
v 3.233251 0.191097 2.729948
v 3.226924 0.211344 2.738735
v 4.224303 0.532231 2.616238
v 4.226924 0.523844 2.637451
v 4.233251 0.503597 2.646238
v 4.239578 0.483349 2.637451
v 4.242199 0.474962 2.616238
v 4.239578 0.483349 2.595025
v 4.233251 0.503597 2.586238
v 4.226924 0.523844 2.595025
v 5.224303 0.844731 2.480314
v 5.226924 0.836344 2.501528
v 5.233251 0.816097 2.510314
v 5.239578 0.795849 2.501528
v 5.242199 0.787462 2.480314
v 5.239578 0.795849 2.459101
v 5.233251 0.816097 2.450314
v 5.226924 0.836344 2.459101
v 6.224303 1.157231 2.353550
v 6.226924 1.148844 2.374764
v 6.233251 1.128597 2.383550
v 6.239578 1.108349 2.374764
v 6.242199 1.099962 2.353550
v 6.239578 1.108349 2.332337
v 6.233251 1.128597 2.323550
v 6.226924 1.148844 2.332337
v 7.223757 1.469555 2.236969
v 7.226538 1.461220 2.258182
v 7.233251 1.441097 2.266969
v 7.239964 1.420974 2.258182
v 7.242745 1.412639 2.236969
v 7.239964 1.420974 2.215755
v 7.233251 1.441097 2.206969
v 7.226538 1.461220 2.215755
v 8.000000 1.748000 2.131203
v 8.000000 1.739213 2.152416
v 8.000000 1.718000 2.161203
v 8.000000 1.696787 2.152416
v 8.000000 1.688000 2.131203
v 8.000000 1.696787 2.109990
v 8.000000 1.718000 2.101203
v 8.000000 1.739213 2.109990
v 8.776243 1.469555 2.286534
v 8.773462 1.461220 2.307747
v 8.766749 1.441097 2.316534
v 8.760036 1.420974 2.307747
v 8.757255 1.412639 2.286534
v 8.760036 1.420974 2.265321
v 8.766749 1.441097 2.256534
v 8.773462 1.461220 2.265321
v 9.775697 1.157231 2.452820
v 9.773076 1.148844 2.474033
v 9.766749 1.128597 2.482820
v 9.760422 1.108349 2.474033
v 9.757801 1.099962 2.452820
v 9.760422 1.108349 2.431607
v 9.766749 1.128597 2.422820
v 9.773076 1.148844 2.431607
v 10.775697 0.844731 2.629431
v 10.773076 0.836344 2.650644
v 10.766749 0.816097 2.659431
v 10.760422 0.795849 2.650644
v 10.757801 0.787462 2.629431
v 10.760422 0.795849 2.608217
v 10.766749 0.816097 2.599431
v 10.773076 0.836344 2.608217
v 11.775697 0.532231 2.815338
v 11.773076 0.523844 2.836551
v 11.766749 0.503597 2.845338
v 11.760422 0.483349 2.836551
v 11.757801 0.474962 2.815338
v 11.760422 0.483349 2.794125
v 11.766749 0.503597 2.785338
v 11.773076 0.523844 2.794125
v 12.775697 0.219731 3.009155
v 12.773076 0.211344 3.030368
v 12.766749 0.191097 3.039155
v 12.760422 0.170849 3.030368
v 12.757801 0.162462 3.009155
v 12.760422 0.170849 2.987942
v 12.766749 0.191097 2.979155
v 12.773076 0.211344 2.987942
v 13.775697 -0.092769 3.209187
v 13.773076 -0.101156 3.230400
v 13.766749 -0.121403 3.239187
v 13.760422 -0.141651 3.230400
v 13.757801 -0.150038 3.209187
v 13.760422 -0.141651 3.187974
v 13.766749 -0.121403 3.179187
v 13.773076 -0.101156 3.187974
v 14.775697 -0.405269 3.413502
v 14.773076 -0.413656 3.434715
v 14.766749 -0.433903 3.443502
v 14.760422 -0.454151 3.434715
v 14.757801 -0.462538 3.413502
v 14.760422 -0.454151 3.392289
v 14.766749 -0.433903 3.383502
v 14.773076 -0.413656 3.392289
v 15.775697 -0.717769 3.620000
v 15.773076 -0.726156 3.641213
v 15.766749 -0.746403 3.650000
v 15.760422 -0.766651 3.641213
v 15.757801 -0.775038 3.620000
v 15.760422 -0.766651 3.598787
v 15.766749 -0.746403 3.590000
v 15.773076 -0.726156 3.598787
v 0.277694 -0.972436 3.120000
v 0.262780 -0.924712 3.120000
v 0.262780 -0.924712 4.020000
v 0.277694 -0.972436 4.020000
v 0.325418 -0.957522 3.120000
v 0.310504 -0.909798 3.120000
v 0.310504 -0.909798 4.020000
v 0.325418 -0.957522 4.020000
v 2.277694 -0.347436 2.809775
v 2.262780 -0.299712 2.809775
v 2.262780 -0.299712 3.529934
v 2.277694 -0.347436 3.529934
v 2.325418 -0.332522 2.809775
v 2.310504 -0.284798 2.809775
v 2.310504 -0.284798 3.529934
v 2.325418 -0.332522 3.529934
v 4.277694 0.277564 2.516238
v 4.262780 0.325288 2.516238
v 4.262780 0.325288 3.083784
v 4.277694 0.277564 3.083784
v 4.325418 0.292478 2.516238
v 4.310504 0.340202 2.516238
v 4.310504 0.340202 3.083784
v 4.325418 0.292478 3.083784
v 6.277694 0.902564 2.253550
v 6.262780 0.950288 2.253550
v 6.262780 0.950288 2.718817
v 6.277694 0.902564 2.718817
v 6.325418 0.917478 2.253550
v 6.310504 0.965202 2.253550
v 6.310504 0.965202 2.718817
v 6.325418 0.917478 2.718817
v 7.975000 1.489000 2.031203
v 7.975000 1.539000 2.031203
v 7.975000 1.539000 2.460007
v 7.975000 1.489000 2.460007
v 8.025000 1.489000 2.031203
v 8.025000 1.539000 2.031203
v 8.025000 1.539000 2.460007
v 8.025000 1.489000 2.460007
v 9.674582 0.917478 2.352820
v 9.689496 0.965202 2.352820
v 9.689496 0.965202 2.816894
v 9.674582 0.917478 2.816894
v 9.722306 0.902564 2.352820
v 9.737220 0.950288 2.352820
v 9.737220 0.950288 2.816894
v 9.722306 0.902564 2.816894
v 11.674582 0.292478 2.715338
v 11.689496 0.340202 2.715338
v 11.689496 0.340202 3.281416
v 11.674582 0.292478 3.281416
v 11.722306 0.277564 2.715338
v 11.737220 0.325288 2.715338
v 11.737220 0.325288 3.281416
v 11.722306 0.277564 3.281416
v 13.674582 -0.332522 3.109187
v 13.689496 -0.284798 3.109187
v 13.689496 -0.284798 3.828387
v 13.674582 -0.332522 3.828387
v 13.722306 -0.347436 3.109187
v 13.737220 -0.299712 3.109187
v 13.737220 -0.299712 3.828387
v 13.722306 -0.347436 3.828387
v 15.674582 -0.957522 3.520000
v 15.689496 -0.909798 3.520000
v 15.689496 -0.909798 4.420000
v 15.674582 -0.957522 4.420000
v 15.722306 -0.972436 3.520000
v 15.737220 -0.924712 3.520000
v 15.737220 -0.924712 4.420000
v 15.722306 -0.972436 4.420000
v -0.310504 0.993614 4.020000
v -0.307371 0.983588 4.052328
v -0.299169 0.957340 4.072308
v -0.289030 0.924895 4.072308
v -0.280827 0.898647 4.052328
v -0.277694 0.888621 4.020000
v -0.280827 0.898647 3.987672
v -0.289030 0.924895 3.967692
v -0.299169 0.957340 3.967692
v -0.307371 0.983588 3.987672
v 0.689496 1.306114 3.772142
v 0.692629 1.296088 3.804470
v 0.700831 1.269840 3.824450
v 0.710970 1.237395 3.824450
v 0.719173 1.211147 3.804470
v 0.722306 1.201121 3.772142
v 0.719173 1.211147 3.739814
v 0.710970 1.237395 3.719834
v 0.700831 1.269840 3.719834
v 0.692629 1.296088 3.739814
v 1.689496 1.618614 3.529934
v 1.692629 1.608588 3.562263
v 1.700831 1.582340 3.582242
v 1.710970 1.549895 3.582242
v 1.719173 1.523647 3.562263
v 1.722306 1.513621 3.529934
v 1.719173 1.523647 3.497606
v 1.710970 1.549895 3.477626
v 1.700831 1.582340 3.477626
v 1.692629 1.608588 3.497606
v 2.689496 1.931114 3.298811
v 2.692629 1.921088 3.331140
v 2.700831 1.894840 3.351120
v 2.710970 1.862395 3.351120
v 2.719173 1.836147 3.331140
v 2.722306 1.826121 3.298811
v 2.719173 1.836147 3.266483
v 2.710970 1.862395 3.246503
v 2.700831 1.894840 3.246503
v 2.692629 1.921088 3.266483
v 3.689496 2.243614 3.083784
v 3.692629 2.233588 3.116112
v 3.700831 2.207340 3.136092
v 3.710970 2.174895 3.136092
v 3.719173 2.148647 3.116112
v 3.722306 2.138621 3.083784
v 3.719173 2.148647 3.051456
v 3.710970 2.174895 3.031476
v 3.700831 2.207340 3.031476
v 3.692629 2.233588 3.051456
v 4.689496 2.556114 2.889248
v 4.692629 2.546088 2.921577
v 4.700831 2.519840 2.941557
v 4.710970 2.487395 2.941557
v 4.719173 2.461147 2.921577
v 4.722306 2.451121 2.889248
v 4.719173 2.461147 2.856920
v 4.710970 2.487395 2.836940
v 4.700831 2.519840 2.836940
v 4.692629 2.546088 2.856920
v 5.689496 2.868614 2.718817
v 5.692629 2.858588 2.751145
v 5.700831 2.832340 2.771125
v 5.710970 2.799895 2.771125
v 5.719173 2.773647 2.751145
v 5.722306 2.763621 2.718817
v 5.719173 2.773647 2.686488
v 5.710970 2.799895 2.666509
v 5.700831 2.832340 2.666509
v 5.692629 2.858588 2.686488
v 6.690485 3.181412 2.575180
v 6.693429 3.171329 2.607509
v 6.701137 3.144932 2.627489
v 6.710665 3.112303 2.627489
v 6.718373 3.085905 2.607509
v 6.721317 3.075822 2.575180
v 6.718373 3.085905 2.542852
v 6.710665 3.112303 2.522872
v 6.701137 3.144932 2.522872
v 6.693429 3.171329 2.542852
v 8.000000 3.541000 2.460007
v 8.000000 3.530496 2.492336
v 8.000000 3.502996 2.512315
v 8.000000 3.469004 2.512315
v 8.000000 3.441504 2.492336
v 8.000000 3.431000 2.460007
v 8.000000 3.441504 2.427679
v 8.000000 3.469004 2.407699
v 8.000000 3.502996 2.407699
v 8.000000 3.530496 2.427679
v 9.309515 3.181412 2.624037
v 9.306571 3.171329 2.656365
v 9.298863 3.144932 2.676345
v 9.289335 3.112303 2.676345
v 9.281627 3.085905 2.656365
v 9.278683 3.075822 2.624037
v 9.281627 3.085905 2.591709
v 9.289335 3.112303 2.571729
v 9.298863 3.144932 2.571729
v 9.306571 3.171329 2.591709
v 10.310504 2.868614 2.816894
v 10.307371 2.858588 2.849222
v 10.299169 2.832340 2.869202
v 10.289030 2.799895 2.869202
v 10.280827 2.773647 2.849222
v 10.277694 2.763621 2.816894
v 10.280827 2.773647 2.784566
v 10.289030 2.799895 2.764586
v 10.299169 2.832340 2.764586
v 10.307371 2.858588 2.784566
v 11.310504 2.556114 3.036923
v 11.307371 2.546088 3.069251
v 11.299169 2.519840 3.089231
v 11.289030 2.487395 3.089231
v 11.280827 2.461147 3.069251
v 11.277694 2.451121 3.036923
v 11.280827 2.461147 3.004594
v 11.289030 2.487395 2.984614
v 11.299169 2.519840 2.984614
v 11.307371 2.546088 3.004594
v 12.310504 2.243614 3.281416
v 12.307371 2.233588 3.313744
v 12.299169 2.207340 3.333724
v 12.289030 2.174895 3.333724
v 12.280827 2.148647 3.313744
v 12.277694 2.138621 3.281416
v 12.280827 2.148647 3.249088
v 12.289030 2.174895 3.229108
v 12.299169 2.207340 3.229108
v 12.307371 2.233588 3.249088
v 13.310504 1.931114 3.546723
v 13.307371 1.921088 3.579051
v 13.299169 1.894840 3.599031
v 13.289030 1.862395 3.599031
v 13.280827 1.836147 3.579051
v 13.277694 1.826121 3.546723
v 13.280827 1.836147 3.514395
v 13.289030 1.862395 3.494415
v 13.299169 1.894840 3.494415
v 13.307371 1.921088 3.514395
v 14.310504 1.618614 3.828387
v 14.307371 1.608588 3.860715
v 14.299169 1.582340 3.880695
v 14.289030 1.549895 3.880695
v 14.280827 1.523647 3.860715
v 14.277694 1.513621 3.828387
v 14.280827 1.523647 3.796059
v 14.289030 1.549895 3.776079
v 14.299169 1.582340 3.776079
v 14.307371 1.608588 3.796059
v 15.310504 1.306114 4.121321
v 15.307371 1.296088 4.153649
v 15.299169 1.269840 4.173629
v 15.289030 1.237395 4.173629
v 15.280827 1.211147 4.153649
v 15.277694 1.201121 4.121321
v 15.280827 1.211147 4.088993
v 15.289030 1.237395 4.069013
v 15.299169 1.269840 4.069013
v 15.307371 1.296088 4.088993
v 16.310504 0.993614 4.420000
v 16.307371 0.983588 4.452328
v 16.299169 0.957340 4.472308
v 16.289030 0.924895 4.472308
v 16.280827 0.898647 4.452328
v 16.277694 0.888621 4.420000
v 16.280827 0.898647 4.387672
v 16.289030 0.924895 4.367692
v 16.299169 0.957340 4.367692
v 16.307371 0.983588 4.387672
v -0.304539 0.974524 3.660000
v -0.301481 0.964739 3.684749
v -0.294099 0.941117 3.695000
v -0.286717 0.917495 3.684749
v -0.283660 0.907710 3.660000
v -0.286717 0.917495 3.635251
v -0.294099 0.941117 3.625000
v -0.301481 0.964739 3.635251
v 0.695461 1.287024 3.468328
v 0.698519 1.277239 3.493077
v 0.705901 1.253617 3.503328
v 0.713283 1.229995 3.493077
v 0.716340 1.220210 3.468328
v 0.713283 1.229995 3.443579
v 0.705901 1.253617 3.433328
v 0.698519 1.277239 3.443579
v 1.695461 1.599524 3.280159
v 1.698519 1.589739 3.304908
v 1.705901 1.566117 3.315159
v 1.713283 1.542495 3.304908
v 1.716340 1.532710 3.280159
v 1.713283 1.542495 3.255411
v 1.705901 1.566117 3.245159
v 1.698519 1.589739 3.255411
v 2.695461 1.912024 3.098863
v 2.698519 1.902239 3.123612
v 2.705901 1.878617 3.133863
v 2.713283 1.854995 3.123612
v 2.716340 1.845210 3.098863
v 2.713283 1.854995 3.074114
v 2.705901 1.878617 3.063863
v 2.698519 1.902239 3.074114
v 3.695461 2.224524 2.927546
v 3.698519 2.214739 2.952295
v 3.705901 2.191117 2.962546
v 3.713283 2.167495 2.952295
v 3.716340 2.157710 2.927546
v 3.713283 2.167495 2.902798
v 3.705901 2.191117 2.892546
v 3.698519 2.214739 2.902798
v 4.695461 2.537024 2.768934
v 4.698519 2.527239 2.793683
v 4.705901 2.503617 2.803934
v 4.713283 2.479995 2.793683
v 4.716340 2.470210 2.768934
v 4.713283 2.479995 2.744185
v 4.705901 2.503617 2.733934
v 4.698519 2.527239 2.744185
v 5.695461 2.849524 2.625266
v 5.698519 2.839739 2.650015
v 5.705901 2.816117 2.660266
v 5.713283 2.792495 2.650015
v 5.716340 2.782710 2.625266
v 5.713283 2.792495 2.600518
v 5.705901 2.816117 2.590266
v 5.698519 2.839739 2.600518
v 6.696090 3.162214 2.498212
v 6.698964 3.152374 2.522961
v 6.705901 3.128617 2.533212
v 6.712838 3.104861 2.522961
v 6.715711 3.095020 2.498212
v 6.712838 3.104861 2.473463
v 6.705901 3.128617 2.463212
v 6.698964 3.152374 2.473463
v 8.000000 3.521000 2.388805
v 8.000000 3.510749 2.413553
v 8.000000 3.486000 2.423805
v 8.000000 3.461251 2.413553
v 8.000000 3.451000 2.388805
v 8.000000 3.461251 2.364056
v 8.000000 3.486000 2.353805
v 8.000000 3.510749 2.364056
v 9.303910 3.162214 2.547503
v 9.301036 3.152374 2.572252
v 9.294099 3.128617 2.582503
v 9.287162 3.104861 2.572252
v 9.284289 3.095020 2.547503
v 9.287162 3.104861 2.522754
v 9.294099 3.128617 2.512503
v 9.301036 3.152374 2.522754
v 10.304539 2.849524 2.724074
v 10.301481 2.839739 2.748823
v 10.294099 2.816117 2.759074
v 10.286717 2.792495 2.748823
v 10.283660 2.782710 2.724074
v 10.286717 2.792495 2.699326
v 10.294099 2.816117 2.689074
v 10.301481 2.839739 2.699326
v 11.304539 2.537024 2.917492
v 11.301481 2.527239 2.942241
v 11.294099 2.503617 2.952492
v 11.286717 2.479995 2.942241
v 11.283660 2.470210 2.917492
v 11.286717 2.479995 2.892743
v 11.294099 2.503617 2.882492
v 11.301481 2.527239 2.892743
v 12.304539 2.224524 3.126078
v 12.301481 2.214739 3.150827
v 12.294099 2.191117 3.161078
v 12.286717 2.167495 3.150827
v 12.283660 2.157710 3.126078
v 12.286717 2.167495 3.101329
v 12.294099 2.191117 3.091078
v 12.301481 2.214739 3.101329
v 13.304539 1.912024 3.347568
v 13.301481 1.902239 3.372317
v 13.294099 1.878617 3.382568
v 13.286717 1.854995 3.372317
v 13.283660 1.845210 3.347568
v 13.286717 1.854995 3.322819
v 13.294099 1.878617 3.312568
v 13.301481 1.902239 3.322819
v 14.304539 1.599524 3.579200
v 14.301481 1.589739 3.603949
v 14.294099 1.566117 3.614200
v 14.286717 1.542495 3.603949
v 14.283660 1.532710 3.579200
v 14.286717 1.542495 3.554451
v 14.294099 1.566117 3.544200
v 14.301481 1.589739 3.554451
v 15.304539 1.287024 3.817819
v 15.301481 1.277239 3.842568
v 15.294099 1.253617 3.852819
v 15.286717 1.229995 3.842568
v 15.283660 1.220210 3.817819
v 15.286717 1.229995 3.793070
v 15.294099 1.253617 3.782819
v 15.301481 1.277239 3.793070
v 16.304539 0.974524 4.060000
v 16.301481 0.964739 4.084749
v 16.294099 0.941117 4.095000
v 16.286717 0.917495 4.084749
v 16.283660 0.907710 4.060000
v 16.286717 0.917495 4.035251
v 16.294099 0.941117 4.025000
v 16.301481 0.964739 4.035251
v -0.242199 0.775038 3.220000
v -0.239578 0.766651 3.241213
v -0.233251 0.746403 3.250000
v -0.226924 0.726156 3.241213
v -0.224303 0.717769 3.220000
v -0.226924 0.726156 3.198787
v -0.233251 0.746403 3.190000
v -0.239578 0.766651 3.198787
v 0.757801 1.087538 3.063814
v 0.760422 1.079151 3.085027
v 0.766749 1.058903 3.093814
v 0.773076 1.038656 3.085027
v 0.775697 1.030269 3.063814
v 0.773076 1.038656 3.042601
v 0.766749 1.058903 3.033814
v 0.760422 1.079151 3.042601
v 1.757801 1.400038 2.909775
v 1.760422 1.391651 2.930988
v 1.766749 1.371403 2.939775
v 1.773076 1.351156 2.930988
v 1.775697 1.342769 2.909775
v 1.773076 1.351156 2.888562
v 1.766749 1.371403 2.879775
v 1.760422 1.391651 2.888562
v 2.757801 1.712538 2.759948
v 2.760422 1.704151 2.781162
v 2.766749 1.683903 2.789948
v 2.773076 1.663656 2.781162
v 2.775697 1.655269 2.759948
v 2.773076 1.663656 2.738735
v 2.766749 1.683903 2.729948
v 2.760422 1.704151 2.738735
v 3.757801 2.025038 2.616238
v 3.760422 2.016651 2.637451
v 3.766749 1.996403 2.646238
v 3.773076 1.976156 2.637451
v 3.775697 1.967769 2.616238
v 3.773076 1.976156 2.595025
v 3.766749 1.996403 2.586238
v 3.760422 2.016651 2.595025
v 4.757801 2.337538 2.480314
v 4.760422 2.329151 2.501528
v 4.766749 2.308903 2.510314
v 4.773076 2.288656 2.501528
v 4.775697 2.280269 2.480314
v 4.773076 2.288656 2.459101
v 4.766749 2.308903 2.450314
v 4.760422 2.329151 2.459101
v 5.757801 2.650038 2.353550
v 5.760422 2.641651 2.374764
v 5.766749 2.621403 2.383550
v 5.773076 2.601156 2.374764
v 5.775697 2.592769 2.353550
v 5.773076 2.601156 2.332337
v 5.766749 2.621403 2.323550
v 5.760422 2.641651 2.332337
v 6.758239 2.962671 2.236969
v 6.760732 2.954245 2.258182
v 6.766749 2.933903 2.266969
v 6.772766 2.913561 2.258182
v 6.775258 2.905136 2.236969
v 6.772766 2.913561 2.215755
v 6.766749 2.933903 2.206969
v 6.760732 2.954245 2.215755
v 8.000000 3.312000 2.131203
v 8.000000 3.303213 2.152416
v 8.000000 3.282000 2.161203
v 8.000000 3.260787 2.152416
v 8.000000 3.252000 2.131203
v 8.000000 3.260787 2.109990
v 8.000000 3.282000 2.101203
v 8.000000 3.303213 2.109990
v 9.241761 2.962671 2.286534
v 9.239268 2.954245 2.307747
v 9.233251 2.933903 2.316534
v 9.227234 2.913561 2.307747
v 9.224742 2.905136 2.286534
v 9.227234 2.913561 2.265321
v 9.233251 2.933903 2.256534
v 9.239268 2.954245 2.265321
v 10.242199 2.650038 2.452820
v 10.239578 2.641651 2.474033
v 10.233251 2.621403 2.482820
v 10.226924 2.601156 2.474033
v 10.224303 2.592769 2.452820
v 10.226924 2.601156 2.431607
v 10.233251 2.621403 2.422820
v 10.239578 2.641651 2.431607
v 11.242199 2.337538 2.629431
v 11.239578 2.329151 2.650644
v 11.233251 2.308903 2.659431
v 11.226924 2.288656 2.650644
v 11.224303 2.280269 2.629431
v 11.226924 2.288656 2.608217
v 11.233251 2.308903 2.599431
v 11.239578 2.329151 2.608217
v 12.242199 2.025038 2.815338
v 12.239578 2.016651 2.836551
v 12.233251 1.996403 2.845338
v 12.226924 1.976156 2.836551
v 12.224303 1.967769 2.815338
v 12.226924 1.976156 2.794125
v 12.233251 1.996403 2.785338
v 12.239578 2.016651 2.794125
v 13.242199 1.712538 3.009155
v 13.239578 1.704151 3.030368
v 13.233251 1.683903 3.039155
v 13.226924 1.663656 3.030368
v 13.224303 1.655269 3.009155
v 13.226924 1.663656 2.987942
v 13.233251 1.683903 2.979155
v 13.239578 1.704151 2.987942
v 14.242199 1.400038 3.209187
v 14.239578 1.391651 3.230400
v 14.233251 1.371403 3.239187
v 14.226924 1.351156 3.230400
v 14.224303 1.342769 3.209187
v 14.226924 1.351156 3.187974
v 14.233251 1.371403 3.179187
v 14.239578 1.391651 3.187974
v 15.242199 1.087538 3.413502
v 15.239578 1.079151 3.434715
v 15.233251 1.058903 3.443502
v 15.226924 1.038656 3.434715
v 15.224303 1.030269 3.413502
v 15.226924 1.038656 3.392289
v 15.233251 1.058903 3.383502
v 15.239578 1.079151 3.392289
v 16.242199 0.775038 3.620000
v 16.239578 0.766651 3.641213
v 16.233251 0.746403 3.650000
v 16.226924 0.726156 3.641213
v 16.224303 0.717769 3.620000
v 16.226924 0.726156 3.598787
v 16.233251 0.746403 3.590000
v 16.239578 0.766651 3.598787
v -0.310504 0.909798 3.120000
v -0.325418 0.957522 3.120000
v -0.325418 0.957522 4.020000
v -0.310504 0.909798 4.020000
v -0.262780 0.924712 3.120000
v -0.277694 0.972436 3.120000
v -0.277694 0.972436 4.020000
v -0.262780 0.924712 4.020000
v 1.689496 1.534798 2.809775
v 1.674582 1.582522 2.809775
v 1.674582 1.582522 3.529934
v 1.689496 1.534798 3.529934
v 1.737220 1.549712 2.809775
v 1.722306 1.597436 2.809775
v 1.722306 1.597436 3.529934
v 1.737220 1.549712 3.529934
v 3.689496 2.159798 2.516238
v 3.674582 2.207522 2.516238
v 3.674582 2.207522 3.083784
v 3.689496 2.159798 3.083784
v 3.737220 2.174712 2.516238
v 3.722306 2.222436 2.516238
v 3.722306 2.222436 3.083784
v 3.737220 2.174712 3.083784
v 5.689496 2.784798 2.253550
v 5.674582 2.832522 2.253550
v 5.674582 2.832522 2.718817
v 5.689496 2.784798 2.718817
v 5.737220 2.799712 2.253550
v 5.722306 2.847436 2.253550
v 5.722306 2.847436 2.718817
v 5.737220 2.799712 2.718817
v 7.975000 3.461000 2.031203
v 7.975000 3.511000 2.031203
v 7.975000 3.511000 2.460007
v 7.975000 3.461000 2.460007
v 8.025000 3.461000 2.031203
v 8.025000 3.511000 2.031203
v 8.025000 3.511000 2.460007
v 8.025000 3.461000 2.460007
v 10.262780 2.799712 2.352820
v 10.277694 2.847436 2.352820
v 10.277694 2.847436 2.816894
v 10.262780 2.799712 2.816894
v 10.310504 2.784798 2.352820
v 10.325418 2.832522 2.352820
v 10.325418 2.832522 2.816894
v 10.310504 2.784798 2.816894
v 12.262780 2.174712 2.715338
v 12.277694 2.222436 2.715338
v 12.277694 2.222436 3.281416
v 12.262780 2.174712 3.281416
v 12.310504 2.159798 2.715338
v 12.325418 2.207522 2.715338
v 12.325418 2.207522 3.281416
v 12.310504 2.159798 3.281416
v 14.262780 1.549712 3.109187
v 14.277694 1.597436 3.109187
v 14.277694 1.597436 3.828387
v 14.262780 1.549712 3.828387
v 14.310504 1.534798 3.109187
v 14.325418 1.582522 3.109187
v 14.325418 1.582522 3.828387
v 14.310504 1.534798 3.828387
v 16.262780 0.924712 3.520000
v 16.277694 0.972436 3.520000
v 16.277694 0.972436 4.420000
v 16.262780 0.924712 4.420000
v 16.310504 0.909798 3.520000
v 16.325418 0.957522 3.520000
v 16.325418 0.957522 4.420000
v 16.310504 0.909798 4.420000
v 0.215355 -1.091448 2.940000
v 0.143769 -0.862373 2.940000
v 0.143769 -0.862373 4.300000
v 0.215355 -1.091448 4.300000
v 0.444430 -1.019862 2.940000
v 0.372844 -0.790787 2.940000
v 0.372844 -0.790787 4.300000
v 0.444430 -1.019862 4.300000
v 0.175982 -1.166613 4.285000
v 0.068603 -0.823000 4.285000
v 0.068603 -0.823000 4.395000
v 0.175982 -1.166613 4.395000
v 0.519595 -1.059234 4.285000
v 0.412216 -0.715621 4.285000
v 0.412216 -0.715621 4.395000
v 0.519595 -1.059234 4.395000
v -0.372844 0.790787 2.940000
v -0.444430 1.019862 2.940000
v -0.444430 1.019862 4.300000
v -0.372844 0.790787 4.300000
v -0.143769 0.862373 2.940000
v -0.215355 1.091448 2.940000
v -0.215355 1.091448 4.300000
v -0.143769 0.862373 4.300000
v -0.412216 0.715621 4.285000
v -0.519595 1.059234 4.285000
v -0.519595 1.059234 4.395000
v -0.412216 0.715621 4.395000
v -0.068603 0.823000 4.285000
v -0.175982 1.166613 4.285000
v -0.175982 1.166613 4.395000
v -0.068603 0.823000 4.395000
v 15.555570 -1.019862 3.340000
v 15.627156 -0.790787 3.340000
v 15.627156 -0.790787 4.700000
v 15.555570 -1.019862 4.700000
v 15.784645 -1.091448 3.340000
v 15.856231 -0.862373 3.340000
v 15.856231 -0.862373 4.700000
v 15.784645 -1.091448 4.700000
v 15.480405 -1.059234 4.685000
v 15.587784 -0.715621 4.685000
v 15.587784 -0.715621 4.795000
v 15.480405 -1.059234 4.795000
v 15.824018 -1.166613 4.685000
v 15.931397 -0.823000 4.685000
v 15.931397 -0.823000 4.795000
v 15.824018 -1.166613 4.795000
v 16.143769 0.862373 3.340000
v 16.215355 1.091448 3.340000
v 16.215355 1.091448 4.700000
v 16.143769 0.862373 4.700000
v 16.372844 0.790787 3.340000
v 16.444430 1.019862 3.340000
v 16.444430 1.019862 4.700000
v 16.372844 0.790787 4.700000
v 16.068603 0.823000 4.685000
v 16.175982 1.166613 4.685000
v 16.175982 1.166613 4.795000
v 16.068603 0.823000 4.795000
v 16.412216 0.715621 4.685000
v 16.519595 1.059234 4.685000
v 16.519595 1.059234 4.795000
v 16.412216 0.715621 4.795000
f 1 5 6 2
f 3 4 8 7
f 1 3 7 5
f 2 6 8 4
f 5 9 10 6
f 7 8 12 11
f 5 7 11 9
f 6 10 12 8
f 9 13 14 10
f 11 12 16 15
f 9 11 15 13
f 10 14 16 12
f 13 17 18 14
f 15 16 20 19
f 13 15 19 17
f 14 18 20 16
f 17 21 22 18
f 19 20 24 23
f 17 19 23 21
f 18 22 24 20
f 21 25 26 22
f 23 24 28 27
f 21 23 27 25
f 22 26 28 24
f 25 29 30 26
f 27 28 32 31
f 25 27 31 29
f 26 30 32 28
f 29 33 34 30
f 31 32 36 35
f 29 31 35 33
f 30 34 36 32
f 33 37 38 34
f 35 36 40 39
f 33 35 39 37
f 34 38 40 36
f 37 41 42 38
f 39 40 44 43
f 37 39 43 41
f 38 42 44 40
f 41 45 46 42
f 43 44 48 47
f 41 43 47 45
f 42 46 48 44
f 45 49 50 46
f 47 48 52 51
f 45 47 51 49
f 46 50 52 48
f 49 53 54 50
f 51 52 56 55
f 49 51 55 53
f 50 54 56 52
f 53 57 58 54
f 55 56 60 59
f 53 55 59 57
f 54 58 60 56
f 57 61 62 58
f 59 60 64 63
f 57 59 63 61
f 58 62 64 60
f 61 65 66 62
f 63 64 68 67
f 61 63 67 65
f 62 66 68 64
f 69 72 71 70
f 73 74 75 76
f 69 70 74 73
f 71 72 76 75
f 69 73 76 72
f 70 71 75 74
f 77 80 79 78
f 81 82 83 84
f 77 78 82 81
f 79 80 84 83
f 77 81 84 80
f 78 79 83 82
f 85 88 87 86
f 89 90 91 92
f 85 86 90 89
f 87 88 92 91
f 85 89 92 88
f 86 87 91 90
f 93 96 95 94
f 97 98 99 100
f 93 94 98 97
f 95 96 100 99
f 93 97 100 96
f 94 95 99 98
f 101 104 103 102
f 105 106 107 108
f 101 102 106 105
f 103 104 108 107
f 101 105 108 104
f 102 103 107 106
f 109 112 111 110
f 113 114 115 116
f 109 110 114 113
f 111 112 116 115
f 109 113 116 112
f 110 111 115 114
f 117 120 119 118
f 121 122 123 124
f 117 118 122 121
f 119 120 124 123
f 117 121 124 120
f 118 119 123 122
f 125 128 127 126
f 129 130 131 132
f 125 126 130 129
f 127 128 132 131
f 125 129 132 128
f 126 127 131 130
f 133 136 135 134
f 137 138 139 140
f 133 134 138 137
f 135 136 140 139
f 133 137 140 136
f 134 135 139 138
f 141 144 143 142
f 145 146 147 148
f 141 142 146 145
f 143 144 148 147
f 141 145 148 144
f 142 143 147 146
f 149 152 151 150
f 153 154 155 156
f 149 150 154 153
f 151 152 156 155
f 149 153 156 152
f 150 151 155 154
f 157 160 159 158
f 161 162 163 164
f 157 158 162 161
f 159 160 164 163
f 157 161 164 160
f 158 159 163 162
f 165 168 167 166
f 169 170 171 172
f 165 166 170 169
f 167 168 172 171
f 165 169 172 168
f 166 167 171 170
f 173 176 175 174
f 177 178 179 180
f 173 174 178 177
f 175 176 180 179
f 173 177 180 176
f 174 175 179 178
f 181 184 183 182
f 185 186 187 188
f 181 182 186 185
f 183 184 188 187
f 181 185 188 184
f 182 183 187 186
f 189 192 191 190
f 193 194 195 196
f 189 190 194 193
f 191 192 196 195
f 189 193 196 192
f 190 191 195 194
f 197 200 199 198
f 201 202 203 204
f 197 198 202 201
f 199 200 204 203
f 197 201 204 200
f 198 199 203 202
f 205 215 216 206
f 206 216 217 207
f 207 217 218 208
f 208 218 219 209
f 209 219 220 210
f 210 220 221 211
f 211 221 222 212
f 212 222 223 213
f 213 223 224 214
f 214 224 215 205
f 215 225 226 216
f 216 226 227 217
f 217 227 228 218
f 218 228 229 219
f 219 229 230 220
f 220 230 231 221
f 221 231 232 222
f 222 232 233 223
f 223 233 234 224
f 224 234 225 215
f 225 235 236 226
f 226 236 237 227
f 227 237 238 228
f 228 238 239 229
f 229 239 240 230
f 230 240 241 231
f 231 241 242 232
f 232 242 243 233
f 233 243 244 234
f 234 244 235 225
f 235 245 246 236
f 236 246 247 237
f 237 247 248 238
f 238 248 249 239
f 239 249 250 240
f 240 250 251 241
f 241 251 252 242
f 242 252 253 243
f 243 253 254 244
f 244 254 245 235
f 245 255 256 246
f 246 256 257 247
f 247 257 258 248
f 248 258 259 249
f 249 259 260 250
f 250 260 261 251
f 251 261 262 252
f 252 262 263 253
f 253 263 264 254
f 254 264 255 245
f 255 265 266 256
f 256 266 267 257
f 257 267 268 258
f 258 268 269 259
f 259 269 270 260
f 260 270 271 261
f 261 271 272 262
f 262 272 273 263
f 263 273 274 264
f 264 274 265 255
f 265 275 276 266
f 266 276 277 267
f 267 277 278 268
f 268 278 279 269
f 269 279 280 270
f 270 280 281 271
f 271 281 282 272
f 272 282 283 273
f 273 283 284 274
f 274 284 275 265
f 275 285 286 276
f 276 286 287 277
f 277 287 288 278
f 278 288 289 279
f 279 289 290 280
f 280 290 291 281
f 281 291 292 282
f 282 292 293 283
f 283 293 294 284
f 284 294 285 275
f 285 295 296 286
f 286 296 297 287
f 287 297 298 288
f 288 298 299 289
f 289 299 300 290
f 290 300 301 291
f 291 301 302 292
f 292 302 303 293
f 293 303 304 294
f 294 304 295 285
f 295 305 306 296
f 296 306 307 297
f 297 307 308 298
f 298 308 309 299
f 299 309 310 300
f 300 310 311 301
f 301 311 312 302
f 302 312 313 303
f 303 313 314 304
f 304 314 305 295
f 305 315 316 306
f 306 316 317 307
f 307 317 318 308
f 308 318 319 309
f 309 319 320 310
f 310 320 321 311
f 311 321 322 312
f 312 322 323 313
f 313 323 324 314
f 314 324 315 305
f 315 325 326 316
f 316 326 327 317
f 317 327 328 318
f 318 328 329 319
f 319 329 330 320
f 320 330 331 321
f 321 331 332 322
f 322 332 333 323
f 323 333 334 324
f 324 334 325 315
f 325 335 336 326
f 326 336 337 327
f 327 337 338 328
f 328 338 339 329
f 329 339 340 330
f 330 340 341 331
f 331 341 342 332
f 332 342 343 333
f 333 343 344 334
f 334 344 335 325
f 335 345 346 336
f 336 346 347 337
f 337 347 348 338
f 338 348 349 339
f 339 349 350 340
f 340 350 351 341
f 341 351 352 342
f 342 352 353 343
f 343 353 354 344
f 344 354 345 335
f 345 355 356 346
f 346 356 357 347
f 347 357 358 348
f 348 358 359 349
f 349 359 360 350
f 350 360 361 351
f 351 361 362 352
f 352 362 363 353
f 353 363 364 354
f 354 364 355 345
f 355 365 366 356
f 356 366 367 357
f 357 367 368 358
f 358 368 369 359
f 359 369 370 360
f 360 370 371 361
f 361 371 372 362
f 362 372 373 363
f 363 373 374 364
f 364 374 365 355
f 375 383 384 376
f 376 384 385 377
f 377 385 386 378
f 378 386 387 379
f 379 387 388 380
f 380 388 389 381
f 381 389 390 382
f 382 390 383 375
f 383 391 392 384
f 384 392 393 385
f 385 393 394 386
f 386 394 395 387
f 387 395 396 388
f 388 396 397 389
f 389 397 398 390
f 390 398 391 383
f 391 399 400 392
f 392 400 401 393
f 393 401 402 394
f 394 402 403 395
f 395 403 404 396
f 396 404 405 397
f 397 405 406 398
f 398 406 399 391
f 399 407 408 400
f 400 408 409 401
f 401 409 410 402
f 402 410 411 403
f 403 411 412 404
f 404 412 413 405
f 405 413 414 406
f 406 414 407 399
f 407 415 416 408
f 408 416 417 409
f 409 417 418 410
f 410 418 419 411
f 411 419 420 412
f 412 420 421 413
f 413 421 422 414
f 414 422 415 407
f 415 423 424 416
f 416 424 425 417
f 417 425 426 418
f 418 426 427 419
f 419 427 428 420
f 420 428 429 421
f 421 429 430 422
f 422 430 423 415
f 423 431 432 424
f 424 432 433 425
f 425 433 434 426
f 426 434 435 427
f 427 435 436 428
f 428 436 437 429
f 429 437 438 430
f 430 438 431 423
f 431 439 440 432
f 432 440 441 433
f 433 441 442 434
f 434 442 443 435
f 435 443 444 436
f 436 444 445 437
f 437 445 446 438
f 438 446 439 431
f 439 447 448 440
f 440 448 449 441
f 441 449 450 442
f 442 450 451 443
f 443 451 452 444
f 444 452 453 445
f 445 453 454 446
f 446 454 447 439
f 447 455 456 448
f 448 456 457 449
f 449 457 458 450
f 450 458 459 451
f 451 459 460 452
f 452 460 461 453
f 453 461 462 454
f 454 462 455 447
f 455 463 464 456
f 456 464 465 457
f 457 465 466 458
f 458 466 467 459
f 459 467 468 460
f 460 468 469 461
f 461 469 470 462
f 462 470 463 455
f 463 471 472 464
f 464 472 473 465
f 465 473 474 466
f 466 474 475 467
f 467 475 476 468
f 468 476 477 469
f 469 477 478 470
f 470 478 471 463
f 471 479 480 472
f 472 480 481 473
f 473 481 482 474
f 474 482 483 475
f 475 483 484 476
f 476 484 485 477
f 477 485 486 478
f 478 486 479 471
f 479 487 488 480
f 480 488 489 481
f 481 489 490 482
f 482 490 491 483
f 483 491 492 484
f 484 492 493 485
f 485 493 494 486
f 486 494 487 479
f 487 495 496 488
f 488 496 497 489
f 489 497 498 490
f 490 498 499 491
f 491 499 500 492
f 492 500 501 493
f 493 501 502 494
f 494 502 495 487
f 495 503 504 496
f 496 504 505 497
f 497 505 506 498
f 498 506 507 499
f 499 507 508 500
f 500 508 509 501
f 501 509 510 502
f 502 510 503 495
f 511 519 520 512
f 512 520 521 513
f 513 521 522 514
f 514 522 523 515
f 515 523 524 516
f 516 524 525 517
f 517 525 526 518
f 518 526 519 511
f 519 527 528 520
f 520 528 529 521
f 521 529 530 522
f 522 530 531 523
f 523 531 532 524
f 524 532 533 525
f 525 533 534 526
f 526 534 527 519
f 527 535 536 528
f 528 536 537 529
f 529 537 538 530
f 530 538 539 531
f 531 539 540 532
f 532 540 541 533
f 533 541 542 534
f 534 542 535 527
f 535 543 544 536
f 536 544 545 537
f 537 545 546 538
f 538 546 547 539
f 539 547 548 540
f 540 548 549 541
f 541 549 550 542
f 542 550 543 535
f 543 551 552 544
f 544 552 553 545
f 545 553 554 546
f 546 554 555 547
f 547 555 556 548
f 548 556 557 549
f 549 557 558 550
f 550 558 551 543
f 551 559 560 552
f 552 560 561 553
f 553 561 562 554
f 554 562 563 555
f 555 563 564 556
f 556 564 565 557
f 557 565 566 558
f 558 566 559 551
f 559 567 568 560
f 560 568 569 561
f 561 569 570 562
f 562 570 571 563
f 563 571 572 564
f 564 572 573 565
f 565 573 574 566
f 566 574 567 559
f 567 575 576 568
f 568 576 577 569
f 569 577 578 570
f 570 578 579 571
f 571 579 580 572
f 572 580 581 573
f 573 581 582 574
f 574 582 575 567
f 575 583 584 576
f 576 584 585 577
f 577 585 586 578
f 578 586 587 579
f 579 587 588 580
f 580 588 589 581
f 581 589 590 582
f 582 590 583 575
f 583 591 592 584
f 584 592 593 585
f 585 593 594 586
f 586 594 595 587
f 587 595 596 588
f 588 596 597 589
f 589 597 598 590
f 590 598 591 583
f 591 599 600 592
f 592 600 601 593
f 593 601 602 594
f 594 602 603 595
f 595 603 604 596
f 596 604 605 597
f 597 605 606 598
f 598 606 599 591
f 599 607 608 600
f 600 608 609 601
f 601 609 610 602
f 602 610 611 603
f 603 611 612 604
f 604 612 613 605
f 605 613 614 606
f 606 614 607 599
f 607 615 616 608
f 608 616 617 609
f 609 617 618 610
f 610 618 619 611
f 611 619 620 612
f 612 620 621 613
f 613 621 622 614
f 614 622 615 607
f 615 623 624 616
f 616 624 625 617
f 617 625 626 618
f 618 626 627 619
f 619 627 628 620
f 620 628 629 621
f 621 629 630 622
f 622 630 623 615
f 623 631 632 624
f 624 632 633 625
f 625 633 634 626
f 626 634 635 627
f 627 635 636 628
f 628 636 637 629
f 629 637 638 630
f 630 638 631 623
f 631 639 640 632
f 632 640 641 633
f 633 641 642 634
f 634 642 643 635
f 635 643 644 636
f 636 644 645 637
f 637 645 646 638
f 638 646 639 631
f 647 650 649 648
f 651 652 653 654
f 647 648 652 651
f 649 650 654 653
f 647 651 654 650
f 648 649 653 652
f 655 658 657 656
f 659 660 661 662
f 655 656 660 659
f 657 658 662 661
f 655 659 662 658
f 656 657 661 660
f 663 666 665 664
f 667 668 669 670
f 663 664 668 667
f 665 666 670 669
f 663 667 670 666
f 664 665 669 668
f 671 674 673 672
f 675 676 677 678
f 671 672 676 675
f 673 674 678 677
f 671 675 678 674
f 672 673 677 676
f 679 682 681 680
f 683 684 685 686
f 679 680 684 683
f 681 682 686 685
f 679 683 686 682
f 680 681 685 684
f 687 690 689 688
f 691 692 693 694
f 687 688 692 691
f 689 690 694 693
f 687 691 694 690
f 688 689 693 692
f 695 698 697 696
f 699 700 701 702
f 695 696 700 699
f 697 698 702 701
f 695 699 702 698
f 696 697 701 700
f 703 706 705 704
f 707 708 709 710
f 703 704 708 707
f 705 706 710 709
f 703 707 710 706
f 704 705 709 708
f 711 714 713 712
f 715 716 717 718
f 711 712 716 715
f 713 714 718 717
f 711 715 718 714
f 712 713 717 716
f 719 729 730 720
f 720 730 731 721
f 721 731 732 722
f 722 732 733 723
f 723 733 734 724
f 724 734 735 725
f 725 735 736 726
f 726 736 737 727
f 727 737 738 728
f 728 738 729 719
f 729 739 740 730
f 730 740 741 731
f 731 741 742 732
f 732 742 743 733
f 733 743 744 734
f 734 744 745 735
f 735 745 746 736
f 736 746 747 737
f 737 747 748 738
f 738 748 739 729
f 739 749 750 740
f 740 750 751 741
f 741 751 752 742
f 742 752 753 743
f 743 753 754 744
f 744 754 755 745
f 745 755 756 746
f 746 756 757 747
f 747 757 758 748
f 748 758 749 739
f 749 759 760 750
f 750 760 761 751
f 751 761 762 752
f 752 762 763 753
f 753 763 764 754
f 754 764 765 755
f 755 765 766 756
f 756 766 767 757
f 757 767 768 758
f 758 768 759 749
f 759 769 770 760
f 760 770 771 761
f 761 771 772 762
f 762 772 773 763
f 763 773 774 764
f 764 774 775 765
f 765 775 776 766
f 766 776 777 767
f 767 777 778 768
f 768 778 769 759
f 769 779 780 770
f 770 780 781 771
f 771 781 782 772
f 772 782 783 773
f 773 783 784 774
f 774 784 785 775
f 775 785 786 776
f 776 786 787 777
f 777 787 788 778
f 778 788 779 769
f 779 789 790 780
f 780 790 791 781
f 781 791 792 782
f 782 792 793 783
f 783 793 794 784
f 784 794 795 785
f 785 795 796 786
f 786 796 797 787
f 787 797 798 788
f 788 798 789 779
f 789 799 800 790
f 790 800 801 791
f 791 801 802 792
f 792 802 803 793
f 793 803 804 794
f 794 804 805 795
f 795 805 806 796
f 796 806 807 797
f 797 807 808 798
f 798 808 799 789
f 799 809 810 800
f 800 810 811 801
f 801 811 812 802
f 802 812 813 803
f 803 813 814 804
f 804 814 815 805
f 805 815 816 806
f 806 816 817 807
f 807 817 818 808
f 808 818 809 799
f 809 819 820 810
f 810 820 821 811
f 811 821 822 812
f 812 822 823 813
f 813 823 824 814
f 814 824 825 815
f 815 825 826 816
f 816 826 827 817
f 817 827 828 818
f 818 828 819 809
f 819 829 830 820
f 820 830 831 821
f 821 831 832 822
f 822 832 833 823
f 823 833 834 824
f 824 834 835 825
f 825 835 836 826
f 826 836 837 827
f 827 837 838 828
f 828 838 829 819
f 829 839 840 830
f 830 840 841 831
f 831 841 842 832
f 832 842 843 833
f 833 843 844 834
f 834 844 845 835
f 835 845 846 836
f 836 846 847 837
f 837 847 848 838
f 838 848 839 829
f 839 849 850 840
f 840 850 851 841
f 841 851 852 842
f 842 852 853 843
f 843 853 854 844
f 844 854 855 845
f 845 855 856 846
f 846 856 857 847
f 847 857 858 848
f 848 858 849 839
f 849 859 860 850
f 850 860 861 851
f 851 861 862 852
f 852 862 863 853
f 853 863 864 854
f 854 864 865 855
f 855 865 866 856
f 856 866 867 857
f 857 867 868 858
f 858 868 859 849
f 859 869 870 860
f 860 870 871 861
f 861 871 872 862
f 862 872 873 863
f 863 873 874 864
f 864 874 875 865
f 865 875 876 866
f 866 876 877 867
f 867 877 878 868
f 868 878 869 859
f 869 879 880 870
f 870 880 881 871
f 871 881 882 872
f 872 882 883 873
f 873 883 884 874
f 874 884 885 875
f 875 885 886 876
f 876 886 887 877
f 877 887 888 878
f 878 888 879 869
f 889 897 898 890
f 890 898 899 891
f 891 899 900 892
f 892 900 901 893
f 893 901 902 894
f 894 902 903 895
f 895 903 904 896
f 896 904 897 889
f 897 905 906 898
f 898 906 907 899
f 899 907 908 900
f 900 908 909 901
f 901 909 910 902
f 902 910 911 903
f 903 911 912 904
f 904 912 905 897
f 905 913 914 906
f 906 914 915 907
f 907 915 916 908
f 908 916 917 909
f 909 917 918 910
f 910 918 919 911
f 911 919 920 912
f 912 920 913 905
f 913 921 922 914
f 914 922 923 915
f 915 923 924 916
f 916 924 925 917
f 917 925 926 918
f 918 926 927 919
f 919 927 928 920
f 920 928 921 913
f 921 929 930 922
f 922 930 931 923
f 923 931 932 924
f 924 932 933 925
f 925 933 934 926
f 926 934 935 927
f 927 935 936 928
f 928 936 929 921
f 929 937 938 930
f 930 938 939 931
f 931 939 940 932
f 932 940 941 933
f 933 941 942 934
f 934 942 943 935
f 935 943 944 936
f 936 944 937 929
f 937 945 946 938
f 938 946 947 939
f 939 947 948 940
f 940 948 949 941
f 941 949 950 942
f 942 950 951 943
f 943 951 952 944
f 944 952 945 937
f 945 953 954 946
f 946 954 955 947
f 947 955 956 948
f 948 956 957 949
f 949 957 958 950
f 950 958 959 951
f 951 959 960 952
f 952 960 953 945
f 953 961 962 954
f 954 962 963 955
f 955 963 964 956
f 956 964 965 957
f 957 965 966 958
f 958 966 967 959
f 959 967 968 960
f 960 968 961 953
f 961 969 970 962
f 962 970 971 963
f 963 971 972 964
f 964 972 973 965
f 965 973 974 966
f 966 974 975 967
f 967 975 976 968
f 968 976 969 961
f 969 977 978 970
f 970 978 979 971
f 971 979 980 972
f 972 980 981 973
f 973 981 982 974
f 974 982 983 975
f 975 983 984 976
f 976 984 977 969
f 977 985 986 978
f 978 986 987 979
f 979 987 988 980
f 980 988 989 981
f 981 989 990 982
f 982 990 991 983
f 983 991 992 984
f 984 992 985 977
f 985 993 994 986
f 986 994 995 987
f 987 995 996 988
f 988 996 997 989
f 989 997 998 990
f 990 998 999 991
f 991 999 1000 992
f 992 1000 993 985
f 993 1001 1002 994
f 994 1002 1003 995
f 995 1003 1004 996
f 996 1004 1005 997
f 997 1005 1006 998
f 998 1006 1007 999
f 999 1007 1008 1000
f 1000 1008 1001 993
f 1001 1009 1010 1002
f 1002 1010 1011 1003
f 1003 1011 1012 1004
f 1004 1012 1013 1005
f 1005 1013 1014 1006
f 1006 1014 1015 1007
f 1007 1015 1016 1008
f 1008 1016 1009 1001
f 1009 1017 1018 1010
f 1010 1018 1019 1011
f 1011 1019 1020 1012
f 1012 1020 1021 1013
f 1013 1021 1022 1014
f 1014 1022 1023 1015
f 1015 1023 1024 1016
f 1016 1024 1017 1009
f 1025 1033 1034 1026
f 1026 1034 1035 1027
f 1027 1035 1036 1028
f 1028 1036 1037 1029
f 1029 1037 1038 1030
f 1030 1038 1039 1031
f 1031 1039 1040 1032
f 1032 1040 1033 1025
f 1033 1041 1042 1034
f 1034 1042 1043 1035
f 1035 1043 1044 1036
f 1036 1044 1045 1037
f 1037 1045 1046 1038
f 1038 1046 1047 1039
f 1039 1047 1048 1040
f 1040 1048 1041 1033
f 1041 1049 1050 1042
f 1042 1050 1051 1043
f 1043 1051 1052 1044
f 1044 1052 1053 1045
f 1045 1053 1054 1046
f 1046 1054 1055 1047
f 1047 1055 1056 1048
f 1048 1056 1049 1041
f 1049 1057 1058 1050
f 1050 1058 1059 1051
f 1051 1059 1060 1052
f 1052 1060 1061 1053
f 1053 1061 1062 1054
f 1054 1062 1063 1055
f 1055 1063 1064 1056
f 1056 1064 1057 1049
f 1057 1065 1066 1058
f 1058 1066 1067 1059
f 1059 1067 1068 1060
f 1060 1068 1069 1061
f 1061 1069 1070 1062
f 1062 1070 1071 1063
f 1063 1071 1072 1064
f 1064 1072 1065 1057
f 1065 1073 1074 1066
f 1066 1074 1075 1067
f 1067 1075 1076 1068
f 1068 1076 1077 1069
f 1069 1077 1078 1070
f 1070 1078 1079 1071
f 1071 1079 1080 1072
f 1072 1080 1073 1065
f 1073 1081 1082 1074
f 1074 1082 1083 1075
f 1075 1083 1084 1076
f 1076 1084 1085 1077
f 1077 1085 1086 1078
f 1078 1086 1087 1079
f 1079 1087 1088 1080
f 1080 1088 1081 1073
f 1081 1089 1090 1082
f 1082 1090 1091 1083
f 1083 1091 1092 1084
f 1084 1092 1093 1085
f 1085 1093 1094 1086
f 1086 1094 1095 1087
f 1087 1095 1096 1088
f 1088 1096 1089 1081
f 1089 1097 1098 1090
f 1090 1098 1099 1091
f 1091 1099 1100 1092
f 1092 1100 1101 1093
f 1093 1101 1102 1094
f 1094 1102 1103 1095
f 1095 1103 1104 1096
f 1096 1104 1097 1089
f 1097 1105 1106 1098
f 1098 1106 1107 1099
f 1099 1107 1108 1100
f 1100 1108 1109 1101
f 1101 1109 1110 1102
f 1102 1110 1111 1103
f 1103 1111 1112 1104
f 1104 1112 1105 1097
f 1105 1113 1114 1106
f 1106 1114 1115 1107
f 1107 1115 1116 1108
f 1108 1116 1117 1109
f 1109 1117 1118 1110
f 1110 1118 1119 1111
f 1111 1119 1120 1112
f 1112 1120 1113 1105
f 1113 1121 1122 1114
f 1114 1122 1123 1115
f 1115 1123 1124 1116
f 1116 1124 1125 1117
f 1117 1125 1126 1118
f 1118 1126 1127 1119
f 1119 1127 1128 1120
f 1120 1128 1121 1113
f 1121 1129 1130 1122
f 1122 1130 1131 1123
f 1123 1131 1132 1124
f 1124 1132 1133 1125
f 1125 1133 1134 1126
f 1126 1134 1135 1127
f 1127 1135 1136 1128
f 1128 1136 1129 1121
f 1129 1137 1138 1130
f 1130 1138 1139 1131
f 1131 1139 1140 1132
f 1132 1140 1141 1133
f 1133 1141 1142 1134
f 1134 1142 1143 1135
f 1135 1143 1144 1136
f 1136 1144 1137 1129
f 1137 1145 1146 1138
f 1138 1146 1147 1139
f 1139 1147 1148 1140
f 1140 1148 1149 1141
f 1141 1149 1150 1142
f 1142 1150 1151 1143
f 1143 1151 1152 1144
f 1144 1152 1145 1137
f 1145 1153 1154 1146
f 1146 1154 1155 1147
f 1147 1155 1156 1148
f 1148 1156 1157 1149
f 1149 1157 1158 1150
f 1150 1158 1159 1151
f 1151 1159 1160 1152
f 1152 1160 1153 1145
f 1161 1164 1163 1162
f 1165 1166 1167 1168
f 1161 1162 1166 1165
f 1163 1164 1168 1167
f 1161 1165 1168 1164
f 1162 1163 1167 1166
f 1169 1172 1171 1170
f 1173 1174 1175 1176
f 1169 1170 1174 1173
f 1171 1172 1176 1175
f 1169 1173 1176 1172
f 1170 1171 1175 1174
f 1177 1180 1179 1178
f 1181 1182 1183 1184
f 1177 1178 1182 1181
f 1179 1180 1184 1183
f 1177 1181 1184 1180
f 1178 1179 1183 1182
f 1185 1188 1187 1186
f 1189 1190 1191 1192
f 1185 1186 1190 1189
f 1187 1188 1192 1191
f 1185 1189 1192 1188
f 1186 1187 1191 1190
f 1193 1196 1195 1194
f 1197 1198 1199 1200
f 1193 1194 1198 1197
f 1195 1196 1200 1199
f 1193 1197 1200 1196
f 1194 1195 1199 1198
f 1201 1204 1203 1202
f 1205 1206 1207 1208
f 1201 1202 1206 1205
f 1203 1204 1208 1207
f 1201 1205 1208 1204
f 1202 1203 1207 1206
f 1209 1212 1211 1210
f 1213 1214 1215 1216
f 1209 1210 1214 1213
f 1211 1212 1216 1215
f 1209 1213 1216 1212
f 1210 1211 1215 1214
f 1217 1220 1219 1218
f 1221 1222 1223 1224
f 1217 1218 1222 1221
f 1219 1220 1224 1223
f 1217 1221 1224 1220
f 1218 1219 1223 1222
f 1225 1228 1227 1226
f 1229 1230 1231 1232
f 1225 1226 1230 1229
f 1227 1228 1232 1231
f 1225 1229 1232 1228
f 1226 1227 1231 1230
f 1233 1236 1235 1234
f 1237 1238 1239 1240
f 1233 1234 1238 1237
f 1235 1236 1240 1239
f 1233 1237 1240 1236
f 1234 1235 1239 1238
f 1241 1244 1243 1242
f 1245 1246 1247 1248
f 1241 1242 1246 1245
f 1243 1244 1248 1247
f 1241 1245 1248 1244
f 1242 1243 1247 1246
f 1249 1252 1251 1250
f 1253 1254 1255 1256
f 1249 1250 1254 1253
f 1251 1252 1256 1255
f 1249 1253 1256 1252
f 1250 1251 1255 1254
f 1257 1260 1259 1258
f 1261 1262 1263 1264
f 1257 1258 1262 1261
f 1259 1260 1264 1263
f 1257 1261 1264 1260
f 1258 1259 1263 1262
f 1265 1268 1267 1266
f 1269 1270 1271 1272
f 1265 1266 1270 1269
f 1267 1268 1272 1271
f 1265 1269 1272 1268
f 1266 1267 1271 1270
f 1273 1276 1275 1274
f 1277 1278 1279 1280
f 1273 1274 1278 1277
f 1275 1276 1280 1279
f 1273 1277 1280 1276
f 1274 1275 1279 1278
f 1281 1284 1283 1282
f 1285 1286 1287 1288
f 1281 1282 1286 1285
f 1283 1284 1288 1287
f 1281 1285 1288 1284
f 1282 1283 1287 1286
f 1289 1292 1291 1290
f 1293 1294 1295 1296
f 1289 1290 1294 1293
f 1291 1292 1296 1295
f 1289 1293 1296 1292
f 1290 1291 1295 1294
