v 0.000000 -2.000000 0.000000
v 0.000000 2.000000 0.000000
v 0.000000 -2.000000 -0.340000
v 0.000000 2.000000 -0.340000
v 1.400000 -2.000000 0.000000
v 1.400000 2.000000 0.000000
v 1.400000 -2.000000 -0.340000
v 1.400000 2.000000 -0.340000
v 2.800000 -2.000000 0.000000
v 2.800000 2.000000 0.000000
v 2.800000 -2.000000 -0.340000
v 2.800000 2.000000 -0.340000
v 4.200000 -2.000000 0.000000
v 4.200000 2.000000 0.000000
v 4.200000 -2.000000 -0.340000
v 4.200000 2.000000 -0.340000
v 5.600000 -2.000000 0.000000
v 5.600000 2.000000 0.000000
v 5.600000 -2.000000 -0.340000
v 5.600000 2.000000 -0.340000
v 7.000000 -2.000000 0.000000
v 7.000000 2.000000 0.000000
v 7.000000 -2.000000 -0.340000
v 7.000000 2.000000 -0.340000
v 8.400000 -2.000000 0.000000
v 8.400000 2.000000 0.000000
v 8.400000 -2.000000 -0.340000
v 8.400000 2.000000 -0.340000
v 9.800000 -2.000000 0.000000
v 9.800000 2.000000 0.000000
v 9.800000 -2.000000 -0.340000
v 9.800000 2.000000 -0.340000
v 11.200000 -2.000000 0.000000
v 11.200000 2.000000 0.000000
v 11.200000 -2.000000 -0.340000
v 11.200000 2.000000 -0.340000
v 12.600000 -2.000000 0.000000
v 12.600000 2.000000 0.000000
v 12.600000 -2.000000 -0.340000
v 12.600000 2.000000 -0.340000
v 14.000000 -2.000000 0.000000
v 14.000000 2.000000 0.000000
v 14.000000 -2.000000 -0.340000
v 14.000000 2.000000 -0.340000
v 0.000000 -1.920000 -1.680000
v 0.000000 -2.320000 -1.680000
v 0.000000 -1.920000 0.660000
v 0.000000 -2.320000 0.660000
v 1.400000 -1.920000 -0.798322
v 1.400000 -2.320000 -0.798322
v 1.400000 -1.920000 0.660000
v 1.400000 -2.320000 0.660000
v 2.800000 -1.920000 -0.253415
v 2.800000 -2.320000 -0.253415
v 2.800000 -1.920000 0.660000
v 2.800000 -2.320000 0.660000
v 4.200000 -1.920000 -0.253415
v 4.200000 -2.320000 -0.253415
v 4.200000 -1.920000 0.660000
v 4.200000 -2.320000 0.660000
v 5.600000 -1.920000 -0.798322
v 5.600000 -2.320000 -0.798322
v 5.600000 -1.920000 0.660000
v 5.600000 -2.320000 0.660000
v 7.000000 -1.920000 -1.680000
v 7.000000 -2.320000 -1.680000
v 7.000000 -1.920000 0.660000
v 7.000000 -2.320000 0.660000
v -0.240000 -2.540000 -1.780000
v -0.240000 -2.220000 -1.780000
v -0.240000 -2.220000 -1.580000
v -0.240000 -2.540000 -1.580000
v 0.240000 -2.540000 -1.780000
v 0.240000 -2.220000 -1.780000
v 0.240000 -2.220000 -1.580000
v 0.240000 -2.540000 -1.580000
v 1.160000 -2.540000 -1.000000
v 1.160000 -2.220000 -1.000000
v 1.160000 -2.220000 -0.800000
v 1.160000 -2.540000 -0.800000
v 1.640000 -2.540000 -1.000000
v 1.640000 -2.220000 -1.000000
v 1.640000 -2.220000 -0.800000
v 1.640000 -2.540000 -0.800000
v 2.560000 -2.540000 -0.429000
v 2.560000 -2.220000 -0.429000
v 2.560000 -2.220000 -0.229000
v 2.560000 -2.540000 -0.229000
v 3.040000 -2.540000 -0.429000
v 3.040000 -2.220000 -0.429000
v 3.040000 -2.220000 -0.229000
v 3.040000 -2.540000 -0.229000
v 2.560000 -2.540000 -0.220000
v 2.560000 -2.220000 -0.220000
v 2.560000 -2.220000 -0.020000
v 2.560000 -2.540000 -0.020000
v 3.040000 -2.540000 -0.220000
v 3.040000 -2.220000 -0.220000
v 3.040000 -2.220000 -0.020000
v 3.040000 -2.540000 -0.020000
v 3.960000 -2.540000 -0.429000
v 3.960000 -2.220000 -0.429000
v 3.960000 -2.220000 -0.229000
v 3.960000 -2.540000 -0.229000
v 4.440000 -2.540000 -0.429000
v 4.440000 -2.220000 -0.429000
v 4.440000 -2.220000 -0.229000
v 4.440000 -2.540000 -0.229000
v 5.360000 -2.540000 -1.000000
v 5.360000 -2.220000 -1.000000
v 5.360000 -2.220000 -0.800000
v 5.360000 -2.540000 -0.800000
v 5.840000 -2.540000 -1.000000
v 5.840000 -2.220000 -1.000000
v 5.840000 -2.220000 -0.800000
v 5.840000 -2.540000 -0.800000
v 6.760000 -2.540000 -1.780000
v 6.760000 -2.220000 -1.780000
v 6.760000 -2.220000 -1.580000
v 6.760000 -2.540000 -1.580000
v 7.240000 -2.540000 -1.780000
v 7.240000 -2.220000 -1.780000
v 7.240000 -2.220000 -1.580000
v 7.240000 -2.540000 -1.580000
v 7.000000 -1.920000 -1.680000
v 7.000000 -2.320000 -1.680000
v 7.000000 -1.920000 0.660000
v 7.000000 -2.320000 0.660000
v 8.400000 -1.920000 -0.798322
v 8.400000 -2.320000 -0.798322
v 8.400000 -1.920000 0.660000
v 8.400000 -2.320000 0.660000
v 9.800000 -1.920000 -0.253415
v 9.800000 -2.320000 -0.253415
v 9.800000 -1.920000 0.660000
v 9.800000 -2.320000 0.660000
v 11.200000 -1.920000 -0.253415
v 11.200000 -2.320000 -0.253415
v 11.200000 -1.920000 0.660000
v 11.200000 -2.320000 0.660000
v 12.600000 -1.920000 -0.798322
v 12.600000 -2.320000 -0.798322
v 12.600000 -1.920000 0.660000
v 12.600000 -2.320000 0.660000
v 14.000000 -1.920000 -1.680000
v 14.000000 -2.320000 -1.680000
v 14.000000 -1.920000 0.660000
v 14.000000 -2.320000 0.660000
v 6.760000 -2.540000 -1.780000
v 6.760000 -2.220000 -1.780000
v 6.760000 -2.220000 -1.580000
v 6.760000 -2.540000 -1.580000
v 7.240000 -2.540000 -1.780000
v 7.240000 -2.220000 -1.780000
v 7.240000 -2.220000 -1.580000
v 7.240000 -2.540000 -1.580000
v 8.160000 -2.540000 -1.000000
v 8.160000 -2.220000 -1.000000
v 8.160000 -2.220000 -0.800000
v 8.160000 -2.540000 -0.800000
v 8.640000 -2.540000 -1.000000
v 8.640000 -2.220000 -1.000000
v 8.640000 -2.220000 -0.800000
v 8.640000 -2.540000 -0.800000
v 9.560000 -2.540000 -0.429000
v 9.560000 -2.220000 -0.429000
v 9.560000 -2.220000 -0.229000
v 9.560000 -2.540000 -0.229000
v 10.040000 -2.540000 -0.429000
v 10.040000 -2.220000 -0.429000
v 10.040000 -2.220000 -0.229000
v 10.040000 -2.540000 -0.229000
v 10.960000 -2.540000 -0.220000
v 10.960000 -2.220000 -0.220000
v 10.960000 -2.220000 -0.020000
v 10.960000 -2.540000 -0.020000
v 11.440000 -2.540000 -0.220000
v 11.440000 -2.220000 -0.220000
v 11.440000 -2.220000 -0.020000
v 11.440000 -2.540000 -0.020000
v 10.960000 -2.540000 -0.429000
v 10.960000 -2.220000 -0.429000
v 10.960000 -2.220000 -0.229000
v 10.960000 -2.540000 -0.229000
v 11.440000 -2.540000 -0.429000
v 11.440000 -2.220000 -0.429000
v 11.440000 -2.220000 -0.229000
v 11.440000 -2.540000 -0.229000
v 12.360000 -2.540000 -1.000000
v 12.360000 -2.220000 -1.000000
v 12.360000 -2.220000 -0.800000
v 12.360000 -2.540000 -0.800000
v 12.840000 -2.540000 -1.000000
v 12.840000 -2.220000 -1.000000
v 12.840000 -2.220000 -0.800000
v 12.840000 -2.540000 -0.800000
v 13.760000 -2.540000 -1.780000
v 13.760000 -2.220000 -1.780000
v 13.760000 -2.220000 -1.580000
v 13.760000 -2.540000 -1.580000
v 14.240000 -2.540000 -1.780000
v 14.240000 -2.220000 -1.780000
v 14.240000 -2.220000 -1.580000
v 14.240000 -2.540000 -1.580000
v 0.000000 1.920000 -1.680000
v 0.000000 2.320000 -1.680000
v 0.000000 1.920000 0.660000
v 0.000000 2.320000 0.660000
v 1.400000 1.920000 -0.798322
v 1.400000 2.320000 -0.798322
v 1.400000 1.920000 0.660000
v 1.400000 2.320000 0.660000
v 2.800000 1.920000 -0.253415
v 2.800000 2.320000 -0.253415
v 2.800000 1.920000 0.660000
v 2.800000 2.320000 0.660000
v 4.200000 1.920000 -0.253415
v 4.200000 2.320000 -0.253415
v 4.200000 1.920000 0.660000
v 4.200000 2.320000 0.660000
v 5.600000 1.920000 -0.798322
v 5.600000 2.320000 -0.798322
v 5.600000 1.920000 0.660000
v 5.600000 2.320000 0.660000
v 7.000000 1.920000 -1.680000
v 7.000000 2.320000 -1.680000
v 7.000000 1.920000 0.660000
v 7.000000 2.320000 0.660000
v -0.240000 2.220000 -1.780000
v -0.240000 2.540000 -1.780000
v -0.240000 2.540000 -1.580000
v -0.240000 2.220000 -1.580000
v 0.240000 2.220000 -1.780000
v 0.240000 2.540000 -1.780000
v 0.240000 2.540000 -1.580000
v 0.240000 2.220000 -1.580000
v 1.160000 2.220000 -1.000000
v 1.160000 2.540000 -1.000000
v 1.160000 2.540000 -0.800000
v 1.160000 2.220000 -0.800000
v 1.640000 2.220000 -1.000000
v 1.640000 2.540000 -1.000000
v 1.640000 2.540000 -0.800000
v 1.640000 2.220000 -0.800000
v 2.560000 2.220000 -0.429000
v 2.560000 2.540000 -0.429000
v 2.560000 2.540000 -0.229000
v 2.560000 2.220000 -0.229000
v 3.040000 2.220000 -0.429000
v 3.040000 2.540000 -0.429000
v 3.040000 2.540000 -0.229000
v 3.040000 2.220000 -0.229000
v 2.560000 2.220000 -0.220000
v 2.560000 2.540000 -0.220000
v 2.560000 2.540000 -0.020000
v 2.560000 2.220000 -0.020000
v 3.040000 2.220000 -0.220000
v 3.040000 2.540000 -0.220000
v 3.040000 2.540000 -0.020000
v 3.040000 2.220000 -0.020000
v 3.960000 2.220000 -0.429000
v 3.960000 2.540000 -0.429000
v 3.960000 2.540000 -0.229000
v 3.960000 2.220000 -0.229000
v 4.440000 2.220000 -0.429000
v 4.440000 2.540000 -0.429000
v 4.440000 2.540000 -0.229000
v 4.440000 2.220000 -0.229000
v 5.360000 2.220000 -1.000000
v 5.360000 2.540000 -1.000000
v 5.360000 2.540000 -0.800000
v 5.360000 2.220000 -0.800000
v 5.840000 2.220000 -1.000000
v 5.840000 2.540000 -1.000000
v 5.840000 2.540000 -0.800000
v 5.840000 2.220000 -0.800000
v 6.760000 2.220000 -1.780000
v 6.760000 2.540000 -1.780000
v 6.760000 2.540000 -1.580000
v 6.760000 2.220000 -1.580000
v 7.240000 2.220000 -1.780000
v 7.240000 2.540000 -1.780000
v 7.240000 2.540000 -1.580000
v 7.240000 2.220000 -1.580000
v 7.000000 1.920000 -1.680000
v 7.000000 2.320000 -1.680000
v 7.000000 1.920000 0.660000
v 7.000000 2.320000 0.660000
v 8.400000 1.920000 -0.798322
v 8.400000 2.320000 -0.798322
v 8.400000 1.920000 0.660000
v 8.400000 2.320000 0.660000
v 9.800000 1.920000 -0.253415
v 9.800000 2.320000 -0.253415
v 9.800000 1.920000 0.660000
v 9.800000 2.320000 0.660000
v 11.200000 1.920000 -0.253415
v 11.200000 2.320000 -0.253415
v 11.200000 1.920000 0.660000
v 11.200000 2.320000 0.660000
v 12.600000 1.920000 -0.798322
v 12.600000 2.320000 -0.798322
v 12.600000 1.920000 0.660000
v 12.600000 2.320000 0.660000
v 14.000000 1.920000 -1.680000
v 14.000000 2.320000 -1.680000
v 14.000000 1.920000 0.660000
v 14.000000 2.320000 0.660000
v 6.760000 2.220000 -1.780000
v 6.760000 2.540000 -1.780000
v 6.760000 2.540000 -1.580000
v 6.760000 2.220000 -1.580000
v 7.240000 2.220000 -1.780000
v 7.240000 2.540000 -1.780000
v 7.240000 2.540000 -1.580000
v 7.240000 2.220000 -1.580000
v 8.160000 2.220000 -1.000000
v 8.160000 2.540000 -1.000000
v 8.160000 2.540000 -0.800000
v 8.160000 2.220000 -0.800000
v 8.640000 2.220000 -1.000000
v 8.640000 2.540000 -1.000000
v 8.640000 2.540000 -0.800000
v 8.640000 2.220000 -0.800000
v 9.560000 2.220000 -0.429000
v 9.560000 2.540000 -0.429000
v 9.560000 2.540000 -0.229000
v 9.560000 2.220000 -0.229000
v 10.040000 2.220000 -0.429000
v 10.040000 2.540000 -0.429000
v 10.040000 2.540000 -0.229000
v 10.040000 2.220000 -0.229000
v 10.960000 2.220000 -0.220000
v 10.960000 2.540000 -0.220000
v 10.960000 2.540000 -0.020000
v 10.960000 2.220000 -0.020000
v 11.440000 2.220000 -0.220000
v 11.440000 2.540000 -0.220000
v 11.440000 2.540000 -0.020000
v 11.440000 2.220000 -0.020000
v 10.960000 2.220000 -0.429000
v 10.960000 2.540000 -0.429000
v 10.960000 2.540000 -0.229000
v 10.960000 2.220000 -0.229000
v 11.440000 2.220000 -0.429000
v 11.440000 2.540000 -0.429000
v 11.440000 2.540000 -0.229000
v 11.440000 2.220000 -0.229000
v 12.360000 2.220000 -1.000000
v 12.360000 2.540000 -1.000000
v 12.360000 2.540000 -0.800000
v 12.360000 2.220000 -0.800000
v 12.840000 2.220000 -1.000000
v 12.840000 2.540000 -1.000000
v 12.840000 2.540000 -0.800000
v 12.840000 2.220000 -0.800000
v 13.760000 2.220000 -1.780000
v 13.760000 2.540000 -1.780000
v 13.760000 2.540000 -1.580000
v 13.760000 2.220000 -1.580000
v 14.240000 2.220000 -1.780000
v 14.240000 2.540000 -1.780000
v 14.240000 2.540000 -1.580000
v 14.240000 2.220000 -1.580000
v -0.340000 -2.240000 -2.800000
v -0.340000 2.240000 -2.800000
v -0.340000 2.240000 -0.080000
v -0.340000 -2.240000 -0.080000
v 0.340000 -2.240000 -2.800000
v 0.340000 2.240000 -2.800000
v 0.340000 2.240000 -0.080000
v 0.340000 -2.240000 -0.080000
v -0.280000 -2.480000 0.760000
v -0.280000 2.480000 0.760000
v -0.280000 2.480000 0.880000
v -0.280000 -2.480000 0.880000
v 0.280000 -2.480000 0.760000
v 0.280000 2.480000 0.760000
v 0.280000 2.480000 0.880000
v 0.280000 -2.480000 0.880000
v -0.320000 -2.360000 0.680000
v -0.320000 -2.040000 0.680000
v -0.320000 -2.040000 0.840000
v -0.320000 -2.360000 0.840000
v 0.320000 -2.360000 0.680000
v 0.320000 -2.040000 0.680000
v 0.320000 -2.040000 0.840000
v 0.320000 -2.360000 0.840000
v -0.320000 2.040000 0.680000
v -0.320000 2.360000 0.680000
v -0.320000 2.360000 0.840000
v -0.320000 2.040000 0.840000
v 0.320000 2.040000 0.680000
v 0.320000 2.360000 0.680000
v 0.320000 2.360000 0.840000
v 0.320000 2.040000 0.840000
v 2.520000 -2.480000 0.760000
v 2.520000 2.480000 0.760000
v 2.520000 2.480000 0.880000
v 2.520000 -2.480000 0.880000
v 3.080000 -2.480000 0.760000
v 3.080000 2.480000 0.760000
v 3.080000 2.480000 0.880000
v 3.080000 -2.480000 0.880000
v 3.880000 -2.360000 0.680000
v 3.880000 -2.040000 0.680000
v 3.880000 -2.040000 0.840000
v 3.880000 -2.360000 0.840000
v 4.520000 -2.360000 0.680000
v 4.520000 -2.040000 0.680000
v 4.520000 -2.040000 0.840000
v 4.520000 -2.360000 0.840000
v 3.880000 2.040000 0.680000
v 3.880000 2.360000 0.680000
v 3.880000 2.360000 0.840000
v 3.880000 2.040000 0.840000
v 4.520000 2.040000 0.680000
v 4.520000 2.360000 0.680000
v 4.520000 2.360000 0.840000
v 4.520000 2.040000 0.840000
v 5.380000 -2.240000 -2.800000
v 5.380000 2.240000 -2.800000
v 5.380000 2.240000 -0.080000
v 5.380000 -2.240000 -0.080000
v 5.820000 -2.240000 -2.800000
v 5.820000 2.240000 -2.800000
v 5.820000 2.240000 -0.080000
v 5.820000 -2.240000 -0.080000
v 5.320000 -2.480000 0.760000
v 5.320000 2.480000 0.760000
v 5.320000 2.480000 0.880000
v 5.320000 -2.480000 0.880000
v 5.880000 -2.480000 0.760000
v 5.880000 2.480000 0.760000
v 5.880000 2.480000 0.880000
v 5.880000 -2.480000 0.880000
v 8.120000 -2.480000 0.760000
v 8.120000 2.480000 0.760000
v 8.120000 2.480000 0.880000
v 8.120000 -2.480000 0.880000
v 8.680000 -2.480000 0.760000
v 8.680000 2.480000 0.760000
v 8.680000 2.480000 0.880000
v 8.680000 -2.480000 0.880000
v 8.080000 -2.360000 0.680000
v 8.080000 -2.040000 0.680000
v 8.080000 -2.040000 0.840000
v 8.080000 -2.360000 0.840000
v 8.720000 -2.360000 0.680000
v 8.720000 -2.040000 0.680000
v 8.720000 -2.040000 0.840000
v 8.720000 -2.360000 0.840000
v 8.080000 2.040000 0.680000
v 8.080000 2.360000 0.680000
v 8.080000 2.360000 0.840000
v 8.080000 2.040000 0.840000
v 8.720000 2.040000 0.680000
v 8.720000 2.360000 0.680000
v 8.720000 2.360000 0.840000
v 8.720000 2.040000 0.840000
v 10.980000 -2.240000 -2.800000
v 10.980000 2.240000 -2.800000
v 10.980000 2.240000 -0.080000
v 10.980000 -2.240000 -0.080000
v 11.420000 -2.240000 -2.800000
v 11.420000 2.240000 -2.800000
v 11.420000 2.240000 -0.080000
v 11.420000 -2.240000 -0.080000
v 10.920000 -2.480000 0.760000
v 10.920000 2.480000 0.760000
v 10.920000 2.480000 0.880000
v 10.920000 -2.480000 0.880000
v 11.480000 -2.480000 0.760000
v 11.480000 2.480000 0.760000
v 11.480000 2.480000 0.880000
v 11.480000 -2.480000 0.880000
v 12.280000 -2.360000 0.680000
v 12.280000 -2.040000 0.680000
v 12.280000 -2.040000 0.840000
v 12.280000 -2.360000 0.840000
v 12.920000 -2.360000 0.680000
v 12.920000 -2.040000 0.680000
v 12.920000 -2.040000 0.840000
v 12.920000 -2.360000 0.840000
v 12.280000 2.040000 0.680000
v 12.280000 2.360000 0.680000
v 12.280000 2.360000 0.840000
v 12.280000 2.040000 0.840000
v 12.920000 2.040000 0.680000
v 12.920000 2.360000 0.680000
v 12.920000 2.360000 0.840000
v 12.920000 2.040000 0.840000
v 13.660000 -2.240000 -2.800000
v 13.660000 2.240000 -2.800000
v 13.660000 2.240000 -0.080000
v 13.660000 -2.240000 -0.080000
v 14.340000 -2.240000 -2.800000
v 14.340000 2.240000 -2.800000
v 14.340000 2.240000 -0.080000
v 14.340000 -2.240000 -0.080000
v 13.720000 -2.480000 0.760000
v 13.720000 2.480000 0.760000
v 13.720000 2.480000 0.880000
v 13.720000 -2.480000 0.880000
v 14.280000 -2.480000 0.760000
v 14.280000 2.480000 0.760000
v 14.280000 2.480000 0.880000
v 14.280000 -2.480000 0.880000
v -0.280000 -1.410000 0.010000
v -0.280000 -0.810000 0.010000
v -0.280000 -0.810000 0.060000
v -0.280000 -1.410000 0.060000
v 0.280000 -1.410000 0.010000
v 0.280000 -0.810000 0.010000
v 0.280000 -0.810000 0.060000
v 0.280000 -1.410000 0.060000
v -0.280000 -0.570000 0.010000
v -0.280000 0.030000 0.010000
v -0.280000 0.030000 0.060000
v -0.280000 -0.570000 0.060000
v 0.280000 -0.570000 0.010000
v 0.280000 0.030000 0.010000
v 0.280000 0.030000 0.060000
v 0.280000 -0.570000 0.060000
v -0.280000 0.070000 0.010000
v -0.280000 0.670000 0.010000
v -0.280000 0.670000 0.060000
v -0.280000 0.070000 0.060000
v 0.280000 0.070000 0.010000
v 0.280000 0.670000 0.010000
v 0.280000 0.670000 0.060000
v 0.280000 0.070000 0.060000
v -0.280000 0.910000 0.010000
v -0.280000 1.510000 0.010000
v -0.280000 1.510000 0.060000
v -0.280000 0.910000 0.060000
v 0.280000 0.910000 0.010000
v 0.280000 1.510000 0.010000
v 0.280000 1.510000 0.060000
v 0.280000 0.910000 0.060000
v 2.520000 -1.410000 0.010000
v 2.520000 -0.810000 0.010000
v 2.520000 -0.810000 0.060000
v 2.520000 -1.410000 0.060000
v 3.080000 -1.410000 0.010000
v 3.080000 -0.810000 0.010000
v 3.080000 -0.810000 0.060000
v 3.080000 -1.410000 0.060000
v 2.520000 -0.570000 0.010000
v 2.520000 0.030000 0.010000
v 2.520000 0.030000 0.060000
v 2.520000 -0.570000 0.060000
v 3.080000 -0.570000 0.010000
v 3.080000 0.030000 0.010000
v 3.080000 0.030000 0.060000
v 3.080000 -0.570000 0.060000
v 2.520000 0.070000 0.010000
v 2.520000 0.670000 0.010000
v 2.520000 0.670000 0.060000
v 2.520000 0.070000 0.060000
v 3.080000 0.070000 0.010000
v 3.080000 0.670000 0.010000
v 3.080000 0.670000 0.060000
v 3.080000 0.070000 0.060000
v 2.520000 0.910000 0.010000
v 2.520000 1.510000 0.010000
v 2.520000 1.510000 0.060000
v 2.520000 0.910000 0.060000
v 3.080000 0.910000 0.010000
v 3.080000 1.510000 0.010000
v 3.080000 1.510000 0.060000
v 3.080000 0.910000 0.060000
v 5.320000 -1.410000 0.010000
v 5.320000 -0.810000 0.010000
v 5.320000 -0.810000 0.060000
v 5.320000 -1.410000 0.060000
v 5.880000 -1.410000 0.010000
v 5.880000 -0.810000 0.010000
v 5.880000 -0.810000 0.060000
v 5.880000 -1.410000 0.060000
v 5.320000 -0.570000 0.010000
v 5.320000 0.030000 0.010000
v 5.320000 0.030000 0.060000
v 5.320000 -0.570000 0.060000
v 5.880000 -0.570000 0.010000
v 5.880000 0.030000 0.010000
v 5.880000 0.030000 0.060000
v 5.880000 -0.570000 0.060000
v 5.320000 0.070000 0.010000
v 5.320000 0.670000 0.010000
v 5.320000 0.670000 0.060000
v 5.320000 0.070000 0.060000
v 5.880000 0.070000 0.010000
v 5.880000 0.670000 0.010000
v 5.880000 0.670000 0.060000
v 5.880000 0.070000 0.060000
v 5.320000 0.910000 0.010000
v 5.320000 1.510000 0.010000
v 5.320000 1.510000 0.060000
v 5.320000 0.910000 0.060000
v 5.880000 0.910000 0.010000
v 5.880000 1.510000 0.010000
v 5.880000 1.510000 0.060000
v 5.880000 0.910000 0.060000
v 8.120000 -1.410000 0.010000
v 8.120000 -0.810000 0.010000
v 8.120000 -0.810000 0.060000
v 8.120000 -1.410000 0.060000
v 8.680000 -1.410000 0.010000
v 8.680000 -0.810000 0.010000
v 8.680000 -0.810000 0.060000
v 8.680000 -1.410000 0.060000
v 8.120000 -0.570000 0.010000
v 8.120000 0.030000 0.010000
v 8.120000 0.030000 0.060000
v 8.120000 -0.570000 0.060000
v 8.680000 -0.570000 0.010000
v 8.680000 0.030000 0.010000
v 8.680000 0.030000 0.060000
v 8.680000 -0.570000 0.060000
v 8.120000 0.070000 0.010000
v 8.120000 0.670000 0.010000
v 8.120000 0.670000 0.060000
v 8.120000 0.070000 0.060000
v 8.680000 0.070000 0.010000
v 8.680000 0.670000 0.010000
v 8.680000 0.670000 0.060000
v 8.680000 0.070000 0.060000
v 8.120000 0.910000 0.010000
v 8.120000 1.510000 0.010000
v 8.120000 1.510000 0.060000
v 8.120000 0.910000 0.060000
v 8.680000 0.910000 0.010000
v 8.680000 1.510000 0.010000
v 8.680000 1.510000 0.060000
v 8.680000 0.910000 0.060000
v 10.920000 -1.410000 0.010000
v 10.920000 -0.810000 0.010000
v 10.920000 -0.810000 0.060000
v 10.920000 -1.410000 0.060000
v 11.480000 -1.410000 0.010000
v 11.480000 -0.810000 0.010000
v 11.480000 -0.810000 0.060000
v 11.480000 -1.410000 0.060000
v 10.920000 -0.570000 0.010000
v 10.920000 0.030000 0.010000
v 10.920000 0.030000 0.060000
v 10.920000 -0.570000 0.060000
v 11.480000 -0.570000 0.010000
v 11.480000 0.030000 0.010000
v 11.480000 0.030000 0.060000
v 11.480000 -0.570000 0.060000
v 10.920000 0.070000 0.010000
v 10.920000 0.670000 0.010000
v 10.920000 0.670000 0.060000
v 10.920000 0.070000 0.060000
v 11.480000 0.070000 0.010000
v 11.480000 0.670000 0.010000
v 11.480000 0.670000 0.060000
v 11.480000 0.070000 0.060000
v 10.920000 0.910000 0.010000
v 10.920000 1.510000 0.010000
v 10.920000 1.510000 0.060000
v 10.920000 0.910000 0.060000
v 11.480000 0.910000 0.010000
v 11.480000 1.510000 0.010000
v 11.480000 1.510000 0.060000
v 11.480000 0.910000 0.060000
v 13.720000 -1.410000 0.010000
v 13.720000 -0.810000 0.010000
v 13.720000 -0.810000 0.060000
v 13.720000 -1.410000 0.060000
v 14.280000 -1.410000 0.010000
v 14.280000 -0.810000 0.010000
v 14.280000 -0.810000 0.060000
v 14.280000 -1.410000 0.060000
v 13.720000 -0.570000 0.010000
v 13.720000 0.030000 0.010000
v 13.720000 0.030000 0.060000
v 13.720000 -0.570000 0.060000
v 14.280000 -0.570000 0.010000
v 14.280000 0.030000 0.010000
v 14.280000 0.030000 0.060000
v 14.280000 -0.570000 0.060000
v 13.720000 0.070000 0.010000
v 13.720000 0.670000 0.010000
v 13.720000 0.670000 0.060000
v 13.720000 0.070000 0.060000
v 14.280000 0.070000 0.010000
v 14.280000 0.670000 0.010000
v 14.280000 0.670000 0.060000
v 14.280000 0.070000 0.060000
v 13.720000 0.910000 0.010000
v 13.720000 1.510000 0.010000
v 13.720000 1.510000 0.060000
v 13.720000 0.910000 0.060000
v 14.280000 0.910000 0.010000
v 14.280000 1.510000 0.010000
v 14.280000 1.510000 0.060000
v 14.280000 0.910000 0.060000
v -0.440000 -1.120000 -0.520000
v -0.440000 1.120000 -0.520000
v -0.440000 1.120000 -0.320000
v -0.440000 -1.120000 -0.320000
v 0.440000 -1.120000 -0.520000
v 0.440000 1.120000 -0.520000
v 0.440000 1.120000 -0.320000
v 0.440000 -1.120000 -0.320000
v 6.560000 -1.120000 -0.520000
v 6.560000 1.120000 -0.520000
v 6.560000 1.120000 -0.320000
v 6.560000 -1.120000 -0.320000
v 7.440000 -1.120000 -0.520000
v 7.440000 1.120000 -0.520000
v 7.440000 1.120000 -0.320000
v 7.440000 -1.120000 -0.320000
v 13.560000 -1.120000 -0.520000
v 13.560000 1.120000 -0.520000
v 13.560000 1.120000 -0.320000
v 13.560000 -1.120000 -0.320000
v 14.440000 -1.120000 -0.520000
v 14.440000 1.120000 -0.520000
v 14.440000 1.120000 -0.320000
v 14.440000 -1.120000 -0.320000
f 1 5 6 2
f 3 4 8 7
f 1 3 7 5
f 2 6 8 4
f 5 9 10 6
f 7 8 12 11
f 5 7 11 9
f 6 10 12 8
f 9 13 14 10
f 11 12 16 15
f 9 11 15 13
f 10 14 16 12
f 13 17 18 14
f 15 16 20 19
f 13 15 19 17
f 14 18 20 16
f 17 21 22 18
f 19 20 24 23
f 17 19 23 21
f 18 22 24 20
f 21 25 26 22
f 23 24 28 27
f 21 23 27 25
f 22 26 28 24
f 25 29 30 26
f 27 28 32 31
f 25 27 31 29
f 26 30 32 28
f 29 33 34 30
f 31 32 36 35
f 29 31 35 33
f 30 34 36 32
f 33 37 38 34
f 35 36 40 39
f 33 35 39 37
f 34 38 40 36
f 37 41 42 38
f 39 40 44 43
f 37 39 43 41
f 38 42 44 40
f 45 49 51 47
f 46 48 52 50
f 47 51 52 48
f 45 46 50 49
f 49 53 55 51
f 50 52 56 54
f 51 55 56 52
f 49 50 54 53
f 53 57 59 55
f 54 56 60 58
f 55 59 60 56
f 53 54 58 57
f 57 61 63 59
f 58 60 64 62
f 59 63 64 60
f 57 58 62 61
f 61 65 67 63
f 62 64 68 66
f 63 67 68 64
f 61 62 66 65
f 69 72 71 70
f 73 74 75 76
f 69 70 74 73
f 71 72 76 75
f 69 73 76 72
f 70 71 75 74
f 77 80 79 78
f 81 82 83 84
f 77 78 82 81
f 79 80 84 83
f 77 81 84 80
f 78 79 83 82
f 85 88 87 86
f 89 90 91 92
f 85 86 90 89
f 87 88 92 91
f 85 89 92 88
f 86 87 91 90
f 93 96 95 94
f 97 98 99 100
f 93 94 98 97
f 95 96 100 99
f 93 97 100 96
f 94 95 99 98
f 101 104 103 102
f 105 106 107 108
f 101 102 106 105
f 103 104 108 107
f 101 105 108 104
f 102 103 107 106
f 109 112 111 110
f 113 114 115 116
f 109 110 114 113
f 111 112 116 115
f 109 113 116 112
f 110 111 115 114
f 117 120 119 118
f 121 122 123 124
f 117 118 122 121
f 119 120 124 123
f 117 121 124 120
f 118 119 123 122
f 125 129 131 127
f 126 128 132 130
f 127 131 132 128
f 125 126 130 129
f 129 133 135 131
f 130 132 136 134
f 131 135 136 132
f 129 130 134 133
f 133 137 139 135
f 134 136 140 138
f 135 139 140 136
f 133 134 138 137
f 137 141 143 139
f 138 140 144 142
f 139 143 144 140
f 137 138 142 141
f 141 145 147 143
f 142 144 148 146
f 143 147 148 144
f 141 142 146 145
f 149 152 151 150
f 153 154 155 156
f 149 150 154 153
f 151 152 156 155
f 149 153 156 152
f 150 151 155 154
f 157 160 159 158
f 161 162 163 164
f 157 158 162 161
f 159 160 164 163
f 157 161 164 160
f 158 159 163 162
f 165 168 167 166
f 169 170 171 172
f 165 166 170 169
f 167 168 172 171
f 165 169 172 168
f 166 167 171 170
f 173 176 175 174
f 177 178 179 180
f 173 174 178 177
f 175 176 180 179
f 173 177 180 176
f 174 175 179 178
f 181 184 183 182
f 185 186 187 188
f 181 182 186 185
f 183 184 188 187
f 181 185 188 184
f 182 183 187 186
f 189 192 191 190
f 193 194 195 196
f 189 190 194 193
f 191 192 196 195
f 189 193 196 192
f 190 191 195 194
f 197 200 199 198
f 201 202 203 204
f 197 198 202 201
f 199 200 204 203
f 197 201 204 200
f 198 199 203 202
f 205 209 211 207
f 206 208 212 210
f 207 211 212 208
f 205 206 210 209
f 209 213 215 211
f 210 212 216 214
f 211 215 216 212
f 209 210 214 213
f 213 217 219 215
f 214 216 220 218
f 215 219 220 216
f 213 214 218 217
f 217 221 223 219
f 218 220 224 222
f 219 223 224 220
f 217 218 222 221
f 221 225 227 223
f 222 224 228 226
f 223 227 228 224
f 221 222 226 225
f 229 232 231 230
f 233 234 235 236
f 229 230 234 233
f 231 232 236 235
f 229 233 236 232
f 230 231 235 234
f 237 240 239 238
f 241 242 243 244
f 237 238 242 241
f 239 240 244 243
f 237 241 244 240
f 238 239 243 242
f 245 248 247 246
f 249 250 251 252
f 245 246 250 249
f 247 248 252 251
f 245 249 252 248
f 246 247 251 250
f 253 256 255 254
f 257 258 259 260
f 253 254 258 257
f 255 256 260 259
f 253 257 260 256
f 254 255 259 258
f 261 264 263 262
f 265 266 267 268
f 261 262 266 265
f 263 264 268 267
f 261 265 268 264
f 262 263 267 266
f 269 272 271 270
f 273 274 275 276
f 269 270 274 273
f 271 272 276 275
f 269 273 276 272
f 270 271 275 274
f 277 280 279 278
f 281 282 283 284
f 277 278 282 281
f 279 280 284 283
f 277 281 284 280
f 278 279 283 282
f 285 289 291 287
f 286 288 292 290
f 287 291 292 288
f 285 286 290 289
f 289 293 295 291
f 290 292 296 294
f 291 295 296 292
f 289 290 294 293
f 293 297 299 295
f 294 296 300 298
f 295 299 300 296
f 293 294 298 297
f 297 301 303 299
f 298 300 304 302
f 299 303 304 300
f 297 298 302 301
f 301 305 307 303
f 302 304 308 306
f 303 307 308 304
f 301 302 306 305
f 309 312 311 310
f 313 314 315 316
f 309 310 314 313
f 311 312 316 315
f 309 313 316 312
f 310 311 315 314
f 317 320 319 318
f 321 322 323 324
f 317 318 322 321
f 319 320 324 323
f 317 321 324 320
f 318 319 323 322
f 325 328 327 326
f 329 330 331 332
f 325 326 330 329
f 327 328 332 331
f 325 329 332 328
f 326 327 331 330
f 333 336 335 334
f 337 338 339 340
f 333 334 338 337
f 335 336 340 339
f 333 337 340 336
f 334 335 339 338
f 341 344 343 342
f 345 346 347 348
f 341 342 346 345
f 343 344 348 347
f 341 345 348 344
f 342 343 347 346
f 349 352 351 350
f 353 354 355 356
f 349 350 354 353
f 351 352 356 355
f 349 353 356 352
f 350 351 355 354
f 357 360 359 358
f 361 362 363 364
f 357 358 362 361
f 359 360 364 363
f 357 361 364 360
f 358 359 363 362
f 365 368 367 366
f 369 370 371 372
f 365 366 370 369
f 367 368 372 371
f 365 369 372 368
f 366 367 371 370
f 373 376 375 374
f 377 378 379 380
f 373 374 378 377
f 375 376 380 379
f 373 377 380 376
f 374 375 379 378
f 381 384 383 382
f 385 386 387 388
f 381 382 386 385
f 383 384 388 387
f 381 385 388 384
f 382 383 387 386
f 389 392 391 390
f 393 394 395 396
f 389 390 394 393
f 391 392 396 395
f 389 393 396 392
f 390 391 395 394
f 397 400 399 398
f 401 402 403 404
f 397 398 402 401
f 399 400 404 403
f 397 401 404 400
f 398 399 403 402
f 405 408 407 406
f 409 410 411 412
f 405 406 410 409
f 407 408 412 411
f 405 409 412 408
f 406 407 411 410
f 413 416 415 414
f 417 418 419 420
f 413 414 418 417
f 415 416 420 419
f 413 417 420 416
f 414 415 419 418
f 421 424 423 422
f 425 426 427 428
f 421 422 426 425
f 423 424 428 427
f 421 425 428 424
f 422 423 427 426
f 429 432 431 430
f 433 434 435 436
f 429 430 434 433
f 431 432 436 435
f 429 433 436 432
f 430 431 435 434
f 437 440 439 438
f 441 442 443 444
f 437 438 442 441
f 439 440 444 443
f 437 441 444 440
f 438 439 443 442
f 445 448 447 446
f 449 450 451 452
f 445 446 450 449
f 447 448 452 451
f 445 449 452 448
f 446 447 451 450
f 453 456 455 454
f 457 458 459 460
f 453 454 458 457
f 455 456 460 459
f 453 457 460 456
f 454 455 459 458
f 461 464 463 462
f 465 466 467 468
f 461 462 466 465
f 463 464 468 467
f 461 465 468 464
f 462 463 467 466
f 469 472 471 470
f 473 474 475 476
f 469 470 474 473
f 471 472 476 475
f 469 473 476 472
f 470 471 475 474
f 477 480 479 478
f 481 482 483 484
f 477 478 482 481
f 479 480 484 483
f 477 481 484 480
f 478 479 483 482
f 485 488 487 486
f 489 490 491 492
f 485 486 490 489
f 487 488 492 491
f 485 489 492 488
f 486 487 491 490
f 493 496 495 494
f 497 498 499 500
f 493 494 498 497
f 495 496 500 499
f 493 497 500 496
f 494 495 499 498
f 501 504 503 502
f 505 506 507 508
f 501 502 506 505
f 503 504 508 507
f 501 505 508 504
f 502 503 507 506
f 509 512 511 510
f 513 514 515 516
f 509 510 514 513
f 511 512 516 515
f 509 513 516 512
f 510 511 515 514
f 517 520 519 518
f 521 522 523 524
f 517 518 522 521
f 519 520 524 523
f 517 521 524 520
f 518 519 523 522
f 525 528 527 526
f 529 530 531 532
f 525 526 530 529
f 527 528 532 531
f 525 529 532 528
f 526 527 531 530
f 533 536 535 534
f 537 538 539 540
f 533 534 538 537
f 535 536 540 539
f 533 537 540 536
f 534 535 539 538
f 541 544 543 542
f 545 546 547 548
f 541 542 546 545
f 543 544 548 547
f 541 545 548 544
f 542 543 547 546
f 549 552 551 550
f 553 554 555 556
f 549 550 554 553
f 551 552 556 555
f 549 553 556 552
f 550 551 555 554
f 557 560 559 558
f 561 562 563 564
f 557 558 562 561
f 559 560 564 563
f 557 561 564 560
f 558 559 563 562
f 565 568 567 566
f 569 570 571 572
f 565 566 570 569
f 567 568 572 571
f 565 569 572 568
f 566 567 571 570
f 573 576 575 574
f 577 578 579 580
f 573 574 578 577
f 575 576 580 579
f 573 577 580 576
f 574 575 579 578
f 581 584 583 582
f 585 586 587 588
f 581 582 586 585
f 583 584 588 587
f 581 585 588 584
f 582 583 587 586
f 589 592 591 590
f 593 594 595 596
f 589 590 594 593
f 591 592 596 595
f 589 593 596 592
f 590 591 595 594
f 597 600 599 598
f 601 602 603 604
f 597 598 602 601
f 599 600 604 603
f 597 601 604 600
f 598 599 603 602
f 605 608 607 606
f 609 610 611 612
f 605 606 610 609
f 607 608 612 611
f 605 609 612 608
f 606 607 611 610
f 613 616 615 614
f 617 618 619 620
f 613 614 618 617
f 615 616 620 619
f 613 617 620 616
f 614 615 619 618
f 621 624 623 622
f 625 626 627 628
f 621 622 626 625
f 623 624 628 627
f 621 625 628 624
f 622 623 627 626
f 629 632 631 630
f 633 634 635 636
f 629 630 634 633
f 631 632 636 635
f 629 633 636 632
f 630 631 635 634
f 637 640 639 638
f 641 642 643 644
f 637 638 642 641
f 639 640 644 643
f 637 641 644 640
f 638 639 643 642
f 645 648 647 646
f 649 650 651 652
f 645 646 650 649
f 647 648 652 651
f 645 649 652 648
f 646 647 651 650
f 653 656 655 654
f 657 658 659 660
f 653 654 658 657
f 655 656 660 659
f 653 657 660 656
f 654 655 659 658
f 661 664 663 662
f 665 666 667 668
f 661 662 666 665
f 663 664 668 667
f 661 665 668 664
f 662 663 667 666
f 669 672 671 670
f 673 674 675 676
f 669 670 674 673
f 671 672 676 675
f 669 673 676 672
f 670 671 675 674
f 677 680 679 678
f 681 682 683 684
f 677 678 682 681
f 679 680 684 683
f 677 681 684 680
f 678 679 683 682
f 685 688 687 686
f 689 690 691 692
f 685 686 690 689
f 687 688 692 691
f 685 689 692 688
f 686 687 691 690
f 693 696 695 694
f 697 698 699 700
f 693 694 698 697
f 695 696 700 699
f 693 697 700 696
f 694 695 699 698
f 701 704 703 702
f 705 706 707 708
f 701 702 706 705
f 703 704 708 707
f 701 705 708 704
f 702 703 707 706
f 709 712 711 710
f 713 714 715 716
f 709 710 714 713
f 711 712 716 715
f 709 713 716 712
f 710 711 715 714
f 717 720 719 718
f 721 722 723 724
f 717 718 722 721
f 719 720 724 723
f 717 721 724 720
f 718 719 723 722
